<?xml version="1.0" standalone="no"?>
<!DOCTYPE svg PUBLIC "-//W3C//DTD SVG 1.1//EN" "http://www.w3.org/Graphics/SVG/1.1/DTD/svg11.dtd" >
<svg xmlns="http://www.w3.org/2000/svg" xmlns:xlink="http://www.w3.org/1999/xlink" version="1.1">
<metadata>
Created by FontForge 20170731 at Fri Apr 23 14:41:50 2021
 By Aleksey,,,
</metadata>
<defs>
<font id="ColendraRegular" horiz-adv-x="649" >
  <font-face 
    font-family="Colendra"
    font-weight="400"
    font-stretch="normal"
    units-per-em="2048"
    panose-1="0 0 0 0 0 0 0 0 0 0"
    ascent="1638"
    descent="-410"
    cap-height="1228"
    bbox="-0.230769 -151.4 1372.12 1537.08"
    underline-thickness="102"
    underline-position="-307"
    unicode-range="U+000A-20AC"
  />
<missing-glyph horiz-adv-x="1079" 
d="M102 1434h875v-1434h-875v1434zM160 1393l379 -633l381 633h-760zM514 717l-369 614v-1231zM541 674l-379 -631h758zM565 717l371 -621v1239z" />
    <glyph glyph-name=".notdef" horiz-adv-x="1079" 
d="M102 1434h875v-1434h-875v1434zM160 1393l379 -633l381 633h-760zM514 717l-369 614v-1231zM541 674l-379 -631h758zM565 717l371 -621v1239z" />
    <glyph glyph-name=".null" horiz-adv-x="0" 
 />
    <glyph glyph-name=".null" horiz-adv-x="0" 
 />
    <glyph glyph-name="nonmarkingreturn" horiz-adv-x="682" 
 />
    <glyph glyph-name="controlLF" unicode="&#xa;" horiz-adv-x="0" 
 />
    <glyph glyph-name="controlCR" unicode="&#xd;" horiz-adv-x="0" 
 />
    <glyph glyph-name="space" unicode=" " horiz-adv-x="614" 
 />
    <glyph glyph-name="exclam" unicode="!" horiz-adv-x="364" 
d="M207 119q31 -20 39 -50q13 -45 -22 -62q-23 -11 -46 -6q-14 2 -23 8l-1 1q-2 0 -2 1q-35 21 -36 58q0 11 5 17q2 30 22 42q27 17 64 -9zM257 1228v-11q-3 -35 -13 -226q-6 -110 -9 -227q-3 -74 -5 -226q-1 -76 3 -227q1 -21 -13.5 -36t-35.5 -16t-36.5 13.5t-16.5 35.5v3
q4 151 3 227q-2 151 -5 226q-3 117 -9 227q-10 190 -13 226q-2 32 18 55.5t51 25.5q32 2 55.5 -18.5t25.5 -51.5z" />
    <glyph glyph-name="quotedbl" unicode="&#x22;" horiz-adv-x="368" 
d="M231 1117q8 26 33.5 31t44 -12.5t10.5 -43.5q-25 -82 -69 -162q-8 -15 -22 -20t-26.5 -0.5t-23.5 13.5t-13 23.5t6 29.5q37 68 60 141zM72 1102q1 28 24.5 39.5t46 0t21.5 -39.5q-3 -67 -24 -130q-9 -26 -34.5 -30.5t-44 12.5t-9.5 43q19 53 20 105z" />
    <glyph glyph-name="quotedbl" unicode="&#x201d;" horiz-adv-x="368" 
d="M231 1117q8 26 33.5 31t44 -12.5t10.5 -43.5q-25 -82 -69 -162q-8 -15 -22 -20t-26.5 -0.5t-23.5 13.5t-13 23.5t6 29.5q37 68 60 141zM72 1102q1 28 24.5 39.5t46 0t21.5 -39.5q-3 -67 -24 -130q-9 -26 -34.5 -30.5t-44 12.5t-9.5 43q19 53 20 105z" />
    <glyph glyph-name="quotedbl" unicode="&#x201c;" horiz-adv-x="368" 
d="M231 1117q8 26 33.5 31t44 -12.5t10.5 -43.5q-25 -82 -69 -162q-8 -15 -22 -20t-26.5 -0.5t-23.5 13.5t-13 23.5t6 29.5q37 68 60 141zM72 1102q1 28 24.5 39.5t46 0t21.5 -39.5q-3 -67 -24 -130q-9 -26 -34.5 -30.5t-44 12.5t-9.5 43q19 53 20 105z" />
    <glyph glyph-name="numbersign" unicode="#" horiz-adv-x="829" 
d="M708 784q17 0 29.5 -12.5t12.5 -29.5t-12 -29.5t-29 -12.5h-1l-117 1l-22 -114l-31 -165q96 0 123 -2q15 -2 25 -13.5t9 -26.5q-1 -13 -10.5 -22.5t-23.5 -10.5q-23 -2 -138 -2l-6 -33l-54 -274q-2 -13 -13 -20t-24 -5t-20.5 12.5t-5.5 23.5l46 276l3 21q-42 0 -64 1
l-106 2q-2 -6 -4.5 -18.5t-3.5 -19.5l-54 -276q-3 -17 -17.5 -27t-31.5 -7t-27 17.5t-7 31.5v1l1 1q9 35 64 274q1 4 2.5 12.5t2.5 12.5l-96 3q-12 1 -20.5 10t-7.5 21q1 11 9 19t19 9q16 1 34.5 1.5t41.5 1t35 0.5q6 31 19 92.5t20 92.5q4 17 11.5 51.5t10.5 51.5
q-90 -2 -135 -4q-17 -1 -30 11t-14 29t11 30t29 14h4q47 -2 141 -4h9q13 58 20 97q38 184 55 276q3 17 17.5 26.5t31.5 6.5t26.5 -17.5t6.5 -31.5v-2q-34 -141 -63 -274q-3 -14 -9 -41t-9 -41q36 0 55 1q64 2 97 2l15 94q32 184 50 275q4 17 18.5 27t31.5 6q16 -3 26 -17
t7 -31q-14 -84 -49 -275l-15 -78zM385 420q26 1 77 1l30 180l17 101q-55 0 -83 1q-24 2 -72 2q-5 -20 -13 -59.5t-12 -59.5l-36 -168z" />
    <glyph glyph-name="dollar" unicode="$" horiz-adv-x="677" 
d="M571 526q14 -63 12 -128q-2 -73 -15 -129q-17 -73 -44 -121q-20 -34 -37 -55q-23 -28 -45 -46q-29 -24 -55 -37q-30 -16 -62 -23q-10 -3 -31 -5q-1 -13 -3 -43.5t-3 -45.5q-1 -16 -12.5 -27t-27.5 -11h-1q-17 1 -28.5 13t-10.5 28t3 49.5t3 47.5q-12 6 -18 10
q-49 32 -80 103q-25 58 -31 125q-1 11 -1 32q0 1 0.5 4t0.5 5q0 1 3 10q5 10 13 14q12 6 18 6q10 0 18 -4q7 -2 15 -12q4 -6 5 -9t1 -9q0 -65 22 -122q14 -34 31 -53q4 -6 10 -10q19 237 60 621q-47 36 -78 87q-34 55 -43 120q-9 62 10 126q21 66 61 113q48 56 104 75
q1 0 3 0.5l2 0.5q3 23 5.5 45.5t3.5 32t1 10.5q2 17 15 27t29 8q17 -2 27 -15t8 -29q0 -1 -1 -9.5t-3.5 -27.5t-4.5 -39q59 -15 96 -35q7 -4 14 -14q5 -8 5 -20q-2 -22 -19 -33q-11 -2 -16 -0.5t-25 10.5t-34 13l-29 10q-1 -12 -46 -416q7 -3 22.5 -10t23.5 -11
q37 -15 58 -30q29 -19 50 -45q21 -27 33 -59q12 -31 18 -63zM244 883q16 -50 47 -84q8 72 21 187.5t17 150.5q-17 -11 -33 -29q-42 -47 -56 -106q-14 -61 4 -119zM497 304q10 60 7 126q-2 32 -6 63q-5 35 -14 61q-12 35 -30 55q-16 19 -51 35q-9 4 -26 10.5t-20 7.5
q-44 -418 -58 -602q9 1 22 5q29 9 55 27q51 36 82 93q27 51 39 119z" />
    <glyph glyph-name="percent" unicode="%" horiz-adv-x="1097" 
d="M892 1281q30 -12 18 -41q-243 -630 -563 -1222q-10 -18 -27 -18h-1q-22 0 -33 18q-10 16 0 35q316 587 556 1207q6 16 21.5 21.5t28.5 -0.5zM563 714q-24 -59 -233 -461q-103 -197 -108 -210q-4 -16 -19 -16q-1 0 -3 1q-21 4 -18 22q1 9 112 222q202 387 231 457
q22 53 76 193t97.5 254t43.5 115q8 19 26 12q19 -8 12 -26q0 -1 -43.5 -115t-97.5 -254t-76 -194zM270 890q-21 -7 -45 -7q-41 0 -84 22q-54 28 -68.5 96t9.5 125q23 64 71 95t106 18q98 -21 129 -84q33 -65 -10 -157q-40 -85 -108 -108zM169 959q44 -23 81 -11q42 15 73 76
q30 64 10 104q-18 37 -87 52q-14 2 -19 2q-60 0 -88 -77q-17 -40 -9 -85t39 -61zM903 417q60 -10 93 -67.5t31 -125.5q-3 -68 -40 -112.5t-95 -49.5q-10 -1 -28 -1q-78 0 -120 43q-50 52 -38 152q10 92 70 136q52 38 127 25zM967 227q2 46 -18.5 85t-55.5 45q-49 9 -80 -14
q-36 -26 -46 -94q-9 -72 21 -103q28 -29 99 -23q25 2 42 15t24.5 31.5t10 31.5t3.5 26z" />
    <glyph glyph-name="ampersand" unicode="&#x26;" horiz-adv-x="843" 
d="M761 47q12 -23 -11 -35q-16 -10 -30 4l-1 1q-53 51 -110 117q-35 -44 -65 -68q-53 -45 -115 -59q-60 -15 -129 2q-70 17 -115 51q-28 20 -48 46q-20 27 -32 58q-23 58 -16 125q6 57 30 116q44 107 133 190q3 3 8.5 8t8.5 7q-8 16 -12 25q-26 57 -41 107q-39 128 -27 232
q9 72 37 120q36 61 100 89q28 12 63 17q4 0 10.5 1t11.5 1.5t10 0.5q21 0 33 -2q37 -5 68 -24q32 -20 51 -51q29 -47 31 -125q0 -60 -17 -119q-33 -114 -117 -201q-42 -42 -95 -71q-2 -1 -14 -8q13 -24 16 -28q18 -30 60 -86q5 -7 17 -20.5t17 -20.5l35 -43q38 -46 84 -105
v1l1 2q23 51 38 96q6 16 16 50q6 20 14 49l1 2q5 18 21 27t34 4q16 -4 25 -18t7 -31t-10 -57q-5 -23 -14 -56q-17 -56 -40 -107q-8 -17 -26 -51q68 -95 104 -163zM291 765q17 -57 42 -110q7 5 14 8q44 25 78 61q68 73 94 177q13 53 10 98q-3 54 -24 84q-22 32 -60 36
q-6 1 -22 1q-8 0 -22 -2q-23 -3 -42 -12q-38 -16 -61 -55q-22 -36 -28 -87q-6 -48 0 -99q6 -50 21 -100zM482 139q29 26 61 73q-16 20 -108 137l-33 43q-5 8 -16 23.5t-17 22.5q-30 43 -61 96q-2 3 -5.5 10t-5.5 10q-1 0 -2 -1l-2 -2q-37 -34 -65 -79t-44 -92
q-19 -54 -20 -96q-2 -53 15 -90q9 -20 23 -37t32 -29q35 -23 85 -33q44 -10 87 1q40 12 76 43z" />
    <glyph glyph-name="quotesingle" unicode="'" horiz-adv-x="251" 
d="M114 1092q8 26 33.5 31t44 -12t10.5 -43q-24 -81 -70 -163q-8 -15 -22 -20t-26.5 -0.5t-23.5 13.5t-13 23.5t6 29.5q40 72 61 141z" />
    <glyph glyph-name="quotesingle" unicode="&#x2019;" horiz-adv-x="251" 
d="M114 1092q8 26 33.5 31t44 -12t10.5 -43q-24 -81 -70 -163q-8 -15 -22 -20t-26.5 -0.5t-23.5 13.5t-13 23.5t6 29.5q40 72 61 141z" />
    <glyph glyph-name="quotesingle" unicode="&#x2018;" horiz-adv-x="251" 
d="M114 1092q8 26 33.5 31t44 -12t10.5 -43q-24 -81 -70 -163q-8 -15 -22 -20t-26.5 -0.5t-23.5 13.5t-13 23.5t6 29.5q40 72 61 141z" />
    <glyph glyph-name="parenleft" unicode="(" horiz-adv-x="536" 
d="M444 70q16 -3 26 -16q9 -13 8 -29q-2 -17 -17 -26l-6 -3l-6 -2l-11 -5q-50 -19 -100 -3q-43 12 -85 52q-31 30 -55 81q-16 37 -32 92q-22 74 -36 190q-10 79 -17 193q-13 205 10 387q8 66 16 97q13 50 35 91q2 3 7 10t7 11q5 7 15 19q21 21 40 30q43 23 98 11
q17 -4 23 -17t1 -27t-17 -22q-1 0 -3.5 -1t-3.5 -1q-4 -2 -7 -2h-7q-1 0 -3 0.5t-3 0.5q-26 5 -45 -3q-19 -7 -35 -28q-22 -31 -35 -87q-9 -39 -14 -95l-8 -97q-4 -64 -5 -96q-3 -90 2 -193q4 -91 20 -192q8 -50 18 -95q2 -12 11 -47q7 -29 14 -46q19 -52 42 -85
q29 -44 66 -58q25 -7 43 -2q4 1 10 3q8 2 11 4q1 0 2 1t3 2q1 1 3.5 2t3.5 1q2 0 4 0.5t4 0.5t4 -0.5t4 -0.5z" />
    <glyph glyph-name="parenright" unicode=")" horiz-adv-x="532" 
d="M412 1052q4 -31 8 -97q5 -86 2 -194q-2 -66 -4 -97v10q0 -4 -0.5 -12t-0.5 -12q0 2 0.5 7t0.5 7q0 -3 -1 -9.5t-1 -9.5v-13l-3 -39q-1 -4 -1 -12.5t-1 -12.5q-4 -67 -7 -97q-4 -48 -12 -96q-16 -104 -54 -188q-21 -44 -58 -80q-41 -39 -86 -50q-54 -15 -101 5l-11 5
q-8 4 -12 7q-15 11 -15 27q0 14 11 27q11 12 26 14q10 0 15 -2q1 0 3.5 -1t3.5 -2l5 -3q7 -3 21 -7q21 -6 44 2q34 12 66 61q21 34 39 87q6 19 23 93q19 90 28 190q3 30 7 97q3 48 3 96q1 90 -5 193l-8 96q-6 64 -13 95q-12 55 -35 85q-15 20 -35 27q-19 7 -43 2
q-17 -4 -29 5q-14 10 -17 24q-4 17 4 29q10 14 25 16q53 11 99 -13q19 -10 40 -31q1 -1 7 -8t9 -11q2 -4 6.5 -11t6.5 -10q21 -39 35 -93q6 -24 15 -96z" />
    <glyph glyph-name="asterisk" unicode="*" horiz-adv-x="563" 
d="M480 1069q16 -4 22.5 -18t2.5 -28q-8 -25 -30 -25q-2 0 -10 2q-50 14 -101 22q9 -12 28 -35.5t29 -35.5q12 -15 6 -33q-9 -21 -30 -24h-5q-16 0 -26 13q-8 9 -23.5 28t-22.5 29q-1 -12 -3 -36.5t-3 -36.5q-2 -20 -21 -30q-10 -4 -17 -4q-10 0 -21 7q-14 9 -12 28l6 69
q-41 -39 -72 -40h-1q-23 0 -33 25l-2 5q-9 23 16 40l4 2q11 7 23 5l28 28l4 4q-9 0 -27 -2q-2 0 -8 -0.5t-10 -0.5q-31 0 -48 -5q-2 -2 -8 -6l-2 -1q-28 -17 -49 9l-2 3q-8 9 -6 24q4 18 15 25q40 26 131 26l-60 66q-22 24 2 46q30 25 53 -1q7 -8 19.5 -21t22.5 -24.5
t19 -21.5q1 34 1 101q0 16 10.5 25.5t24.5 9.5q15 0 25.5 -9.5t10.5 -25.5q0 -70 -1 -105q6 7 19.5 21.5t20.5 21.5l1 2q23 24 48 1q11 -10 12.5 -23.5t-9.5 -27.5q-7 -8 -21.5 -23.5t-21.5 -22.5q54 -8 102 -22z" />
    <glyph glyph-name="plus" unicode="+" horiz-adv-x="595" 
d="M525 572q19 -14 16 -34q-2 -15 -19 -23q-76 -32 -189 -30q0 -3 -1 -9t-1 -9q-7 -94 -5 -157q1 -16 -8.5 -24.5t-23.5 -9.5h-2q-14 0 -25 9t-12 25q-2 54 6 158q0 3 0.5 8.5t0.5 8.5q-58 -2 -174 -15h-5q-13 0 -23 12q-12 17 -3 37q7 19 30 22q6 1 16 2t16 2q86 11 147 12
v61q0 78 1 93q2 20 21 30q20 10 38 -2q14 -9 12 -29q-1 -15 -1 -92v-62q98 -2 151 20q21 8 37 -4z" />
    <glyph glyph-name="comma" unicode="," horiz-adv-x="186" 
d="M131 124q15 -109 8 -155q-10 -65 -54 -90q-15 -8 -29.5 -6t-23.5 12.5t-13.5 23t0.5 26.5t20 22q11 6 11 63q0 41 -6 80q-5 35 28 51q31 16 49 -5q8 -8 10 -22z" />
    <glyph glyph-name="hyphen" unicode="-" horiz-adv-x="534" 
d="M471 636q15 1 24 -8.5t10 -22.5q1 -15 -7.5 -27t-25.5 -13q-128 -10 -239 -10q-95 0 -171 8q-16 1 -25.5 14t-7.5 28q4 31 34 28q148 -15 408 3z" />
    <glyph glyph-name="period" unicode="." horiz-adv-x="206" 
d="M167 69q13 -44 -22 -61q-23 -11 -46 -6q-14 2 -23 8l-1 1q-1 1 -2 1q-35 21 -36 57q0 11 5 17q2 30 22 42q27 17 64 -8q30 -20 39 -51z" />
    <glyph glyph-name="slash" unicode="/" horiz-adv-x="708" 
d="M656 1302q30 -12 18 -41q-243 -630 -563 -1222q-10 -18 -27 -18h-1q-22 0 -33 18q-10 16 0 35q316 587 556 1207q6 16 21.5 21.5t28.5 -0.5z" />
    <glyph glyph-name="zero" unicode="0" horiz-adv-x="690" 
d="M575 751q6 -69 8 -170q2 -90 -4 -169q-16 -195 -85 -327q-25 -45 -55 -66q-21 -14 -41 -18t-44 3q-16 4 -39 20q-14 10 -32 29q-24 27 -49 71q-78 145 -111 320q-33 174 -18 340q8 91 29 168q8 33 26 81q18 50 36 79q10 20 24 36q9 12 31 32q37 33 80 39l11 2h12h5l7 -1
q6 -2 13 -5q3 -1 8.5 -2.5t8.5 -2.5q34 -14 64 -55q21 -30 40 -75q58 -142 75 -329zM317 1129q-30 -18 -53 -58q-16 -29 -32 -76q-13 -38 -24 -80q-10 -37 -16 -82q-12 -86 -11 -167t14 -167q27 -177 98 -319q21 -45 42 -70q14 -18 28 -26q16 -10 29 -4q16 7 26 23t18 35
q10 26 14 39l13 40q43 139 45 331q0 75 -5 168q-5 85 -21 167q-4 21 -19 82q-11 42 -24 80q-17 45 -37 71q-15 19 -28 25h-2q-8 -2 -20 -2l-9 -1l-9 -2l-5 -1l-4 -2z" />
    <glyph glyph-name="one" unicode="1" horiz-adv-x="514" 
d="M371 70q18 5 29.5 -7.5t8 -29t-21.5 -21.5q-79 -20 -155 -7q-18 3 -21.5 19t8 29.5t29.5 10.5q2 0 7 -1t8 -1q0 155 7 372q9 295 31 566q-7 -14 -23 -42q-44 -78 -69 -115q-50 -74 -78 -109q-11 -15 -28 -13q-14 1 -26 15q-9 12 -9 27q0 8 3 14l3 6q2 4 4 6q52 64 60 76
q58 79 103 165q3 5 8.5 17t8.5 17q2 5 8 16t8 17l9 21q29 68 35 85q0 1 0.5 4t0.5 4v6l4 -1l1 3l3 6q1 1 2 2.5t1 2.5q9 9 22 11q16 2 25 -6q10 -7 10 -23v-5h3l-2 -6q0 -1 -1 -2.5t-1 -2.5l-4 -81q0 -2 -15 -389q-10 -262 -13 -389q0 -22 -1 -61.5t-1.5 -71.5t-0.5 -61v-77
q12 2 20 4z" />
    <glyph glyph-name="two" unicode="2" horiz-adv-x="608" 
d="M507 1094q8 -43 -2 -116q-14 -91 -19 -113q-44 -215 -141 -438q-80 -185 -178 -355q120 3 227 16l14 1q0 3 0.5 8t0.5 7v9v2q2 21 18 31l6 3q10 4 21 1q6 -2 9 -4q12 -8 17 -22v-2q2 -5 2 -16q0 -7 -3 -13v-58q1 -16 -9.5 -25t-24.5 -9h-1q-23 0 -32 18q-61 -8 -136 -13
q-96 -6 -145 -6h-18h-10q-4 0 -10 2q-21 8 -23 33q0 9 5 19l9 16l19 31q74 129 134 257q134 286 185 548q6 28 13 71q7 42 7 72q0 39 -15 68q-9 17 -21 27q-15 11 -30 17q-33 12 -69 4q-30 -7 -58 -36q-48 -54 -36 -132q3 -19 -9 -31q-11 -13 -29 -13q-9 0 -16 4
q-8 5 -11 13q0 2 -1 4l-2 4v7l-2 15q-3 61 18 115q15 33 29 51q9 12 19 22l12 9q1 1 5 4.5t6 4.5q50 34 112 31q65 -3 108 -41q43 -37 55 -102z" />
    <glyph glyph-name="three" unicode="3" horiz-adv-x="618" 
d="M500 467q14 -46 16 -98q3 -98 -31 -194q-22 -61 -44 -90q-30 -41 -77 -65q-47 -25 -100 -19q-55 8 -93 42q-38 32 -60 81q-20 45 -25 98q-2 16 -2 25v6q0 1 0.5 3.5t0.5 4.5q1 7 6 15q8 13 27 17q17 3 31 -6q15 -9 17 -28q1 -6 1 -13v-12q1 -21 8 -46q13 -49 45 -78
q18 -16 37 -23q26 -7 42 -5q40 6 72 48q26 36 40 83q31 100 20 187q-4 33 -9 46q-8 24 -19 42q-26 46 -62 58q-22 7 -40 1l-7 -1q-3 -1 -9 -1t-9 1l-9 3q-15 8 -21 28q-5 19 4 34q1 3 5 7l6 6q4 4 7 5q1 0 3.5 1t3.5 2q22 10 37 24q29 26 48 77q14 38 23 91q6 46 6 95
q0 16 -2 48q-1 16 -5 48q-7 57 -22 91q-20 51 -57 59q-19 4 -38 -8q-14 -8 -31 -31q-24 -34 -41 -84q-5 -14 -14 -20q-13 -9 -23 -9q-14 0 -23 5q-13 7 -18 18t-2 25q1 4 3 10l3 9q8 24 13 35q15 36 39 65q27 34 58 50q36 19 76 16q40 -2 72 -29q28 -24 46 -61
q14 -28 26 -71q19 -70 22 -146q3 -72 -11 -148q-15 -84 -51 -139q-10 -16 -28 -36q41 -20 73 -60q30 -37 46 -89z" />
    <glyph glyph-name="four" unicode="4" horiz-adv-x="622" 
d="M534 618q10 -6 15 -18q5 -11 3 -22q-2 -13 -7 -22q-8 -12 -18 -16q-12 -4 -24 -1l-5 1l-4 1l-8 3q-21 6 -42 9q6 -116 6 -118q3 -88 1 -197q-3 -97 -9 -197q-2 -18 -16 -31q-11 -10 -31 -10q-19 0 -31 15q-7 8 -8 16v6v6v4q1 16 3 48.5t3 49.5q5 86 7 196q1 87 -2 196v22
q-11 0 -35 -0.5t-36 -0.5h-66q-42 0 -69 8q-19 5 -34 17q-17 14 -23 34q-4 12 -4 18q0 1 -0.5 5t-0.5 5l-1 8l-2 33q-5 44 -4 262t1 261q-1 10 5 20t16 14q19 9 38 -3q7 -4 13 -15q3 -9 3 -10t0.5 -4t0.5 -5v-33l2 -130q4 -177 7 -262q2 -44 2 -66v-32q0 -10 1 -15
q1 -3 2.5 -8.5t1.5 -6.5t0.5 -2.5t1.5 -2.5h1q1 0 2 -1q2 -1 7 -1.5t7 -0.5q4 0 10.5 -1t11.5 -1.5t10 -0.5q21 0 65 2q20 1 61 1q-1 15 -3.5 44t-3.5 44q-2 18 10 28q12 11 29 9t26 -12q5 -5 8 -13q3 -7 3 -15l7 -88q23 -2 62 -12q2 -1 7.5 -2t8.5 -2q1 0 4 -1t4 -2t4.5 -2
t5.5 -3z" />
    <glyph glyph-name="five" unicode="5" horiz-adv-x="581" 
d="M426 671q47 -82 56 -202q7 -94 -15 -209q-9 -45 -26 -102q-21 -64 -47 -97q-39 -49 -95 -59q-31 -5 -57 2q-31 8 -51 28q-37 36 -53 97q-7 22 -10 53q0 4 -1.5 12.5t-2.5 13.5l-1 14v6v9q0 11 6 20q3 5 8 8q7 5 8 5q18 9 37 3q21 -5 29 -25q0 -1 1 -3q2 -4 2 -6l1 -5v-2
v-2l1 -13q6 -62 21 -95q12 -24 26 -29q16 -7 35 4q17 10 31 30q10 14 12 20q0 1 4 9.5t6 13.5q29 75 40 198q10 113 -17 198q-7 22 -18 46q-13 27 -23 42q-15 21 -31 30q-4 3 -16 5q-13 -3 -15 -4q-14 -8 -28 -31q-12 -19 -18 -43q-1 -2 -1 -5.5t-1 -5.5l-1 -5q0 -1 -1 -4.5
t-1 -5.5q-6 -19 -27 -30q-18 -9 -39 -3q-12 3 -19 12q-2 2 -3 4q0 1 -1 2.5t-2 2.5t-4 11q-1 4 -1 10v4v4l1 12l1 26l1 52q2 68 2 103q0 212 -22 413q-2 18 9 30t29 12q12 0 20 -4l245 -12q16 -1 25.5 -13t8.5 -27q-1 -13 -9.5 -22t-23.5 -9h-2l-213 11v-2l4 -44
q8 -98 11 -177q4 -103 3 -206q14 13 38 23q26 11 55 6q25 -4 50 -22q39 -30 69 -81z" />
    <glyph glyph-name="six" unicode="6" horiz-adv-x="624" 
d="M495 548q15 -35 25 -77q17 -76 14 -160q-4 -96 -29 -158q-33 -85 -104 -124q-36 -21 -78 -27q-43 -6 -83 7q-18 5 -38 19q-12 8 -17 13q-2 3 -7 7t-8 7q-25 28 -39 73q-18 58 -18 159q-1 71 1 212v1q-1 2 -1 6v4v3v5q0 16 3 33q7 215 27 366l12 78q5 35 17 78
q10 37 30 74q22 40 50 63q22 16 35 22q17 7 39 10q47 5 81 -11q21 -10 31 -28q0 -1 1 -2l2 -2l1 -5q3 -9 3 -11t0.5 -5t0.5 -5q0 -4 -2 -12q-5 -11 -14 -17q-5 -3 -10 -5l-5 -2q-2 -1 -5 -1q-25 -3 -37 21q-5 6 -6 15q-1 0 -2.5 0.5t-2.5 0.5q-3 0 -9.5 -0.5t-9.5 -0.5
q-8 0 -20 -2q-6 -1 -16 -7q-25 -16 -48 -59q-15 -29 -26 -74q-6 -25 -14 -77q-11 -71 -24 -284q13 9 29 15q39 15 83 12q42 -3 80 -25q37 -22 64 -53q27 -32 44 -70zM183 325q-2 -101 12 -156q13 -46 36 -67q30 -27 70 -24q36 1 71 25q29 19 49 56q18 32 24 72q5 31 5 77
q0 13 -5 78q-6 50 -12 76q-10 40 -26 70q-18 33 -48 54q-17 12 -31 17q-17 6 -35 6q-3 0 -8.5 -0.5t-8.5 -0.5q-7 -1 -16 -5q-19 -7 -29 -17q-25 -22 -30 -60l-1 -20q0 -6 -3 -14q-3 -7 -8 -12q-1 0 -1 -1l-2 -1q0 -17 -0.5 -48t-1 -56.5t-1.5 -48.5z" />
    <glyph glyph-name="seven" unicode="7" horiz-adv-x="559" 
d="M438 1235q14 3 27 -4.5t17 -21.5q3 -10 2 -13q0 -1 -0.5 -3.5t-0.5 -3.5l-2 -6l-6 -22l-11 -44q-16 -59 -44 -179q-28 -122 -54 -243q11 -4 16 -11q12 -18 2 -38q-9 -18 -30 -20h-2l-9 -48q-12 -70 -17 -90q-8 -30 -20 -90q-10 -49 -34 -181q-9 -50 -31 -181
q-3 -18 -9 -25q-11 -13 -27 -11q-15 2 -26 11q-12 10 -13 24v7v7l6 34l8 45q35 204 67 362q4 21 13.5 64.5t13.5 65.5h-8q-6 -3 -13 -3q-6 0 -9 1h-1v1h-1l-3 1q-28 11 -24 41q5 27 34 29h4v1l1 -1l35 2q45 208 109 458q-5 -1 -14.5 -3t-13.5 -3q-48 -8 -89 -11
q-45 -3 -90 0q-51 3 -89 11q-20 4 -31 22q-9 16 -4 36q5 17 20 28q16 11 35 8h4l8 -2l11 -2l22 -4q5 -1 14 -2.5t16 -2.5t14 -1q87 -9 182 4q30 4 45 7z" />
    <glyph glyph-name="eight" unicode="8" horiz-adv-x="700" 
d="M587 495q11 -59 11 -99q1 -9 0 -26.5t-1 -22.5q0 -9 -2 -25q0 -3 -0.5 -7.5t-1 -8.5t-1.5 -8q-17 -112 -65 -186q-2 -4 -30 -40q-5 -6 -17 -18l-9 -9q-1 -2 -4 -4.5t-5 -3.5q-38 -31 -93 -36q-50 -4 -98 17q-45 19 -80 59q-9 10 -29 41q-18 32 -23 44q-18 44 -28 95
q-19 101 -4 197q8 50 25 95q19 50 51 86q16 17 38 33q16 11 43 24q1 0 4 1t4 2q-18 8 -37 21q-41 30 -63 78q-21 44 -27 96q-3 24 -3 49q0 26 3 50q7 60 24 96q23 49 58 80q23 19 41 29q18 9 48 17q28 5 50 4q30 -3 49 -12q41 -17 76 -64q14 -20 25 -43q7 -15 17 -47
q14 -48 18 -97q5 -50 -3 -99q-8 -50 -32 -94q-24 -43 -56 -64q20 -10 39 -26q21 -18 34 -36q2 -3 13 -22q8 -14 11 -22q19 -44 30 -94zM383 655q-4 -4 -12 -7q-2 -1 -7 -2l-6 -1q-49 -5 -89 -32q-35 -24 -61 -73q-18 -34 -29 -91q-17 -96 5 -193q12 -52 32 -91
q25 -47 61 -72q41 -28 89 -22q45 6 79 47q30 37 47 84q15 42 25 93q9 48 9 97q0 48 -9 96t-33 90q-28 48 -67 65q-11 5 -33 13zM362 734q46 5 75 34q31 31 41 84q8 42 3 96q-5 49 -20 95q-17 52 -50 79q-20 17 -41 21q-24 5 -47 -3q-45 -12 -73 -56q-25 -36 -33 -89
q-8 -51 -1 -96q9 -55 32 -90q27 -42 71 -60q7 -3 43 -15z" />
    <glyph glyph-name="nine" unicode="9" horiz-adv-x="690" 
d="M578 578q1 -29 -2 -169q-5 -129 -12 -170q-18 -100 -68 -155q-60 -68 -149 -82q-46 -7 -86 5q-43 12 -75 43q-30 28 -46 72q-6 13 -4 23q3 13 15 20q26 15 45 -4q2 -1 4 -5q0 -1 2 -2.5t2 -2.5l2 -5l2 -5q2 -6 4 -9l5 -9q12 -19 27 -30q16 -12 36 -18t40 -6q39 0 77 23
q35 22 57 57q20 31 32 76q10 38 13 82q6 70 8 169q1 92 -5 198q-9 -12 -24 -25q-35 -33 -76 -46q-94 -30 -174 7q-39 17 -70 53q-28 31 -46 75q-30 75 -18 171q7 51 18 84q16 48 32 80q21 43 45 73q28 36 64 59q42 28 83 31q43 4 86 -19q38 -21 66 -58q24 -32 40 -76
q24 -64 33 -168l6 -84v-11q5 -12 4 -23q0 -3 -2 -7q1 -7 2 -21.5t1 -21.5q4 -84 6 -169zM492 820q-10 128 -15 159q-9 51 -21 80q-18 44 -43 68q-20 18 -32 23q-18 8 -38 6q-18 -1 -37 -11q-15 -7 -32 -23q-54 -50 -85 -139q-28 -86 -17 -162q6 -41 26 -76q14 -22 23 -32
q4 -6 15 -14l7 -5l8 -5q34 -18 77 -16q17 0 39 5q18 4 35 15q13 8 29 26q14 15 25 33q22 35 36 68z" />
    <glyph glyph-name="colon" unicode=":" horiz-adv-x="239" 
d="M144 130q31 -20 39 -50q13 -45 -22 -62q-23 -10 -45 -6q-16 2 -24 8l-2 2q-36 21 -37 57q0 10 6 17q2 30 21 42q27 17 64 -8zM90 536q-36 21 -37 57q0 9 6 17q2 30 21 42q27 17 64 -8q31 -20 39 -50q13 -45 -22 -62q-23 -10 -45 -6q-16 2 -24 8z" />
    <glyph glyph-name="semicolon" unicode=";" horiz-adv-x="239" 
d="M87 509q-35 21 -36 58q0 11 5 17q2 30 22 42q27 17 64 -9q31 -20 39 -50q13 -45 -22 -62q-23 -11 -45 -6q-16 2 -24 8q0 1 -1 1t-2 1zM82 76q-5 35 28 51q30 16 50 -4q8 -9 10 -23q15 -112 7 -160q-12 -61 -54 -85q-15 -8 -29.5 -6t-23.5 13t-13.5 23.5t0.5 26.5t20 22
q12 6 12 63q0 34 -7 79z" />
    <glyph glyph-name="less" unicode="&#x3c;" horiz-adv-x="344" 
d="M265 479q11 -9 13 -24t-7 -26q-10 -13 -28 -13q-11 0 -22 8q-154 124 -163 154q-5 15 -1 27t45 52.5t127 108.5q11 9 26 7t24 -13t7 -26t-13 -24q-99 -78 -138 -119q42 -42 130 -112z" />
    <glyph glyph-name="equal" unicode="=" horiz-adv-x="602" 
d="M523 484q15 1 24.5 -8.5t10.5 -22.5q1 -15 -8 -27t-26 -13q-115 -8 -305 -8q-91 0 -137 -1h-1q-18 0 -28 16q-11 18 -1 38q9 17 30 17q46 1 137 1q189 0 304 8zM72 552q-14 1 -21.5 11.5t-7.5 23.5t7.5 23.5t21.5 11.5v1l18 -1h1q190 0 423 15q19 2 29 -13q11 -18 1 -38
q-9 -18 -29 -20q-197 -14 -427 -14h-11h-5z" />
    <glyph glyph-name="greater" unicode="&#x3e;" horiz-adv-x="339" 
d="M284 600q1 -8 3 -14.5t-6.5 -20t-25 -31.5t-53 -49.5t-89.5 -73.5q-8 -7 -22 -7q-18 0 -28 13q-9 11 -7 26t13 24q95 75 138 120q-37 37 -130 111q-11 9 -13 24t7 26t24 13t26 -7q154 -124 163 -154z" />
    <glyph glyph-name="question" unicode="?" horiz-adv-x="679" 
d="M363 119q31 -20 39 -50q13 -45 -22 -62q-22 -11 -45 -6q-16 2 -24 8l-1 1q-2 0 -2 1q-35 21 -36 58q0 11 5 17q2 30 22 42q27 17 64 -9zM591 979q1 -9 1 -27v-52q0 -9 -2 -27t-3 -26t-3.5 -25.5t-4.5 -26.5q-18 -98 -68 -197q-23 -44 -51 -88q-9 -14 -27 -41l-26 -39
q-12 -18 -19 -36q-8 -18 -12 -39q-5 -21 -6 -43q-1 -7 -1 -22v-21v-3q0 -13 -9 -22.5t-22 -9.5q-23 0 -30 23l-6 27q-2 9 -4 27q-3 30 -2 54q2 28 9 56q7 25 21 54q23 43 48 87q26 46 43 82q41 88 58 172q3 17 7 44q0 8 2 23t2 22l2 45q0 4 -0.5 11t-0.5 11q-1 4 -1 11
t-1 10q-5 47 -20 78q-18 37 -45 56q-29 20 -66 23q-41 3 -73 -10q-2 -1 -4 -2.5t-3 -1.5l-8 -4q-3 -2 -9.5 -6t-9.5 -6q-18 -12 -33 -24q-30 -26 -45 -60q-14 -35 -12 -78q1 -39 13 -87v-1q4 -16 -4.5 -30t-24.5 -18q-15 -4 -28 4t-18 22q-19 56 -24 105q-5 65 12 115
q18 53 66 99q18 17 44 34q4 3 11.5 8t11.5 7q3 2 13 8q3 1 7 3t7 3q56 24 119 19q65 -5 116 -40q52 -36 79 -93q22 -47 31 -110z" />
    <glyph glyph-name="at" unicode="@" horiz-adv-x="759" 
d="M517 820q0 -3 -4 -40.5t-5 -57.5q-9 -113 -1 -196l3 -24q0 -2 0.5 -5.5t1.5 -5.5q2 -5 4 -7q2 1 6 7q7 10 11 20q6 14 8 22l6 24q1 3 5.5 20.5t6.5 26.5q21 96 21 195q0 97 -20 195q-14 64 -27 94q-20 50 -50 83q-18 19 -38 28q-23 10 -46 5q-23 -4 -44 -19
q-18 -13 -36 -32q-28 -30 -54 -81q-21 -41 -39 -91q-32 -87 -45 -191q-12 -95 -7 -198q1 -31 7 -98q6 -63 11 -98q9 -56 20 -97q15 -55 38 -90q31 -47 69 -70q46 -29 91 -22q27 5 44 17q1 1 4.5 3t5.5 3t5 3.5t4 3.5q9 8 17 17q3 3 7.5 9.5t6.5 9.5q1 2 5.5 9t6.5 11
q9 18 18 45q10 31 24 95l3 12q0 2 2 6l1 3q1 3 2 4q8 15 24 15q14 1 26.5 -8.5t13.5 -22.5q1 -6 -4 -25l-6 -24l-12 -48q-14 -51 -37 -92q-27 -50 -63 -76q-39 -30 -91 -38q-20 -4 -50 0q-31 5 -49 14q-46 19 -83 56t-59 81t-36 94q-23 83 -32 196q-6 66 -7 100q-2 55 1 99
q5 100 27 197q22 96 65 188q21 44 50 86q34 48 66 74q6 6 20 16q19 11 22 12q17 9 49 13q20 2 50 -5l24 -9q2 -1 5.5 -2.5t5.5 -2.5l11 -7q46 -30 72 -70q24 -36 43 -90q26 -78 38 -195q11 -99 0 -199q-8 -93 -39 -196q-9 -29 -20 -47q-12 -18 -16 -21q-14 -12 -22 -16
q-25 -15 -52 -12t-47 28q-11 15 -18 39q-28 -20 -59 -22h-11q-53 0 -89 37q-33 33 -45.5 83.5t-8.5 96.5q2 25 8.5 51.5t20 56.5t32 53.5t47 39t62.5 15.5q35 0 62 -27q13 10 27 10q18 0 29 -14q4 -5 6 -15v-15zM427 627q-6 10 -1 25q1 2 1 6q1 3 1 5q0 7 -0.5 18t-0.5 14v2
q0 8 3 16q-4 67 -28 87q-9 7 -17 7q-6 0 -18 -5q-64 -32 -73 -146q-3 -31 6 -69.5t31 -56.5q21 -17 49 -10q41 11 47 107z" />
    <glyph glyph-name="A" unicode="A" horiz-adv-x="733" 
d="M556 676q65 -350 129 -630q2 -13 -2 -22q-4 -10 -15 -15t-21 -4q-12 2 -19 10q-6 7 -8 19l-14 59q-21 93 -35 157q-7 30 -20 90.5t-19 90.5q-90 3 -199 11l-96 9q-5 -18 -15 -54.5t-15 -54.5l-44 -158l-45 -158q-5 -16 -16 -23q-13 -9 -28 -7q-14 2 -25 11q-13 11 -14 25
v7q0 1 0.5 3.5t0.5 3.5t0.5 2.5t0.5 2.5l1 5l6 20l11 39l45 158l44 158q28 106 41 159q57 225 83 318q51 183 101 313q5 14 17 21q11 7 27 7q7 0 14 -3h6q15 0 24 -12q5 -6 8 -24l3 -19l7 -40l26 -159q43 -251 55 -316zM515 513q-1 9 -5.5 26t-5.5 26q-52 253 -96 510
q-8 -23 -31 -100q-25 -81 -45 -157q-14 -53 -40 -159q-11 -45 -35 -135q28 1 63 -2l108 -6z" />
    <glyph glyph-name="A" unicode="a" horiz-adv-x="733" 
d="M556 676q65 -350 129 -630q2 -13 -2 -22q-4 -10 -15 -15t-21 -4q-12 2 -19 10q-6 7 -8 19l-14 59q-21 93 -35 157q-7 30 -20 90.5t-19 90.5q-90 3 -199 11l-96 9q-5 -18 -15 -54.5t-15 -54.5l-44 -158l-45 -158q-5 -16 -16 -23q-13 -9 -28 -7q-14 2 -25 11q-13 11 -14 25
v7q0 1 0.5 3.5t0.5 3.5t0.5 2.5t0.5 2.5l1 5l6 20l11 39l45 158l44 158q28 106 41 159q57 225 83 318q51 183 101 313q5 14 17 21q11 7 27 7q7 0 14 -3h6q15 0 24 -12q5 -6 8 -24l3 -19l7 -40l26 -159q43 -251 55 -316zM515 513q-1 9 -5.5 26t-5.5 26q-52 253 -96 510
q-8 -23 -31 -100q-25 -81 -45 -157q-14 -53 -40 -159q-11 -45 -35 -135q28 1 63 -2l108 -6z" />
    <glyph glyph-name="B" unicode="B" horiz-adv-x="634" 
d="M547 402q7 -41 8 -76q2 -38 -6 -76q-14 -79 -65 -136q-49 -54 -126 -84q-72 -27 -149 -24q-40 2 -75 10q-32 8 -37 10q-21 8 -19 33q0 10 6 19t17 11h10q2 -1 5 -1t5 -1q12 -4 18 -5h1l2 -1v23v151l1 301q0 101 1 151q2 100 2 151q2 133 -13 257q-1 1 -3 1t-3 1
q-19 10 -24 32q-2 15 1 22q1 4 5 10q2 3 7 8q6 4 8 5l7 4q1 1 5.5 3.5t7.5 3.5q59 29 117 35q66 5 120 -23q51 -26 84 -87q26 -49 39 -113q12 -59 6 -118q-6 -62 -34 -113q-29 -57 -77 -89q-9 -6 -19 -11q13 -7 26 -17q55 -43 94 -121q32 -65 47 -146zM282 719q1 1 3.5 2
t3.5 1l7 2l14 2q10 2 14 4l14 5q5 2 13 6q3 1 24 17q25 23 36 44q26 44 30 111q3 54 -15 114q-20 68 -53 98q-39 39 -101 32q-35 -3 -73 -21q1 -3 1 -8.5t1 -8.5q9 -75 12 -151q1 -28 4 -252l2 1q20 3 40 3q14 0 22 -1h1zM222 365l2 -293q72 0 134 30q71 36 103 102
q14 27 19 70q3 39 -1 74q-10 79 -38 143q-35 79 -86 114q-55 41 -133 24h-4z" />
    <glyph glyph-name="B" unicode="b" horiz-adv-x="634" 
d="M547 402q7 -41 8 -76q2 -38 -6 -76q-14 -79 -65 -136q-49 -54 -126 -84q-72 -27 -149 -24q-40 2 -75 10q-32 8 -37 10q-21 8 -19 33q0 10 6 19t17 11h10q2 -1 5 -1t5 -1q12 -4 18 -5h1l2 -1v23v151l1 301q0 101 1 151q2 100 2 151q2 133 -13 257q-1 1 -3 1t-3 1
q-19 10 -24 32q-2 15 1 22q1 4 5 10q2 3 7 8q6 4 8 5l7 4q1 1 5.5 3.5t7.5 3.5q59 29 117 35q66 5 120 -23q51 -26 84 -87q26 -49 39 -113q12 -59 6 -118q-6 -62 -34 -113q-29 -57 -77 -89q-9 -6 -19 -11q13 -7 26 -17q55 -43 94 -121q32 -65 47 -146zM282 719q1 1 3.5 2
t3.5 1l7 2l14 2q10 2 14 4l14 5q5 2 13 6q3 1 24 17q25 23 36 44q26 44 30 111q3 54 -15 114q-20 68 -53 98q-39 39 -101 32q-35 -3 -73 -21q1 -3 1 -8.5t1 -8.5q9 -75 12 -151q1 -28 4 -252l2 1q20 3 40 3q14 0 22 -1h1zM222 365l2 -293q72 0 134 30q71 36 103 102
q14 27 19 70q3 39 -1 74q-10 79 -38 143q-35 79 -86 114q-55 41 -133 24h-4z" />
    <glyph glyph-name="C" unicode="C" horiz-adv-x="593" 
d="M552 156q1 -4 2 -9.5t1 -6.5q3 -33 -10 -61q-13 -27 -39 -48q-25 -17 -55 -25q-54 -12 -119 5q-61 16 -108 49q-51 36 -74 92q-11 24 -16 57q-3 18 -7 59q-6 58 -9 117q-8 156 -10 234q-3 104 -1 235v56t0.5 63.5t3 54t7.5 60.5q11 70 46 109q19 22 48 38q26 14 57 19
q54 9 119 -13q44 -15 107 -52q19 -10 19 -32q0 -19 -15 -34q-16 -16 -38 -7l-8 4l-6 3l-13 8q-60 34 -104 43q-31 5 -53 0q-31 -7 -46 -22q-19 -18 -26 -44q-7 -21 -11 -55q-7 -92 -9 -233v-116l2 -118q2 -171 7 -233q5 -64 13 -115q1 -4 3 -13.5t3 -14.5q3 -11 8 -26
q12 -27 29 -44q19 -19 45 -31q16 -8 25 -11q18 -6 27 -8q36 -8 56 -9q31 -2 53 7q12 4 18 14q6 9 4 22q0 1 -0.5 3.5t-0.5 3.5v3l-1 5q-1 7 3 19q7 18 28 23q15 2 19 1l9 -3q7 -5 8 -6l3 -4q0 -1 1 -2l2 -2z" />
    <glyph glyph-name="C" unicode="&#xe7;" horiz-adv-x="593" 
d="M552 156q1 -4 2 -9.5t1 -6.5q3 -33 -10 -61q-13 -27 -39 -48q-25 -17 -55 -25q-54 -12 -119 5q-61 16 -108 49q-51 36 -74 92q-11 24 -16 57q-3 18 -7 59q-6 58 -9 117q-8 156 -10 234q-3 104 -1 235v56t0.5 63.5t3 54t7.5 60.5q11 70 46 109q19 22 48 38q26 14 57 19
q54 9 119 -13q44 -15 107 -52q19 -10 19 -32q0 -19 -15 -34q-16 -16 -38 -7l-8 4l-6 3l-13 8q-60 34 -104 43q-31 5 -53 0q-31 -7 -46 -22q-19 -18 -26 -44q-7 -21 -11 -55q-7 -92 -9 -233v-116l2 -118q2 -171 7 -233q5 -64 13 -115q1 -4 3 -13.5t3 -14.5q3 -11 8 -26
q12 -27 29 -44q19 -19 45 -31q16 -8 25 -11q18 -6 27 -8q36 -8 56 -9q31 -2 53 7q12 4 18 14q6 9 4 22q0 1 -0.5 3.5t-0.5 3.5v3l-1 5q-1 7 3 19q7 18 28 23q15 2 19 1l9 -3q7 -5 8 -6l3 -4q0 -1 1 -2l2 -2z" />
    <glyph glyph-name="C" unicode="&#xc7;" horiz-adv-x="593" 
d="M552 156q1 -4 2 -9.5t1 -6.5q3 -33 -10 -61q-13 -27 -39 -48q-25 -17 -55 -25q-54 -12 -119 5q-61 16 -108 49q-51 36 -74 92q-11 24 -16 57q-3 18 -7 59q-6 58 -9 117q-8 156 -10 234q-3 104 -1 235v56t0.5 63.5t3 54t7.5 60.5q11 70 46 109q19 22 48 38q26 14 57 19
q54 9 119 -13q44 -15 107 -52q19 -10 19 -32q0 -19 -15 -34q-16 -16 -38 -7l-8 4l-6 3l-13 8q-60 34 -104 43q-31 5 -53 0q-31 -7 -46 -22q-19 -18 -26 -44q-7 -21 -11 -55q-7 -92 -9 -233v-116l2 -118q2 -171 7 -233q5 -64 13 -115q1 -4 3 -13.5t3 -14.5q3 -11 8 -26
q12 -27 29 -44q19 -19 45 -31q16 -8 25 -11q18 -6 27 -8q36 -8 56 -9q31 -2 53 7q12 4 18 14q6 9 4 22q0 1 -0.5 3.5t-0.5 3.5v3l-1 5q-1 7 3 19q7 18 28 23q15 2 19 1l9 -3q7 -5 8 -6l3 -4q0 -1 1 -2l2 -2z" />
    <glyph glyph-name="C" unicode="c" horiz-adv-x="593" 
d="M552 156q1 -4 2 -9.5t1 -6.5q3 -33 -10 -61q-13 -27 -39 -48q-25 -17 -55 -25q-54 -12 -119 5q-61 16 -108 49q-51 36 -74 92q-11 24 -16 57q-3 18 -7 59q-6 58 -9 117q-8 156 -10 234q-3 104 -1 235v56t0.5 63.5t3 54t7.5 60.5q11 70 46 109q19 22 48 38q26 14 57 19
q54 9 119 -13q44 -15 107 -52q19 -10 19 -32q0 -19 -15 -34q-16 -16 -38 -7l-8 4l-6 3l-13 8q-60 34 -104 43q-31 5 -53 0q-31 -7 -46 -22q-19 -18 -26 -44q-7 -21 -11 -55q-7 -92 -9 -233v-116l2 -118q2 -171 7 -233q5 -64 13 -115q1 -4 3 -13.5t3 -14.5q3 -11 8 -26
q12 -27 29 -44q19 -19 45 -31q16 -8 25 -11q18 -6 27 -8q36 -8 56 -9q31 -2 53 7q12 4 18 14q6 9 4 22q0 1 -0.5 3.5t-0.5 3.5v3l-1 5q-1 7 3 19q7 18 28 23q15 2 19 1l9 -3q7 -5 8 -6l3 -4q0 -1 1 -2l2 -2z" />
    <glyph glyph-name="D" unicode="D" horiz-adv-x="710" 
d="M572 976q36 -93 48 -214q5 -45 5 -110q0 -72 -2 -109q-2 -40 -8 -110q-5 -65 -15 -108q-11 -58 -35 -104q-26 -49 -67 -87q-67 -61 -193 -103q-34 -12 -52 -17l-26 -7q-12 -3 -15 -3q-5 0 -7 1l-4 1h-2t-2 1q-1 0 -1 1v1q-6 -3 -14 -3q-6 0 -16 4q-16 7 -18 26
q-39 595 -35 1182q-3 2 -7 8q-11 16 -6 37q5 22 23 29q8 4 18 4h14q55 0 111 -17q105 -31 189 -116q76 -77 117 -187zM177 1209q-3 -570 33 -1136l1 1h2l26 8q70 22 103 36q53 22 93 54q44 35 68 81q20 39 31 102q7 43 11 108q4 71 5 109q2 60 -1 108q-3 56 -12 108
q-21 117 -65 204q-24 48 -57 90q-34 43 -76 72q-45 31 -94 44q-35 10 -68 11z" />
    <glyph glyph-name="D" unicode="d" horiz-adv-x="710" 
d="M572 976q36 -93 48 -214q5 -45 5 -110q0 -72 -2 -109q-2 -40 -8 -110q-5 -65 -15 -108q-11 -58 -35 -104q-26 -49 -67 -87q-67 -61 -193 -103q-34 -12 -52 -17l-26 -7q-12 -3 -15 -3q-5 0 -7 1l-4 1h-2t-2 1q-1 0 -1 1v1q-6 -3 -14 -3q-6 0 -16 4q-16 7 -18 26
q-39 595 -35 1182q-3 2 -7 8q-11 16 -6 37q5 22 23 29q8 4 18 4h14q55 0 111 -17q105 -31 189 -116q76 -77 117 -187zM177 1209q-3 -570 33 -1136l1 1h2l26 8q70 22 103 36q53 22 93 54q44 35 68 81q20 39 31 102q7 43 11 108q4 71 5 109q2 60 -1 108q-3 56 -12 108
q-21 117 -65 204q-24 48 -57 90q-34 43 -76 72q-45 31 -94 44q-35 10 -68 11z" />
    <glyph glyph-name="E" unicode="E" horiz-adv-x="585" 
d="M532 89q17 -6 25 -22q9 -18 3 -35l-1 -4l-3 -4q-3 -4 -7 -7q-6 -4 -9 -5q-1 0 -3.5 -1t-4.5 -1q-5 0 -14 -2t-13 -2q-8 -1 -25.5 -2.5t-26.5 -2.5q-58 -5 -104 -5h-53q-1 0 -21 1t-31 2q-37 4 -55 17q-11 8 -20 23q-8 15 -11 27q-10 54 -19 209l-13 207l-6 104l-5 103
q-7 193 -7 416q0 8 -0.5 25t-0.5 26q0 39 5 54q4 14 15 25.5t25 15.5q11 3 27 5q9 1 26 1q35 0 52 -1l52 -2l52 -1h52q10 0 20 -8q9 -8 11 -19t-4 -21.5t-16 -14.5q-5 -2 -21 -2h-21h-42l-83 -1l-42 -1h-10q-8 0 -11 -1q-6 -2 -10 -2h-5h-1v-8q0 -2 0.5 -6.5t0.5 -6.5l2 -26
q1 -18 3 -52q0 -9 1 -26.5t1 -25.5l3 -52q2 -31 3.5 -65.5t3 -76.5t2.5 -65q1 -44 5 -132q2 0 4.5 0.5t3.5 0.5h16h33h66h33h4h5q4 0 10 -2q11 -6 15 -13q11 -19 2 -38q-9 -21 -32 -21q-70 -2 -132 4q-4 0 -12.5 1t-12.5 1q4 -75 10 -215q7 -161 11 -207q5 -46 7 -50
q6 -14 14 -19q7 -6 22 -8q17 -3 51 -3q18 0 52 2q47 3 103 11l25 4l6 1q1 0 3.5 0.5t4.5 0.5q7 1 17 -2z" />
    <glyph glyph-name="E" unicode="e" horiz-adv-x="585" 
d="M532 89q17 -6 25 -22q9 -18 3 -35l-1 -4l-3 -4q-3 -4 -7 -7q-6 -4 -9 -5q-1 0 -3.5 -1t-4.5 -1q-5 0 -14 -2t-13 -2q-8 -1 -25.5 -2.5t-26.5 -2.5q-58 -5 -104 -5h-53q-1 0 -21 1t-31 2q-37 4 -55 17q-11 8 -20 23q-8 15 -11 27q-10 54 -19 209l-13 207l-6 104l-5 103
q-7 193 -7 416q0 8 -0.5 25t-0.5 26q0 39 5 54q4 14 15 25.5t25 15.5q11 3 27 5q9 1 26 1q35 0 52 -1l52 -2l52 -1h52q10 0 20 -8q9 -8 11 -19t-4 -21.5t-16 -14.5q-5 -2 -21 -2h-21h-42l-83 -1l-42 -1h-10q-8 0 -11 -1q-6 -2 -10 -2h-5h-1v-8q0 -2 0.5 -6.5t0.5 -6.5l2 -26
q1 -18 3 -52q0 -9 1 -26.5t1 -25.5l3 -52q2 -31 3.5 -65.5t3 -76.5t2.5 -65q1 -44 5 -132q2 0 4.5 0.5t3.5 0.5h16h33h66h33h4h5q4 0 10 -2q11 -6 15 -13q11 -19 2 -38q-9 -21 -32 -21q-70 -2 -132 4q-4 0 -12.5 1t-12.5 1q4 -75 10 -215q7 -161 11 -207q5 -46 7 -50
q6 -14 14 -19q7 -6 22 -8q17 -3 51 -3q18 0 52 2q47 3 103 11l25 4l6 1q1 0 3.5 0.5t4.5 0.5q7 1 17 -2z" />
    <glyph glyph-name="F" unicode="F" horiz-adv-x="503" 
d="M448 1218q11 -10 13 -24q2 -16 -5 -28q-8 -14 -26 -16h-7l-17 1l-68 6l-91 6q-8 1 -24 2t-24 2l-1 -23q0 -26 -1 -78.5t-1 -79.5q-1 -99 -1 -298l2 1h11q4 0 10.5 0.5t10.5 0.5l41 -2q55 -4 82 1q7 1 19 5q1 0 5 1t5 2t2 1t1.5 0.5t1.5 0.5t3 0.5t3 0.5q13 2 24 -9
q10 -10 11 -21q2 -15 -3 -24q-6 -12 -18 -17q-15 -6 -41 -12q-32 -6 -84 -2q-5 0 -13.5 1t-15.5 1.5t-13 0.5q-7 0 -20.5 1t-20.5 1h-3q0 -134 3 -267q3 -176 10 -316q0 -15 -6 -23q-7 -10 -21 -12q-13 -2 -22 2q-12 5 -18 15q-1 1 -1 2.5t-1 2.5q-2 4 -2 6l-1 6v5l-1 19
l-1 40l-6 158q-4 106 -6 317q-4 407 1 610q-7 7 -10 16q-6 17 2 29q1 2 9 10l8 8q14 12 30 9q14 -3 22 -14l147 -9l91 -6q16 0 26 -10z" />
    <glyph glyph-name="F" unicode="f" horiz-adv-x="503" 
d="M448 1218q11 -10 13 -24q2 -16 -5 -28q-8 -14 -26 -16h-7l-17 1l-68 6l-91 6q-8 1 -24 2t-24 2l-1 -23q0 -26 -1 -78.5t-1 -79.5q-1 -99 -1 -298l2 1h11q4 0 10.5 0.5t10.5 0.5l41 -2q55 -4 82 1q7 1 19 5q1 0 5 1t5 2t2 1t1.5 0.5t1.5 0.5t3 0.5t3 0.5q13 2 24 -9
q10 -10 11 -21q2 -15 -3 -24q-6 -12 -18 -17q-15 -6 -41 -12q-32 -6 -84 -2q-5 0 -13.5 1t-15.5 1.5t-13 0.5q-7 0 -20.5 1t-20.5 1h-3q0 -134 3 -267q3 -176 10 -316q0 -15 -6 -23q-7 -10 -21 -12q-13 -2 -22 2q-12 5 -18 15q-1 1 -1 2.5t-1 2.5q-2 4 -2 6l-1 6v5l-1 19
l-1 40l-6 158q-4 106 -6 317q-4 407 1 610q-7 7 -10 16q-6 17 2 29q1 2 9 10l8 8q14 12 30 9q14 -3 22 -14l147 -9l91 -6q16 0 26 -10z" />
    <glyph glyph-name="G" unicode="G" horiz-adv-x="671" 
d="M596 494q1 -56 1.5 -119.5t1 -141.5t0.5 -120l1 -48q0 -16 -7 -23q-9 -9 -23 -11q-11 -1 -23 7q-10 8 -11 19q-32 -29 -72 -43q-53 -19 -112 -8t-102 45q-42 32 -74 82q-50 80 -70 209q-9 64 -13 220q-2 137 5 221q10 121 40 218q15 54 44 103q34 57 71 89q21 20 49 32
q27 12 56 15q54 4 109 -33q16 -11 16 -27q2 -17 -10 -30q-13 -15 -30 -10q-5 1 -15 6l-11 7q-27 15 -50 14q-25 0 -50 -17q-38 -25 -68 -82q-25 -47 -42 -101q-28 -91 -37 -215q-6 -94 -3 -220q4 -152 17 -217q11 -57 33 -103q23 -50 61 -86q44 -39 92 -46q5 -1 14 -1.5
t12 -0.5h13q1 0 3.5 0.5t3.5 0.5l6 1q25 4 47 20l10 8l9 9q0 1 2 2.5t3 2.5l3 5l8 11l6 12q1 2 7 12q5 8 13 13l1 1h1l-3 122l-3 96q-2 64 -4 95q-2 30 -4 46q-2 13 -6 16q-3 3 -16 3q-32 0 -96 4q-17 2 -28 14q-11 13 -11 29q0 17 12 29t29 10q13 -1 46 -1t50 -2
q29 -4 48 -12q12 -5 22 -13t16 -21q9 -21 11 -49q1 -16 1 -48z" />
    <glyph glyph-name="G" unicode="g" horiz-adv-x="671" 
d="M596 494q1 -56 1.5 -119.5t1 -141.5t0.5 -120l1 -48q0 -16 -7 -23q-9 -9 -23 -11q-11 -1 -23 7q-10 8 -11 19q-32 -29 -72 -43q-53 -19 -112 -8t-102 45q-42 32 -74 82q-50 80 -70 209q-9 64 -13 220q-2 137 5 221q10 121 40 218q15 54 44 103q34 57 71 89q21 20 49 32
q27 12 56 15q54 4 109 -33q16 -11 16 -27q2 -17 -10 -30q-13 -15 -30 -10q-5 1 -15 6l-11 7q-27 15 -50 14q-25 0 -50 -17q-38 -25 -68 -82q-25 -47 -42 -101q-28 -91 -37 -215q-6 -94 -3 -220q4 -152 17 -217q11 -57 33 -103q23 -50 61 -86q44 -39 92 -46q5 -1 14 -1.5
t12 -0.5h13q1 0 3.5 0.5t3.5 0.5l6 1q25 4 47 20l10 8l9 9q0 1 2 2.5t3 2.5l3 5l8 11l6 12q1 2 7 12q5 8 13 13l1 1h1l-3 122l-3 96q-2 64 -4 95q-2 30 -4 46q-2 13 -6 16q-3 3 -16 3q-32 0 -96 4q-17 2 -28 14q-11 13 -11 29q0 17 12 29t29 10q13 -1 46 -1t50 -2
q29 -4 48 -12q12 -5 22 -13t16 -21q9 -21 11 -49q1 -16 1 -48z" />
    <glyph glyph-name="H" unicode="H" horiz-adv-x="673" 
d="M548 823l-1 -157q0 -366 10 -629q0 -15 -6 -22q-8 -9 -19 -11q-26 -6 -39 15q-1 1 -1 2.5t-1 2.5q-2 4 -2 6q-1 4 -1 10l-1 20l-1 39l-5 157q-3 105 -5 315q0 1 -0.5 2t-0.5 2q-27 3 -95 -3q-51 -6 -109 -4q-24 0 -72 4q5 -104 12 -207q14 -204 23 -305q2 -15 -7 -28
q-8 -12 -25 -16q-32 -7 -50 17q-8 9 -10 26l-1 19l-3 38q-8 102 -11 153q-7 127 -11 306q-2 102 0 306q1 136 8 306q2 13 6 18q6 7 17 11q23 7 36 -11q5 -7 5 -20l-1 -57v-153q1 -135 8 -305q0 -4 0.5 -11t0.5 -10q52 -4 106 -6q62 -2 107 2q36 3 66 2q-2 338 4 553
q0 12 8 23q7 9 20 12q11 3 23 0q13 -5 19 -16q2 -4 4 -12v-11v-19l-1 -40l-3 -157z" />
    <glyph glyph-name="H" unicode="h" horiz-adv-x="673" 
d="M548 823l-1 -157q0 -366 10 -629q0 -15 -6 -22q-8 -9 -19 -11q-26 -6 -39 15q-1 1 -1 2.5t-1 2.5q-2 4 -2 6q-1 4 -1 10l-1 20l-1 39l-5 157q-3 105 -5 315q0 1 -0.5 2t-0.5 2q-27 3 -95 -3q-51 -6 -109 -4q-24 0 -72 4q5 -104 12 -207q14 -204 23 -305q2 -15 -7 -28
q-8 -12 -25 -16q-32 -7 -50 17q-8 9 -10 26l-1 19l-3 38q-8 102 -11 153q-7 127 -11 306q-2 102 0 306q1 136 8 306q2 13 6 18q6 7 17 11q23 7 36 -11q5 -7 5 -20l-1 -57v-153q1 -135 8 -305q0 -4 0.5 -11t0.5 -10q52 -4 106 -6q62 -2 107 2q36 3 66 2q-2 338 4 553
q0 12 8 23q7 9 20 12q11 3 23 0q13 -5 19 -16q2 -4 4 -12v-11v-19l-1 -40l-3 -157z" />
    <glyph glyph-name="I" unicode="I" horiz-adv-x="401" 
d="M340 1201q7 -6 11 -19q7 -25 -13 -38q-8 -5 -20 -5l-19 1l-37 2q-14 2 -21 2l-1 -23l-1 -155q-2 -102 -5 -155l-7 -155q-3 -65 -11.5 -184t-12.5 -216t0 -184q21 0 61 4q22 2 30 -15q9 -17 1 -35q-9 -19 -30 -21q-5 -1 -16 -2t-16 -2q-31 -3 -64 -3q-28 0 -63 5
q-23 2 -32 23t1 37q5 10 14 13l9 3h9q5 -1 14.5 -2t14.5 -2q0 3 -0.5 11t-0.5 11q-2 52 0 155q2 54 14 310q14 395 23 586q-44 2 -62 4q-13 2 -20 8q-8 6 -13 19q-3 12 -2 22q2 15 13 22t25 5l19 -2l37 -4q100 -10 150 -13q14 -2 21 -8z" />
    <glyph glyph-name="I" unicode="i" horiz-adv-x="401" 
d="M340 1201q7 -6 11 -19q7 -25 -13 -38q-8 -5 -20 -5l-19 1l-37 2q-14 2 -21 2l-1 -23l-1 -155q-2 -102 -5 -155l-7 -155q-3 -65 -11.5 -184t-12.5 -216t0 -184q21 0 61 4q22 2 30 -15q9 -17 1 -35q-9 -19 -30 -21q-5 -1 -16 -2t-16 -2q-31 -3 -64 -3q-28 0 -63 5
q-23 2 -32 23t1 37q5 10 14 13l9 3h9q5 -1 14.5 -2t14.5 -2q0 3 -0.5 11t-0.5 11q-2 52 0 155q2 54 14 310q14 395 23 586q-44 2 -62 4q-13 2 -20 8q-8 6 -13 19q-3 12 -2 22q2 15 13 22t25 5l19 -2l37 -4q100 -10 150 -13q14 -2 21 -8z" />
    <glyph glyph-name="J" unicode="J" horiz-adv-x="501" 
d="M436 1203q7 -11 7 -19q0 -11 -4 -19q-6 -11 -13 -15q-3 -2 -9 -4q-3 -1 -9 -1l-18 -1h-18l-9 -90q-9 -106 -15 -211q-5 -95 -7 -212q-1 -70 3 -212q1 -24 2.5 -67t2.5 -78t1 -67v-53q0 -32 -5 -54q-7 -30 -20 -50q-16 -24 -42 -36q-48 -23 -106 0q-4 1 -8 3t-8.5 5
t-7.5 4q-7 3 -23 15l-5 4l-5 4l-10 9q-3 3 -18 20q-32 41 -42 98q-9 52 -1 107q8 59 27 103q6 14 21 17q16 4 28 -4q4 -2 10 -10q4 -8 4 -14q0 -7 -7 -26q-20 -56 -23 -102q-3 -61 19 -102q12 -22 31 -43q21 -21 43 -29q8 -3 25 -5q16 0 26 5q21 9 28 40q2 12 3 27t0 25.5
t-2.5 28t-1.5 25.5l-4 106q-5 89 -5 212q0 70 4 212q8 200 27 398q-39 3 -87 11q-12 4 -17 9q-6 6 -8 18q-2 22 15 36q11 7 21 7q7 0 10 -1l8 -2q5 -1 16.5 -2.5t17.5 -2.5q34 -4 69 -6h35h17h9h10q12 -2 18 -11z" />
    <glyph glyph-name="J" unicode="j" horiz-adv-x="501" 
d="M436 1203q7 -11 7 -19q0 -11 -4 -19q-6 -11 -13 -15q-3 -2 -9 -4q-3 -1 -9 -1l-18 -1h-18l-9 -90q-9 -106 -15 -211q-5 -95 -7 -212q-1 -70 3 -212q1 -24 2.5 -67t2.5 -78t1 -67v-53q0 -32 -5 -54q-7 -30 -20 -50q-16 -24 -42 -36q-48 -23 -106 0q-4 1 -8 3t-8.5 5
t-7.5 4q-7 3 -23 15l-5 4l-5 4l-10 9q-3 3 -18 20q-32 41 -42 98q-9 52 -1 107q8 59 27 103q6 14 21 17q16 4 28 -4q4 -2 10 -10q4 -8 4 -14q0 -7 -7 -26q-20 -56 -23 -102q-3 -61 19 -102q12 -22 31 -43q21 -21 43 -29q8 -3 25 -5q16 0 26 5q21 9 28 40q2 12 3 27t0 25.5
t-2.5 28t-1.5 25.5l-4 106q-5 89 -5 212q0 70 4 212q8 200 27 398q-39 3 -87 11q-12 4 -17 9q-6 6 -8 18q-2 22 15 36q11 7 21 7q7 0 10 -1l8 -2q5 -1 16.5 -2.5t17.5 -2.5q34 -4 69 -6h35h17h9h10q12 -2 18 -11z" />
    <glyph glyph-name="K" unicode="K" horiz-adv-x="557" 
d="M490 1184q13 -7 17 -18q4 -12 -2 -23q-8 -13 -24.5 -39t-24.5 -39q-50 -81 -92 -158q-46 -85 -85 -162q-40 -80 -59 -121l4 -8q2 -4 6 -9.5t6 -9.5q13 -22 23 -41q30 -54 86 -164q72 -145 151 -337q5 -13 1 -24t-15 -19t-23 -6t-18 15q-24 56 -37 84q-48 107 -80 167
q-35 68 -89 161q-7 13 -22 38.5t-23 38.5l2 -150q2 -204 4 -308q0 -15 -6 -22q-7 -8 -20 -12q-26 -5 -39 14q-7 8 -7 21v19l-1 39l-2 154l-2 195q0 10 -0.5 29t-0.5 29l-1 55v29v44q-1 271 6 542q0 10 6 18q6 7 17 11q9 3 19.5 -0.5t15.5 -11.5q4 -5 4 -19v-19l-1 -38
q0 -25 -2 -77t-2 -77l-1 -154v-77v-30q40 79 78 146q22 40 93 158q45 72 98 155q6 11 19 14q12 3 23 -3zM117 573q0 -6 0.5 -18.5t0.5 -18.5q0 8 -0.5 22t-0.5 22v-7z" />
    <glyph glyph-name="K" unicode="k" horiz-adv-x="557" 
d="M490 1184q13 -7 17 -18q4 -12 -2 -23q-8 -13 -24.5 -39t-24.5 -39q-50 -81 -92 -158q-46 -85 -85 -162q-40 -80 -59 -121l4 -8q2 -4 6 -9.5t6 -9.5q13 -22 23 -41q30 -54 86 -164q72 -145 151 -337q5 -13 1 -24t-15 -19t-23 -6t-18 15q-24 56 -37 84q-48 107 -80 167
q-35 68 -89 161q-7 13 -22 38.5t-23 38.5l2 -150q2 -204 4 -308q0 -15 -6 -22q-7 -8 -20 -12q-26 -5 -39 14q-7 8 -7 21v19l-1 39l-2 154l-2 195q0 10 -0.5 29t-0.5 29l-1 55v29v44q-1 271 6 542q0 10 6 18q6 7 17 11q9 3 19.5 -0.5t15.5 -11.5q4 -5 4 -19v-19l-1 -38
q0 -25 -2 -77t-2 -77l-1 -154v-77v-30q40 79 78 146q22 40 93 158q45 72 98 155q6 11 19 14q12 3 23 -3zM117 573q0 -6 0.5 -18.5t0.5 -18.5q0 8 -0.5 22t-0.5 22v-7z" />
    <glyph glyph-name="L" unicode="L" horiz-adv-x="530" 
d="M494 64q1 0 3.5 -1t3.5 -2q10 -9 10 -25q0 -13 -12 -25t-27 -9q-2 0 -6.5 0.5t-6.5 1.5q-2 0 -6 1t-6 1q-43 5 -100 0q-8 -1 -24.5 -3t-25.5 -3l-51 -6q-39 -5 -54 -3t-29 7q-5 2 -15 8h-1q-11 4 -19 15q-4 8 -5 12q0 2 -0.5 6t-0.5 5v19v39v156v311q0 467 -3 622
q0 11 6 20q5 8 17 11q24 7 38 -13q1 -2 4 -10q0 -1 0.5 -5t0.5 -5l1 -59l2 -155l5 -311q4 -288 6 -581l1 -1h1q10 -2 22 -2q4 0 12 0.5t12 0.5l13 1h7h6l26 1q118 4 179 -14q1 -1 4 -1t4 -1q6 -2 8 -3zM201 82h-1l1 -1v1zM199 82h1h-1z" />
    <glyph glyph-name="L" unicode="l" horiz-adv-x="530" 
d="M494 64q1 0 3.5 -1t3.5 -2q10 -9 10 -25q0 -13 -12 -25t-27 -9q-2 0 -6.5 0.5t-6.5 1.5q-2 0 -6 1t-6 1q-43 5 -100 0q-8 -1 -24.5 -3t-25.5 -3l-51 -6q-39 -5 -54 -3t-29 7q-5 2 -15 8h-1q-11 4 -19 15q-4 8 -5 12q0 2 -0.5 6t-0.5 5v19v39v156v311q0 467 -3 622
q0 11 6 20q5 8 17 11q24 7 38 -13q1 -2 4 -10q0 -1 0.5 -5t0.5 -5l1 -59l2 -155l5 -311q4 -288 6 -581l1 -1h1q10 -2 22 -2q4 0 12 0.5t12 0.5l13 1h7h6l26 1q118 4 179 -14q1 -1 4 -1t4 -1q6 -2 8 -3zM201 82h-1l1 -1v1zM199 82h1h-1z" />
    <glyph glyph-name="M" unicode="M" horiz-adv-x="788" 
d="M669 1208q14 -6 18 -24v-14l-1 -12l-3 -46l-7 -92q-13 -197 -17 -369q-5 -197 -2 -369q0 -28 1 -58.5t2.5 -68t2.5 -58.5l2 -46v-11v-3v-4q0 -5 -1 -8q-3 -17 -19 -24q-12 -6 -30 -2q-15 3 -24 17q-1 1 -4 7q-2 4 -2 7q0 1 -0.5 3.5t-0.5 3.5v6l-1 23q-9 176 -7 370
q1 299 27 598l-60 -103l-66 -114l-33 -57l-16 -29q-1 -2 -4 -7t-5 -7q-7 -7 -14 -10q-19 -7 -32 5q-6 6 -9 14l-6 15l-82 180l-71 157l-8 -121q-12 -203 -15 -302q-10 -345 26 -603q2 -15 -5 -26q-6 -10 -22 -14q-28 -5 -45 15q-7 7 -9 22l-2 19l-4 38q-3 23 -7 76
q-2 24 -4 76q-6 144 -1 303q3 99 17 302l21 303q2 12 7 18t16 10h1l1 1v1q7 8 15 11q10 3 18 1q3 -1 9 -5q6 -5 6 -7l4 -8l4 -8l15 -33l59 -132l95 -208l60 107q15 27 45 80.5t45 80.5l46 81l11 20l6 10l3 5l3 6q9 12 25 15q15 3 28 -4z" />
    <glyph glyph-name="M" unicode="m" horiz-adv-x="788" 
d="M669 1208q14 -6 18 -24v-14l-1 -12l-3 -46l-7 -92q-13 -197 -17 -369q-5 -197 -2 -369q0 -28 1 -58.5t2.5 -68t2.5 -58.5l2 -46v-11v-3v-4q0 -5 -1 -8q-3 -17 -19 -24q-12 -6 -30 -2q-15 3 -24 17q-1 1 -4 7q-2 4 -2 7q0 1 -0.5 3.5t-0.5 3.5v6l-1 23q-9 176 -7 370
q1 299 27 598l-60 -103l-66 -114l-33 -57l-16 -29q-1 -2 -4 -7t-5 -7q-7 -7 -14 -10q-19 -7 -32 5q-6 6 -9 14l-6 15l-82 180l-71 157l-8 -121q-12 -203 -15 -302q-10 -345 26 -603q2 -15 -5 -26q-6 -10 -22 -14q-28 -5 -45 15q-7 7 -9 22l-2 19l-4 38q-3 23 -7 76
q-2 24 -4 76q-6 144 -1 303q3 99 17 302l21 303q2 12 7 18t16 10h1l1 1v1q7 8 15 11q10 3 18 1q3 -1 9 -5q6 -5 6 -7l4 -8l4 -8l15 -33l59 -132l95 -208l60 107q15 27 45 80.5t45 80.5l46 81l11 20l6 10l3 5l3 6q9 12 25 15q15 3 28 -4z" />
    <glyph glyph-name="N" unicode="N" horiz-adv-x="722" 
d="M586 956l13 -306l23 -613q0 -15 -7 -25q-7 -9 -22 -13q-28 -7 -44 15q-5 7 -7 23l-1 19l-2 39l-5 153l-4 119q-3 2 -7 6q-5 8 -6 10q0 1 -1 3t-1.5 3.5t-0.5 2.5l-5 13q-16 46 -48 108q-18 35 -122 205q-56 94 -158 286q1 -8 2 -24.5t1 -24.5l19 -301q21 -352 41 -603
q0 -16 -6 -26t-22 -14q-26 -6 -44 15q-8 11 -9 22l-2 19l-3 38l-11 151q-7 107 -19 302t-19 302l-9 151l-8 151q0 14 7 24q8 11 20 14q11 3 24 0q11 0 17 -2q8 -4 15 -13q2 -3 4.5 -7.5t3.5 -6.5l7 -13l57 -106l57 -105q19 -35 59 -105q20 -35 62 -103l63 -102
q6 -10 17.5 -30.5t17.5 -30.5l-4 132l-2 77l-3 77l-12 306q0 13 7 23t20 13q27 7 42 -14q7 -10 7 -23l2 -57z" />
    <glyph glyph-name="N" unicode="n" horiz-adv-x="722" 
d="M586 956l13 -306l23 -613q0 -15 -7 -25q-7 -9 -22 -13q-28 -7 -44 15q-5 7 -7 23l-1 19l-2 39l-5 153l-4 119q-3 2 -7 6q-5 8 -6 10q0 1 -1 3t-1.5 3.5t-0.5 2.5l-5 13q-16 46 -48 108q-18 35 -122 205q-56 94 -158 286q1 -8 2 -24.5t1 -24.5l19 -301q21 -352 41 -603
q0 -16 -6 -26t-22 -14q-26 -6 -44 15q-8 11 -9 22l-2 19l-3 38l-11 151q-7 107 -19 302t-19 302l-9 151l-8 151q0 14 7 24q8 11 20 14q11 3 24 0q11 0 17 -2q8 -4 15 -13q2 -3 4.5 -7.5t3.5 -6.5l7 -13l57 -106l57 -105q19 -35 59 -105q20 -35 62 -103l63 -102
q6 -10 17.5 -30.5t17.5 -30.5l-4 132l-2 77l-3 77l-12 306q0 13 7 23t20 13q27 7 42 -14q7 -10 7 -23l2 -57z" />
    <glyph glyph-name="O" unicode="O" 
d="M532 947q11 -86 15 -170q9 -162 -9 -343q-7 -84 -21 -169q-10 -56 -16 -84q-12 -49 -29 -81q-10 -20 -24 -36q-14 -17 -31 -30q-35 -25 -80 -28h-22q-17 2 -21 4l-21 9q-2 1 -8.5 4.5t-9.5 6.5q-3 2 -16 15q-10 10 -14 16q-10 13 -24 36q-35 64 -56 162q-14 67 -27 170
q-19 169 -21 342q-2 103 3 171q3 47 10 86q8 47 25 85q22 49 49 76q34 34 80 46q44 12 92 -1q29 -8 55 -23q15 2 24 -3q9 -4 17 -17q24 -33 41 -76q27 -69 39 -168zM413 1112q-15 -3 -29 3q-3 1 -7 5l-6 4l-7 5l-4 3l-4 2l-8 5q-18 8 -34 8q-15 0 -33 -8q-17 -7 -30 -21
q-18 -18 -24 -29q-7 -11 -15 -35q-18 -58 -22 -163l-1 -86v-85q0 -85 6 -169q8 -114 15 -169q1 -12 3 -26t5 -31.5t4 -26.5q6 -40 17 -82q12 -44 30 -74q24 -41 52 -52q14 -6 29 -1q13 5 28 20q24 25 39 67q6 16 11 39l9 42q11 60 14 83q23 152 23 339q0 102 -6 170
q-3 44 -9 85q-8 59 -14 84q-10 44 -25 80l-3.5 7z" />
    <glyph glyph-name="O" unicode="o" 
d="M532 947q11 -86 15 -170q9 -162 -9 -343q-7 -84 -21 -169q-10 -56 -16 -84q-12 -49 -29 -81q-10 -20 -24 -36q-14 -17 -31 -30q-35 -25 -80 -28h-22q-17 2 -21 4l-21 9q-2 1 -8.5 4.5t-9.5 6.5q-3 2 -16 15q-10 10 -14 16q-10 13 -24 36q-35 64 -56 162q-14 67 -27 170
q-19 169 -21 342q-2 103 3 171q3 47 10 86q8 47 25 85q22 49 49 76q34 34 80 46q44 12 92 -1q29 -8 55 -23q15 2 24 -3q9 -4 17 -17q24 -33 41 -76q27 -69 39 -168zM413 1112q-15 -3 -29 3q-3 1 -7 5l-6 4l-7 5l-4 3l-4 2l-8 5q-18 8 -34 8q-15 0 -33 -8q-17 -7 -30 -21
q-18 -18 -24 -29q-7 -11 -15 -35q-18 -58 -22 -163l-1 -86v-85q0 -85 6 -169q8 -114 15 -169q1 -12 3 -26t5 -31.5t4 -26.5q6 -40 17 -82q12 -44 30 -74q24 -41 52 -52q14 -6 29 -1q13 5 28 20q24 25 39 67q6 16 11 39l9 42q11 60 14 83q23 152 23 339q0 102 -6 170
q-3 44 -9 85q-8 59 -14 84q-10 44 -25 80l-3.5 7z" />
    <glyph glyph-name="P" unicode="P" horiz-adv-x="571" 
d="M459 1132q44 -49 56 -133q11 -72 0 -144q-13 -75 -43 -139q-34 -72 -84 -119q-60 -58 -131 -68q-31 -5 -62 0q3 -273 10 -492q0 -12 -8 -25q-10 -11 -21 -14q-29 -7 -46 14q-6 8 -8 24l-1 19l-1 38q0 25 -1 75.5t-1 75.5q-1 101 -1 302v11q-5 3 -8 9q-7 12 -4 26
q3 11 11 21q0 1 1 2q1 39 2 116.5t2 116.5q1 50 2.5 148.5t2.5 147.5q-1 6 0 13q2 7 6 11v1l1 1q6 9 17 12q8 2 12 2q15 5 26 8q68 18 142 5q84 -16 129 -65zM194 640v-24q3 -1 9 -2t7 -1q3 0 8.5 -1t7.5 -1q61 -3 116 56q43 45 71 117q16 44 21 67q8 35 9 69q4 86 -20 136
q-16 34 -45 51q-27 16 -65 23q-42 7 -70 5q-24 -1 -48 -8v-34q-2 -100 -2 -151q0 -201 1 -302z" />
    <glyph glyph-name="P" unicode="p" horiz-adv-x="571" 
d="M459 1132q44 -49 56 -133q11 -72 0 -144q-13 -75 -43 -139q-34 -72 -84 -119q-60 -58 -131 -68q-31 -5 -62 0q3 -273 10 -492q0 -12 -8 -25q-10 -11 -21 -14q-29 -7 -46 14q-6 8 -8 24l-1 19l-1 38q0 25 -1 75.5t-1 75.5q-1 101 -1 302v11q-5 3 -8 9q-7 12 -4 26
q3 11 11 21q0 1 1 2q1 39 2 116.5t2 116.5q1 50 2.5 148.5t2.5 147.5q-1 6 0 13q2 7 6 11v1l1 1q6 9 17 12q8 2 12 2q15 5 26 8q68 18 142 5q84 -16 129 -65zM194 640v-24q3 -1 9 -2t7 -1q3 0 8.5 -1t7.5 -1q61 -3 116 56q43 45 71 117q16 44 21 67q8 35 9 69q4 86 -20 136
q-16 34 -45 51q-27 16 -65 23q-42 7 -70 5q-24 -1 -48 -8v-34q-2 -100 -2 -151q0 -201 1 -302z" />
    <glyph glyph-name="Q" unicode="Q" horiz-adv-x="702" 
d="M593 80q9 -9 10 -18q2 -14 -1 -21q-4 -9 -14 -16q-18 -10 -40 -12q-20 -1 -41 8q-15 7 -34 26l-6 6q-23 -19 -41 -29q-21 -10 -41 -14q-20 -6 -43 -4q-21 1 -42 11q-15 7 -36 24q-32 28 -57 65q-43 67 -73 156q-52 159 -54 339q-2 175 54 339q36 101 74 157q30 42 59 65
q39 30 79 40q44 12 89 3q47 -10 81 -39q9 -7 16 -16q9 -11 9 -24q9 -14 16 -35q7 -19 21 -84q8 -43 12 -85q7 -66 7 -172q0 -58 -6 -172l-10 -172q-8 -107 -21 -170q-18 -76 -47 -126q11 -18 22 -24q8 -5 18 -5q3 0 20 5q12 2 20 -6zM472 1097l-7 7q-16 14 -33 20
q-35 13 -77 -4q-19 -7 -35 -19q-22 -16 -31 -26q-24 -27 -46 -69q-17 -32 -32 -78q-10 -30 -23 -82q-14 -57 -18 -83q-14 -78 -14 -169q0 -165 58 -333q32 -91 80 -146q17 -19 30 -26q17 -9 35 -8q20 2 36 12q18 11 30 25h1q-16 37 -27 77q-3 15 3 29q6 13 20 20q12 6 28 4
t25 -14q4 -6 6 -14q7 22 12 47q5 28 11 84q6 52 8 86q2 25 3.5 53.5t3 63.5t2.5 54q6 114 6 171q0 101 -10 171q-4 28 -16 84q-7 36 -19 54q-2 1 -6 5z" />
    <glyph glyph-name="Q" unicode="q" horiz-adv-x="702" 
d="M593 80q9 -9 10 -18q2 -14 -1 -21q-4 -9 -14 -16q-18 -10 -40 -12q-20 -1 -41 8q-15 7 -34 26l-6 6q-23 -19 -41 -29q-21 -10 -41 -14q-20 -6 -43 -4q-21 1 -42 11q-15 7 -36 24q-32 28 -57 65q-43 67 -73 156q-52 159 -54 339q-2 175 54 339q36 101 74 157q30 42 59 65
q39 30 79 40q44 12 89 3q47 -10 81 -39q9 -7 16 -16q9 -11 9 -24q9 -14 16 -35q7 -19 21 -84q8 -43 12 -85q7 -66 7 -172q0 -58 -6 -172l-10 -172q-8 -107 -21 -170q-18 -76 -47 -126q11 -18 22 -24q8 -5 18 -5q3 0 20 5q12 2 20 -6zM472 1097l-7 7q-16 14 -33 20
q-35 13 -77 -4q-19 -7 -35 -19q-22 -16 -31 -26q-24 -27 -46 -69q-17 -32 -32 -78q-10 -30 -23 -82q-14 -57 -18 -83q-14 -78 -14 -169q0 -165 58 -333q32 -91 80 -146q17 -19 30 -26q17 -9 35 -8q20 2 36 12q18 11 30 25h1q-16 37 -27 77q-3 15 3 29q6 13 20 20q12 6 28 4
t25 -14q4 -6 6 -14q7 22 12 47q5 28 11 84q6 52 8 86q2 25 3.5 53.5t3 63.5t2.5 54q6 114 6 171q0 101 -10 171q-4 28 -16 84q-7 36 -19 54q-2 1 -6 5z" />
    <glyph glyph-name="R" unicode="R" horiz-adv-x="579" 
d="M437 1196q102 -65 85 -205q-22 -173 -107 -257q-76 -76 -174 -68q99 -310 175 -621q5 -17 -8 -29q-12 -10 -24 -10q-6 0 -9 1q-15 5 -20 22q-66 269 -152 545q-4 -304 -12 -507q-2 -14 -9 -24q-8 -10 -21 -13q-28 -7 -44 15q-6 8 -6 23l2 57l5 152q2 49 7 305
q4 177 1 304q-1 102 -7 304q0 12 7 22q8 10 19 13q14 5 27 -1q52 8 89 10.5t87.5 -6t88.5 -32.5zM200 981q2 -82 4 -242q65 -25 121 5q51 28 85 94t46 136q23 135 -72 179q-67 31 -189 11l1 -31z" />
    <glyph glyph-name="R" unicode="r" horiz-adv-x="579" 
d="M437 1196q102 -65 85 -205q-22 -173 -107 -257q-76 -76 -174 -68q99 -310 175 -621q5 -17 -8 -29q-12 -10 -24 -10q-6 0 -9 1q-15 5 -20 22q-66 269 -152 545q-4 -304 -12 -507q-2 -14 -9 -24q-8 -10 -21 -13q-28 -7 -44 15q-6 8 -6 23l2 57l5 152q2 49 7 305
q4 177 1 304q-1 102 -7 304q0 12 7 22q8 10 19 13q14 5 27 -1q52 8 89 10.5t87.5 -6t88.5 -32.5zM200 981q2 -82 4 -242q65 -25 121 5q51 28 85 94t46 136q23 135 -72 179q-67 31 -189 11l1 -31z" />
    <glyph glyph-name="S" unicode="S" horiz-adv-x="618" 
d="M524 605q14 -37 19 -63q14 -63 12 -129q-2 -72 -15 -128q-17 -71 -45 -122q-20 -35 -36 -54q-21 -25 -46 -46q-29 -24 -55 -37q-31 -16 -61 -23q-11 -3 -33 -5q-4 0 -15.5 -1t-17.5 0q-34 3 -64 22q-49 32 -80 103q-24 55 -30 125q-2 22 -2 32q0 1 0.5 4t0.5 5q0 1 3 10
q5 10 13 14q12 6 18 6q11 0 19 -4q7 -2 15 -12q2 -3 4 -9t2 -9q0 -67 21 -122q14 -34 31 -53q22 -25 50 -32q15 -5 30 -3q10 1 30 7q31 9 56 27q50 35 81 93q27 51 39 119q10 60 7 126q-1 30 -6 62q-5 37 -14 62q-12 35 -30 55q-16 19 -51 35q-11 5 -31 12.5t-27 10.5
t-29 15q-18 10 -27 16q-52 37 -86 93q-33 53 -42 119q-9 65 9 127q20 62 62 112q49 58 104 76q33 11 65 8q31 -3 63 -19q9 -4 15 -14q5 -8 5 -20q-2 -21 -20 -33q-17 -13 -39 -1l-13 6q-2 0 -6.5 1t-7.5 2q-28 4 -55 -10q-24 -13 -46 -38q-43 -47 -56 -105q-15 -63 3 -119
q19 -61 63 -100q27 -25 105 -60q37 -15 58 -30q29 -19 50 -45q21 -27 33 -59z" />
    <glyph glyph-name="S" unicode="s" horiz-adv-x="618" 
d="M524 605q14 -37 19 -63q14 -63 12 -129q-2 -72 -15 -128q-17 -71 -45 -122q-20 -35 -36 -54q-21 -25 -46 -46q-29 -24 -55 -37q-31 -16 -61 -23q-11 -3 -33 -5q-4 0 -15.5 -1t-17.5 0q-34 3 -64 22q-49 32 -80 103q-24 55 -30 125q-2 22 -2 32q0 1 0.5 4t0.5 5q0 1 3 10
q5 10 13 14q12 6 18 6q11 0 19 -4q7 -2 15 -12q2 -3 4 -9t2 -9q0 -67 21 -122q14 -34 31 -53q22 -25 50 -32q15 -5 30 -3q10 1 30 7q31 9 56 27q50 35 81 93q27 51 39 119q10 60 7 126q-1 30 -6 62q-5 37 -14 62q-12 35 -30 55q-16 19 -51 35q-11 5 -31 12.5t-27 10.5
t-29 15q-18 10 -27 16q-52 37 -86 93q-33 53 -42 119q-9 65 9 127q20 62 62 112q49 58 104 76q33 11 65 8q31 -3 63 -19q9 -4 15 -14q5 -8 5 -20q-2 -21 -20 -33q-17 -13 -39 -1l-13 6q-2 0 -6.5 1t-7.5 2q-28 4 -55 -10q-24 -13 -46 -38q-43 -47 -56 -105q-15 -63 3 -119
q19 -61 63 -100q27 -25 105 -60q37 -15 58 -30q29 -19 50 -45q21 -27 33 -59z" />
    <glyph glyph-name="T" unicode="T" horiz-adv-x="514" 
d="M455 1233q23 -2 34 -23q10 -20 1 -39q-4 -9 -14 -15q-6 -4 -10 -4h-10q-11 1 -31 3q-55 7 -122 10h-11v-32q-1 -52 -1 -156l2 -314q2 -348 -1 -626q0 -15 -9 -26q-8 -9 -23 -13q-13 -3 -25 1q-12 5 -20 17q-3 4 -5 12q-1 4 -1 12l1 59l1 156l5 314q2 103 4 313l2 283
q-28 0 -42 -1q-56 -4 -122 -14q-10 -2 -18 2q-6 2 -13 13q-9 17 -1 35q7 20 28 23q5 1 15.5 2.5t15.5 2.5q55 8 123 13q121 7 247 -8z" />
    <glyph glyph-name="T" unicode="t" horiz-adv-x="514" 
d="M455 1233q23 -2 34 -23q10 -20 1 -39q-4 -9 -14 -15q-6 -4 -10 -4h-10q-11 1 -31 3q-55 7 -122 10h-11v-32q-1 -52 -1 -156l2 -314q2 -348 -1 -626q0 -15 -9 -26q-8 -9 -23 -13q-13 -3 -25 1q-12 5 -20 17q-3 4 -5 12q-1 4 -1 12l1 59l1 156l5 314q2 103 4 313l2 283
q-28 0 -42 -1q-56 -4 -122 -14q-10 -2 -18 2q-6 2 -13 13q-9 17 -1 35q7 20 28 23q5 1 15.5 2.5t15.5 2.5q55 8 123 13q121 7 247 -8z" />
    <glyph glyph-name="U" unicode="U" horiz-adv-x="688" 
d="M557 978q1 -20 11.5 -143t13.5 -188q8 -187 -10 -333q-8 -56 -13 -83q-10 -56 -19 -82q-16 -47 -37 -77q-18 -24 -30 -33q-10 -9 -18 -13q-12 -8 -19 -11q-39 -19 -85 -17t-84 19q-43 20 -71 48q-29 29 -47 71q-28 64 -32 164q-1 28 -1 83v83v166v60q0 106 2 316
q0 20 -1 60.5t-2 60.5l-2 83q0 19 1 23q3 15 15 22q26 18 51 -2q10 -8 12 -25q1 -5 1 -12v-10v-41v-83q-1 -165 -6 -332q-1 -38 -4 -331q1 -30 0.5 -55t0.5 -55.5t4 -55.5q5 -43 19 -80q17 -42 46 -67q31 -28 73 -36q16 -4 41 -2q17 1 39 12q32 17 52 62q13 30 24 79
q32 151 29 329q-1 112 -20 332.5t-20 329.5q0 15 8 24q9 10 22 12q14 2 24 -3q13 -7 18 -19q1 -2 1 -6l1 -6q0 -2 0.5 -5.5t0.5 -5.5v-21q0 -7 0.5 -20.5t0.5 -20.5q2 -55 10 -165z" />
    <glyph glyph-name="U" unicode="u" horiz-adv-x="688" 
d="M557 978q1 -20 11.5 -143t13.5 -188q8 -187 -10 -333q-8 -56 -13 -83q-10 -56 -19 -82q-16 -47 -37 -77q-18 -24 -30 -33q-10 -9 -18 -13q-12 -8 -19 -11q-39 -19 -85 -17t-84 19q-43 20 -71 48q-29 29 -47 71q-28 64 -32 164q-1 28 -1 83v83v166v60q0 106 2 316
q0 20 -1 60.5t-2 60.5l-2 83q0 19 1 23q3 15 15 22q26 18 51 -2q10 -8 12 -25q1 -5 1 -12v-10v-41v-83q-1 -165 -6 -332q-1 -38 -4 -331q1 -30 0.5 -55t0.5 -55.5t4 -55.5q5 -43 19 -80q17 -42 46 -67q31 -28 73 -36q16 -4 41 -2q17 1 39 12q32 17 52 62q13 30 24 79
q32 151 29 329q-1 112 -20 332.5t-20 329.5q0 15 8 24q9 10 22 12q14 2 24 -3q13 -7 18 -19q1 -2 1 -6l1 -6q0 -2 0.5 -5.5t0.5 -5.5v-21q0 -7 0.5 -20.5t0.5 -20.5q2 -55 10 -165z" />
    <glyph glyph-name="V" unicode="V" horiz-adv-x="669" 
d="M582 1198q18 -11 21 -28q1 -3 1 -10v-4l-1 -4l-2 -14l-15 -112q-23 -171 -62 -451l-63 -450l-11 -85q0 -3 -1 -7.5t-1 -6.5q-2 -11 -9 -18q-7 -6 -17 -10q-9 -2 -18 0q-21 4 -31 19q-2 3 -4 9l-6 21l-8 27l-65 218l-258 871q-3 13 1 24q4 12 17 17q10 6 23 4
q14 -2 21 -10q8 -8 10 -20l6 -19l11 -39l45 -153l91 -307l139 -471l40 307l59 451l31 225q2 12 5 17q7 10 16 13q17 7 35 -4z" />
    <glyph glyph-name="V" unicode="v" horiz-adv-x="669" 
d="M582 1198q18 -11 21 -28q1 -3 1 -10v-4l-1 -4l-2 -14l-15 -112q-23 -171 -62 -451l-63 -450l-11 -85q0 -3 -1 -7.5t-1 -6.5q-2 -11 -9 -18q-7 -6 -17 -10q-9 -2 -18 0q-21 4 -31 19q-2 3 -4 9l-6 21l-8 27l-65 218l-258 871q-3 13 1 24q4 12 17 17q10 6 23 4
q14 -2 21 -10q8 -8 10 -20l6 -19l11 -39l45 -153l91 -307l139 -471l40 307l59 451l31 225q2 12 5 17q7 10 16 13q17 7 35 -4z" />
    <glyph glyph-name="W" unicode="W" horiz-adv-x="833" 
d="M729 1251q17 -2 27 -11q12 -11 14 -28v-8v-3v-2l-1 -9q-4 -28 -25 -140q-12 -63 -22 -141l-19 -141q-50 -376 -73 -564q-6 -47 -16 -141l-2 -18l-3 -18q-7 -20 -28 -22q-7 -1 -18 4q-9 5 -14 14q-2 5 -6 16t-7 17l-109 263q-9 24 -23 53q0 -1 -1 -5t-2 -5q-2 -8 -30 -139
l-28 -138l-8 -35l-2 -9q0 -4 -1 -6l-3 -6q-7 -15 -20 -21q-29 -11 -52 6q-13 11 -16 24l-4 17q-70 286 -103 561q-18 150 -26 284q-12 194 -39 279q-3 13 1 26q4 11 18 19q10 5 24 5q14 -2 24 -10q6 -5 9 -10q1 -2 4 -11q1 -3 3 -9.5t3 -9.5t9 -38q16 -74 22 -156l12 -156
q4 -47 14 -155q19 -180 42 -309q9 -55 31 -163q4 15 11 45.5t10 45.5q14 53 15 58q11 51 13 58q12 38 27 54q21 26 56 13q24 -9 44 -40q12 -18 25 -54q4 -10 10.5 -28.5t9.5 -27.5l22 -56q6 -14 17.5 -43t16.5 -44q2 23 6.5 68.5t6.5 68.5l29 283l15 142l16 141l32 282l4 36
l1 2v4v3t1 3q5 11 7 13q6 10 22 18q11 6 27 4z" />
    <glyph glyph-name="W" unicode="w" horiz-adv-x="833" 
d="M729 1251q17 -2 27 -11q12 -11 14 -28v-8v-3v-2l-1 -9q-4 -28 -25 -140q-12 -63 -22 -141l-19 -141q-50 -376 -73 -564q-6 -47 -16 -141l-2 -18l-3 -18q-7 -20 -28 -22q-7 -1 -18 4q-9 5 -14 14q-2 5 -6 16t-7 17l-109 263q-9 24 -23 53q0 -1 -1 -5t-2 -5q-2 -8 -30 -139
l-28 -138l-8 -35l-2 -9q0 -4 -1 -6l-3 -6q-7 -15 -20 -21q-29 -11 -52 6q-13 11 -16 24l-4 17q-70 286 -103 561q-18 150 -26 284q-12 194 -39 279q-3 13 1 26q4 11 18 19q10 5 24 5q14 -2 24 -10q6 -5 9 -10q1 -2 4 -11q1 -3 3 -9.5t3 -9.5t9 -38q16 -74 22 -156l12 -156
q4 -47 14 -155q19 -180 42 -309q9 -55 31 -163q4 15 11 45.5t10 45.5q14 53 15 58q11 51 13 58q12 38 27 54q21 26 56 13q24 -9 44 -40q12 -18 25 -54q4 -10 10.5 -28.5t9.5 -27.5l22 -56q6 -14 17.5 -43t16.5 -44q2 23 6.5 68.5t6.5 68.5l29 283l15 142l16 141l32 282l4 36
l1 2v4v3t1 3q5 11 7 13q6 10 22 18q11 6 27 4z" />
    <glyph glyph-name="X" unicode="X" horiz-adv-x="665" 
d="M612 79l10 -20q4 -12 -2 -23t-17 -17q-12 -7 -24 -4q-9 1 -20 14q-2 2 -4 6q-1 2 -2 3l-5 9l-11 18l-21 36l-41 72q-13 24 -39 74q-73 138 -125 251q-15 -36 -42.5 -103.5t-33.5 -81.5q-4 -10 -12.5 -30t-12.5 -30q-61 -146 -80 -224q-6 -23 -28 -23q-5 0 -8 1
q-13 3 -21 13.5t-4 24.5q19 75 81 225q4 10 12.5 30t12.5 30q15 37 48.5 120.5t51.5 127.5q-14 30 -20 45q-6 14 -17 40.5t-15 36.5q-15 36 -31 77q-20 52 -29 78q-49 137 -102 318q-4 14 2 27t19 18q12 6 26 3t22 -14q5 -7 6 -11q2 -8 3 -11l6 -20l11 -40l25 -79l26 -79
q51 -153 108 -292q98 241 209 511q8 17 27 20q21 3 32 -11q8 -10 2 -26q-160 -388 -236 -576l6 -15q27 -62 34 -76q17 -38 73 -149q25 -50 77 -148q13 -24 41 -72l21 -36z" />
    <glyph glyph-name="X" unicode="x" horiz-adv-x="665" 
d="M612 79l10 -20q4 -12 -2 -23t-17 -17q-12 -7 -24 -4q-9 1 -20 14q-2 2 -4 6q-1 2 -2 3l-5 9l-11 18l-21 36l-41 72q-13 24 -39 74q-73 138 -125 251q-15 -36 -42.5 -103.5t-33.5 -81.5q-4 -10 -12.5 -30t-12.5 -30q-61 -146 -80 -224q-6 -23 -28 -23q-5 0 -8 1
q-13 3 -21 13.5t-4 24.5q19 75 81 225q4 10 12.5 30t12.5 30q15 37 48.5 120.5t51.5 127.5q-14 30 -20 45q-6 14 -17 40.5t-15 36.5q-15 36 -31 77q-20 52 -29 78q-49 137 -102 318q-4 14 2 27t19 18q12 6 26 3t22 -14q5 -7 6 -11q2 -8 3 -11l6 -20l11 -40l25 -79l26 -79
q51 -153 108 -292q98 241 209 511q8 17 27 20q21 3 32 -11q8 -10 2 -26q-160 -388 -236 -576l6 -15q27 -62 34 -76q17 -38 73 -149q25 -50 77 -148q13 -24 41 -72l21 -36z" />
    <glyph glyph-name="Y" unicode="Y" horiz-adv-x="534" 
d="M481 1214q12 -8 13 -19q2 -8 -2 -21l-6 -20l-11 -38q-7 -26 -20.5 -77t-20.5 -77q-54 -206 -79 -310q-40 -168 -72 -311q-32 -145 -66 -313q-4 -14 -13 -21q-11 -8 -24 -6q-29 4 -35 28q-2 7 1 23l4 19l8 40l33 156q33 149 69 297q-44 163 -105 337q-11 31 -42 111
q-5 11 -19 52q-9 25 -14 44q-19 63 -35 86q-10 15 -4 28q8 16 29 18q18 2 29 -14q21 -31 39 -94q4 -12 12 -38q20 -56 31 -84q15 -35 29 -75q36 -101 80 -248q2 8 6.5 23.5t6.5 23.5l40 155q37 140 84 308q4 12 12 18q7 6 22 6q9 0 20 -7z" />
    <glyph glyph-name="Y" unicode="&#x178;" horiz-adv-x="534" 
d="M481 1214q12 -8 13 -19q2 -8 -2 -21l-6 -20l-11 -38q-7 -26 -20.5 -77t-20.5 -77q-54 -206 -79 -310q-40 -168 -72 -311q-32 -145 -66 -313q-4 -14 -13 -21q-11 -8 -24 -6q-29 4 -35 28q-2 7 1 23l4 19l8 40l33 156q33 149 69 297q-44 163 -105 337q-11 31 -42 111
q-5 11 -19 52q-9 25 -14 44q-19 63 -35 86q-10 15 -4 28q8 16 29 18q18 2 29 -14q21 -31 39 -94q4 -12 12 -38q20 -56 31 -84q15 -35 29 -75q36 -101 80 -248q2 8 6.5 23.5t6.5 23.5l40 155q37 140 84 308q4 12 12 18q7 6 22 6q9 0 20 -7z" />
    <glyph glyph-name="Y" unicode="&#xff;" horiz-adv-x="534" 
d="M481 1214q12 -8 13 -19q2 -8 -2 -21l-6 -20l-11 -38q-7 -26 -20.5 -77t-20.5 -77q-54 -206 -79 -310q-40 -168 -72 -311q-32 -145 -66 -313q-4 -14 -13 -21q-11 -8 -24 -6q-29 4 -35 28q-2 7 1 23l4 19l8 40l33 156q33 149 69 297q-44 163 -105 337q-11 31 -42 111
q-5 11 -19 52q-9 25 -14 44q-19 63 -35 86q-10 15 -4 28q8 16 29 18q18 2 29 -14q21 -31 39 -94q4 -12 12 -38q20 -56 31 -84q15 -35 29 -75q36 -101 80 -248q2 8 6.5 23.5t6.5 23.5l40 155q37 140 84 308q4 12 12 18q7 6 22 6q9 0 20 -7z" />
    <glyph glyph-name="Y" unicode="&#xfd;" horiz-adv-x="534" 
d="M481 1214q12 -8 13 -19q2 -8 -2 -21l-6 -20l-11 -38q-7 -26 -20.5 -77t-20.5 -77q-54 -206 -79 -310q-40 -168 -72 -311q-32 -145 -66 -313q-4 -14 -13 -21q-11 -8 -24 -6q-29 4 -35 28q-2 7 1 23l4 19l8 40l33 156q33 149 69 297q-44 163 -105 337q-11 31 -42 111
q-5 11 -19 52q-9 25 -14 44q-19 63 -35 86q-10 15 -4 28q8 16 29 18q18 2 29 -14q21 -31 39 -94q4 -12 12 -38q20 -56 31 -84q15 -35 29 -75q36 -101 80 -248q2 8 6.5 23.5t6.5 23.5l40 155q37 140 84 308q4 12 12 18q7 6 22 6q9 0 20 -7z" />
    <glyph glyph-name="Y" unicode="&#xdd;" horiz-adv-x="534" 
d="M481 1214q12 -8 13 -19q2 -8 -2 -21l-6 -20l-11 -38q-7 -26 -20.5 -77t-20.5 -77q-54 -206 -79 -310q-40 -168 -72 -311q-32 -145 -66 -313q-4 -14 -13 -21q-11 -8 -24 -6q-29 4 -35 28q-2 7 1 23l4 19l8 40l33 156q33 149 69 297q-44 163 -105 337q-11 31 -42 111
q-5 11 -19 52q-9 25 -14 44q-19 63 -35 86q-10 15 -4 28q8 16 29 18q18 2 29 -14q21 -31 39 -94q4 -12 12 -38q20 -56 31 -84q15 -35 29 -75q36 -101 80 -248q2 8 6.5 23.5t6.5 23.5l40 155q37 140 84 308q4 12 12 18q7 6 22 6q9 0 20 -7z" />
    <glyph glyph-name="Y" unicode="y" horiz-adv-x="534" 
d="M481 1214q12 -8 13 -19q2 -8 -2 -21l-6 -20l-11 -38q-7 -26 -20.5 -77t-20.5 -77q-54 -206 -79 -310q-40 -168 -72 -311q-32 -145 -66 -313q-4 -14 -13 -21q-11 -8 -24 -6q-29 4 -35 28q-2 7 1 23l4 19l8 40l33 156q33 149 69 297q-44 163 -105 337q-11 31 -42 111
q-5 11 -19 52q-9 25 -14 44q-19 63 -35 86q-10 15 -4 28q8 16 29 18q18 2 29 -14q21 -31 39 -94q4 -12 12 -38q20 -56 31 -84q15 -35 29 -75q36 -101 80 -248q2 8 6.5 23.5t6.5 23.5l40 155q37 140 84 308q4 12 12 18q7 6 22 6q9 0 20 -7z" />
    <glyph glyph-name="Z" unicode="Z" horiz-adv-x="559" 
d="M517 50q7 -22 -9 -40q-6 -7 -19 -11q-1 0 -5 -0.5t-6 -0.5h-8l-66 2q-88 2 -133 2h-67q-11 0 -32.5 -2t-33.5 -2q-17 0 -35 3q-19 3 -34 15q-17 13 -21 31q-5 14 -1 37q4 24 22 64q4 11 12 32.5t11 29.5l46 125q14 35 44 126l83 252l87 252q30 84 44 126l15 39
q-3 0 -10 -0.5t-11 -0.5q-15 -1 -44.5 -2t-44.5 -2q-59 -2 -177 -2q-13 0 -23 7q-11 6 -16 18q-5 11 -3 23q2 15 7 22l9 9q9 4 11 5q4 2 6 2h5q2 0 5.5 0.5t4.5 0.5l33 -1q23 -1 67 -1t67 -1t67 -2t67 -1l42 -2q6 0 9 -1q10 -2 18 -8q14 -13 11 -34q-2 -10 -8 -16
q-4 -4 -10 -6v0l-2 -1q-3 -2 -4 -7l-8 -16q-7 -15 -13 -32q-8 -19 -23 -67q-30 -88 -44 -133l-85 -268q-56 -180 -86 -269q-28 -83 -47 -133q-18 -44 -28 -65q-27 -56 -31 -63q-1 -3 -5 -11h3q10 -3 32 -1q9 1 32 5q12 2 17 2l17 1q22 2 33 2q45 1 134 -1l66 -2h17h8h4l5 -1
q11 -1 20.5 -9t11.5 -18z" />
    <glyph glyph-name="Z" unicode="z" horiz-adv-x="559" 
d="M517 50q7 -22 -9 -40q-6 -7 -19 -11q-1 0 -5 -0.5t-6 -0.5h-8l-66 2q-88 2 -133 2h-67q-11 0 -32.5 -2t-33.5 -2q-17 0 -35 3q-19 3 -34 15q-17 13 -21 31q-5 14 -1 37q4 24 22 64q4 11 12 32.5t11 29.5l46 125q14 35 44 126l83 252l87 252q30 84 44 126l15 39
q-3 0 -10 -0.5t-11 -0.5q-15 -1 -44.5 -2t-44.5 -2q-59 -2 -177 -2q-13 0 -23 7q-11 6 -16 18q-5 11 -3 23q2 15 7 22l9 9q9 4 11 5q4 2 6 2h5q2 0 5.5 0.5t4.5 0.5l33 -1q23 -1 67 -1t67 -1t67 -2t67 -1l42 -2q6 0 9 -1q10 -2 18 -8q14 -13 11 -34q-2 -10 -8 -16
q-4 -4 -10 -6v0l-2 -1q-3 -2 -4 -7l-8 -16q-7 -15 -13 -32q-8 -19 -23 -67q-30 -88 -44 -133l-85 -268q-56 -180 -86 -269q-28 -83 -47 -133q-18 -44 -28 -65q-27 -56 -31 -63q-1 -3 -5 -11h3q10 -3 32 -1q9 1 32 5q12 2 17 2l17 1q22 2 33 2q45 1 134 -1l66 -2h17h8h4l5 -1
q11 -1 20.5 -9t11.5 -18z" />
    <glyph glyph-name="bracketleft" unicode="[" horiz-adv-x="475" 
d="M366 65q14 -2 23.5 -13.5t8.5 -25.5t-11.5 -23.5t-24.5 -8.5l-192 9h-1l-2 1q-2 0 -5 0.5t-4 1.5q-10 5 -12 7l-4 4q-1 1 -3 5l-2 2q-1 0 -1 2t-1 2q-1 2 -1 3q-1 1 -1 4q0 2 -1 5l-1 5q-2 10 -2 14t-0.5 13t-1.5 13q-1 8 -1 24t-1 24q-2 64 -2 96q-3 213 -2 382
q0 170 5 382l2 95l2 48q0 5 0.5 15t1 18t1.5 16q0 9 1 14l2 6v2q0 1 1 3t1 3q4 11 16 18l2 1h1l3 1q4 2 5 2l3 1h1h1h4h26l25 1l24 1q14 1 30 2.5t35 3.5t30 3q14 1 25.5 -8.5t13.5 -23.5q1 -14 -7.5 -25t-22.5 -13l-6 -1q-16 -2 -23 -2l-24 -1l-47 -2q-32 -2 -47 -3h-1
q-1 -13 -2 -40.5t-1 -41.5l-3 -95q-3 -128 -5 -380v-190v-96l2 -94q2 -64 4 -95q1 -16 3 -46q0 -2 0.5 -6t0.5 -6l68 -5l47 -3zM177 80h-1h1zM207 57v-1v1z" />
    <glyph glyph-name="backslash" unicode="\" horiz-adv-x="665" 
d="M93 1297l519 -1234q8 -17 -2 -30q-10 -14 -30 -14q-1 0 -2.5 0.5t-2.5 0.5q-23 3 -31 23l-519 1234q-6 13 -0.5 24t17.5 16q13 7 29 1.5t22 -21.5z" />
    <glyph glyph-name="bracketright" unicode="]" horiz-adv-x="475" 
d="M355 623v-191q-3 -190 -3 -191l-3 -96q-1 -8 -2 -24.5t-1 -24.5q-1 -4 -1.5 -12.5t-0.5 -12.5q-1 -2 -1.5 -7t-0.5 -7q-1 -2 -1.5 -5t-0.5 -5t-2 -4q0 -1 -1 -3q-1 0 -1 -1t-1 -2l-1 -1v-2l-1 -2q-1 -2 -2 -2l-4 -4q-3 -3 -11 -7q-1 -1 -4 -1.5t-5 -1.5h-2h-1l-192 -10
h-1q-15 -1 -25.5 8.5t-11.5 24.5t8.5 26t24.5 12h1l95 3l74 3q2 12 2 18q2 30 3 46q0 1 3 95q1 63 1 190l-3 191q-2 316 -4 380l-3 95q-2 58 -4 84h-4q-8 1 -23.5 1.5t-23.5 0.5q-62 2 -94 3q-15 0 -25 11t-10 26t10.5 24.5t25.5 9.5h1h1q16 -1 48 -2.5t48 -2.5l48 -4
q4 -1 12.5 -1.5t13.5 -0.5l4 -1q3 -1 4 -1t5 -2l3 -1v0l3 -1q11 -6 15 -17q0 -1 1 -3t1 -3v-2q1 -3 1 -6q1 -5 1 -13q2 -33 4 -97l3 -95q1 -42 5 -175.5t5 -206.5zM270 1203zM298 84z" />
    <glyph glyph-name="asciicircum" unicode="^" horiz-adv-x="438" 
d="M388 993q9 -11 7 -26t-13 -24q-8 -7 -22 -7q-17 0 -28 14q-67 86 -114 131q-45 -47 -112 -131q-9 -11 -24 -12.5t-26 7.5t-12.5 24t7.5 26q124 154 154 163q15 5 27 1t51.5 -43.5t104.5 -122.5z" />
    <glyph glyph-name="grave" unicode="`" horiz-adv-x="212" 
d="M163 958q7 -17 -4 -34.5t-28 -22.5q-18 -5 -33.5 4.5t-22.5 27.5q-23 61 -28 129q-1 18 13.5 32t32.5 14q19 0 31 -13.5t14 -32.5q4 -49 25 -104z" />
    <glyph glyph-name="braceleft" unicode="{" horiz-adv-x="512" 
d="M197 550zM398 83q16 1 27.5 -9.5t13.5 -26.5q1 -16 -9.5 -27.5t-26.5 -13.5h-2h-1h-28q-4 0 -13 1t-13 2q-30 3 -54 10q-30 8 -55 25q-11 8 -26 24q-11 13 -18 33q-6 14 -6 36q0 5 0.5 14t0.5 13q3 47 3 49l10 96q2 34 10 95q4 32 4 47q1 20 -2 45q-4 30 -8 41q-1 3 -3 7
q-1 3 -3 5l-1 1h-1q-1 1 -7 4q-24 12 -41 18q-7 3 -21 7q-2 1 -5 2t-5 1h-1q-32 0 -39 31q-3 15 5 27t22 17q1 0 3 1h1l2 1q3 0 9 2q2 1 5.5 1t4.5 1q4 1 10.5 3.5t8.5 3.5q8 3 17 8q4 2 7 4l3 3l1 1h1l4 7q1 3 2.5 8.5t2.5 8.5q4 16 7 41q7 66 1 186l-1 47l-1 48v49v26
q0 17 6 34q5 15 18 31q9 11 25 21q18 13 53 25q16 6 52 12q4 0 13 1t13 2q18 2 27 2q16 1 27.5 -10t12.5 -27t-10.5 -27.5t-27.5 -12.5h-3h-1h-21q-15 0 -22 -1q-15 -1 -41 -7q-22 -5 -34 -13q-14 -9 -18 -19l-2 -4q-1 -5 -1 -8v-23q0 -15 2 -47l5 -96q8 -121 2 -196
q-4 -36 -8 -53q-3 -12 -9 -28q-11 -22 -22 -32l-4 -4l-3 -2q-1 -1 -2.5 -2t-2.5 -2l8 -4q2 -1 14 -9q1 -1 3 -2.5t3 -1.5l4 -4q3 -3 7 -9q9 -13 10 -16q2 -4 4 -9.5t2 -6.5q7 -20 11 -56q3 -35 1 -102q-1 -34 -7 -98l-10 -97q-4 -32 -5 -47q-1 -8 -1 -22q0 -6 2 -12
q3 -12 16 -20q10 -7 34 -14q12 -4 42 -8q7 -1 22 -1q4 0 11 0.5t10 0.5z" />
    <glyph glyph-name="verticalbar" unicode="|" horiz-adv-x="327" 
d="M165 1210q15 -1 25.5 -11.5t10.5 -25.5l2 -576l2 -288l1 -144v-72l-1 -36v-18q0 -12 -4 -18q-11 -16 -29.5 -20t-34.5 6q-7 5 -12 12l-1 2q-5 7 -5 18l2 54l4 72q3 48 3 144q0 53 -2.5 151.5t-2.5 136.5q-1 48 -1 288l1 144l3 144v2q1 16 12 26t27 9z" />
    <glyph glyph-name="braceright" unicode="}" horiz-adv-x="512" 
d="M398 659q16 -1 26.5 -14t8.5 -29q-1 -15 -12.5 -24.5t-25.5 -9.5l-4 -1l-9 -3q-6 -2 -20 -8q-27 -12 -41 -20q-2 -1 -5 -4q-1 1 -1 0l-2 -4q-2 -4 -3 -7q-5 -14 -7 -39q-3 -29 -1 -92q2 -47 6 -95l9 -96q0 -8 1.5 -24t2.5 -25q1 -8 1 -27q0 -21 -5 -36q-6 -19 -19 -33
q-15 -16 -26 -24q-25 -17 -55 -25q-24 -7 -54 -10q-4 -1 -12.5 -2t-13.5 -1h-28q-15 0 -25 11t-10 26q0 23 21 33l17 7q6 3 13 4t15.5 1t13.5 1q15 1 41 7q16 4 33 13q8 6 10 8q4 5 6 9q1 2 1 6l1 5v22q0 15 -2 47l-3 49l-4 48q-2 16 -4 49t-3 49q-6 66 -4 102q2 28 10 56
q0 1 2 6.5t4 9.5q2 5 10 17q4 6 7 9l1 2l3 3q1 0 3 2t3 2q5 4 15 9q2 1 5 2t4 2l-4 4l-3 2l-4 4q-11 11 -21 31q-6 16 -9 28q-6 28 -9 52q-7 57 -8 99q-1 17 2 98q1 32 5 96q2 32 3 47v22q0 4 -2 10q-1 3 -5 9q-2 3 -10 9q-11 7 -33 14q-13 4 -41 8q-14 2 -22 2h-20h-1
q-16 0 -27.5 11t-11.5 27t10.5 27.5t26.5 11.5h28q8 0 26 -2q22 -2 53 -11t54 -24q14 -9 26 -23q11 -12 19 -32q7 -21 7 -36q0 -5 -0.5 -13.5t-0.5 -12.5q-1 -17 -3 -49l-8 -95q-9 -116 -1 -186q4 -30 8 -43q1 -4 4 -10t3 -7q4 -8 5 -8l2 -1q1 0 1 -1l2 -1q1 0 3.5 -2
t4.5 -3q4 -2 18 -7q12 -4 19 -6q2 0 5 -1t5 -1q3 -1 9 -1zM315 546z" />
    <glyph glyph-name="asciitilde" unicode="~" horiz-adv-x="747" 
d="M52 560q0 1 -0.5 4t-0.5 4q0 3 1 8t1 7q0 10 1 15t2.5 14.5t2.5 13.5q3 12 8 28q4 13 11 28q16 32 39 50q27 21 62 24q52 5 114 -17q40 -15 94 -47q53 -31 88 -44q3 -1 23 -7q17 -4 22 -5l12 -2q2 0 5 -0.5t5 -0.5q8 -1 21 1q35 4 51 45q9 23 10 42q1 7 1 23
q0 2 -0.5 5.5t-0.5 5.5v10q-2 14 6.5 26.5t22.5 14.5t26.5 -6.5t14.5 -22.5v-5v-3v-15q0 -2 -0.5 -7t-0.5 -8q-3 -26 -3 -28q-5 -32 -17 -57q-14 -33 -39 -54q-27 -23 -63 -26q-15 -3 -32 -1q-10 0 -15 1l-14 3q-21 3 -54 15q-38 13 -97 42q-78 35 -91 40q-19 7 -22 8
q-4 1 -11 2.5t-11 2.5q-3 1 -10.5 2t-11.5 1h-10l-5 1l-4 -1q-17 -1 -27 -10q-11 -9 -17 -26q-6 -18 -8 -39q-1 -7 -1 -21v-11q0 -2 0.5 -5t0.5 -4v-1q2 -17 -8 -30.5t-26 -15.5q-17 -2 -30 7.5t-15 25.5z" />
    <glyph glyph-name="nonbreakingspace" unicode="&#xa0;" horiz-adv-x="380" 
 />
    <glyph glyph-name="exclamdown" unicode="&#xa1;" horiz-adv-x="364" 
d="M157 1179q-31 20 -39 50q-13 44 23 62q23 11 45 6q16 -2 24 -8l2 -2q35 -21 36 -58q0 -11 -5 -17q-2 -30 -22 -42q-27 -17 -64 9zM257 81q2 -32 -18 -55.5t-51 -25.5q-32 -2 -55.5 18.5t-25.5 51.5v11q3 38 13 227q6 113 9 226q3 74 5 227q1 76 -3 226q-1 21 13.5 36
t35.5 16t36.5 -13.5t16.5 -35.5v-3q-4 -150 -3 -226q2 -152 5 -227q3 -115 9 -226q10 -194 13 -227z" />
    <glyph glyph-name="sterling" unicode="&#xa3;" horiz-adv-x="790" 
d="M660 144zM710 142q10 -11 9.5 -25.5t-11.5 -24.5l-12 -9q-1 -1 -5.5 -3t-5.5 -3q-3 -2 -20 -9q-21 -8 -42 -12q-27 -6 -81 -10q-26 -2 -40 -1q-20 0 -39 3q-7 1 -21 3.5t-18 3.5l-34 7q-62 10 -132 -3q-22 -4 -64 -20l-15 -6q-5 -2 -15 -8q-3 -1 -7 -4t-7 -4
q-1 -1 -3 -2.5t-3 -1.5l-6 -4l-5 -3q-12 -8 -26 -5t-22 15q-14 20 0 39q15 20 50 80q30 56 43 85q42 89 64 178q13 54 15 92v28q-8 0 -24.5 1t-24.5 1l-96 3q-15 1 -25 11.5t-9 25.5t11.5 25t25.5 9h3q44 -6 93 -9q7 -1 20 -1t20 -1l-8 44q-6 30 -8 50q-5 44 -7 99
q-3 113 18 202q13 56 36 98q28 56 70 86q24 18 52 27q32 10 58 10q32 0 60 -12q30 -13 51 -32q17 -16 37 -43q19 -26 29 -46q16 -32 21 -49q4 -12 6 -26q2 -23 2 -28q-2 -15 -13 -24.5t-26 -8.5q-18 2 -28 16l-3 6q-5 6 -9 20l-6 21q-4 14 -14 42q-9 25 -17 39t-25 31
q-28 27 -65 27q-42 0 -71 -23q-29 -21 -50 -63q-18 -35 -30 -84q-19 -79 -17 -184q2 -48 6 -94q1 -8 2.5 -23.5t2.5 -23.5l3 -23q0 -5 1 -13t2 -13v-7q58 0 86 2q54 3 90 11q14 3 26.5 -6t15.5 -23t-5.5 -26t-22.5 -15h-2l-2 -1q-32 -3 -98 -5q0 -1 -45 0h-44l-3 -33
q-6 -48 -17 -99q-19 -82 -61 -189q-6 -14 -32 -74q10 4 43 13q82 20 162 8l73 -13q47 -8 68 -10q31 -3 66 4q13 2 30 8q5 2 13 6l6 3l2 2q11 10 25.5 9.5t24.5 -11.5z" />
    <glyph glyph-name="softhyphen" unicode="&#xad;" horiz-adv-x="0" 
 />
    <glyph glyph-name="questiondown" unicode="&#xbf;" horiz-adv-x="679" 
d="M315 1131q-31 20 -39 50q-13 43 23 61q24 11 45 7q14 -2 23 -8l1 -1q2 0 2 -1q35 -21 36 -58q0 -11 -5 -17q-2 -30 -22 -42q-27 -17 -64 9zM607 297q5 -68 -12 -115q-18 -53 -66 -99q-18 -17 -44 -34q-4 -3 -11 -8t-11 -7q-2 -1 -7 -4t-7 -4q-3 -1 -7 -3t-7 -3
q-56 -24 -119 -19q-64 5 -115 40q-52 36 -79 93q-24 50 -32 110l-3 27q-1 9 -1 27q0 9 0.5 26t0.5 26q1 8 2 26.5t2 26.5q1 9 4 26t4 26q18 98 68 197q23 44 51 88q9 14 27 41l26 39q12 18 19 36q8 18 12 39q5 21 6 43q2 14 2 22v21v3q0 13 8.5 22.5t21.5 9.5q23 0 30 -23
q4 -13 7 -27q2 -9 4 -27q3 -24 1 -54q-2 -28 -9 -56q-8 -30 -20 -54q-2 -4 -49 -86q-24 -42 -43 -83q-41 -88 -58 -172q-3 -17 -7 -44q0 -8 -2 -23t-2 -22l-1 -45v-22q1 -3 1 -10t1 -11q5 -47 20 -78q18 -37 45 -56q29 -20 66 -23t73 10l8 4l8 4l18 12q24 16 34 24
q28 24 44 60q14 37 13 78q-1 34 -14 87v1q-4 16 4.5 30t24.5 18q15 4 28.5 -4t18.5 -22q17 -52 23 -105z" />
    <glyph glyph-name="Agrave" unicode="&#xc0;" horiz-adv-x="733" 
d="M685 50q2 -13 -2 -22q-4 -10 -15 -15t-21 -4q-12 2 -19 10q-6 7 -8 19l-14 59q-21 93 -35 157q-7 30 -20 90.5t-19 90.5q-90 3 -199 11l-96 9q-5 -18 -15 -54.5t-15 -54.5l-44 -157l-45 -158q-6 -17 -16 -24q-13 -9 -28 -7q-14 2 -25 11q-13 11 -14 25v7q0 1 0.5 3.5
t0.5 3.5t0.5 2.5t0.5 2.5l1 5l6 20l11 40l45 157l44 159q31 119 41 158q57 225 83 318q51 183 101 313q5 14 17 21q11 7 27 7q7 0 14 -3q1 0 3 0.5t3 0.5q14 0 24 -13q5 -6 8 -23l3 -20l7 -40l26 -159q43 -251 55 -316q65 -350 129 -630zM428 521l87 -3q-8 34 -11 51
q-52 253 -96 510q-8 -23 -31 -100q-25 -81 -45 -157q-14 -53 -40 -159q-11 -45 -35 -135q28 1 63 -2q18 -1 54 -2.5t54 -2.5zM418 1344q-30 76 -64 141q-8 17 2.5 29t27.5 11t26 -17q34 -65 64 -141q7 -17 -4.5 -30t-28 -11.5t-23.5 18.5z" />
    <glyph glyph-name="Agrave" unicode="&#xe0;" horiz-adv-x="733" 
d="M685 50q2 -13 -2 -22q-4 -10 -15 -15t-21 -4q-12 2 -19 10q-6 7 -8 19l-14 59q-21 93 -35 157q-7 30 -20 90.5t-19 90.5q-90 3 -199 11l-96 9q-5 -18 -15 -54.5t-15 -54.5l-44 -157l-45 -158q-6 -17 -16 -24q-13 -9 -28 -7q-14 2 -25 11q-13 11 -14 25v7q0 1 0.5 3.5
t0.5 3.5t0.5 2.5t0.5 2.5l1 5l6 20l11 40l45 157l44 159q31 119 41 158q57 225 83 318q51 183 101 313q5 14 17 21q11 7 27 7q7 0 14 -3q1 0 3 0.5t3 0.5q14 0 24 -13q5 -6 8 -23l3 -20l7 -40l26 -159q43 -251 55 -316q65 -350 129 -630zM428 521l87 -3q-8 34 -11 51
q-52 253 -96 510q-8 -23 -31 -100q-25 -81 -45 -157q-14 -53 -40 -159q-11 -45 -35 -135q28 1 63 -2q18 -1 54 -2.5t54 -2.5zM418 1344q-30 76 -64 141q-8 17 2.5 29t27.5 11t26 -17q34 -65 64 -141q7 -17 -4.5 -30t-28 -11.5t-23.5 18.5z" />
    <glyph glyph-name="Aacute" unicode="&#xc1;" horiz-adv-x="733" 
d="M685 50q2 -13 -2 -22q-4 -10 -15 -15t-21 -4q-12 2 -19 10q-6 7 -8 19l-14 59q-21 93 -35 157q-7 30 -20 90.5t-19 90.5q-90 3 -199 11l-96 9q-5 -18 -15 -54.5t-15 -54.5l-44 -157l-45 -158q-6 -17 -16 -24q-13 -9 -28 -7q-14 2 -25 11q-13 11 -14 25v7q0 1 0.5 3.5
t0.5 3.5t0.5 2.5t0.5 2.5l1 5l6 20l11 40l45 157l44 159q31 119 41 158q57 225 83 318q51 183 101 313q5 14 17 21q11 7 27 7q7 0 14 -3q1 0 3 0.5t3 0.5q14 0 24 -13q5 -6 8 -23l3 -20l7 -40l26 -159q43 -251 55 -316q65 -350 129 -630zM428 521l87 -3q-8 34 -11 51
q-52 253 -96 510q-8 -23 -31 -100q-25 -81 -45 -157q-14 -53 -40 -159q-11 -45 -35 -135q35 2 63 -1zM409 1334q-11 -15 -28.5 -11.5t-24 17.5t3.5 30q45 59 87 128q9 16 26 13t24 -17.5t-1 -31.5q-42 -69 -87 -128z" />
    <glyph glyph-name="Aacute" unicode="&#xe1;" horiz-adv-x="733" 
d="M685 50q2 -13 -2 -22q-4 -10 -15 -15t-21 -4q-12 2 -19 10q-6 7 -8 19l-14 59q-21 93 -35 157q-7 30 -20 90.5t-19 90.5q-90 3 -199 11l-96 9q-5 -18 -15 -54.5t-15 -54.5l-44 -157l-45 -158q-6 -17 -16 -24q-13 -9 -28 -7q-14 2 -25 11q-13 11 -14 25v7q0 1 0.5 3.5
t0.5 3.5t0.5 2.5t0.5 2.5l1 5l6 20l11 40l45 157l44 159q31 119 41 158q57 225 83 318q51 183 101 313q5 14 17 21q11 7 27 7q7 0 14 -3q1 0 3 0.5t3 0.5q14 0 24 -13q5 -6 8 -23l3 -20l7 -40l26 -159q43 -251 55 -316q65 -350 129 -630zM428 521l87 -3q-8 34 -11 51
q-52 253 -96 510q-8 -23 -31 -100q-25 -81 -45 -157q-14 -53 -40 -159q-11 -45 -35 -135q35 2 63 -1zM409 1334q-11 -15 -28.5 -11.5t-24 17.5t3.5 30q45 59 87 128q9 16 26 13t24 -17.5t-1 -31.5q-42 -69 -87 -128z" />
    <glyph glyph-name="Acircumflex" unicode="&#xc2;" horiz-adv-x="737" 
d="M685 50q2 -13 -2 -22q-4 -10 -15 -15t-21 -4q-12 2 -19 10q-6 7 -8 19l-14 59q-21 93 -35 157q-7 30 -20 90.5t-19 90.5q-90 3 -199 11l-96 9q-5 -18 -15 -54.5t-15 -54.5l-44 -157l-45 -158q-6 -17 -16 -24q-13 -9 -28 -7q-14 2 -25 11q-13 11 -14 25v7q0 1 0.5 3.5
t0.5 3.5t0.5 2.5t0.5 2.5l1 5l6 20l11 40l45 157l44 159q31 119 41 158q57 225 83 318q51 183 101 313q5 14 17 21q11 7 27 7q7 0 14 -3q1 0 3 0.5t3 0.5q14 0 24 -13q5 -6 8 -23l3 -20l7 -40l26 -159q43 -251 55 -316q65 -350 129 -630zM428 521l87 -3q-8 34 -11 51
q-52 253 -96 510q-8 -23 -31 -100q-25 -81 -45 -157q-14 -53 -40 -159q-11 -45 -35 -135q35 2 63 -1zM280 1256q-9 -9 -21.5 -9t-21.5 9q-19 17 -4 39q33 49 76 102q13 17 43 49q4 5 12.5 12.5t11.5 10.5q8 8 13 12q2 1 4.5 3.5l3.5 3.5q9 6 11 7l8 4q1 0 7 2q3 1 9 1
q7 0 11 -1q1 0 2.5 -0.5t2.5 -0.5h1q1 -1 2 -1q1 -1 3.5 -1t3.5 -1l1 -1l1 -1l2 -1q3 -3 7 -5l5 -4l8 -8q16 -18 24 -28q17 -25 35 -56q32 -57 57 -115q5 -12 0.5 -23t-16.5 -16q-24 -10 -38 11l-68 103q-22 34 -34 49l-9 12l-3 -3q-14 -12 -22 -20q-14 -14 -42 -44
q-56 -60 -85 -90zM421 1426z" />
    <glyph glyph-name="Acircumflex" unicode="&#xe2;" horiz-adv-x="737" 
d="M685 50q2 -13 -2 -22q-4 -10 -15 -15t-21 -4q-12 2 -19 10q-6 7 -8 19l-14 59q-21 93 -35 157q-7 30 -20 90.5t-19 90.5q-90 3 -199 11l-96 9q-5 -18 -15 -54.5t-15 -54.5l-44 -157l-45 -158q-6 -17 -16 -24q-13 -9 -28 -7q-14 2 -25 11q-13 11 -14 25v7q0 1 0.5 3.5
t0.5 3.5t0.5 2.5t0.5 2.5l1 5l6 20l11 40l45 157l44 159q31 119 41 158q57 225 83 318q51 183 101 313q5 14 17 21q11 7 27 7q7 0 14 -3q1 0 3 0.5t3 0.5q14 0 24 -13q5 -6 8 -23l3 -20l7 -40l26 -159q43 -251 55 -316q65 -350 129 -630zM428 521l87 -3q-8 34 -11 51
q-52 253 -96 510q-8 -23 -31 -100q-25 -81 -45 -157q-14 -53 -40 -159q-11 -45 -35 -135q35 2 63 -1zM280 1256q-9 -9 -21.5 -9t-21.5 9q-19 17 -4 39q33 49 76 102q13 17 43 49q4 5 12.5 12.5t11.5 10.5q8 8 13 12q2 1 4.5 3.5l3.5 3.5q9 6 11 7l8 4q1 0 7 2q3 1 9 1
q7 0 11 -1q1 0 2.5 -0.5t2.5 -0.5h1q1 -1 2 -1q1 -1 3.5 -1t3.5 -1l1 -1l1 -1l2 -1q3 -3 7 -5l5 -4l8 -8q16 -18 24 -28q17 -25 35 -56q32 -57 57 -115q5 -12 0.5 -23t-16.5 -16q-24 -10 -38 11l-68 103q-22 34 -34 49l-9 12l-3 -3q-14 -12 -22 -20q-14 -14 -42 -44
q-56 -60 -85 -90zM421 1426z" />
    <glyph glyph-name="Atilde" unicode="&#xc3;" horiz-adv-x="735" 
d="M685 50q2 -13 -2 -22q-4 -10 -15 -15t-21 -4q-12 2 -19 10q-6 7 -8 19l-14 59q-21 93 -35 157q-7 30 -20 90.5t-19 90.5q-90 3 -199 11l-96 9q-5 -18 -15 -54.5t-15 -54.5l-44 -157l-45 -158q-6 -17 -16 -24q-13 -9 -28 -7q-14 2 -25 11q-13 11 -14 25v7q0 1 0.5 3.5
t0.5 3.5t0.5 2.5t0.5 2.5l1 5l6 20l11 40l45 157l44 159q31 119 41 158q57 225 83 318q51 183 101 313q5 14 17 21q11 7 27 7q7 0 14 -3q1 0 3 0.5t3 0.5q14 0 24 -13q5 -6 8 -23l3 -20l7 -40l26 -159q43 -251 55 -316q65 -350 129 -630zM428 521l87 -3q-8 34 -11 51
q-52 253 -96 510q-8 -23 -31 -100q-25 -81 -45 -157q-14 -53 -40 -159q-11 -45 -35 -135q35 2 63 -1zM236 1298q-14 9 -18 25t5 30q59 88 134 102q57 10 114 -49q22 -22 26 -22h1q15 0 38 14t38 28q12 11 28.5 11t27.5 -12t11 -29t-12 -28q-72 -66 -134 -64q-37 1 -82 46
q-28 28 -42 26q-24 -5 -46.5 -26t-33.5 -39q-13 -19 -34 -19q-11 0 -21 6z" />
    <glyph glyph-name="Atilde" unicode="&#xe3;" horiz-adv-x="735" 
d="M685 50q2 -13 -2 -22q-4 -10 -15 -15t-21 -4q-12 2 -19 10q-6 7 -8 19l-14 59q-21 93 -35 157q-7 30 -20 90.5t-19 90.5q-90 3 -199 11l-96 9q-5 -18 -15 -54.5t-15 -54.5l-44 -157l-45 -158q-6 -17 -16 -24q-13 -9 -28 -7q-14 2 -25 11q-13 11 -14 25v7q0 1 0.5 3.5
t0.5 3.5t0.5 2.5t0.5 2.5l1 5l6 20l11 40l45 157l44 159q31 119 41 158q57 225 83 318q51 183 101 313q5 14 17 21q11 7 27 7q7 0 14 -3q1 0 3 0.5t3 0.5q14 0 24 -13q5 -6 8 -23l3 -20l7 -40l26 -159q43 -251 55 -316q65 -350 129 -630zM428 521l87 -3q-8 34 -11 51
q-52 253 -96 510q-8 -23 -31 -100q-25 -81 -45 -157q-14 -53 -40 -159q-11 -45 -35 -135q35 2 63 -1zM236 1298q-14 9 -18 25t5 30q59 88 134 102q57 10 114 -49q22 -22 26 -22h1q15 0 38 14t38 28q12 11 28.5 11t27.5 -12t11 -29t-12 -28q-72 -66 -134 -64q-37 1 -82 46
q-28 28 -42 26q-24 -5 -46.5 -26t-33.5 -39q-13 -19 -34 -19q-11 0 -21 6z" />
    <glyph glyph-name="Adieresis" unicode="&#xc4;" horiz-adv-x="735" 
d="M685 50q2 -13 -2 -22q-4 -10 -15 -15t-21 -4q-12 2 -19 10q-6 7 -8 19l-14 59q-21 93 -35 157q-7 30 -20 90.5t-19 90.5q-90 3 -199 11l-96 9q-5 -18 -15 -54.5t-15 -54.5l-44 -157l-45 -158q-6 -17 -16 -24q-13 -9 -28 -7q-14 2 -25 11q-13 11 -14 25v7q0 1 0.5 3.5
t0.5 3.5t0.5 2.5t0.5 2.5l1 5l6 20l11 40l45 157l44 159q31 119 41 158q57 225 83 318q51 183 101 313q5 14 17 21q11 7 27 7q7 0 14 -3q1 0 3 0.5t3 0.5q14 0 24 -13q5 -6 8 -23l3 -20l7 -40l26 -159q43 -251 55 -316q65 -350 129 -630zM428 521l87 -3q-8 34 -11 51
q-52 253 -96 510q-8 -23 -31 -100q-25 -81 -45 -157q-14 -53 -40 -159q-11 -45 -35 -135q35 2 63 -1zM263 1310q-35 21 -36 58q0 11 5 17q2 30 22 42q27 17 64 -8q30 -20 39 -51q13 -43 -23 -61q-24 -11 -45 -7q-16 2 -24 8zM520 1301q-18 13 -27 37q-5 14 -4 25v3
q2 40 33 59q9 5 18 4q27 13 47 1q27 -15 23 -60q-4 -39 -25 -59q-33 -32 -65 -10z" />
    <glyph glyph-name="Adieresis" unicode="&#xe4;" horiz-adv-x="735" 
d="M685 50q2 -13 -2 -22q-4 -10 -15 -15t-21 -4q-12 2 -19 10q-6 7 -8 19l-14 59q-21 93 -35 157q-7 30 -20 90.5t-19 90.5q-90 3 -199 11l-96 9q-5 -18 -15 -54.5t-15 -54.5l-44 -157l-45 -158q-6 -17 -16 -24q-13 -9 -28 -7q-14 2 -25 11q-13 11 -14 25v7q0 1 0.5 3.5
t0.5 3.5t0.5 2.5t0.5 2.5l1 5l6 20l11 40l45 157l44 159q31 119 41 158q57 225 83 318q51 183 101 313q5 14 17 21q11 7 27 7q7 0 14 -3q1 0 3 0.5t3 0.5q14 0 24 -13q5 -6 8 -23l3 -20l7 -40l26 -159q43 -251 55 -316q65 -350 129 -630zM428 521l87 -3q-8 34 -11 51
q-52 253 -96 510q-8 -23 -31 -100q-25 -81 -45 -157q-14 -53 -40 -159q-11 -45 -35 -135q35 2 63 -1zM263 1310q-35 21 -36 58q0 11 5 17q2 30 22 42q27 17 64 -8q30 -20 39 -51q13 -43 -23 -61q-24 -11 -45 -7q-16 2 -24 8zM520 1301q-18 13 -27 37q-5 14 -4 25v3
q2 40 33 59q9 5 18 4q27 13 47 1q27 -15 23 -60q-4 -39 -25 -59q-33 -32 -65 -10z" />
    <glyph glyph-name="Aring" unicode="&#xc5;" horiz-adv-x="735" 
d="M685 50q2 -13 -2 -22q-4 -10 -15 -15t-21 -4q-12 2 -19 10q-6 7 -8 19l-14 59q-21 93 -35 157q-7 30 -20 90.5t-19 90.5q-90 3 -199 11l-96 9q-5 -18 -15 -54.5t-15 -54.5l-44 -157l-45 -158q-6 -17 -16 -24q-13 -9 -28 -7q-14 2 -25 11q-13 11 -14 25v7q0 1 0.5 3.5
t0.5 3.5t0.5 2.5t0.5 2.5l1 5l6 20l11 40l45 157l44 159q31 119 41 158q57 225 83 318q49 173 89 282q-37 15 -63 46q-19 22 -29 53q-9 33 -8 58q0 5 5 30q1 2 2.5 7t2.5 8q1 2 4 7t4 7q17 27 41 44q20 14 53 23q17 4 28 5h14h12h2h4h7q10 0 15 -1l15 -3q3 -1 14 -5
q32 -12 51 -38q1 -1 8 -13q0 -1 1.5 -3.5t2.5 -3.5l3 -7q4 -11 5 -14l4 -15q5 -23 3 -54t-11 -56q-11 -29 -35 -52q-21 -18 -43 -26l6 -36l26 -159q43 -251 55 -316q65 -350 129 -630zM349 1287q22 -25 58 -30q14 -2 31 1q17 5 26 13q22 19 25 59q5 42 -11 67q-16 26 -55 24
h-11l-9 -1q-12 -2 -18 -4q-20 -7 -31 -15q-14 -11 -21 -24q-1 -1 -2 -3.5t-1 -3.5t-1 -3.5t-1 -3.5q0 -2 -1 -7t0 -8q-1 -8 6 -33q7 -18 16 -28zM428 521l87 -3q-8 34 -11 51q-52 253 -96 510q-8 -23 -31 -100q-25 -81 -45 -157q-14 -53 -40 -159q-11 -45 -35 -135
q28 1 63 -2q18 -1 54 -2.5t54 -2.5z" />
    <glyph glyph-name="Aring" unicode="&#xe5;" horiz-adv-x="735" 
d="M685 50q2 -13 -2 -22q-4 -10 -15 -15t-21 -4q-12 2 -19 10q-6 7 -8 19l-14 59q-21 93 -35 157q-7 30 -20 90.5t-19 90.5q-90 3 -199 11l-96 9q-5 -18 -15 -54.5t-15 -54.5l-44 -157l-45 -158q-6 -17 -16 -24q-13 -9 -28 -7q-14 2 -25 11q-13 11 -14 25v7q0 1 0.5 3.5
t0.5 3.5t0.5 2.5t0.5 2.5l1 5l6 20l11 40l45 157l44 159q31 119 41 158q57 225 83 318q49 173 89 282q-37 15 -63 46q-19 22 -29 53q-9 33 -8 58q0 5 5 30q1 2 2.5 7t2.5 8q1 2 4 7t4 7q17 27 41 44q20 14 53 23q17 4 28 5h14h12h2h4h7q10 0 15 -1l15 -3q3 -1 14 -5
q32 -12 51 -38q1 -1 8 -13q0 -1 1.5 -3.5t2.5 -3.5l3 -7q4 -11 5 -14l4 -15q5 -23 3 -54t-11 -56q-11 -29 -35 -52q-21 -18 -43 -26l6 -36l26 -159q43 -251 55 -316q65 -350 129 -630zM349 1287q22 -25 58 -30q14 -2 31 1q17 5 26 13q22 19 25 59q5 42 -11 67q-16 26 -55 24
h-11l-9 -1q-12 -2 -18 -4q-20 -7 -31 -15q-14 -11 -21 -24q-1 -1 -2 -3.5t-1 -3.5t-1 -3.5t-1 -3.5q0 -2 -1 -7t0 -8q-1 -8 6 -33q7 -18 16 -28zM428 521l87 -3q-8 34 -11 51q-52 253 -96 510q-8 -23 -31 -100q-25 -81 -45 -157q-14 -53 -40 -159q-11 -45 -35 -135
q28 1 63 -2q18 -1 54 -2.5t54 -2.5z" />
    <glyph glyph-name="AE" unicode="&#xc6;" horiz-adv-x="946" 
d="M919 71q9 -17 3 -34l-2 -5l-3 -4q-3 -4 -7 -7t-8 -4l-9 -3q-4 0 -12.5 -1t-13.5 -2q-9 -1 -26.5 -3t-25.5 -3q-58 -5 -104 -5q-36 0 -53 1q-1 0 -21 1t-31 2q-37 4 -55 17q-14 9 -21 22q-6 11 -10 28q-12 62 -20 208l-13 207l-1 18q-41 2 -123 8q-11 0 -23 1t-27 2.5
t-24 2.5q-5 0 -15 2t-15 2q-10 -32 -28.5 -98.5t-27.5 -98.5l-43 -151q-24 -85 -50 -148q-7 -16 -21.5 -22.5t-30.5 0.5q-13 5 -20 17.5t-5 25.5q10 63 37 154q30 100 46 150q28 91 66 203q-3 8 -1 21q3 17 17 26q3 8 8.5 24.5t8.5 24.5q57 165 106 297q38 98 59 147
q32 70 34 74q13 28 19 38q8 14 14 21q1 2 5 6l3 3l1 2l2 1q2 1 5 3.5t4 3.5l15 6q9 2 21 -1q6 4 10 5q11 3 27 5q9 1 27 1t52 -2l52 -1l52 -1l52 -1q12 0 20 -7t10 -19q2 -11 -3.5 -21.5t-15.5 -14.5q-5 -2 -21 -2l-21 -1h-42l-83 -1h-42h-11q-4 0 -10 -2q-3 -1 -10 -1h-6
h-1v-9q0 -2 0.5 -6.5t0.5 -6.5l3 -25q0 -9 0.5 -26t1.5 -26t1 -26t1 -26l3 -52q4 -69 10 -207q1 -44 5 -132q1 0 4 0.5t4 0.5h16q5 0 16 -0.5t16 -0.5l67 1h32h4l5 -1q4 0 10 -2q13 -6 16 -13q11 -19 2 -38q-8 -20 -32 -20q-80 -2 -133 3l-24 3q4 -72 10 -216
q8 -184 10 -207q5 -46 7 -50q4 -12 14 -18q9 -7 23 -9q11 -2 51 -2q35 0 52 1q34 2 102 12l26 4l6 1q1 0 3 0.5t4 0.5q8 1 18 -2q17 -6 25 -23zM473 582h9l-1 8l-4 104q-7 193 -7 415q0 3 -0.5 11t-0.5 12q-17 -30 -30 -63q-20 -47 -54 -145q-41 -119 -95 -298
q-2 -5 -5 -15.5t-4 -15.5l18 -3q23 -3 69 -7q34 -3 70 -3h35z" />
    <glyph glyph-name="AE" unicode="&#xe6;" horiz-adv-x="946" 
d="M919 71q9 -17 3 -34l-2 -5l-3 -4q-3 -4 -7 -7t-8 -4l-9 -3q-4 0 -12.5 -1t-13.5 -2q-9 -1 -26.5 -3t-25.5 -3q-58 -5 -104 -5q-36 0 -53 1q-1 0 -21 1t-31 2q-37 4 -55 17q-14 9 -21 22q-6 11 -10 28q-12 62 -20 208l-13 207l-1 18q-41 2 -123 8q-11 0 -23 1t-27 2.5
t-24 2.5q-5 0 -15 2t-15 2q-10 -32 -28.5 -98.5t-27.5 -98.5l-43 -151q-24 -85 -50 -148q-7 -16 -21.5 -22.5t-30.5 0.5q-13 5 -20 17.5t-5 25.5q10 63 37 154q30 100 46 150q28 91 66 203q-3 8 -1 21q3 17 17 26q3 8 8.5 24.5t8.5 24.5q57 165 106 297q38 98 59 147
q32 70 34 74q13 28 19 38q8 14 14 21q1 2 5 6l3 3l1 2l2 1q2 1 5 3.5t4 3.5l15 6q9 2 21 -1q6 4 10 5q11 3 27 5q9 1 27 1t52 -2l52 -1l52 -1l52 -1q12 0 20 -7t10 -19q2 -11 -3.5 -21.5t-15.5 -14.5q-5 -2 -21 -2l-21 -1h-42l-83 -1h-42h-11q-4 0 -10 -2q-3 -1 -10 -1h-6
h-1v-9q0 -2 0.5 -6.5t0.5 -6.5l3 -25q0 -9 0.5 -26t1.5 -26t1 -26t1 -26l3 -52q4 -69 10 -207q1 -44 5 -132q1 0 4 0.5t4 0.5h16q5 0 16 -0.5t16 -0.5l67 1h32h4l5 -1q4 0 10 -2q13 -6 16 -13q11 -19 2 -38q-8 -20 -32 -20q-80 -2 -133 3l-24 3q4 -72 10 -216
q8 -184 10 -207q5 -46 7 -50q4 -12 14 -18q9 -7 23 -9q11 -2 51 -2q35 0 52 1q34 2 102 12l26 4l6 1q1 0 3 0.5t4 0.5q8 1 18 -2q17 -6 25 -23zM473 582h9l-1 8l-4 104q-7 193 -7 415q0 3 -0.5 11t-0.5 12q-17 -30 -30 -63q-20 -47 -54 -145q-41 -119 -95 -298
q-2 -5 -5 -15.5t-4 -15.5l18 -3q23 -3 69 -7q34 -3 70 -3h35z" />
    <glyph glyph-name="Egrave" unicode="&#xc8;" horiz-adv-x="585" 
d="M557 71q9 -17 3 -34l-1 -5l-3 -4q-3 -4 -7 -7q-3 -2 -9 -4l-4 -2t-4 -1q-5 0 -13.5 -1t-12.5 -2q-8 -1 -25.5 -3t-26.5 -3q-58 -5 -105 -5q-36 0 -53 1q-1 0 -21 1t-31 2q-37 4 -55 17q-12 8 -20 22t-11 28q-10 54 -19 208l-13 207l-6 104l-5 104q-7 193 -7 415
q0 8 -0.5 25.5t-0.5 26.5q0 39 5 54q4 14 15 25.5t25 15.5q11 3 27 5q9 1 26 1q18 0 52 -2l52 -1l52 -1l52 -1q12 0 20 -7q9 -8 11 -19t-4 -21.5t-16 -14.5q-5 -2 -21 -2l-21 -1h-42l-83 -1h-42h-10q-5 0 -11 -2q-3 -1 -10 -1h-5h-1v-9q0 -2 0.5 -6.5t0.5 -6.5l2 -25
q1 -18 3 -52q0 -8 1 -25.5t1 -26.5l3 -52l9 -207q1 -44 5 -132q2 0 4.5 0.5t3.5 0.5h16q5 0 16 -0.5t17 -0.5l66 1h33h4l5 -1q4 0 10 -2q11 -6 15 -13q11 -19 2 -38q-8 -20 -32 -20q-79 -2 -132 3q-4 0 -12.5 1t-12.5 2q4 -72 10 -216q7 -161 11 -207q5 -46 7 -50
q5 -12 14 -18q9 -7 22 -9q11 -2 51 -2q35 0 52 1q36 2 103 12l25 4l6 1q1 0 3.5 0.5t4.5 0.5q7 1 17 -2q16 -6 25 -23zM278 1356q-27 68 -65 141q-8 17 2.5 29t28 11t26.5 -17q34 -65 64 -141q7 -17 -4.5 -30t-28 -11.5t-23.5 18.5z" />
    <glyph glyph-name="Egrave" unicode="&#xe8;" horiz-adv-x="585" 
d="M557 71q9 -17 3 -34l-1 -5l-3 -4q-3 -4 -7 -7q-3 -2 -9 -4l-4 -2t-4 -1q-5 0 -13.5 -1t-12.5 -2q-8 -1 -25.5 -3t-26.5 -3q-58 -5 -105 -5q-36 0 -53 1q-1 0 -21 1t-31 2q-37 4 -55 17q-12 8 -20 22t-11 28q-10 54 -19 208l-13 207l-6 104l-5 104q-7 193 -7 415
q0 8 -0.5 25.5t-0.5 26.5q0 39 5 54q4 14 15 25.5t25 15.5q11 3 27 5q9 1 26 1q18 0 52 -2l52 -1l52 -1l52 -1q12 0 20 -7q9 -8 11 -19t-4 -21.5t-16 -14.5q-5 -2 -21 -2l-21 -1h-42l-83 -1h-42h-10q-5 0 -11 -2q-3 -1 -10 -1h-5h-1v-9q0 -2 0.5 -6.5t0.5 -6.5l2 -25
q1 -18 3 -52q0 -8 1 -25.5t1 -26.5l3 -52l9 -207q1 -44 5 -132q2 0 4.5 0.5t3.5 0.5h16q5 0 16 -0.5t17 -0.5l66 1h33h4l5 -1q4 0 10 -2q11 -6 15 -13q11 -19 2 -38q-8 -20 -32 -20q-79 -2 -132 3q-4 0 -12.5 1t-12.5 2q4 -72 10 -216q7 -161 11 -207q5 -46 7 -50
q5 -12 14 -18q9 -7 22 -9q11 -2 51 -2q35 0 52 1q36 2 103 12l25 4l6 1q1 0 3.5 0.5t4.5 0.5q7 1 17 -2q16 -6 25 -23zM278 1356q-27 68 -65 141q-8 17 2.5 29t28 11t26.5 -17q34 -65 64 -141q7 -17 -4.5 -30t-28 -11.5t-23.5 18.5z" />
    <glyph glyph-name="Eacute" unicode="&#xc9;" horiz-adv-x="585" 
d="M557 71q9 -17 3 -34l-1 -5l-3 -4q-3 -4 -7 -7q-3 -2 -9 -4l-4 -2t-4 -1q-5 0 -13.5 -1t-12.5 -2q-8 -1 -25.5 -3t-26.5 -3q-58 -5 -105 -5q-36 0 -53 1q-1 0 -21 1t-31 2q-37 4 -55 17q-12 8 -20 22t-11 28q-10 54 -19 208l-13 207l-6 104l-5 104q-7 193 -7 415
q0 8 -0.5 25.5t-0.5 26.5q0 39 5 54q4 14 15 25.5t25 15.5q11 3 27 5q9 1 26 1q18 0 52 -2l52 -1l52 -1l52 -1q12 0 20 -7q9 -8 11 -19t-4 -21.5t-16 -14.5q-5 -2 -21 -2l-21 -1h-42l-83 -1h-42h-10q-5 0 -11 -2q-3 -1 -10 -1h-5h-1v-9q0 -2 0.5 -6.5t0.5 -6.5l2 -25
q1 -18 3 -52q0 -8 1 -25.5t1 -26.5l3 -52l9 -207q1 -44 5 -132q2 0 4.5 0.5t3.5 0.5h16q5 0 16 -0.5t17 -0.5l66 1h33h4l5 -1q4 0 10 -2q11 -6 15 -13q11 -19 2 -38q-8 -20 -32 -20q-79 -2 -132 3q-4 0 -12.5 1t-12.5 2q4 -72 10 -216q7 -161 11 -207q5 -46 7 -50
q5 -12 14 -18q9 -7 22 -9q17 -3 51 -3q18 0 52 2q36 2 103 12l25 4l6 1q1 0 3.5 0.5t4.5 0.5q7 1 17 -2q16 -6 25 -23zM286 1342q-11 -15 -28.5 -11.5t-24 17.5t3.5 30q40 52 86 128q9 16 26 13.5t24 -17t-1 -31.5q-50 -81 -86 -129z" />
    <glyph glyph-name="Eacute" unicode="&#xe9;" horiz-adv-x="585" 
d="M557 71q9 -17 3 -34l-1 -5l-3 -4q-3 -4 -7 -7q-3 -2 -9 -4l-4 -2t-4 -1q-5 0 -13.5 -1t-12.5 -2q-8 -1 -25.5 -3t-26.5 -3q-58 -5 -105 -5q-36 0 -53 1q-1 0 -21 1t-31 2q-37 4 -55 17q-12 8 -20 22t-11 28q-10 54 -19 208l-13 207l-6 104l-5 104q-7 193 -7 415
q0 8 -0.5 25.5t-0.5 26.5q0 39 5 54q4 14 15 25.5t25 15.5q11 3 27 5q9 1 26 1q18 0 52 -2l52 -1l52 -1l52 -1q12 0 20 -7q9 -8 11 -19t-4 -21.5t-16 -14.5q-5 -2 -21 -2l-21 -1h-42l-83 -1h-42h-10q-5 0 -11 -2q-3 -1 -10 -1h-5h-1v-9q0 -2 0.5 -6.5t0.5 -6.5l2 -25
q1 -18 3 -52q0 -8 1 -25.5t1 -26.5l3 -52l9 -207q1 -44 5 -132q2 0 4.5 0.5t3.5 0.5h16q5 0 16 -0.5t17 -0.5l66 1h33h4l5 -1q4 0 10 -2q11 -6 15 -13q11 -19 2 -38q-8 -20 -32 -20q-79 -2 -132 3q-4 0 -12.5 1t-12.5 2q4 -72 10 -216q7 -161 11 -207q5 -46 7 -50
q5 -12 14 -18q9 -7 22 -9q17 -3 51 -3q18 0 52 2q36 2 103 12l25 4l6 1q1 0 3.5 0.5t4.5 0.5q7 1 17 -2q16 -6 25 -23zM286 1342q-11 -15 -28.5 -11.5t-24 17.5t3.5 30q40 52 86 128q9 16 26 13.5t24 -17t-1 -31.5q-50 -81 -86 -129z" />
    <glyph glyph-name="Ecircumflex" unicode="&#xca;" horiz-adv-x="585" 
d="M557 71q9 -17 3 -34l-1 -5l-3 -4q-3 -4 -7 -7q-3 -2 -9 -4l-4 -2t-4 -1q-5 0 -13.5 -1t-12.5 -2q-8 -1 -25.5 -3t-26.5 -3q-58 -5 -105 -5q-35 0 -52 1q-6 0 -16.5 0.5t-19.5 1t-17 1.5q-37 4 -55 17q-12 8 -20 22t-11 28q-10 54 -19 208l-13 207l-6 104l-5 104
q-7 193 -7 415q0 8 -0.5 25.5t-0.5 26.5q0 39 5 54q4 14 15 25.5t25 15.5q11 3 27 5q9 1 26 1q18 0 52 -2l52 -1l52 -1l52 -1q12 0 20 -7q9 -8 11 -19t-4 -21.5t-16 -14.5q-5 -2 -21 -2l-21 -1h-42l-83 -1h-42h-10q-5 0 -11 -2q-3 -1 -10 -1h-5h-1v-9q0 -2 0.5 -6.5
t0.5 -6.5l2 -25q1 -18 3 -52q0 -8 1 -25.5t1 -26.5l3 -52l9 -207q1 -44 5 -132q2 0 4.5 0.5t3.5 0.5h16q5 0 16 -0.5t17 -0.5l66 1h33h4l5 -1q4 0 10 -2q11 -6 15 -13q11 -19 2 -38q-8 -20 -32 -20q-79 -2 -132 3q-4 0 -12.5 1t-12.5 2q4 -72 10 -216q7 -161 11 -207
q5 -46 7 -50q4 -12 14 -18q9 -7 22 -9q11 -2 51 -2q35 0 52 1q36 2 103 12l25 4l6 1q1 0 3.5 0.5t4.5 0.5q7 1 17 -2q16 -6 25 -23zM197 1297q-10 -7 -22.5 -4t-19.5 13q-14 21 3 38q36 38 77 71q7 6 22 17t20 15q18 13 23 16q2 2 6.5 4t5.5 3q5 3 15 8l4 2l2 1l2 1h2
q7 2 17 4q5 0 13 -2q1 0 4 -1t4 -1q1 -1 3 -1.5t3.5 -1.5t3 -1.5t2.5 -1.5q12 -7 27 -20q18 -17 38 -40q36 -42 63 -85q7 -10 4 -22.5t-13 -19.5q-20 -14 -38 4v1l-71 70q-34 31 -35 32q-3 2 -8 7q0 -1 -1 -1t-2 -1l-9 -6q-6 -4 -20 -12q-7 -4 -20.5 -14.5t-20.5 -14.5
q-49 -35 -84 -57z" />
    <glyph glyph-name="Ecircumflex" unicode="&#xea;" horiz-adv-x="585" 
d="M557 71q9 -17 3 -34l-1 -5l-3 -4q-3 -4 -7 -7q-3 -2 -9 -4l-4 -2t-4 -1q-5 0 -13.5 -1t-12.5 -2q-8 -1 -25.5 -3t-26.5 -3q-58 -5 -105 -5q-35 0 -52 1q-6 0 -16.5 0.5t-19.5 1t-17 1.5q-37 4 -55 17q-12 8 -20 22t-11 28q-10 54 -19 208l-13 207l-6 104l-5 104
q-7 193 -7 415q0 8 -0.5 25.5t-0.5 26.5q0 39 5 54q4 14 15 25.5t25 15.5q11 3 27 5q9 1 26 1q18 0 52 -2l52 -1l52 -1l52 -1q12 0 20 -7q9 -8 11 -19t-4 -21.5t-16 -14.5q-5 -2 -21 -2l-21 -1h-42l-83 -1h-42h-10q-5 0 -11 -2q-3 -1 -10 -1h-5h-1v-9q0 -2 0.5 -6.5
t0.5 -6.5l2 -25q1 -18 3 -52q0 -8 1 -25.5t1 -26.5l3 -52l9 -207q1 -44 5 -132q2 0 4.5 0.5t3.5 0.5h16q5 0 16 -0.5t17 -0.5l66 1h33h4l5 -1q4 0 10 -2q11 -6 15 -13q11 -19 2 -38q-8 -20 -32 -20q-79 -2 -132 3q-4 0 -12.5 1t-12.5 2q4 -72 10 -216q7 -161 11 -207
q5 -46 7 -50q4 -12 14 -18q9 -7 22 -9q11 -2 51 -2q35 0 52 1q36 2 103 12l25 4l6 1q1 0 3.5 0.5t4.5 0.5q7 1 17 -2q16 -6 25 -23zM197 1297q-10 -7 -22.5 -4t-19.5 13q-14 21 3 38q36 38 77 71q7 6 22 17t20 15q18 13 23 16q2 2 6.5 4t5.5 3q5 3 15 8l4 2l2 1l2 1h2
q7 2 17 4q5 0 13 -2q1 0 4 -1t4 -1q1 -1 3 -1.5t3.5 -1.5t3 -1.5t2.5 -1.5q12 -7 27 -20q18 -17 38 -40q36 -42 63 -85q7 -10 4 -22.5t-13 -19.5q-20 -14 -38 4v1l-71 70q-34 31 -35 32q-3 2 -8 7q0 -1 -1 -1t-2 -1l-9 -6q-6 -4 -20 -12q-7 -4 -20.5 -14.5t-20.5 -14.5
q-49 -35 -84 -57z" />
    <glyph glyph-name="Edieresis" unicode="&#xcb;" horiz-adv-x="583" 
d="M556 71q9 -17 3 -34l-1 -5l-3 -4q-1 -1 -2 -2.5t-2.5 -2.5t-2.5 -2q-3 -2 -9 -4q-2 -1 -4.5 -2t-3.5 -1l-27 -3q-8 -1 -26 -3t-26 -3q-58 -5 -104 -5q-36 0 -53 1q-1 0 -21 1t-31 2q-37 4 -55 17q-12 8 -20 22t-11 28q-10 54 -19 208l-13 207l-6 104l-5 104
q-7 193 -7 415q0 8 -0.5 25.5t-0.5 26.5q0 39 5 54q4 14 15 25.5t25 15.5q11 3 27 5q9 1 26 1q18 0 52 -2l52 -1l52 -1l52 -1q12 0 20 -7q9 -8 11 -19t-4 -21.5t-16 -14.5q-5 -2 -21 -2l-21 -1h-42l-83 -1h-42h-10q-5 0 -11 -2q-3 -1 -10 -1h-5h-1v-9q0 -2 0.5 -6.5
t0.5 -6.5l2 -25q1 -18 3 -52q1 -8 1 -25.5t1 -26.5l3 -52l9 -207q1 -44 5 -132q2 0 4 0.5t4 0.5h16q6 0 17 -0.5t16 -0.5l66 1h33h4l5 -1q4 0 10 -2q11 -6 15 -13q11 -19 2 -38q-8 -20 -32 -20q-79 -2 -132 3q-4 0 -12.5 1t-12.5 2q4 -72 10 -216q7 -161 11 -207
q5 -46 7 -50q5 -12 14 -18q9 -7 22 -9q11 -2 51 -2q35 0 52 1q36 2 103 12l25 4l6 1q1 0 3.5 0.5t4.5 0.5q7 1 17 -2q17 -6 25 -23zM119 1332q-1 0 -1 1l-2 1q-35 21 -36 58q0 11 5 17q2 30 22 42q27 17 64 -9q31 -20 39 -50q13 -45 -22 -62q-23 -11 -46 -6q-14 2 -23 8z
M374 1325q-20 14 -28 36q-5 14 -4 25v3q2 40 34 60q9 5 17 4q27 13 47 1q28 -16 24 -60q-4 -38 -26 -59q-33 -31 -64 -10z" />
    <glyph glyph-name="Edieresis" unicode="&#xeb;" horiz-adv-x="583" 
d="M556 71q9 -17 3 -34l-1 -5l-3 -4q-1 -1 -2 -2.5t-2.5 -2.5t-2.5 -2q-3 -2 -9 -4q-2 -1 -4.5 -2t-3.5 -1l-27 -3q-8 -1 -26 -3t-26 -3q-58 -5 -104 -5q-36 0 -53 1q-1 0 -21 1t-31 2q-37 4 -55 17q-12 8 -20 22t-11 28q-10 54 -19 208l-13 207l-6 104l-5 104
q-7 193 -7 415q0 8 -0.5 25.5t-0.5 26.5q0 39 5 54q4 14 15 25.5t25 15.5q11 3 27 5q9 1 26 1q18 0 52 -2l52 -1l52 -1l52 -1q12 0 20 -7q9 -8 11 -19t-4 -21.5t-16 -14.5q-5 -2 -21 -2l-21 -1h-42l-83 -1h-42h-10q-5 0 -11 -2q-3 -1 -10 -1h-5h-1v-9q0 -2 0.5 -6.5
t0.5 -6.5l2 -25q1 -18 3 -52q1 -8 1 -25.5t1 -26.5l3 -52l9 -207q1 -44 5 -132q2 0 4 0.5t4 0.5h16q6 0 17 -0.5t16 -0.5l66 1h33h4l5 -1q4 0 10 -2q11 -6 15 -13q11 -19 2 -38q-8 -20 -32 -20q-79 -2 -132 3q-4 0 -12.5 1t-12.5 2q4 -72 10 -216q7 -161 11 -207
q5 -46 7 -50q5 -12 14 -18q9 -7 22 -9q11 -2 51 -2q35 0 52 1q36 2 103 12l25 4l6 1q1 0 3.5 0.5t4.5 0.5q7 1 17 -2q17 -6 25 -23zM119 1332q-1 0 -1 1l-2 1q-35 21 -36 58q0 11 5 17q2 30 22 42q27 17 64 -9q31 -20 39 -50q13 -45 -22 -62q-23 -11 -46 -6q-14 2 -23 8z
M374 1325q-20 14 -28 36q-5 14 -4 25v3q2 40 34 60q9 5 17 4q27 13 47 1q28 -16 24 -60q-4 -38 -26 -59q-33 -31 -64 -10z" />
    <glyph glyph-name="Igrave" unicode="&#xcc;" horiz-adv-x="403" 
d="M353 1184q7 -25 -13 -38q-8 -5 -20 -5l-19 1l-37 2q-14 2 -21 2l-1 -23l-1 -155q-2 -102 -5 -155l-7 -155q-3 -65 -11.5 -184t-12.5 -216t0 -184q21 0 61 4q22 2 30 -15q9 -17 1 -35q-9 -19 -30 -21q-5 -1 -15.5 -2t-16.5 -1q-42 -4 -64 -4q-28 0 -63 5q-23 2 -32 23
t1 37q5 10 14 13l9 3h9q5 -1 14.5 -2t14.5 -2q0 3 -0.5 11t-0.5 11q-2 52 0 155q2 54 14 310q14 394 23 586q-44 2 -62 4q-13 2 -20 8q-8 6 -13 19q-3 9 -1 22q2 15 12 22q11 7 25 5l19 -2l37 -4q100 -10 150 -13q14 -2 21 -8t11 -19zM218 1314q-27 68 -65 141q-8 17 2.5 29
t27.5 11t26 -17q38 -73 65 -141q7 -17 -4.5 -30t-28 -11.5t-23.5 18.5z" />
    <glyph glyph-name="Igrave" unicode="&#xec;" horiz-adv-x="403" 
d="M353 1184q7 -25 -13 -38q-8 -5 -20 -5l-19 1l-37 2q-14 2 -21 2l-1 -23l-1 -155q-2 -102 -5 -155l-7 -155q-3 -65 -11.5 -184t-12.5 -216t0 -184q21 0 61 4q22 2 30 -15q9 -17 1 -35q-9 -19 -30 -21q-5 -1 -15.5 -2t-16.5 -1q-42 -4 -64 -4q-28 0 -63 5q-23 2 -32 23
t1 37q5 10 14 13l9 3h9q5 -1 14.5 -2t14.5 -2q0 3 -0.5 11t-0.5 11q-2 52 0 155q2 54 14 310q14 394 23 586q-44 2 -62 4q-13 2 -20 8q-8 6 -13 19q-3 9 -1 22q2 15 12 22q11 7 25 5l19 -2l37 -4q100 -10 150 -13q14 -2 21 -8t11 -19zM218 1314q-27 68 -65 141q-8 17 2.5 29
t27.5 11t26 -17q38 -73 65 -141q7 -17 -4.5 -30t-28 -11.5t-23.5 18.5z" />
    <glyph glyph-name="Iacute" unicode="&#xcd;" horiz-adv-x="401" 
d="M351 1184q7 -25 -13 -38q-8 -5 -20 -5l-19 1l-37 3q-7 1 -21 1l-1 -23l-1 -155q-2 -102 -5 -155l-7 -155q-3 -65 -11.5 -184t-12.5 -216t0 -184q21 0 61 4q22 2 30 -15q9 -17 1 -35q-9 -19 -30 -21q-5 -1 -16 -2t-16 -1q-42 -4 -64 -4q-28 0 -63 5q-24 2 -33 23
q-8 20 2 37q5 10 14 13l9 3h9q5 -1 14.5 -2t14.5 -2q0 3 -0.5 11t-0.5 11q-2 52 0 155q2 54 14 310q14 394 23 586q-44 2 -62 4q-11 2 -20 9q-8 7 -13 18q-3 12 -2 22q2 14 13 22q11 7 25 5l19 -2l37 -4q100 -10 150 -13q14 -2 21 -8t11 -19zM198 1313q-11 -15 -28.5 -11.5
t-24 17.5t3.5 30q45 59 87 128q9 16 26 13.5t24 -17t-1 -31.5q-45 -74 -87 -129z" />
    <glyph glyph-name="Iacute" unicode="&#xed;" horiz-adv-x="401" 
d="M351 1184q7 -25 -13 -38q-8 -5 -20 -5l-19 1l-37 3q-7 1 -21 1l-1 -23l-1 -155q-2 -102 -5 -155l-7 -155q-3 -65 -11.5 -184t-12.5 -216t0 -184q21 0 61 4q22 2 30 -15q9 -17 1 -35q-9 -19 -30 -21q-5 -1 -16 -2t-16 -1q-42 -4 -64 -4q-28 0 -63 5q-24 2 -33 23
q-8 20 2 37q5 10 14 13l9 3h9q5 -1 14.5 -2t14.5 -2q0 3 -0.5 11t-0.5 11q-2 52 0 155q2 54 14 310q14 394 23 586q-44 2 -62 4q-11 2 -20 9q-8 7 -13 18q-3 12 -2 22q2 14 13 22q11 7 25 5l19 -2l37 -4q100 -10 150 -13q14 -2 21 -8t11 -19zM198 1313q-11 -15 -28.5 -11.5
t-24 17.5t3.5 30q45 59 87 128q9 16 26 13.5t24 -17t-1 -31.5q-45 -74 -87 -129z" />
    <glyph glyph-name="Icircumflex" unicode="&#xce;" horiz-adv-x="401" 
d="M340 1203q9 -7 12 -19q7 -25 -13 -38q-7 -5 -20 -5l-19 1l-38 3q-7 1 -20 1l-1 -23l-1 -155q-2 -102 -5 -155l-8 -155q-3 -64 -11.5 -184t-12 -216.5t0.5 -183.5q21 0 61 4q22 2 30 -15q9 -16 0 -35t-29 -21q-6 -1 -16.5 -2t-15.5 -1q-42 -4 -64 -4q-28 0 -63 5
q-24 2 -33 23t1 37q5 10 15 13l9 3h9q5 -1 14.5 -2t14.5 -2q0 3 -0.5 11t-0.5 11q-2 52 0 155q2 54 14 310q18 492 22 586q-42 2 -61 4q-11 2 -20 9q-8 7 -13 18q-3 12 -2 22q2 15 13 22t25 5l18 -2l38 -4q100 -10 150 -13q13 -2 20 -8zM392 1302q7 -10 4 -22.5t-13 -19.5
q-20 -14 -38 4v1l-71 70q-34 31 -35 32q-3 2 -8 7q-1 0 -1 -1l-2 -1l-9 -6q-16 -11 -20 -13q-18 -12 -41 -28q-49 -35 -84 -57q-10 -7 -22.5 -4t-19.5 13q-14 20 3 37q36 38 77 71q6 5 13 10.5t15.5 12t13.5 10.5q18 13 23 16q2 2 6.5 4t5.5 3q5 3 15 8l4 2l3 1l1 1h2
q1 0 17 3q9 0 13 -1q1 -1 4 -1t4 -1t3 -1.5t3.5 -1.5t3 -1.5t2.5 -1.5q12 -7 27 -20q18 -17 38 -40q36 -42 63 -85z" />
    <glyph glyph-name="Icircumflex" unicode="&#xee;" horiz-adv-x="401" 
d="M340 1203q9 -7 12 -19q7 -25 -13 -38q-7 -5 -20 -5l-19 1l-38 3q-7 1 -20 1l-1 -23l-1 -155q-2 -102 -5 -155l-8 -155q-3 -64 -11.5 -184t-12 -216.5t0.5 -183.5q21 0 61 4q22 2 30 -15q9 -16 0 -35t-29 -21q-6 -1 -16.5 -2t-15.5 -1q-42 -4 -64 -4q-28 0 -63 5
q-24 2 -33 23t1 37q5 10 15 13l9 3h9q5 -1 14.5 -2t14.5 -2q0 3 -0.5 11t-0.5 11q-2 52 0 155q2 54 14 310q18 492 22 586q-42 2 -61 4q-11 2 -20 9q-8 7 -13 18q-3 12 -2 22q2 15 13 22t25 5l18 -2l38 -4q100 -10 150 -13q13 -2 20 -8zM392 1302q7 -10 4 -22.5t-13 -19.5
q-20 -14 -38 4v1l-71 70q-34 31 -35 32q-3 2 -8 7q-1 0 -1 -1l-2 -1l-9 -6q-16 -11 -20 -13q-18 -12 -41 -28q-49 -35 -84 -57q-10 -7 -22.5 -4t-19.5 13q-14 20 3 37q36 38 77 71q6 5 13 10.5t15.5 12t13.5 10.5q18 13 23 16q2 2 6.5 4t5.5 3q5 3 15 8l4 2l3 1l1 1h2
q1 0 17 3q9 0 13 -1q1 -1 4 -1t4 -1t3 -1.5t3.5 -1.5t3 -1.5t2.5 -1.5q12 -7 27 -20q18 -17 38 -40q36 -42 63 -85z" />
    <glyph glyph-name="Idieresis" unicode="&#xcf;" horiz-adv-x="403" 
d="M341 1203q9 -7 12 -19q7 -25 -13 -38q-8 -5 -20 -5l-19 1l-38 2q-14 2 -20 2l-1 -23l-1 -155q-2 -102 -5 -155l-8 -155q-3 -64 -11.5 -184t-12 -216.5t0.5 -183.5q21 0 61 4q22 2 30 -15q9 -16 0 -35t-29 -21q-5 -1 -15.5 -2t-16.5 -1q-42 -4 -64 -4q-28 0 -63 5
q-24 2 -33 23t1 37q5 10 15 13l9 3h9q5 -1 14.5 -2t14.5 -2q0 3 -0.5 11t-0.5 11q-2 52 0 155q2 54 14 310q18 492 22 586q-42 2 -61 4q-11 2 -20 9q-8 7 -13 18q-3 12 -2 22q2 15 13 22t25 5l18 -2l38 -4q100 -10 150 -13q13 -2 20 -8zM128 1287q-22 -11 -45 -6
q-16 2 -24 8l-2 2q-35 21 -36 58q0 11 5 17q2 30 21 42q27 17 64 -9q32 -21 40 -50q13 -44 -23 -62zM381 1387q27 -15 23 -61q-4 -38 -25 -58q-33 -32 -65 -10q-19 13 -27 36q-5 14 -4 25v3q2 41 33 60q8 5 18 3q28 13 47 2z" />
    <glyph glyph-name="Idieresis" unicode="&#xef;" horiz-adv-x="403" 
d="M341 1203q9 -7 12 -19q7 -25 -13 -38q-8 -5 -20 -5l-19 1l-38 2q-14 2 -20 2l-1 -23l-1 -155q-2 -102 -5 -155l-8 -155q-3 -64 -11.5 -184t-12 -216.5t0.5 -183.5q21 0 61 4q22 2 30 -15q9 -16 0 -35t-29 -21q-5 -1 -15.5 -2t-16.5 -1q-42 -4 -64 -4q-28 0 -63 5
q-24 2 -33 23t1 37q5 10 15 13l9 3h9q5 -1 14.5 -2t14.5 -2q0 3 -0.5 11t-0.5 11q-2 52 0 155q2 54 14 310q18 492 22 586q-42 2 -61 4q-11 2 -20 9q-8 7 -13 18q-3 12 -2 22q2 15 13 22t25 5l18 -2l38 -4q100 -10 150 -13q13 -2 20 -8zM128 1287q-22 -11 -45 -6
q-16 2 -24 8l-2 2q-35 21 -36 58q0 11 5 17q2 30 21 42q27 17 64 -9q32 -21 40 -50q13 -44 -23 -62zM381 1387q27 -15 23 -61q-4 -38 -25 -58q-33 -32 -65 -10q-19 13 -27 36q-5 14 -4 25v3q2 41 33 60q8 5 18 3q28 13 47 2z" />
    <glyph glyph-name="Ntilde" unicode="&#xd1;" horiz-adv-x="722" 
d="M599 653l23 -613q0 -15 -7 -25t-22 -14q-28 -7 -44 16q-7 10 -7 23l-1 19l-2 38l-5 154l-4 119q-1 1 -3.5 3t-3.5 3t-2 3q-3 4 -4 6q0 1 -1 3t-1.5 3.5t-0.5 2.5l-5 14q-15 43 -48 107q-18 35 -122 205q-51 86 -158 287q1 -8 2 -24.5t1 -24.5l19 -302q21 -352 41 -603
q0 -15 -6 -25t-22 -14q-26 -6 -44 15q-8 11 -9 22l-2 19l-3 38l-11 151q-7 107 -19 302t-19 302l-9 151l-8 151q0 14 7 24q8 11 20 14t24 0q8 0 17 -3q9 -4 15 -12q2 -3 4.5 -7.5t3.5 -6.5l7 -13l57 -106l57 -106q8 -15 59 -104q28 -48 62 -104l63 -102q24 -40 35 -60
l-4 132l-2 76l-3 77q-12 303 -12 307q0 12 7 22t20 13q27 7 42 -14q7 -10 7 -22l2 -58l6 -153zM133 1263q-14 10 -17 26t7 30q7 11 21 27t48.5 39.5t69.5 27.5q26 3 49.5 -6.5t35 -20t26.5 -27.5q21 -24 25 -24q30 -3 79 39q13 11 30 9.5t27 -14.5q11 -13 9.5 -29.5
t-14.5 -26.5q-70 -58 -129 -58h-8q-17 1 -33.5 10.5t-24.5 17t-21 22.5q-28 31 -41 29q-23 -3 -46.5 -23t-36.5 -38q-10 -14 -26 -17t-30 7z" />
    <glyph glyph-name="Ntilde" unicode="&#xf1;" horiz-adv-x="722" 
d="M599 653l23 -613q0 -15 -7 -25t-22 -14q-28 -7 -44 16q-7 10 -7 23l-1 19l-2 38l-5 154l-4 119q-1 1 -3.5 3t-3.5 3t-2 3q-3 4 -4 6q0 1 -1 3t-1.5 3.5t-0.5 2.5l-5 14q-15 43 -48 107q-18 35 -122 205q-51 86 -158 287q1 -8 2 -24.5t1 -24.5l19 -302q21 -352 41 -603
q0 -15 -6 -25t-22 -14q-26 -6 -44 15q-8 11 -9 22l-2 19l-3 38l-11 151q-7 107 -19 302t-19 302l-9 151l-8 151q0 14 7 24q8 11 20 14t24 0q8 0 17 -3q9 -4 15 -12q2 -3 4.5 -7.5t3.5 -6.5l7 -13l57 -106l57 -106q8 -15 59 -104q28 -48 62 -104l63 -102q24 -40 35 -60
l-4 132l-2 76l-3 77q-12 303 -12 307q0 12 7 22t20 13q27 7 42 -14q7 -10 7 -22l2 -58l6 -153zM133 1263q-14 10 -17 26t7 30q7 11 21 27t48.5 39.5t69.5 27.5q26 3 49.5 -6.5t35 -20t26.5 -27.5q21 -24 25 -24q30 -3 79 39q13 11 30 9.5t27 -14.5q11 -13 9.5 -29.5
t-14.5 -26.5q-70 -58 -129 -58h-8q-17 1 -33.5 10.5t-24.5 17t-21 22.5q-28 31 -41 29q-23 -3 -46.5 -23t-36.5 -38q-10 -14 -26 -17t-30 7z" />
    <glyph glyph-name="Ograve" unicode="&#xd2;" 
d="M547 771q8 -150 -9 -342q-7 -84 -21 -169q-11 -62 -16 -85q-12 -47 -29 -80q-10 -19 -24 -36t-31 -30q-37 -26 -80 -29q-4 -1 -12 0t-10 1q-17 3 -21 4q-7 2 -21 8q-2 1 -5.5 3.5t-6.5 4.5l-6 4t-16 15q-10 10 -14 16q-10 13 -24 36q-35 64 -56 162q-15 68 -27 169
q-19 169 -21 342q-2 103 3 172q3 47 10 86q8 47 25 85q22 49 49 76q34 34 80 46q44 12 92 -1q29 -8 55 -23q14 2 24 -4q9 -5 17 -16q24 -33 41 -76q27 -69 39 -168q10 -86 15 -171zM452 335q22 154 22 339q0 102 -6 170q-3 44 -9 85q-8 59 -14 84q-9 42 -25 79q-1 3 -3.5 8
l-3.5 7q-17 -3 -29 3q-5 2 -7 4l-6 5l-7 5l-4 3l-4 2l-8 5q-18 8 -34 8q-15 0 -33 -8q-17 -8 -30 -21q-18 -18 -24 -29q-7 -11 -15 -35q-18 -58 -22 -163l-1 -86v-85q0 -85 6 -169q8 -114 15 -169q1 -12 3 -26t5 -31.5t4 -26.5q6 -40 17 -82q12 -44 30 -74q24 -41 52 -52
q14 -6 29 -1q13 5 28 20q24 25 39 67q6 16 11 39l9 42q1 4 7 35t8 48zM331 1336q-30 76 -64 141q-8 17 2.5 29t27.5 11t26 -17q34 -65 64 -141q7 -17 -4.5 -30t-28 -11.5t-23.5 18.5z" />
    <glyph glyph-name="Ograve" unicode="&#xf2;" 
d="M547 771q8 -150 -9 -342q-7 -84 -21 -169q-11 -62 -16 -85q-12 -47 -29 -80q-10 -19 -24 -36t-31 -30q-37 -26 -80 -29q-4 -1 -12 0t-10 1q-17 3 -21 4q-7 2 -21 8q-2 1 -5.5 3.5t-6.5 4.5l-6 4t-16 15q-10 10 -14 16q-10 13 -24 36q-35 64 -56 162q-15 68 -27 169
q-19 169 -21 342q-2 103 3 172q3 47 10 86q8 47 25 85q22 49 49 76q34 34 80 46q44 12 92 -1q29 -8 55 -23q14 2 24 -4q9 -5 17 -16q24 -33 41 -76q27 -69 39 -168q10 -86 15 -171zM452 335q22 154 22 339q0 102 -6 170q-3 44 -9 85q-8 59 -14 84q-9 42 -25 79q-1 3 -3.5 8
l-3.5 7q-17 -3 -29 3q-5 2 -7 4l-6 5l-7 5l-4 3l-4 2l-8 5q-18 8 -34 8q-15 0 -33 -8q-17 -8 -30 -21q-18 -18 -24 -29q-7 -11 -15 -35q-18 -58 -22 -163l-1 -86v-85q0 -85 6 -169q8 -114 15 -169q1 -12 3 -26t5 -31.5t4 -26.5q6 -40 17 -82q12 -44 30 -74q24 -41 52 -52
q14 -6 29 -1q13 5 28 20q24 25 39 67q6 16 11 39l9 42q1 4 7 35t8 48zM331 1336q-30 76 -64 141q-8 17 2.5 29t27.5 11t26 -17q34 -65 64 -141q7 -17 -4.5 -30t-28 -11.5t-23.5 18.5z" />
    <glyph glyph-name="Oacute" unicode="&#xd3;" 
d="M547 771q8 -150 -9 -342q-7 -84 -21 -169q-11 -62 -16 -85q-12 -47 -29 -80q-10 -19 -24 -36t-31 -30q-37 -26 -80 -29q-4 -1 -12 0t-10 1q-17 3 -21 4q-7 2 -21 8q-2 1 -5.5 3.5t-6.5 4.5l-6 4t-16 15q-10 10 -14 16q-10 13 -24 36q-35 64 -56 162q-15 68 -27 169
q-19 169 -21 342q-2 103 3 172q3 47 10 86q8 47 25 85q22 49 49 76q34 34 80 46q44 12 92 -1q29 -8 55 -23q14 2 24 -4q9 -5 17 -16q24 -33 41 -76q27 -69 39 -168q10 -86 15 -171zM452 335q22 154 22 339q0 102 -6 170q-3 44 -9 85q-8 59 -14 84q-9 42 -25 79q-1 3 -3.5 8
l-3.5 7q-15 -3 -29 3q-5 2 -7 4l-6 5l-7 5l-4 3l-4 2l-8 5q-18 8 -34 8q-15 0 -33 -8q-17 -8 -30 -21q-18 -18 -24 -29q-7 -11 -15 -35q-18 -58 -22 -163l-1 -86v-85q0 -85 6 -169q8 -114 15 -169q1 -12 3 -26t5 -31.5t4 -26.5q6 -40 17 -82q12 -44 30 -74q24 -41 52 -52
q14 -6 29 -1q13 5 28 20q24 25 39 67q6 16 11 39l9 42q1 4 7 35t8 48zM314 1325q-11 -15 -28.5 -11.5t-24 17.5t3.5 30q42 55 87 129q9 16 26 13t24 -17.5t-1 -31.5q-45 -74 -87 -129z" />
    <glyph glyph-name="Oacute" unicode="&#xf3;" 
d="M547 771q8 -150 -9 -342q-7 -84 -21 -169q-11 -62 -16 -85q-12 -47 -29 -80q-10 -19 -24 -36t-31 -30q-37 -26 -80 -29q-4 -1 -12 0t-10 1q-17 3 -21 4q-7 2 -21 8q-2 1 -5.5 3.5t-6.5 4.5l-6 4t-16 15q-10 10 -14 16q-10 13 -24 36q-35 64 -56 162q-15 68 -27 169
q-19 169 -21 342q-2 103 3 172q3 47 10 86q8 47 25 85q22 49 49 76q34 34 80 46q44 12 92 -1q29 -8 55 -23q14 2 24 -4q9 -5 17 -16q24 -33 41 -76q27 -69 39 -168q10 -86 15 -171zM452 335q22 154 22 339q0 102 -6 170q-3 44 -9 85q-8 59 -14 84q-9 42 -25 79q-1 3 -3.5 8
l-3.5 7q-15 -3 -29 3q-5 2 -7 4l-6 5l-7 5l-4 3l-4 2l-8 5q-18 8 -34 8q-15 0 -33 -8q-17 -8 -30 -21q-18 -18 -24 -29q-7 -11 -15 -35q-18 -58 -22 -163l-1 -86v-85q0 -85 6 -169q8 -114 15 -169q1 -12 3 -26t5 -31.5t4 -26.5q6 -40 17 -82q12 -44 30 -74q24 -41 52 -52
q14 -6 29 -1q13 5 28 20q24 25 39 67q6 16 11 39l9 42q1 4 7 35t8 48zM314 1325q-11 -15 -28.5 -11.5t-24 17.5t3.5 30q42 55 87 129q9 16 26 13t24 -17.5t-1 -31.5q-45 -74 -87 -129z" />
    <glyph glyph-name="Ocircumflex" unicode="&#xd4;" 
d="M547 771q8 -150 -9 -342q-7 -84 -21 -169q-11 -62 -16 -85q-12 -47 -29 -80q-10 -19 -24 -36t-31 -30q-37 -26 -80 -29q-4 -1 -12 0t-10 1q-17 3 -21 4q-7 2 -21 8q-2 1 -5.5 3.5t-6.5 4.5l-6 4t-16 15q-10 10 -14 16q-10 13 -24 36q-35 64 -56 162q-15 68 -27 169
q-19 169 -21 342q-2 103 3 172q3 47 10 86q8 47 25 85q22 49 49 76q34 34 80 46q44 12 92 -1q29 -8 55 -23q14 2 24 -4q9 -5 17 -16q24 -33 41 -76q27 -69 39 -168q10 -86 15 -171zM452 335q22 154 22 339q0 102 -6 170q-3 44 -9 85q-8 59 -14 84q-9 42 -25 79q-1 3 -3.5 8
l-3.5 7q-15 -3 -29 3q-5 2 -7 4l-6 5l-7 5l-4 3l-4 2l-8 5q-18 8 -34 8q-15 0 -33 -8q-17 -8 -30 -21q-18 -18 -24 -29q-7 -11 -15 -35q-18 -58 -22 -163l-1 -86v-85q0 -85 6 -169q8 -114 15 -169q1 -12 3 -26t5 -31.5t4 -26.5q6 -40 17 -82q12 -44 30 -74q24 -41 52 -52
q14 -6 29 -1q13 5 28 20q24 25 39 67q6 16 11 39l9 42q1 4 7 35t8 48zM185 1300q-10 -7 -22.5 -4t-19.5 13q-14 20 3 37q36 38 77 71q6 5 13 10.5t15.5 12t13.5 10.5q18 13 23 16q2 2 6.5 4t5.5 3q5 3 15 8l5 2l2 1l1 1h2q1 0 17 3q9 0 13 -1q1 -1 4 -1t5 -1q8 -4 11 -6
q12 -7 27 -20q23 -21 39 -40q36 -42 63 -85q7 -11 4 -23t-14 -19q-20 -14 -38 4v1l-71 70q-34 31 -35 32t-2.5 2t-2.5 2.5t-2 2.5q-1 0 -1 -1l-2 -1q-2 -1 -10 -6q-6 -4 -20 -12q-7 -4 -20.5 -14t-20.5 -15q-49 -35 -84 -57z" />
    <glyph glyph-name="Ocircumflex" unicode="&#xf4;" 
d="M547 771q8 -150 -9 -342q-7 -84 -21 -169q-11 -62 -16 -85q-12 -47 -29 -80q-10 -19 -24 -36t-31 -30q-37 -26 -80 -29q-4 -1 -12 0t-10 1q-17 3 -21 4q-7 2 -21 8q-2 1 -5.5 3.5t-6.5 4.5l-6 4t-16 15q-10 10 -14 16q-10 13 -24 36q-35 64 -56 162q-15 68 -27 169
q-19 169 -21 342q-2 103 3 172q3 47 10 86q8 47 25 85q22 49 49 76q34 34 80 46q44 12 92 -1q29 -8 55 -23q14 2 24 -4q9 -5 17 -16q24 -33 41 -76q27 -69 39 -168q10 -86 15 -171zM452 335q22 154 22 339q0 102 -6 170q-3 44 -9 85q-8 59 -14 84q-9 42 -25 79q-1 3 -3.5 8
l-3.5 7q-15 -3 -29 3q-5 2 -7 4l-6 5l-7 5l-4 3l-4 2l-8 5q-18 8 -34 8q-15 0 -33 -8q-17 -8 -30 -21q-18 -18 -24 -29q-7 -11 -15 -35q-18 -58 -22 -163l-1 -86v-85q0 -85 6 -169q8 -114 15 -169q1 -12 3 -26t5 -31.5t4 -26.5q6 -40 17 -82q12 -44 30 -74q24 -41 52 -52
q14 -6 29 -1q13 5 28 20q24 25 39 67q6 16 11 39l9 42q1 4 7 35t8 48zM185 1300q-10 -7 -22.5 -4t-19.5 13q-14 20 3 37q36 38 77 71q6 5 13 10.5t15.5 12t13.5 10.5q18 13 23 16q2 2 6.5 4t5.5 3q5 3 15 8l5 2l2 1l1 1h2q1 0 17 3q9 0 13 -1q1 -1 4 -1t5 -1q8 -4 11 -6
q12 -7 27 -20q23 -21 39 -40q36 -42 63 -85q7 -11 4 -23t-14 -19q-20 -14 -38 4v1l-71 70q-34 31 -35 32t-2.5 2t-2.5 2.5t-2 2.5q-1 0 -1 -1l-2 -1q-2 -1 -10 -6q-6 -4 -20 -12q-7 -4 -20.5 -14t-20.5 -15q-49 -35 -84 -57z" />
    <glyph glyph-name="Otilde" unicode="&#xd5;" 
d="M547 771q8 -150 -9 -342q-7 -84 -21 -169q-11 -62 -16 -85q-12 -47 -29 -80q-10 -19 -24 -36t-31 -30q-37 -26 -80 -29q-4 -1 -12 0t-10 1q-17 3 -21 4q-7 2 -21 8q-2 1 -5.5 3.5t-6.5 4.5l-6 4t-16 15q-10 10 -14 16q-10 13 -24 36q-35 64 -56 162q-15 68 -27 169
q-19 169 -21 342q-2 103 3 172q3 47 10 86q8 47 25 85q22 49 49 76q34 34 80 46q44 12 92 -1q29 -8 55 -23q14 2 24 -4q9 -5 17 -16q24 -33 41 -76q27 -69 39 -168q10 -86 15 -171zM452 335q22 154 22 339q0 102 -6 170q-3 44 -9 85q-8 59 -14 84q-9 42 -25 79q-1 3 -3.5 8
l-3.5 7q-17 -3 -29 3q-5 2 -7 4l-6 5l-7 5l-4 3l-4 2l-8 5q-18 8 -34 8q-15 0 -33 -8q-17 -8 -30 -21q-18 -18 -24 -29q-7 -11 -15 -35q-18 -58 -22 -163l-1 -86v-85q0 -85 6 -169q8 -114 15 -169q1 -12 3 -26t5 -31.5t4 -26.5q6 -40 17 -82q12 -44 30 -74q24 -41 52 -52
q14 -6 29 -1q13 5 28 20q24 25 39 67q6 16 11 39l9 42q1 4 7 35t8 48zM129 1291q-14 9 -17.5 25t5.5 30q58 87 134 101q25 5 49 -3.5t36 -18.5t28 -27q22 -22 27 -22q27 -1 77 43q12 11 28.5 10.5t27.5 -12.5t11 -28.5t-12 -27.5q-73 -67 -134 -65q-37 1 -82 46
q-29 29 -42 27q-24 -5 -47 -27t-33 -39q-12 -18 -34 -18q-11 0 -22 6z" />
    <glyph glyph-name="Otilde" unicode="&#xf5;" 
d="M547 771q8 -150 -9 -342q-7 -84 -21 -169q-11 -62 -16 -85q-12 -47 -29 -80q-10 -19 -24 -36t-31 -30q-37 -26 -80 -29q-4 -1 -12 0t-10 1q-17 3 -21 4q-7 2 -21 8q-2 1 -5.5 3.5t-6.5 4.5l-6 4t-16 15q-10 10 -14 16q-10 13 -24 36q-35 64 -56 162q-15 68 -27 169
q-19 169 -21 342q-2 103 3 172q3 47 10 86q8 47 25 85q22 49 49 76q34 34 80 46q44 12 92 -1q29 -8 55 -23q14 2 24 -4q9 -5 17 -16q24 -33 41 -76q27 -69 39 -168q10 -86 15 -171zM452 335q22 154 22 339q0 102 -6 170q-3 44 -9 85q-8 59 -14 84q-9 42 -25 79q-1 3 -3.5 8
l-3.5 7q-17 -3 -29 3q-5 2 -7 4l-6 5l-7 5l-4 3l-4 2l-8 5q-18 8 -34 8q-15 0 -33 -8q-17 -8 -30 -21q-18 -18 -24 -29q-7 -11 -15 -35q-18 -58 -22 -163l-1 -86v-85q0 -85 6 -169q8 -114 15 -169q1 -12 3 -26t5 -31.5t4 -26.5q6 -40 17 -82q12 -44 30 -74q24 -41 52 -52
q14 -6 29 -1q13 5 28 20q24 25 39 67q6 16 11 39l9 42q1 4 7 35t8 48zM129 1291q-14 9 -17.5 25t5.5 30q58 87 134 101q25 5 49 -3.5t36 -18.5t28 -27q22 -22 27 -22q27 -1 77 43q12 11 28.5 10.5t27.5 -12.5t11 -28.5t-12 -27.5q-73 -67 -134 -65q-37 1 -82 46
q-29 29 -42 27q-24 -5 -47 -27t-33 -39q-12 -18 -34 -18q-11 0 -22 6z" />
    <glyph glyph-name="Odieresis" unicode="&#xd6;" 
d="M547 771q8 -150 -9 -342q-7 -84 -21 -169q-11 -62 -16 -85q-12 -47 -29 -80q-10 -19 -24 -36t-31 -30q-37 -26 -80 -29q-4 -1 -12 0t-10 1q-17 3 -21 4q-7 2 -21 8q-2 1 -5.5 3.5t-6.5 4.5l-6 4t-16 15q-10 10 -14 16q-10 13 -24 36q-35 64 -56 162q-15 68 -27 169
q-19 169 -21 342q-2 103 3 172q3 47 10 86q8 47 25 85q22 49 49 76q34 34 80 46q44 12 92 -1q29 -8 55 -23q14 2 24 -4q9 -5 17 -16q24 -33 41 -76q27 -69 39 -168q10 -86 15 -171zM452 335q22 154 22 339q0 102 -6 170q-3 44 -9 85q-8 59 -14 84q-9 42 -25 79q-1 3 -3.5 8
l-3.5 7q-15 -3 -29 3q-5 2 -7 4l-6 5l-7 5l-4 3l-4 2l-8 5q-18 8 -34 8q-15 0 -33 -8q-17 -8 -30 -21q-18 -18 -24 -29q-7 -11 -15 -35q-18 -58 -22 -163l-1 -86v-85q0 -85 6 -169q8 -114 15 -169q1 -12 3 -26t5 -31.5t4 -26.5q6 -40 17 -82q12 -44 30 -74q24 -41 52 -52
q14 -6 29 -1q13 5 28 20q24 25 39 67q6 16 11 39l9 42q1 4 7 35t8 48zM147 1343q-36 21 -37 57q0 10 6 17q2 30 21 42q27 17 64 -8q30 -20 39 -51q13 -44 -22 -61q-22 -11 -45 -6q-16 2 -24 8zM404 1309q-18 13 -27 37q-6 16 -5 25v1l1 2q2 40 33 59q9 5 17 4q28 13 48 1
q27 -15 23 -60q-4 -38 -25 -58q-34 -32 -65 -11z" />
    <glyph glyph-name="Odieresis" unicode="&#xf6;" 
d="M547 771q8 -150 -9 -342q-7 -84 -21 -169q-11 -62 -16 -85q-12 -47 -29 -80q-10 -19 -24 -36t-31 -30q-37 -26 -80 -29q-4 -1 -12 0t-10 1q-17 3 -21 4q-7 2 -21 8q-2 1 -5.5 3.5t-6.5 4.5l-6 4t-16 15q-10 10 -14 16q-10 13 -24 36q-35 64 -56 162q-15 68 -27 169
q-19 169 -21 342q-2 103 3 172q3 47 10 86q8 47 25 85q22 49 49 76q34 34 80 46q44 12 92 -1q29 -8 55 -23q14 2 24 -4q9 -5 17 -16q24 -33 41 -76q27 -69 39 -168q10 -86 15 -171zM452 335q22 154 22 339q0 102 -6 170q-3 44 -9 85q-8 59 -14 84q-9 42 -25 79q-1 3 -3.5 8
l-3.5 7q-15 -3 -29 3q-5 2 -7 4l-6 5l-7 5l-4 3l-4 2l-8 5q-18 8 -34 8q-15 0 -33 -8q-17 -8 -30 -21q-18 -18 -24 -29q-7 -11 -15 -35q-18 -58 -22 -163l-1 -86v-85q0 -85 6 -169q8 -114 15 -169q1 -12 3 -26t5 -31.5t4 -26.5q6 -40 17 -82q12 -44 30 -74q24 -41 52 -52
q14 -6 29 -1q13 5 28 20q24 25 39 67q6 16 11 39l9 42q1 4 7 35t8 48zM147 1343q-36 21 -37 57q0 10 6 17q2 30 21 42q27 17 64 -8q30 -20 39 -51q13 -44 -22 -61q-22 -11 -45 -6q-16 2 -24 8zM404 1309q-18 13 -27 37q-6 16 -5 25v1l1 2q2 40 33 59q9 5 17 4q28 13 48 1
q27 -15 23 -60q-4 -38 -25 -58q-34 -32 -65 -11z" />
    <glyph glyph-name="Oslash" unicode="&#xd8;" horiz-adv-x="692" 
d="M586 1259q16 -5 23 -19.5t2 -30.5q-18 -54 -69 -185q8 -35 13 -82q12 -100 16 -171q8 -143 -10 -342q-7 -84 -21 -169q-11 -62 -16 -85q-13 -50 -28 -80q-10 -19 -24 -36t-31 -30q-37 -26 -81 -29q-4 -1 -12 0t-10 1q-17 3 -21 4t-20 8q-2 1 -5.5 3.5t-6.5 4.5l-6 4
q-6 4 -17 15q-10 10 -14 16q-7 9 -23 36q-14 27 -24 52q-12 -25 -23.5 -48t-17.5 -34l-5 -10q-11 -21 -35 -21q-9 0 -19 5q-14 7 -19 23t3 31q10 10 82 172q-11 56 -25 161q-21 179 -22 342q-2 92 4 172q3 47 10 86q9 51 24 85q21 47 50 76q34 34 80 46q44 12 92 -1
q27 -7 54 -23q14 2 24 -4q11 -6 18 -16q10 -14 26 -44l33 93q5 16 20 22.5t31 1.5zM218 546q5 -70 12 -137q50 121 87 235q58 174 142 387q1 1 2 3.5t1 4.5q-6 21 -19 53l-6 15q-16 -3 -30 3q-5 2 -7 4l-5 4l-8 6l-3 3l-4 2l-8 5q-15 7 -34 7t-34 -7q-16 -8 -30 -21
q-16 -16 -23 -29q-9 -14 -16 -35q-17 -55 -21 -163l-1 -86q0 -14 -0.5 -42.5t-0.5 -42.5q0 -85 6 -169zM475 335q23 161 23 339q0 90 -7 170q-1 6 -2 19.5t-1 20.5q-48 -125 -95 -265q-62 -185 -141 -363q3 -15 11 -45q12 -44 30 -74q24 -41 51 -52q14 -6 29 -1q13 5 28 20
q26 27 40 67q6 16 11 39l9 42q11 60 14 83z" />
    <glyph glyph-name="Oslash" unicode="&#xf8;" horiz-adv-x="692" 
d="M586 1259q16 -5 23 -19.5t2 -30.5q-18 -54 -69 -185q8 -35 13 -82q12 -100 16 -171q8 -143 -10 -342q-7 -84 -21 -169q-11 -62 -16 -85q-13 -50 -28 -80q-10 -19 -24 -36t-31 -30q-37 -26 -81 -29q-4 -1 -12 0t-10 1q-17 3 -21 4t-20 8q-2 1 -5.5 3.5t-6.5 4.5l-6 4
q-6 4 -17 15q-10 10 -14 16q-7 9 -23 36q-14 27 -24 52q-12 -25 -23.5 -48t-17.5 -34l-5 -10q-11 -21 -35 -21q-9 0 -19 5q-14 7 -19 23t3 31q10 10 82 172q-11 56 -25 161q-21 179 -22 342q-2 92 4 172q3 47 10 86q9 51 24 85q21 47 50 76q34 34 80 46q44 12 92 -1
q27 -7 54 -23q14 2 24 -4q11 -6 18 -16q10 -14 26 -44l33 93q5 16 20 22.5t31 1.5zM218 546q5 -70 12 -137q50 121 87 235q58 174 142 387q1 1 2 3.5t1 4.5q-6 21 -19 53l-6 15q-16 -3 -30 3q-5 2 -7 4l-5 4l-8 6l-3 3l-4 2l-8 5q-15 7 -34 7t-34 -7q-16 -8 -30 -21
q-16 -16 -23 -29q-9 -14 -16 -35q-17 -55 -21 -163l-1 -86q0 -14 -0.5 -42.5t-0.5 -42.5q0 -85 6 -169zM475 335q23 161 23 339q0 90 -7 170q-1 6 -2 19.5t-1 20.5q-48 -125 -95 -265q-62 -185 -141 -363q3 -15 11 -45q12 -44 30 -74q24 -41 51 -52q14 -6 29 -1q13 5 28 20
q26 27 40 67q6 16 11 39l9 42q11 60 14 83z" />
    <glyph glyph-name="Ugrave" unicode="&#xd9;" horiz-adv-x="688" 
d="M582 649q8 -187 -10 -333q-7 -52 -13 -82q-10 -56 -19 -82q-16 -49 -37 -78q-16 -22 -30 -32q-6 -5 -18 -13t-19 -11q-41 -20 -85 -18q-46 2 -84 19q-43 20 -71 48q-29 29 -47 71q-28 64 -32 164q-1 28 -1 83v83v166v60q0 107 2 317q0 20 -1 60.5t-2 60.5l-2 83
q0 19 1 23q3 15 15 22q26 18 51 -2q11 -8 13 -25v-12v-10v-42v-83q-1 -163 -6 -331q-1 -37 -4 -332q1 -30 0.5 -55t0.5 -55t4 -55q5 -43 19 -80q17 -43 46 -68q31 -28 73 -36q13 -3 41 -1q17 1 39 12q33 17 52 61q13 30 24 79q32 151 29 329q-1 112 -20 333t-20 330
q0 14 8 23q9 10 22 12q14 2 24 -3q14 -7 18 -18q1 -2 1 -6l1 -7q0 -2 0.5 -5t0.5 -5v-21q0 -7 0.5 -20.5t0.5 -20.5q2 -57 10 -166q1 -20 11.5 -143t13.5 -188zM321 1283q-30 76 -64 141q-8 17 2.5 29t27.5 11t26 -17q34 -65 64 -141q7 -17 -4.5 -29.5t-28 -11.5t-23.5 18z
" />
    <glyph glyph-name="Ugrave" unicode="&#xf9;" horiz-adv-x="688" 
d="M582 649q8 -187 -10 -333q-7 -52 -13 -82q-10 -56 -19 -82q-16 -49 -37 -78q-16 -22 -30 -32q-6 -5 -18 -13t-19 -11q-41 -20 -85 -18q-46 2 -84 19q-43 20 -71 48q-29 29 -47 71q-28 64 -32 164q-1 28 -1 83v83v166v60q0 107 2 317q0 20 -1 60.5t-2 60.5l-2 83
q0 19 1 23q3 15 15 22q26 18 51 -2q11 -8 13 -25v-12v-10v-42v-83q-1 -163 -6 -331q-1 -37 -4 -332q1 -30 0.5 -55t0.5 -55t4 -55q5 -43 19 -80q17 -43 46 -68q31 -28 73 -36q13 -3 41 -1q17 1 39 12q33 17 52 61q13 30 24 79q32 151 29 329q-1 112 -20 333t-20 330
q0 14 8 23q9 10 22 12q14 2 24 -3q14 -7 18 -18q1 -2 1 -6l1 -7q0 -2 0.5 -5t0.5 -5v-21q0 -7 0.5 -20.5t0.5 -20.5q2 -57 10 -166q1 -20 11.5 -143t13.5 -188zM321 1283q-30 76 -64 141q-8 17 2.5 29t27.5 11t26 -17q34 -65 64 -141q7 -17 -4.5 -29.5t-28 -11.5t-23.5 18z
" />
    <glyph glyph-name="Uacute" unicode="&#xda;" horiz-adv-x="688" 
d="M582 649q8 -187 -10 -333q-7 -52 -13 -82q-10 -56 -19 -82q-16 -49 -37 -78q-16 -22 -30 -32q-6 -5 -18 -13t-19 -11q-41 -20 -85 -18q-46 2 -84 19q-43 20 -71 48q-29 29 -47 71q-28 64 -32 164q-1 28 -1 83v83v166v60q0 107 2 317q0 20 -1 60.5t-2 60.5l-2 83
q0 19 1 23q3 15 15 22q26 18 51 -2q11 -8 13 -25v-12v-10v-42v-83q-1 -163 -6 -331q-1 -37 -4 -332q1 -30 0.5 -55t0.5 -55t4 -55q5 -43 19 -80q17 -43 46 -68q31 -28 73 -36q13 -3 41 -1q17 1 39 12q33 17 52 61q13 30 24 79q32 151 29 329q-1 112 -20 333t-20 330
q0 14 8 23q9 10 22 12q14 2 24 -3q14 -7 18 -18q1 -2 1 -7l1 -6q0 -2 0.5 -5t0.5 -5v-21q0 -7 0.5 -20.5t0.5 -20.5q2 -57 10 -166q1 -20 11.5 -143t13.5 -188zM331 1292q-11 -15 -28.5 -11.5t-24 17.5t3.5 30q36 48 86 129q9 16 26 13t24.5 -17.5t-0.5 -31.5
q-45 -74 -87 -129z" />
    <glyph glyph-name="Uacute" unicode="&#xfa;" horiz-adv-x="688" 
d="M582 649q8 -187 -10 -333q-7 -52 -13 -82q-10 -56 -19 -82q-16 -49 -37 -78q-16 -22 -30 -32q-6 -5 -18 -13t-19 -11q-41 -20 -85 -18q-46 2 -84 19q-43 20 -71 48q-29 29 -47 71q-28 64 -32 164q-1 28 -1 83v83v166v60q0 107 2 317q0 20 -1 60.5t-2 60.5l-2 83
q0 19 1 23q3 15 15 22q26 18 51 -2q11 -8 13 -25v-12v-10v-42v-83q-1 -163 -6 -331q-1 -37 -4 -332q1 -30 0.5 -55t0.5 -55t4 -55q5 -43 19 -80q17 -43 46 -68q31 -28 73 -36q13 -3 41 -1q17 1 39 12q33 17 52 61q13 30 24 79q32 151 29 329q-1 112 -20 333t-20 330
q0 14 8 23q9 10 22 12q14 2 24 -3q14 -7 18 -18q1 -2 1 -7l1 -6q0 -2 0.5 -5t0.5 -5v-21q0 -7 0.5 -20.5t0.5 -20.5q2 -57 10 -166q1 -20 11.5 -143t13.5 -188zM331 1292q-11 -15 -28.5 -11.5t-24 17.5t3.5 30q36 48 86 129q9 16 26 13t24.5 -17.5t-0.5 -31.5
q-45 -74 -87 -129z" />
    <glyph glyph-name="Ucircumflex" unicode="&#xdb;" horiz-adv-x="688" 
d="M582 649q8 -187 -10 -333q-7 -52 -13 -82q-10 -56 -19 -82q-16 -49 -37 -78q-16 -22 -30 -32q-6 -5 -18 -13t-19 -11q-41 -20 -85 -18q-46 2 -84 19q-43 20 -71 48q-29 29 -47 71q-28 64 -32 164q-1 28 -1 83v83v166v60q0 107 2 317q0 20 -1 60.5t-2 60.5l-2 83
q0 19 1 23q3 15 15 22q26 18 51 -2q11 -8 13 -25v-12v-10v-42v-83q-1 -163 -6 -331q-1 -37 -4 -332q1 -30 0.5 -55t0.5 -55t4 -55q5 -43 19 -80q17 -43 46 -68q31 -28 73 -36q13 -3 41 -1q17 1 39 12q33 17 52 61q13 30 24 79q32 151 29 329q-1 112 -20 333t-20 330
q0 14 8 23q9 10 22 12q14 2 24 -3q14 -7 18 -18q1 -2 1 -6l1 -7q0 -2 0.5 -5t0.5 -5v-21q0 -7 0.5 -20.5t0.5 -20.5q2 -57 10 -166q1 -20 11.5 -143t13.5 -188zM211 1321q-10 -7 -22.5 -4t-19.5 13q-14 21 3 38q36 38 77 71q6 5 13 10.5t15.5 12t13.5 10.5q7 5 23 15
q5 4 12 8q5 3 15 8l4 2l3 1h1l2 1q1 0 17 3q9 0 13 -1q1 -1 3.5 -2t4.5 -1q2 -1 6 -2.5t6 -2.5q12 -7 27 -20q23 -21 39 -40q36 -42 63 -85q7 -11 4 -23t-14 -19q-20 -14 -38 4l-71 71q-34 31 -35 32q-6 4 -8 6l-2 -2q-5 -2 -10 -5q-17 -11 -20 -13q-7 -5 -20.5 -14
t-20.5 -14q-66 -46 -84 -58z" />
    <glyph glyph-name="Ucircumflex" unicode="&#xfb;" horiz-adv-x="688" 
d="M582 649q8 -187 -10 -333q-7 -52 -13 -82q-10 -56 -19 -82q-16 -49 -37 -78q-16 -22 -30 -32q-6 -5 -18 -13t-19 -11q-41 -20 -85 -18q-46 2 -84 19q-43 20 -71 48q-29 29 -47 71q-28 64 -32 164q-1 28 -1 83v83v166v60q0 107 2 317q0 20 -1 60.5t-2 60.5l-2 83
q0 19 1 23q3 15 15 22q26 18 51 -2q11 -8 13 -25v-12v-10v-42v-83q-1 -163 -6 -331q-1 -37 -4 -332q1 -30 0.5 -55t0.5 -55t4 -55q5 -43 19 -80q17 -43 46 -68q31 -28 73 -36q13 -3 41 -1q17 1 39 12q33 17 52 61q13 30 24 79q32 151 29 329q-1 112 -20 333t-20 330
q0 14 8 23q9 10 22 12q14 2 24 -3q14 -7 18 -18q1 -2 1 -6l1 -7q0 -2 0.5 -5t0.5 -5v-21q0 -7 0.5 -20.5t0.5 -20.5q2 -57 10 -166q1 -20 11.5 -143t13.5 -188zM211 1321q-10 -7 -22.5 -4t-19.5 13q-14 21 3 38q36 38 77 71q6 5 13 10.5t15.5 12t13.5 10.5q7 5 23 15
q5 4 12 8q5 3 15 8l4 2l3 1h1l2 1q1 0 17 3q9 0 13 -1q1 -1 3.5 -2t4.5 -1q2 -1 6 -2.5t6 -2.5q12 -7 27 -20q23 -21 39 -40q36 -42 63 -85q7 -11 4 -23t-14 -19q-20 -14 -38 4l-71 71q-34 31 -35 32q-6 4 -8 6l-2 -2q-5 -2 -10 -5q-17 -11 -20 -13q-7 -5 -20.5 -14
t-20.5 -14q-66 -46 -84 -58z" />
    <glyph glyph-name="Udieresis" unicode="&#xdc;" horiz-adv-x="688" 
d="M582 649q8 -187 -10 -333q-7 -52 -13 -82q-10 -56 -19 -82q-16 -49 -37 -78q-16 -22 -30 -32q-6 -5 -18 -13t-19 -11q-41 -20 -85 -18q-46 2 -84 19q-43 20 -71 48q-29 29 -47 71q-28 64 -32 164q-1 28 -1 83v83v166v60q0 107 2 317q0 20 -1 60.5t-2 60.5l-2 83
q0 19 1 23q3 15 15 22q26 18 51 -2q11 -8 13 -25v-12v-10v-42v-83q-1 -163 -6 -331q-1 -37 -4 -332q1 -30 0.5 -55t0.5 -55t4 -55q5 -43 19 -80q17 -43 46 -68q31 -28 73 -36q13 -3 41 -1q17 1 39 12q33 17 52 61q13 30 24 79q32 151 29 329q-1 112 -20 333t-20 330
q0 14 8 23q9 10 22 12q14 2 24 -3q14 -7 18 -18q1 -2 1 -6l1 -7q0 -2 0.5 -5t0.5 -5v-21q0 -7 0.5 -20.5t0.5 -20.5q2 -57 10 -166q1 -20 11.5 -143t13.5 -188zM180 1347q-34 18 -39 56q-1 8 4 17q0 30 20 43q27 19 64 -5q33 -20 42 -48q7 -18 2 -36t-22 -27q-20 -11 -44 -8
q-13 0 -24 6l-1 1q-2 0 -2 1zM439 1327q-21 14 -29 35q-6 12 -6 24v3q0 39 31 61q6 5 17 5q25 14 47 3q28 -14 26 -59q-2 -37 -22 -59q-32 -34 -64 -13z" />
    <glyph glyph-name="Udieresis" unicode="&#xfc;" horiz-adv-x="688" 
d="M582 649q8 -187 -10 -333q-7 -52 -13 -82q-10 -56 -19 -82q-16 -49 -37 -78q-16 -22 -30 -32q-6 -5 -18 -13t-19 -11q-41 -20 -85 -18q-46 2 -84 19q-43 20 -71 48q-29 29 -47 71q-28 64 -32 164q-1 28 -1 83v83v166v60q0 107 2 317q0 20 -1 60.5t-2 60.5l-2 83
q0 19 1 23q3 15 15 22q26 18 51 -2q11 -8 13 -25v-12v-10v-42v-83q-1 -163 -6 -331q-1 -37 -4 -332q1 -30 0.5 -55t0.5 -55t4 -55q5 -43 19 -80q17 -43 46 -68q31 -28 73 -36q13 -3 41 -1q17 1 39 12q33 17 52 61q13 30 24 79q32 151 29 329q-1 112 -20 333t-20 330
q0 14 8 23q9 10 22 12q14 2 24 -3q14 -7 18 -18q1 -2 1 -6l1 -7q0 -2 0.5 -5t0.5 -5v-21q0 -7 0.5 -20.5t0.5 -20.5q2 -57 10 -166q1 -20 11.5 -143t13.5 -188zM180 1347q-34 18 -39 56q-1 8 4 17q0 30 20 43q27 19 64 -5q33 -20 42 -48q7 -18 2 -36t-22 -27q-20 -11 -44 -8
q-13 0 -24 6l-1 1q-2 0 -2 1zM439 1327q-21 14 -29 35q-6 12 -6 24v3q0 39 31 61q6 5 17 5q25 14 47 3q28 -14 26 -59q-2 -37 -22 -59q-32 -34 -64 -13z" />
    <glyph glyph-name="divide" unicode="&#xf7;" horiz-adv-x="737" 
d="M387 441q31 -20 39 -50q13 -45 -22 -62q-22 -11 -45 -6q-16 2 -24 8l-1 1q-2 0 -2 1q-35 21 -36 57q0 12 5 18q2 29 22 41q27 17 64 -8zM332 847q-35 21 -36 57q0 12 5 18q2 29 22 41q27 17 64 -8q31 -20 39 -50q13 -45 -22 -62q-22 -11 -45 -6q-16 2 -24 8l-1 1
q-2 0 -2 1zM666 694q15 1 26.5 -9t13.5 -25q1 -15 -8.5 -26.5t-24.5 -13.5q-74 -7 -229 -7q-77 0 -167.5 1.5t-149.5 3.5t-60 2q-15 1 -26 12t-10 26t12 26t26 10h17q16 -1 43 -1.5t63 -1.5t78 -1.5t86.5 -1t89 -0.5t85 0.5t76 2t59.5 3.5z" />
    <glyph glyph-name="Aogonek" unicode="&#x104;" horiz-adv-x="733" 
d="M670 -38q18 1 26 -14t0 -30.5t-26 -16.5q-28 -2 -55 14.5t-33 42.5q-12 49 31 89l-9 38q-33 145 -36 157q-7 30 -19 90.5t-19 90.5q-90 3 -199 11l-96 9q-5 -18 -15 -54.5t-15 -54.5l-45 -158l-44 -158q-5 -16 -16 -23q-13 -9 -28 -7q-14 2 -25 11q-13 11 -14 25v7
q0 1 0.5 3.5t0.5 3.5t0.5 2.5t0.5 2.5l1 5l6 20l11 39l45 158l44 158q28 106 41 159q57 225 83 318q51 183 101 313q5 14 17 21q11 7 27 7q7 0 14 -3h6q15 0 24 -12q5 -6 8 -24l3 -19l7 -40l26 -159q43 -251 55 -316q65 -350 129 -630q2 -13 -2 -22q-4 -10 -15 -15
q-7 -4 -18 -4q-9 -11 -8 -20q1 -15 30 -15zM426 508l87 -3q-7 31 -11 52q-52 253 -96 510q-8 -23 -31 -100q-25 -81 -45 -157q-28 -106 -41 -159q-22 -90 -34 -135q28 1 63 -2z" />
    <glyph glyph-name="Aogonek" unicode="&#x105;" horiz-adv-x="733" 
d="M670 -38q18 1 26 -14t0 -30.5t-26 -16.5q-28 -2 -55 14.5t-33 42.5q-12 49 31 89l-9 38q-33 145 -36 157q-7 30 -19 90.5t-19 90.5q-90 3 -199 11l-96 9q-5 -18 -15 -54.5t-15 -54.5l-45 -158l-44 -158q-5 -16 -16 -23q-13 -9 -28 -7q-14 2 -25 11q-13 11 -14 25v7
q0 1 0.5 3.5t0.5 3.5t0.5 2.5t0.5 2.5l1 5l6 20l11 39l45 158l44 158q28 106 41 159q57 225 83 318q51 183 101 313q5 14 17 21q11 7 27 7q7 0 14 -3h6q15 0 24 -12q5 -6 8 -24l3 -19l7 -40l26 -159q43 -251 55 -316q65 -350 129 -630q2 -13 -2 -22q-4 -10 -15 -15
q-7 -4 -18 -4q-9 -11 -8 -20q1 -15 30 -15zM426 508l87 -3q-7 31 -11 52q-52 253 -96 510q-8 -23 -31 -100q-25 -81 -45 -157q-28 -106 -41 -159q-22 -90 -34 -135q28 1 63 -2z" />
    <glyph glyph-name="Cacute" unicode="&#x106;" horiz-adv-x="593" 
d="M555 139q3 -33 -10 -61q-13 -27 -39 -48q-25 -17 -55 -25q-54 -12 -119 5q-61 16 -108 49q-51 36 -74 92q-11 24 -16 57q-3 18 -7 59q-6 59 -9 117q-8 156 -10 234q-3 104 -1 235v56t0.5 63.5t3 54t7.5 60.5q11 70 46 109q19 22 48 38q26 14 57 19q54 9 119 -13
q44 -15 107 -52q19 -10 19 -32q0 -19 -15 -34q-16 -16 -38 -7l-8 4l-6 3l-13 8q-60 34 -104 43q-31 5 -53 0q-31 -7 -46 -22q-19 -19 -26 -44q-7 -21 -11 -55q-7 -92 -9 -233v-116l2 -118q2 -171 7 -233q5 -64 13 -115q1 -4 2.5 -13.5t2.5 -14.5t9 -26q12 -27 29 -44
q19 -19 45 -31q22 -11 25 -12q9 -3 27 -7q36 -8 56 -9q31 -2 53 7q10 4 17 14t5 22q0 1 -0.5 3.5t-0.5 3.5v3l-1 5q-1 7 3 19q7 18 28 23q15 2 19 1l9 -3q7 -5 8 -6l3 -4l1 -2q1 -2 2 -2q1 -2 2 -6q1 -2 1 -3q1 -4 2 -9.5t1 -6.5zM369 1345q-5 -18 -21.5 -21.5t-29 8
t-7.5 29.5q21 81 56 146q10 15 25.5 15.5t25.5 -14t2 -31.5q-33 -63 -51 -132z" />
    <glyph glyph-name="Cacute" unicode="&#x107;" horiz-adv-x="593" 
d="M555 139q3 -33 -10 -61q-13 -27 -39 -48q-25 -17 -55 -25q-54 -12 -119 5q-61 16 -108 49q-51 36 -74 92q-11 24 -16 57q-3 18 -7 59q-6 59 -9 117q-8 156 -10 234q-3 104 -1 235v56t0.5 63.5t3 54t7.5 60.5q11 70 46 109q19 22 48 38q26 14 57 19q54 9 119 -13
q44 -15 107 -52q19 -10 19 -32q0 -19 -15 -34q-16 -16 -38 -7l-8 4l-6 3l-13 8q-60 34 -104 43q-31 5 -53 0q-31 -7 -46 -22q-19 -19 -26 -44q-7 -21 -11 -55q-7 -92 -9 -233v-116l2 -118q2 -171 7 -233q5 -64 13 -115q1 -4 2.5 -13.5t2.5 -14.5t9 -26q12 -27 29 -44
q19 -19 45 -31q22 -11 25 -12q9 -3 27 -7q36 -8 56 -9q31 -2 53 7q10 4 17 14t5 22q0 1 -0.5 3.5t-0.5 3.5v3l-1 5q-1 7 3 19q7 18 28 23q15 2 19 1l9 -3q7 -5 8 -6l3 -4l1 -2q1 -2 2 -2q1 -2 2 -6q1 -2 1 -3q1 -4 2 -9.5t1 -6.5zM369 1345q-5 -18 -21.5 -21.5t-29 8
t-7.5 29.5q21 81 56 146q10 15 25.5 15.5t25.5 -14t2 -31.5q-33 -63 -51 -132z" />
    <glyph glyph-name="Eogonek" unicode="&#x118;" horiz-adv-x="585" 
d="M554 -22q18 -1 26 -17t0 -30.5t-26 -13.5q-62 5 -92 55q-14 22 -12 46q-57 -5 -101 -5q-36 0 -53 1q-1 0 -21 1t-31 2q-37 4 -55 17q-12 8 -20 22t-11 28q-10 54 -19 208l-13 207l-6 104l-5 104q-7 193 -7 415q0 8 -0.5 25.5t-0.5 26.5q0 39 5 54q4 14 15 25.5t25 15.5
q11 3 27 5q9 1 26 1q18 0 52 -2l52 -1l52 -2h52q12 0 20 -7q9 -8 11 -19t-4 -21.5t-16 -14.5q-7 -3 -21 -3h-21h-42l-83 -1h-42l-10 -1q-8 0 -11 -1t-10 -1h-5h-1v-9q0 -2 0.5 -6.5t0.5 -6.5l2 -26q1 -18 3 -52q0 -9 1 -26t1 -25l3 -52q2 -31 3.5 -65.5t3 -76.5t2.5 -65
q1 -44 5 -132q2 0 4.5 0.5t3.5 0.5h16q5 0 16 -0.5t17 -0.5h66l33 1h4l5 -1q4 0 10 -2q11 -6 15 -13q11 -19 2 -38q-8 -20 -32 -20q-79 -2 -132 3q-4 1 -12.5 2t-12.5 1q4 -72 10 -216q7 -161 11 -207q5 -46 7 -50q5 -12 14 -18q9 -7 22 -9q17 -3 51 -3q18 0 52 2
q36 2 103 12l25 4l6 1q1 0 3.5 0.5t4.5 0.5q7 1 17 -2q16 -6 25 -23t3 -34l-1 -5l-3 -4l-7 -7q-6 -4 -9 -5q-1 -1 -3.5 -1t-4.5 -1q-3 0 -8.5 -0.5t-8.5 -1.5q-10 -13 2 -27q15 -18 37 -20z" />
    <glyph glyph-name="Eogonek" unicode="&#x119;" horiz-adv-x="585" 
d="M554 -22q18 -1 26 -17t0 -30.5t-26 -13.5q-62 5 -92 55q-14 22 -12 46q-57 -5 -101 -5q-36 0 -53 1q-1 0 -21 1t-31 2q-37 4 -55 17q-12 8 -20 22t-11 28q-10 54 -19 208l-13 207l-6 104l-5 104q-7 193 -7 415q0 8 -0.5 25.5t-0.5 26.5q0 39 5 54q4 14 15 25.5t25 15.5
q11 3 27 5q9 1 26 1q18 0 52 -2l52 -1l52 -2h52q12 0 20 -7q9 -8 11 -19t-4 -21.5t-16 -14.5q-7 -3 -21 -3h-21h-42l-83 -1h-42l-10 -1q-8 0 -11 -1t-10 -1h-5h-1v-9q0 -2 0.5 -6.5t0.5 -6.5l2 -26q1 -18 3 -52q0 -9 1 -26t1 -25l3 -52q2 -31 3.5 -65.5t3 -76.5t2.5 -65
q1 -44 5 -132q2 0 4.5 0.5t3.5 0.5h16q5 0 16 -0.5t17 -0.5h66l33 1h4l5 -1q4 0 10 -2q11 -6 15 -13q11 -19 2 -38q-8 -20 -32 -20q-79 -2 -132 3q-4 1 -12.5 2t-12.5 1q4 -72 10 -216q7 -161 11 -207q5 -46 7 -50q5 -12 14 -18q9 -7 22 -9q17 -3 51 -3q18 0 52 2
q36 2 103 12l25 4l6 1q1 0 3.5 0.5t4.5 0.5q7 1 17 -2q16 -6 25 -23t3 -34l-1 -5l-3 -4l-7 -7q-6 -4 -9 -5q-1 -1 -3.5 -1t-4.5 -1q-3 0 -8.5 -0.5t-8.5 -1.5q-10 -13 2 -27q15 -18 37 -20z" />
    <glyph glyph-name="Itilde" unicode="&#x128;" horiz-adv-x="403" 
d="M341 1203q7 -6 11 -19q7 -25 -13 -38q-7 -5 -19 -5l-19 1l-38 3q-7 1 -21 1v-23l-2 -155q-2 -128 -4 -155l-8 -155q-3 -64 -11.5 -184t-12 -216.5t0.5 -183.5q21 0 61 4q21 2 29 -15q9 -17 1 -35q-9 -19 -30 -21q-6 -1 -15.5 -2t-15.5 -1q-42 -4 -64 -4q-29 0 -64 5
q-23 2 -32 23t1 37q5 10 14 13q1 1 3 1.5l4 1t3 0.5h9q5 -1 14.5 -2t14.5 -2q0 3 -0.5 11t-0.5 11q-3 69 -1 155q2 54 14 310q14 394 23 586q-42 2 -61 4q-14 2 -21 8q-6 5 -12 19q-3 12 -2 22q2 15 13 22t24 5l19 -2l37 -4q100 -10 150 -13q14 -2 21 -8zM414 1375
q11 -12 10.5 -28.5t-12.5 -27.5q-73 -67 -134 -65q-36 1 -81 46q-29 29 -43 27q-24 -5 -46 -26t-34 -40q-12 -18 -34 -18q-10 0 -21 6q-14 9 -18 25t5 30q58 87 134 101q58 11 114 -48q22 -22 26 -22q15 0 38 13.5t39 28.5q12 11 29 10.5t28 -12.5z" />
    <glyph glyph-name="Itilde" unicode="&#x129;" horiz-adv-x="403" 
d="M341 1203q7 -6 11 -19q7 -25 -13 -38q-7 -5 -19 -5l-19 1l-38 3q-7 1 -21 1v-23l-2 -155q-2 -128 -4 -155l-8 -155q-3 -64 -11.5 -184t-12 -216.5t0.5 -183.5q21 0 61 4q21 2 29 -15q9 -17 1 -35q-9 -19 -30 -21q-6 -1 -15.5 -2t-15.5 -1q-42 -4 -64 -4q-29 0 -64 5
q-23 2 -32 23t1 37q5 10 14 13q1 1 3 1.5l4 1t3 0.5h9q5 -1 14.5 -2t14.5 -2q0 3 -0.5 11t-0.5 11q-3 69 -1 155q2 54 14 310q14 394 23 586q-42 2 -61 4q-14 2 -21 8q-6 5 -12 19q-3 12 -2 22q2 15 13 22t24 5l19 -2l37 -4q100 -10 150 -13q14 -2 21 -8zM414 1375
q11 -12 10.5 -28.5t-12.5 -27.5q-73 -67 -134 -65q-36 1 -81 46q-29 29 -43 27q-24 -5 -46 -26t-34 -40q-12 -18 -34 -18q-10 0 -21 6q-14 9 -18 25t5 30q58 87 134 101q58 11 114 -48q22 -22 26 -22q15 0 38 13.5t39 28.5q12 11 29 10.5t28 -12.5z" />
    <glyph glyph-name="Lslash" unicode="&#x141;" horiz-adv-x="575" 
d="M550 50q10 -9 10 -25q0 -13 -12 -25t-27 -9q-2 0 -6.5 0.5t-6.5 1.5t-6 1t-6 1q-43 5 -100 0q-9 -1 -25.5 -3t-24.5 -3l-51 -6q-39 -5 -54 -3t-29 7q-5 2 -15 8h-1q-13 5 -20 15q-2 3 -4 11q0 2 -0.5 6.5t-0.5 5.5v19v39v156l-1 311v38q-12 -8 -37 -23.5t-38 -23.5
q-21 -13 -37 15q-17 30 -4 52q4 6 9 9q18 11 53.5 30t53.5 30q0 381 -2 495q0 11 6 20q5 8 17 11q24 7 37 -13q3 -5 5 -10q0 -2 0.5 -5t0.5 -5l1 -59l2 -155l4 -248q23 15 54.5 31.5t54.5 31.5q24 15 55 -1q26 -14 14 -28q-2 -3 -6 -5l-171 -105q3 -189 5 -568l2 -1v0
q5 -2 22 -2q4 0 12.5 0.5t12.5 0.5l13 1h7h6l26 1q118 4 179 -14q1 0 4 -1t4 -1q3 -1 7 -3q1 -1 4 -2t4 -1zM248 71h1h-1zM249 71l1 -1z" />
    <glyph glyph-name="Lslash" unicode="&#x142;" horiz-adv-x="575" 
d="M550 50q10 -9 10 -25q0 -13 -12 -25t-27 -9q-2 0 -6.5 0.5t-6.5 1.5t-6 1t-6 1q-43 5 -100 0q-9 -1 -25.5 -3t-24.5 -3l-51 -6q-39 -5 -54 -3t-29 7q-5 2 -15 8h-1q-13 5 -20 15q-2 3 -4 11q0 2 -0.5 6.5t-0.5 5.5v19v39v156l-1 311v38q-12 -8 -37 -23.5t-38 -23.5
q-21 -13 -37 15q-17 30 -4 52q4 6 9 9q18 11 53.5 30t53.5 30q0 381 -2 495q0 11 6 20q5 8 17 11q24 7 37 -13q3 -5 5 -10q0 -2 0.5 -5t0.5 -5l1 -59l2 -155l4 -248q23 15 54.5 31.5t54.5 31.5q24 15 55 -1q26 -14 14 -28q-2 -3 -6 -5l-171 -105q3 -189 5 -568l2 -1v0
q5 -2 22 -2q4 0 12.5 0.5t12.5 0.5l13 1h7h6l26 1q118 4 179 -14q1 0 4 -1t4 -1q3 -1 7 -3q1 -1 4 -2t4 -1zM248 71h1h-1zM249 71l1 -1z" />
    <glyph glyph-name="Nacute" unicode="&#x143;" horiz-adv-x="718" 
d="M597 611l23 -613q0 -15 -7 -25q-7 -9 -22 -13q-28 -7 -44 15q-5 6 -7 23l-1 20l-2 38l-5 153l-4 119q-4 3 -7 7q-1 1 -2 3q-3 4 -4 6q0 1 -1 3t-1.5 3.5t-0.5 2.5l-5 14q-15 43 -48 107q-18 35 -122 205q-56 94 -158 286q1 -8 2 -24.5t1 -24.5l19 -301q21 -352 41 -603
q0 -16 -6 -26t-22 -14q-26 -6 -44 15q-7 10 -9 23l-2 18l-3 38l-11 151q-7 107 -19 302t-19 302l-9 151l-8 151q0 14 7 24q8 11 20 14q11 3 24 0q11 0 17 -2q8 -4 15 -13q2 -3 8 -13l7 -14l57 -106l57 -105q19 -35 59 -105q32 -57 61 -103q11 -17 32 -51t32 -51
q6 -10 17.5 -30.5t17.5 -30.5l-4 132l-2 77l-3 77l-12 306q0 13 7 23t20 13q27 7 42 -14q7 -10 7 -23l2 -57l6 -154zM387 1257q-5 -18 -21.5 -21t-29 8.5t-7.5 29.5q20 79 56 145q10 15 25.5 15.5t25.5 -14t2 -31.5q-33 -63 -51 -132z" />
    <glyph glyph-name="Nacute" unicode="&#x144;" horiz-adv-x="718" 
d="M597 611l23 -613q0 -15 -7 -25q-7 -9 -22 -13q-28 -7 -44 15q-5 6 -7 23l-1 20l-2 38l-5 153l-4 119q-4 3 -7 7q-1 1 -2 3q-3 4 -4 6q0 1 -1 3t-1.5 3.5t-0.5 2.5l-5 14q-15 43 -48 107q-18 35 -122 205q-56 94 -158 286q1 -8 2 -24.5t1 -24.5l19 -301q21 -352 41 -603
q0 -16 -6 -26t-22 -14q-26 -6 -44 15q-7 10 -9 23l-2 18l-3 38l-11 151q-7 107 -19 302t-19 302l-9 151l-8 151q0 14 7 24q8 11 20 14q11 3 24 0q11 0 17 -2q8 -4 15 -13q2 -3 8 -13l7 -14l57 -106l57 -105q19 -35 59 -105q32 -57 61 -103q11 -17 32 -51t32 -51
q6 -10 17.5 -30.5t17.5 -30.5l-4 132l-2 77l-3 77l-12 306q0 13 7 23t20 13q27 7 42 -14q7 -10 7 -23l2 -57l6 -154zM387 1257q-5 -18 -21.5 -21t-29 8.5t-7.5 29.5q20 79 56 145q10 15 25.5 15.5t25.5 -14t2 -31.5q-33 -63 -51 -132z" />
    <glyph glyph-name="OE" unicode="&#x152;" horiz-adv-x="954" 
d="M927 71q9 -17 3 -34l-2 -5l-2 -4q-2 -3 -8 -7q-4 -3 -8 -4l-9 -3q-4 0 -12.5 -1t-13.5 -2q-9 -1 -26 -3t-26 -3q-58 -5 -104 -5q-36 0 -53 1q-1 0 -21 1t-31 2q-37 4 -55 17q-14 9 -21 22q-6 11 -10 28q-12 66 -17 168q-5 -30 -10 -50q-12 -49 -29 -81q-10 -20 -24 -36
q-14 -17 -31 -30q-35 -25 -80 -28h-22q-17 3 -21 4q-3 1 -6.5 2.5t-8 3.5t-6.5 3t-5.5 3.5t-6.5 4.5l-6 4q-6 4 -16 14t-14 16q-10 13 -24 36q-35 64 -56 162q-15 68 -27 169q-19 169 -21 343q-2 103 3 172q3 47 10 86q8 45 25 84q22 49 49 76q34 34 80 46q44 12 92 -1
q29 -8 55 -23q15 2 24 -3q9 -4 17 -17q14 -21 24 -40v2q0 36 6 54q9 33 39 41q10 3 28 5q9 1 26 1q18 0 52 -2l52 -1l52 -1l52 -1q12 0 20 -7t10 -19q2 -11 -3.5 -21.5t-15.5 -14.5q-5 -2 -21 -2l-21 -1h-42l-83 -1h-42l-11 -1q-7 0 -10 -1t-10 -1h-6v-9v-13l3 -25
q0 -9 0.5 -26t1.5 -26t2 -26t1 -26l2 -52q4 -69 10 -207q1 -44 5 -132q1 0 4 0.5t4 0.5h16q5 0 16 -0.5t17 -0.5l66 1h32h5l4 -1q4 0 10 -2q13 -6 16 -13q11 -19 2 -38q-8 -20 -32 -20q-79 -2 -132 3q-4 0 -12.5 1t-12.5 2q4 -72 10 -216q8 -184 10 -207q5 -46 7 -50
q4 -12 14 -18q9 -7 23 -9q17 -3 51 -3q18 0 52 2t102 12l26 4l6 1q1 0 3 0.5t4 0.5q8 1 18 -2q17 -6 25 -23zM452 348q22 145 22 339q0 102 -6 170q-3 44 -9 85q-8 59 -14 84q-10 44 -25 80l-3.5 7l-3.5 7q-17 -3 -29 3q-3 1 -7 5l-6 4l-7 5l-4 3l-4 2l-8 5q-18 8 -34 8
q-15 0 -33 -8q-17 -7 -30 -21q-18 -18 -24 -29q-7 -11 -15 -35q-18 -58 -22 -163l-1 -86v-85q0 -85 6 -169q8 -114 15 -169q1 -12 3 -26t5 -31.5t4 -26.5q6 -40 17 -82q12 -44 30 -74q24 -41 52 -52q14 -6 29 -1q13 5 28 20q24 25 39 67q6 16 11 39l9 42q1 4 7 35t8 48z" />
    <glyph glyph-name="OE" unicode="&#x153;" horiz-adv-x="954" 
d="M927 71q9 -17 3 -34l-2 -5l-2 -4q-2 -3 -8 -7q-4 -3 -8 -4l-9 -3q-4 0 -12.5 -1t-13.5 -2q-9 -1 -26 -3t-26 -3q-58 -5 -104 -5q-36 0 -53 1q-1 0 -21 1t-31 2q-37 4 -55 17q-14 9 -21 22q-6 11 -10 28q-12 66 -17 168q-5 -30 -10 -50q-12 -49 -29 -81q-10 -20 -24 -36
q-14 -17 -31 -30q-35 -25 -80 -28h-22q-17 3 -21 4q-3 1 -6.5 2.5t-8 3.5t-6.5 3t-5.5 3.5t-6.5 4.5l-6 4q-6 4 -16 14t-14 16q-10 13 -24 36q-35 64 -56 162q-15 68 -27 169q-19 169 -21 343q-2 103 3 172q3 47 10 86q8 45 25 84q22 49 49 76q34 34 80 46q44 12 92 -1
q29 -8 55 -23q15 2 24 -3q9 -4 17 -17q14 -21 24 -40v2q0 36 6 54q9 33 39 41q10 3 28 5q9 1 26 1q18 0 52 -2l52 -1l52 -1l52 -1q12 0 20 -7t10 -19q2 -11 -3.5 -21.5t-15.5 -14.5q-5 -2 -21 -2l-21 -1h-42l-83 -1h-42l-11 -1q-7 0 -10 -1t-10 -1h-6v-9v-13l3 -25
q0 -9 0.5 -26t1.5 -26t2 -26t1 -26l2 -52q4 -69 10 -207q1 -44 5 -132q1 0 4 0.5t4 0.5h16q5 0 16 -0.5t17 -0.5l66 1h32h5l4 -1q4 0 10 -2q13 -6 16 -13q11 -19 2 -38q-8 -20 -32 -20q-79 -2 -132 3q-4 0 -12.5 1t-12.5 2q4 -72 10 -216q8 -184 10 -207q5 -46 7 -50
q4 -12 14 -18q9 -7 23 -9q17 -3 51 -3q18 0 52 2t102 12l26 4l6 1q1 0 3 0.5t4 0.5q8 1 18 -2q17 -6 25 -23zM452 348q22 145 22 339q0 102 -6 170q-3 44 -9 85q-8 59 -14 84q-10 44 -25 80l-3.5 7l-3.5 7q-17 -3 -29 3q-3 1 -7 5l-6 4l-7 5l-4 3l-4 2l-8 5q-18 8 -34 8
q-15 0 -33 -8q-17 -7 -30 -21q-18 -18 -24 -29q-7 -11 -15 -35q-18 -58 -22 -163l-1 -86v-85q0 -85 6 -169q8 -114 15 -169q1 -12 3 -26t5 -31.5t4 -26.5q6 -40 17 -82q12 -44 30 -74q24 -41 52 -52q14 -6 29 -1q13 5 28 20q24 25 39 67q6 16 11 39l9 42q1 4 7 35t8 48z" />
    <glyph glyph-name="Sacute" unicode="&#x15a;" horiz-adv-x="618" 
d="M543 513q14 -63 12 -129q-2 -72 -15 -128q-17 -71 -45 -122q-20 -35 -36 -54q-23 -28 -46 -47q-26 -22 -55 -36q-31 -16 -61 -23q-17 -4 -33 -6h-33q-34 3 -64 22q-49 32 -80 103q-24 55 -30 125q-2 22 -2 32q0 1 0.5 4t0.5 5q0 1 3 10q5 10 13 14q12 6 18 6q11 0 19 -4
q7 -2 15 -12q2 -3 4 -9t2 -9q0 -67 21 -122q14 -34 31 -53q22 -25 50 -32q15 -4 30 -3t30 6q28 9 56 28q50 35 81 93q27 51 39 119q10 60 7 126q-1 30 -6 62q-5 37 -14 62q-11 33 -30 54q-18 20 -51 36q-11 5 -31 12.5t-27 10.5q-14 5 -29 14q-9 5 -27 17q-52 37 -86 93
q-33 53 -42 119q-9 65 9 127q20 62 62 112q49 58 104 76q33 11 65 8q31 -3 63 -19q9 -4 15 -14q5 -7 5 -20q-2 -21 -20 -33q-17 -13 -39 -1l-13 6q-1 0 -14 3q-26 4 -55 -11q-26 -14 -46 -37q-43 -47 -56 -105q-15 -63 3 -119q19 -61 63 -100q27 -25 105 -60q37 -15 58 -30
q29 -19 50 -45q21 -27 33 -59q14 -37 19 -63zM376 1308q-5 -18 -21.5 -21.5t-29.5 8t-8 29.5q12 45 33 87q5 11 18 14t23 -3q24 -14 11 -42q-18 -37 -26 -72z" />
    <glyph glyph-name="Sacute" unicode="&#x15b;" horiz-adv-x="618" 
d="M543 513q14 -63 12 -129q-2 -72 -15 -128q-17 -71 -45 -122q-20 -35 -36 -54q-23 -28 -46 -47q-26 -22 -55 -36q-31 -16 -61 -23q-17 -4 -33 -6h-33q-34 3 -64 22q-49 32 -80 103q-24 55 -30 125q-2 22 -2 32q0 1 0.5 4t0.5 5q0 1 3 10q5 10 13 14q12 6 18 6q11 0 19 -4
q7 -2 15 -12q2 -3 4 -9t2 -9q0 -67 21 -122q14 -34 31 -53q22 -25 50 -32q15 -4 30 -3t30 6q28 9 56 28q50 35 81 93q27 51 39 119q10 60 7 126q-1 30 -6 62q-5 37 -14 62q-11 33 -30 54q-18 20 -51 36q-11 5 -31 12.5t-27 10.5q-14 5 -29 14q-9 5 -27 17q-52 37 -86 93
q-33 53 -42 119q-9 65 9 127q20 62 62 112q49 58 104 76q33 11 65 8q31 -3 63 -19q9 -4 15 -14q5 -7 5 -20q-2 -21 -20 -33q-17 -13 -39 -1l-13 6q-1 0 -14 3q-26 4 -55 -11q-26 -14 -46 -37q-43 -47 -56 -105q-15 -63 3 -119q19 -61 63 -100q27 -25 105 -60q37 -15 58 -30
q29 -19 50 -45q21 -27 33 -59q14 -37 19 -63zM376 1308q-5 -18 -21.5 -21.5t-29.5 8t-8 29.5q12 45 33 87q5 11 18 14t23 -3q24 -14 11 -42q-18 -37 -26 -72z" />
    <glyph glyph-name="Utilde" unicode="&#x168;" horiz-adv-x="688" 
d="M582 649q8 -187 -10 -333q-7 -52 -13 -82q-10 -56 -19 -82q-16 -49 -37 -78q-16 -22 -30 -32q-6 -5 -18 -13t-19 -11q-41 -20 -85 -18q-46 2 -84 19q-43 20 -71 48q-29 29 -47 71q-28 64 -32 164q-1 28 -1 83v83v166v60q0 107 2 317q0 20 -1 60.5t-2 60.5l-2 83
q0 19 1 23q3 15 15 22q26 18 51 -2q11 -8 13 -25v-12v-10v-42v-83q-1 -163 -6 -331q-1 -37 -4 -332q1 -30 0.5 -55t0.5 -55t4 -55q5 -43 19 -80q17 -43 46 -68q31 -28 73 -36q13 -3 41 -1q17 1 39 12q33 17 52 61q13 30 24 79q32 151 29 329q-1 112 -20 333t-20 330
q0 14 8 23q9 10 22 12q14 2 24 -3q14 -7 18 -18q1 -2 1 -7l1 -6q0 -2 0.5 -5t0.5 -5v-21q0 -7 0.5 -20.5t0.5 -20.5q2 -57 10 -166q1 -20 11.5 -143t13.5 -188zM140 1323q-14 9 -17.5 25t5.5 30q58 87 133 101q57 10 114 -49q22 -22 26 -22h1q30 0 76 43q12 11 29 10.5
t28 -12.5t10.5 -28.5t-12.5 -27.5q-71 -65 -131 -65h-3q-36 1 -81 46q-29 29 -42 27q-24 -5 -47.5 -27t-33.5 -39q-12 -18 -34 -18q-11 0 -21 6z" />
    <glyph glyph-name="Utilde" unicode="&#x169;" horiz-adv-x="688" 
d="M582 649q8 -187 -10 -333q-7 -52 -13 -82q-10 -56 -19 -82q-16 -49 -37 -78q-16 -22 -30 -32q-6 -5 -18 -13t-19 -11q-41 -20 -85 -18q-46 2 -84 19q-43 20 -71 48q-29 29 -47 71q-28 64 -32 164q-1 28 -1 83v83v166v60q0 107 2 317q0 20 -1 60.5t-2 60.5l-2 83
q0 19 1 23q3 15 15 22q26 18 51 -2q11 -8 13 -25v-12v-10v-42v-83q-1 -163 -6 -331q-1 -37 -4 -332q1 -30 0.5 -55t0.5 -55t4 -55q5 -43 19 -80q17 -43 46 -68q31 -28 73 -36q13 -3 41 -1q17 1 39 12q33 17 52 61q13 30 24 79q32 151 29 329q-1 112 -20 333t-20 330
q0 14 8 23q9 10 22 12q14 2 24 -3q14 -7 18 -18q1 -2 1 -7l1 -6q0 -2 0.5 -5t0.5 -5v-21q0 -7 0.5 -20.5t0.5 -20.5q2 -57 10 -166q1 -20 11.5 -143t13.5 -188zM140 1323q-14 9 -17.5 25t5.5 30q58 87 133 101q57 10 114 -49q22 -22 26 -22h1q30 0 76 43q12 11 29 10.5
t28 -12.5t10.5 -28.5t-12.5 -27.5q-71 -65 -131 -65h-3q-36 1 -81 46q-29 29 -42 27q-24 -5 -47.5 -27t-33.5 -39q-12 -18 -34 -18q-11 0 -21 6z" />
    <glyph glyph-name="Zacute" unicode="&#x179;" horiz-adv-x="559" 
d="M517 34q7 -22 -9 -40q-6 -7 -19 -11q-1 0 -5 -0.5t-6 -0.5h-8l-66 2q-88 2 -133 2h-67q-11 0 -32.5 -1.5t-33.5 -1.5q-23 0 -35 2q-19 3 -34 15q-17 13 -21 31q-5 14 -1 37q4 26 22 65q4 11 12 32.5t11 29.5l46 124q14 35 44 126l83 252q12 37 26.5 79t32.5 93.5t28 79.5
q30 84 44 126l15 39q-3 0 -10 -0.5t-11 -0.5q-15 -1 -44.5 -2t-44.5 -1q-89 -3 -177 -3q-13 0 -23 7q-11 6 -16 18q-5 11 -3 23q2 15 7 22l9 9q9 4 11 5q4 2 6 2l5 1h10l33 -1q23 -1 67 -1t67 -1t67 -2t67 -1l42 -2q6 0 9 -1q10 -2 18 -8q14 -13 11 -34q-2 -10 -8 -16
q-4 -4 -10 -6v0l-2 -1q-3 -3 -4 -7l-8 -16q-7 -15 -13 -32q-9 -22 -23 -66q-26 -78 -44 -134l-85 -268q-56 -180 -86 -269q-28 -83 -47 -133q-15 -37 -28 -64q-29 -60 -31 -64l-5 -10q1 0 3 -1q10 -3 32 -1q9 1 32 5q1 0 7 1.5t10 1.5h17q22 2 33 2q45 1 134 -1l66 -2h17h8
h4l5 -1q11 -1 20.5 -9t11.5 -18zM326 1277q-11 -14 -27 -14t-25.5 14.5t-0.5 30.5q37 61 73 137q10 15 25 15t25.5 -14.5t2.5 -31.5q-36 -76 -73 -137z" />
    <glyph glyph-name="Zacute" unicode="&#x17a;" horiz-adv-x="559" 
d="M517 34q7 -22 -9 -40q-6 -7 -19 -11q-1 0 -5 -0.5t-6 -0.5h-8l-66 2q-88 2 -133 2h-67q-11 0 -32.5 -1.5t-33.5 -1.5q-23 0 -35 2q-19 3 -34 15q-17 13 -21 31q-5 14 -1 37q4 26 22 65q4 11 12 32.5t11 29.5l46 124q14 35 44 126l83 252q12 37 26.5 79t32.5 93.5t28 79.5
q30 84 44 126l15 39q-3 0 -10 -0.5t-11 -0.5q-15 -1 -44.5 -2t-44.5 -1q-89 -3 -177 -3q-13 0 -23 7q-11 6 -16 18q-5 11 -3 23q2 15 7 22l9 9q9 4 11 5q4 2 6 2l5 1h10l33 -1q23 -1 67 -1t67 -1t67 -2t67 -1l42 -2q6 0 9 -1q10 -2 18 -8q14 -13 11 -34q-2 -10 -8 -16
q-4 -4 -10 -6v0l-2 -1q-3 -3 -4 -7l-8 -16q-7 -15 -13 -32q-9 -22 -23 -66q-26 -78 -44 -134l-85 -268q-56 -180 -86 -269q-28 -83 -47 -133q-15 -37 -28 -64q-29 -60 -31 -64l-5 -10q1 0 3 -1q10 -3 32 -1q9 1 32 5q1 0 7 1.5t10 1.5h17q22 2 33 2q45 1 134 -1l66 -2h17h8
h4l5 -1q11 -1 20.5 -9t11.5 -18zM326 1277q-11 -14 -27 -14t-25.5 14.5t-0.5 30.5q37 61 73 137q10 15 25 15t25.5 -14.5t2.5 -31.5q-36 -76 -73 -137z" />
    <glyph glyph-name="Zdot" unicode="&#x17b;" horiz-adv-x="559" 
d="M517 41q7 -22 -9 -40q-6 -7 -19 -11h-11h-8l-66 1q-88 2 -133 2h-67q-11 0 -32.5 -1.5t-33.5 -1.5q-17 0 -35 3q-21 3 -34 14q-16 13 -21 32q-5 14 -1 36q5 26 22 65q4 11 12 32.5t11 29.5l46 125q16 41 44 125l83 253q16 49 48.5 141.5t38.5 109.5q30 84 44 126l15 39
q-3 0 -10 -0.5t-11 -0.5q-15 0 -44.5 -1t-44.5 -2q-59 -2 -177 -2q-15 0 -23 6q-10 6 -16 19q-4 10 -3 22q2 15 7 22l9 9q1 1 5 3l6 3t6 1l5 1h10h33q23 -1 67 -1t67 -1t67 -2t67 -2l42 -2l5 1q4 0 4 -1q9 -1 18 -9q14 -13 11 -33q-2 -11 -8 -17q-3 -2 -10 -5v0l-2 -2
q-3 -3 -4 -7l-8 -15q-5 -11 -13 -33q-9 -22 -23 -66q-26 -78 -44 -134l-85 -268q-52 -167 -86 -268q-28 -83 -47 -133q-18 -44 -28 -65q-29 -60 -31 -64v1q0 -2 -5 -11h1l2 -1q10 -3 32 -1q5 0 10.5 1t11.5 2.5l10 2.5q12 2 17 2l17 1q11 1 33 1q45 1 134 -1l66 -1l17 -1h8
h4l5 -1q11 -1 20.5 -9t11.5 -18zM316 1272q-14 -15 -35 -13t-35 15q-15 15 -12.5 37t19.5 33q16 12 40 9.5t30 -23.5q4 -15 1 -29q3 -16 -8 -29z" />
    <glyph glyph-name="Zdot" unicode="&#x17c;" horiz-adv-x="559" 
d="M517 41q7 -22 -9 -40q-6 -7 -19 -11h-11h-8l-66 1q-88 2 -133 2h-67q-11 0 -32.5 -1.5t-33.5 -1.5q-17 0 -35 3q-21 3 -34 14q-16 13 -21 32q-5 14 -1 36q5 26 22 65q4 11 12 32.5t11 29.5l46 125q16 41 44 125l83 253q16 49 48.5 141.5t38.5 109.5q30 84 44 126l15 39
q-3 0 -10 -0.5t-11 -0.5q-15 0 -44.5 -1t-44.5 -2q-59 -2 -177 -2q-15 0 -23 6q-10 6 -16 19q-4 10 -3 22q2 15 7 22l9 9q1 1 5 3l6 3t6 1l5 1h10h33q23 -1 67 -1t67 -1t67 -2t67 -2l42 -2l5 1q4 0 4 -1q9 -1 18 -9q14 -13 11 -33q-2 -11 -8 -17q-3 -2 -10 -5v0l-2 -2
q-3 -3 -4 -7l-8 -15q-5 -11 -13 -33q-9 -22 -23 -66q-26 -78 -44 -134l-85 -268q-52 -167 -86 -268q-28 -83 -47 -133q-18 -44 -28 -65q-29 -60 -31 -64v1q0 -2 -5 -11h1l2 -1q10 -3 32 -1q5 0 10.5 1t11.5 2.5l10 2.5q12 2 17 2l17 1q11 1 33 1q45 1 134 -1l66 -1l17 -1h8
h4l5 -1q11 -1 20.5 -9t11.5 -18zM316 1272q-14 -15 -35 -13t-35 15q-15 15 -12.5 37t19.5 33q16 12 40 9.5t30 -23.5q4 -15 1 -29q3 -16 -8 -29z" />
    <glyph glyph-name="uni1e9e" unicode="&#x1e9e;" horiz-adv-x="811" 
d="M765 265q2 -57 -12 -106q-17 -59 -59 -98q-43 -41 -101 -54q-50 -12 -109 -4q-56 8 -104 34q-29 16 -47 32q-24 21 -38 52q-7 15 -1 30.5t21 22.5t30.5 0.5t22.5 -21.5h1q12 -26 49 -46q36 -19 77 -25q93 -14 146 36q26 23 39 63q11 34 11 82q0 89 -51 157
q-48 64 -138 107q-45 22 -86 34l-24 8q-6 2 -10 4q0 1 -1 1t-2 1l-5 5q-8 12 -8 21l5 15l11 11q5 3 9 5l6 3q19 8 35 21q31 25 48 63q13 29 22 82q4 27 5 44q2 14 2 23l1 10q0 10 -1 10q-1 37 -19 79q-34 82 -104 126q-34 22 -74 30t-79 0v-1q-3 -12 -7 -42q-4 -29 -8 -93
q-7 -105 -8 -188q-3 -126 -3 -381v-190l1 -95q0 -4 0.5 -22.5t0 -26t-2.5 -21.5t-7 -25q-7 -17 -24 -24t-33 0q-16 6 -23 23q-5 11 -7 24t-2.5 24t-0.5 24v24v95q0 63 2 191q3 191 12 383q5 96 12 192q8 81 10 97q7 41 10 51q1 5 5 15q3 10 11 21q1 1 3.5 4t4.5 5q3 3 7 5
q3 2 11 4l7 2l13 3q55 11 110 0t102 -41q91 -58 134 -163q22 -55 23 -106v-28q0 -4 -1 -12.5t-2 -12.5q-5 -41 -7 -50q-11 -54 -35 -99q-28 -52 -73 -83h-1l-1 -1q20 -7 60 -25q108 -50 165 -119q37 -44 54 -91q18 -52 20 -105z" />
    <glyph glyph-name="Etilde" unicode="&#x1ebc;" horiz-adv-x="583" 
d="M557 71q9 -19 3 -34l-2 -5l-3 -4q-3 -4 -7 -7q-3 -2 -9 -4q-2 -1 -4.5 -2t-3.5 -1q-5 0 -13.5 -1t-12.5 -2q-8 -1 -25.5 -3t-26.5 -3q-58 -5 -105 -5q-35 0 -52 1q-6 0 -16.5 0.5t-19.5 1t-17 1.5q-36 4 -54 17q-14 9 -21 22q-6 11 -10 28q-12 62 -20 208l-13 207l-6 104
l-4 104q-8 221 -8 415q0 8 -0.5 25.5t-0.5 26.5q0 36 6 54q9 33 39 41q11 3 27 5q9 1 27 1t52 -2l51 -1l52 -1l52 -1q13 0 21 -7t10 -19q2 -11 -4 -21.5t-16 -14.5q-5 -2 -21 -2l-21 -1h-41l-84 -1h-42h-10q-4 0 -10 -2q-3 -1 -11 -1h-5h-1v-9q0 -2 0.5 -6.5t0.5 -6.5l2 -25
q1 -18 3 -52q1 -8 1 -25.5t1 -26.5l3 -52l9 -207q1 -44 5 -132q2 0 4 0.5t4 0.5h16q6 0 17 -0.5t16 -0.5l66 1h33h4l5 -1q4 0 10 -2q13 -6 16 -13q11 -18 1 -38q-8 -20 -32 -20q-79 -2 -132 3q-4 0 -12.5 1t-12.5 2q4 -72 10 -216q7 -161 11 -207q5 -46 7 -50q5 -12 14 -18
q9 -7 22 -9q17 -3 52 -3q17 0 51 2q36 2 103 12l25 4l7 1q1 0 3 0.5t4 0.5q7 1 17 -2q18 -6 26 -23zM139 1330q-12 -18 -33 -18q-12 0 -22 6q-14 9 -17.5 25t5.5 30q58 87 133 101q57 10 114 -49q22 -22 27 -22q15 0 38 14t39 29q12 11 28.5 10.5t27.5 -12.5t11 -28.5
t-12 -27.5q-73 -67 -135 -65q-36 1 -81 46q-29 29 -42 27q-24 -5 -47 -26.5t-34 -39.5z" />
    <glyph glyph-name="Etilde" unicode="&#x1ebd;" horiz-adv-x="583" 
d="M557 71q9 -19 3 -34l-2 -5l-3 -4q-3 -4 -7 -7q-3 -2 -9 -4q-2 -1 -4.5 -2t-3.5 -1q-5 0 -13.5 -1t-12.5 -2q-8 -1 -25.5 -3t-26.5 -3q-58 -5 -105 -5q-35 0 -52 1q-6 0 -16.5 0.5t-19.5 1t-17 1.5q-36 4 -54 17q-14 9 -21 22q-6 11 -10 28q-12 62 -20 208l-13 207l-6 104
l-4 104q-8 221 -8 415q0 8 -0.5 25.5t-0.5 26.5q0 36 6 54q9 33 39 41q11 3 27 5q9 1 27 1t52 -2l51 -1l52 -1l52 -1q13 0 21 -7t10 -19q2 -11 -4 -21.5t-16 -14.5q-5 -2 -21 -2l-21 -1h-41l-84 -1h-42h-10q-4 0 -10 -2q-3 -1 -11 -1h-5h-1v-9q0 -2 0.5 -6.5t0.5 -6.5l2 -25
q1 -18 3 -52q1 -8 1 -25.5t1 -26.5l3 -52l9 -207q1 -44 5 -132q2 0 4 0.5t4 0.5h16q6 0 17 -0.5t16 -0.5l66 1h33h4l5 -1q4 0 10 -2q13 -6 16 -13q11 -18 1 -38q-8 -20 -32 -20q-79 -2 -132 3q-4 0 -12.5 1t-12.5 2q4 -72 10 -216q7 -161 11 -207q5 -46 7 -50q5 -12 14 -18
q9 -7 22 -9q17 -3 52 -3q17 0 51 2q36 2 103 12l25 4l7 1q1 0 3 0.5t4 0.5q7 1 17 -2q18 -6 26 -23zM139 1330q-12 -18 -33 -18q-12 0 -22 6q-14 9 -17.5 25t5.5 30q58 87 133 101q57 10 114 -49q22 -22 27 -22q15 0 38 14t39 29q12 11 28.5 10.5t27.5 -12.5t11 -28.5
t-12 -27.5q-73 -67 -135 -65q-36 1 -81 46q-29 29 -42 27q-24 -5 -47 -26.5t-34 -39.5z" />
    <glyph glyph-name="quotedblbase" unicode="&#x201e;" horiz-adv-x="321" 
d="M84 102q8 15 22 20t26.5 0.5t23.5 -13.5t13 -23.5t-6 -29.5q-40 -72 -61 -141q-8 -26 -33 -31t-43.5 12t-10.5 43q25 84 69 163zM194 59q9 26 34.5 31t44 -12t9.5 -43q-20 -56 -21 -106q-1 -28 -24 -39.5t-45.5 0t-21.5 39.5q3 67 24 130z" />
    <glyph glyph-name="perthousand" unicode="&#x2030;" horiz-adv-x="1433" 
d="M892 1281q30 -12 18 -41q-243 -630 -563 -1222q-10 -18 -27 -18h-1q-22 0 -33 18q-10 16 0 35q316 587 556 1207q6 16 21.5 21.5t28.5 -0.5zM563 714q-24 -59 -233 -461q-103 -197 -108 -210q-4 -16 -19 -16q-1 0 -3 1q-21 4 -18 22q1 9 112 222q202 387 231 457
q22 53 76 193t97.5 254t43.5 115q8 19 26 12q19 -8 12 -26q0 -1 -43.5 -115t-97.5 -254t-76 -194zM270 890q-21 -7 -46 -7q-40 0 -83 22q-54 28 -68.5 96t9.5 125q23 64 71 95t106 18q98 -21 129 -84q33 -65 -10 -157q-40 -85 -108 -108zM169 959q44 -23 81 -11q42 15 73 76
q30 64 10 104q-18 37 -87 52q-14 2 -19 2q-60 0 -88 -77q-17 -40 -9 -85t39 -61zM903 417q60 -10 93 -67.5t31 -125.5q-3 -68 -40 -112.5t-95 -49.5q-10 -1 -28 -1q-78 0 -120 43q-50 52 -38 152q10 92 70 136q52 38 127 25zM967 227q2 46 -18.5 85t-55.5 45q-9 2 -26 2
q-32 0 -54 -16q-36 -26 -46 -94q-9 -72 21 -103q28 -29 99 -23q25 2 42 15t24.5 31.5t10 31.5t3.5 26zM1259 397q55 -9 85 -62t28 -114q-2 -62 -36 -102t-88 -45q-18 -2 -25 -2q-72 0 -110 40q-45 46 -34 138q11 85 64 124q47 35 116 23zM1311 224q2 40 -15.5 74t-47.5 39
q-44 7 -69 -12q-34 -26 -40 -82q-9 -61 18 -89q25 -26 86 -20q21 2 35.5 13t21 27t8.5 27.5t3 22.5z" />
    <glyph glyph-name="Euro" unicode="&#x20ac;" horiz-adv-x="743" 
d="M655 240q0 -22 -1 -33q-4 -42 -13 -67q-13 -37 -35 -64q-22 -28 -59 -48q-32 -18 -69 -24q-3 0 -8.5 -1t-8.5 -1q-12 -2 -18 -2h-17l-18 1q-40 3 -74 21q-31 16 -58 45q-20 20 -41 56q-8 13 -26 59q-20 57 -31 119q-15 86 -20 188h-27q-16 0 -28 12t-12 29q0 16 12 27.5
t29 11.5h4q3 -1 10 -1.5t10 -0.5q-1 28 -1 85v30q-2 0 -6.5 -2t-6.5 -2q-16 -5 -31 3t-19 24q-5 16 3 31t24 19q4 2 6 2l30 3v7q2 143 17 236q13 73 34 120q15 33 38 59q27 32 64 45q69 23 133 15q35 -4 66 -18q18 -8 31 -16q6 -4 14 -10q1 -1 4 -3t4 -3l3 -3l5 -4
q12 -11 12 -28t-11 -29t-27.5 -12t-28.5 11h-1l-2 2q-1 1 -2 1q-2 1 -3 1l-9 6l-21 9q-28 10 -44 11q-45 5 -93 -13q-17 -7 -29 -20q-9 -10 -23 -38q-18 -41 -30 -99q-15 -83 -19 -217q58 6 87 8l99 6q34 2 50 2q9 0 25 1t25 1q17 1 29.5 -10t13.5 -27q1 -17 -10.5 -29.5
t-27.5 -13.5h-7h-1q-16 2 -48 4q-16 1 -47 1h-48q-8 -1 -24 -2.5t-24 -1.5q-62 -6 -93 -11q0 -8 0.5 -23t0.5 -22q0 -31 2 -91q48 -3 96 -3q33 0 99 2q64 4 98 8h1q16 2 29 -8t15 -27q2 -16 -8 -29.5t-27 -15.5h-4q-68 -2 -102 -2h-102h-91l6 -60q8 -61 19 -108
q13 -59 31 -102q21 -52 50 -81q13 -13 31 -23q19 -9 37 -10l10 -1l11 1q2 0 6 0.5t6 0.5q7 0 11 1q23 3 39 12q17 8 30 23q12 12 22 34q9 20 14 45q2 8 4 24l1 12l1 11v5q1 16 13.5 27t29.5 10q31 -2 36 -33q0 -3 0.5 -6t1.5 -6.5t1 -5.5q1 -6 1 -17z" />
    </font>
</defs>
</svg>
