<?xml version="1.0" standalone="no"?>
<!DOCTYPE svg PUBLIC "-//W3C//DTD SVG 1.1//EN" "http://www.w3.org/Graphics/SVG/1.1/DTD/svg11.dtd" >
<svg xmlns="http://www.w3.org/2000/svg" xmlns:xlink="http://www.w3.org/1999/xlink" version="1.1">
<metadata>
Created by FontForge 20170731 at Fri Apr 23 14:41:50 2021
 By Aleksey,,,
</metadata>
<defs>
<font id="ColendraBold" horiz-adv-x="0" >
  <font-face 
    font-family="Colendra"
    font-weight="700"
    font-stretch="normal"
    units-per-em="2048"
    panose-1="0 0 0 0 0 0 0 0 0 0"
    ascent="1638"
    descent="-410"
    cap-height="1506"
    bbox="12 -232 977 1952.57"
    underline-thickness="102"
    underline-position="-307"
    unicode-range="U+000A-201E"
  />
<missing-glyph horiz-adv-x="1079" 
d="M102 1434h875v-1434h-875v1434zM160 1393l379 -633l381 633h-760zM514 717l-369 614v-1231zM541 674l-379 -631h758zM565 717l371 -621v1239z" />
    <glyph glyph-name=".notdef" horiz-adv-x="1079" 
d="M102 1434h875v-1434h-875v1434zM160 1393l379 -633l381 633h-760zM514 717l-369 614v-1231zM541 674l-379 -631h758zM565 717l371 -621v1239z" />
    <glyph glyph-name=".null" 
 />
    <glyph glyph-name=".null" 
 />
    <glyph glyph-name="nonmarkingreturn" horiz-adv-x="682" 
 />
    <glyph glyph-name="controlLF" unicode="&#xa;" 
 />
    <glyph glyph-name="controlCR" unicode="&#xd;" 
 />
    <glyph glyph-name="space" unicode=" " horiz-adv-x="421" 
 />
    <glyph glyph-name="exclam" unicode="!" horiz-adv-x="462" 
d="M280 203q47 -33 59 -78q10 -36 -2 -67t-42 -46q-24 -12 -52 -12q-7 0 -21 2q-26 4 -42 14l-3 3q-55 34 -58 94q-1 16 7 33q6 47 41 68q52 31 113 -11zM354 1462v-6.5v-7v-4.5q-12 -165 -16 -262q-4 -84 -10 -262q-3 -83 -5 -262q-2 -160 2 -261q2 -39 -25 -67t-66 -30h-3
q-38 0 -65 26.5t-28 64.5v6q4 101 2 261q-2 179 -5 262q-6 178 -10 262q-4 97 -16 262q-4 51 29 89.5t84 42.5t89.5 -29.5t42.5 -84.5z" />
    <glyph glyph-name="quotedbl" unicode="&#x22;" horiz-adv-x="505" 
d="M403 1432q29 -9 44.5 -34t5.5 -57q-32 -103 -83 -194q-17 -30 -48 -36q-10 -2 -14 -2q-20 0 -39 11q-28 16 -37 42q-11 31 6 62q43 76 68 158q10 33 39 46t58 4zM199 1422q34 -21 32 -64q-3 -82 -29 -157q-14 -43 -58 -51q-5 -1 -16 -1q-38 0 -61 26q-25 30 -11 69
q19 53 22 116q2 43 40 64q43 22 81 -2z" />
    <glyph glyph-name="quotedbl" unicode="&#x201d;" horiz-adv-x="505" 
d="M403 1432q29 -9 44.5 -34t5.5 -57q-32 -103 -83 -194q-17 -30 -48 -36q-10 -2 -14 -2q-20 0 -39 11q-28 16 -37 42q-11 31 6 62q43 76 68 158q10 33 39 46t58 4zM199 1422q34 -21 32 -64q-3 -82 -29 -157q-14 -43 -58 -51q-5 -1 -16 -1q-38 0 -61 26q-25 30 -11 69
q19 53 22 116q2 43 40 64q43 22 81 -2z" />
    <glyph glyph-name="quotedbl" unicode="&#x201c;" horiz-adv-x="505" 
d="M403 1432q29 -9 44.5 -34t5.5 -57q-32 -103 -83 -194q-17 -30 -48 -36q-10 -2 -14 -2q-20 0 -39 11q-28 16 -37 42q-11 31 6 62q43 76 68 158q10 33 39 46t58 4zM199 1422q34 -21 32 -64q-3 -82 -29 -157q-14 -43 -58 -51q-5 -1 -16 -1q-38 0 -61 26q-25 30 -11 69
q19 53 22 116q2 43 40 64q43 22 81 -2z" />
    <glyph glyph-name="quotesingle" unicode="'" horiz-adv-x="327" 
d="M224 1492q28 -9 44 -34t6 -58q-33 -105 -82 -193q-21 -38 -62 -38h-1q-47 0 -70 40q-22 36 0 74q42 74 68 159q10 33 39 46t58 4z" />
    <glyph glyph-name="quotesingle" unicode="&#x2019;" horiz-adv-x="327" 
d="M224 1492q28 -9 44 -34t6 -58q-33 -105 -82 -193q-21 -38 -62 -38h-1q-47 0 -70 40q-22 36 0 74q42 74 68 159q10 33 39 46t58 4z" />
    <glyph glyph-name="quotesingle" unicode="&#x2018;" horiz-adv-x="327" 
d="M224 1492q28 -9 44 -34t6 -58q-33 -105 -82 -193q-21 -38 -62 -38h-1q-47 0 -70 40q-22 36 0 74q42 74 68 159q10 33 39 46t58 4z" />
    <glyph glyph-name="comma" unicode="," horiz-adv-x="249" 
d="M194 133q4 -31 6.5 -50.5t4.5 -53.5t-2 -58.5t-11.5 -52.5t-24.5 -49t-41 -35q-19 -11 -37 -11q-20 0 -36 10q-41 23 -41 71q0 38 35 60q5 10 5 50v4q0 35 -8 89q-5 36 16.5 61.5t54.5 30.5q30 4 51 -11.5t26 -45.5z" />
    <glyph glyph-name="period" unicode="." horiz-adv-x="284" 
d="M238 110q9 -32 -1.5 -58.5t-36.5 -39.5q-26 -12 -48 -12q-6 0 -18 2q-22 3 -37 13l-2 2t-2 1q-49 30 -52 84q-1 14 7 29q5 42 35 61q46 27 100 -10q43 -31 55 -72z" />
    <glyph glyph-name="zero" unicode="0" horiz-adv-x="854" 
d="M740 922q8 -95 10 -200q2 -120 -5 -201q-19 -235 -104 -397q-33 -61 -78 -94q-31 -22 -66 -28q-8 -2 -26 -2q-26 0 -47 7q-32 11 -59 29q-17 13 -44 41q-36 39 -64 91q-93 172 -134 385q-39 207 -21 407q11 115 35 203q12 46 32 99q23 62 44 98q17 28 33 48q21 25 41 43
q53 47 117 56l14 2h4l16 1q2 0 4 -0.5t4 -0.5h3l8 -1q1 0 2.5 -0.5t2.5 -0.5q12 -2 22 -7q6 -2 16 -6h1h1l2 -1q54 -24 94 -79q29 -41 52 -96q71 -175 90 -396zM505 267l14 46q49 156 50 370q0 87 -6 192q-5 87 -24 187q-8 43 -21 92q-16 61 -26 88q-17 46 -36 70q-3 4 -8 9
h-5h-3h-2l-6 -1l-8 -2l-8 -3q-22 -13 -42 -49q-18 -31 -34 -80q-16 -53 -26 -90q-10 -42 -18 -90q-14 -90 -12 -186q2 -94 15 -188q28 -193 109 -356q23 -46 44 -73q10 -12 16 -16q3 3 4 5q6 8 17 34q7 15 16 41z" />
    <glyph glyph-name="one" unicode="1" horiz-adv-x="649" 
d="M480 176q23 -4 42 -23q35 -35 22 -82q-13 -45 -57 -56q-59 -15 -119 -15q-42 0 -81 7q-45 8 -60 47q-16 44 15 84q14 18 42 27q2 205 8 386q9 275 21 457l-6 -9q-54 -81 -93 -130q-30 -37 -74 -32q-36 3 -61 34q-22 28 -22 62q0 15 7 33q2 6 8 14l9 12q46 58 67 86
q73 101 116 185q7 13 19 39q6 13 18 37q1 2 4.5 9.5t5.5 12.5q20 44 37 91l1 10q2 18 16 31l1 1q0 2 1 2q4 6 8 10q19 22 54 27q37 5 63 -17q24 -19 29 -49q9 -19 2 -37l-3 -6l-4 -87q-5 -87 -11 -270q-4 -120 -7 -180q-11 -248 -15 -450q-3 -126 -3 -225v-36z" />
    <glyph glyph-name="two" unicode="2" horiz-adv-x="763" 
d="M584 1469q65 -55 80 -146q10 -63 -2 -148q-13 -89 -23 -135q-53 -254 -166 -517q-72 -166 -168 -343q54 3 153 13q6 41 42 63l2 1l2 1l7 3l1 1q2 0 2 1q27 11 55 3l2 -1q10 -4 21 -10q27 -18 38 -48l1 -2q6 -21 5 -38q0 -8 -4 -22v-56q1 -37 -23.5 -62t-61.5 -26h-2
q-31 0 -55 19q-62 -8 -137 -13q-101 -7 -171 -7h-25h-3h-8q-9 0 -25 6q-25 9 -40.5 31t-16.5 48q-2 27 13 50l31 53q85 148 154 294q152 322 211 624q5 26 15 82q7 42 7 74q0 36 -12 58q-7 12 -14 18q-8 7 -20 11q-24 9 -52 3q-25 -6 -44 -28q-40 -44 -30 -115
q7 -43 -23 -74q-28 -30 -66 -30q-22 -1 -44 12q-23 14 -32 35q-1 3 -2 6.5t-2 6t-1 3.5l-1 2v2q-1 4 -1 10l-2 20v2q-5 79 24 153q0 1 0.5 1t0.5 1q20 43 38 67q4 5 12 14t9 10t2.5 3t2.5 3q9 9 13 12l3 3l2 1l2 2q10 8 16 11q72 49 157 44q90 -5 153 -60z" />
    <glyph glyph-name="three" unicode="3" horiz-adv-x="774" 
d="M656 602q18 -58 21 -125q4 -120 -38 -243q-27 -75 -59 -117q-46 -59 -105 -89q-53 -28 -113 -28q-10 0 -30 2h-1q-78 12 -132 59q-48 40 -81 111q-26 59 -34 127q-2 22 -2 34v6v1q0 2 0.5 6t0.5 6v2v3q3 18 15 37q23 34 64 40q36 6 68 -15q36 -23 41 -67q1 -7 1 -15v-3
v-2v-8v-2q1 -19 8 -44q13 -46 38 -70q12 -12 26 -16q17 -5 27 -3q27 3 53 37q26 33 39 81q34 110 22 198q-3 26 -9 44q-7 21 -18 40q-22 39 -46 47q-10 3 -19 0h-2l-2 -1l-8 -1q-12 -2 -20 -2q-12 0 -20 2q-12 3 -21 8q-39 19 -49 64q-9 37 9 71q8 14 11 17q5 6 14 14
q6 6 16 10l10 5q15 7 30 20q27 24 45 70q16 42 24 96q6 40 6 103q0 22 -2 52q-2 27 -6 53q-9 60 -23 95q-14 37 -33 40q-1 0 -8 -3q-12 -7 -23 -23q-23 -31 -40 -85q0 -1 -0.5 -1t-0.5 -1q-10 -28 -32 -45q-24 -17 -53 -19q-26 -1 -51 11q-26 13 -41 43q-14 28 -6 59
q1 8 3 13l4 13l1 1q7 22 17 44q20 45 51 85q36 47 83 71q53 27 112 24q63 -3 112 -46q37 -32 64 -85q22 -43 34 -90q21 -80 26 -181q3 -103 -12 -182q-19 -99 -67 -177q-1 -1 -2 -2.5t-1 -2.5q29 -23 53 -53q41 -51 61 -118z" />
    <glyph glyph-name="four" unicode="4" horiz-adv-x="778" 
d="M707 763q0 -1 1 -3q9 -24 8 -47v-1h-1q-3 -26 -15 -45q-17 -26 -44 -37q-30 -12 -57 -4l-5 2h-1q2 -52 3 -75q3 -117 2 -231q-3 -104 -11 -230q-3 -43 -35 -70q-27 -22 -64 -22h-4q-44 2 -70 34q-15 18 -19 40q-3 16 -1 31q3 33 7 112q7 142 8 226q2 119 -1 205h-25
l-11 -1h-78q-54 0 -91 11q-36 11 -58 29q-29 24 -41 59v1q-1 1 -1 2v3q-5 18 -6 27v2q0 2 -0.5 5.5t-0.5 4.5l-3 48q-6 130 -4 384q2 112 0 225q-1 27 14 50t39 33q46 20 87 -6q20 -12 33 -37q0 -1 1 -3.5t2 -3.5v-1l5 -20q1 -6 1 -15l2 -188q4 -163 7 -240l2 -63
q0 -4 0.5 -13t0.5 -14q1 -17 1 -50v-13v-23v-1q7 -1 19 -1q41 0 62 1l10 1h22q-2 37 -4 52q-5 44 28 72q30 25 67 22q38 -3 62 -29q12 -12 19 -32q3 -8 6 -29l5 -65q3 0 40 -9l4 -1q3 -1 8.5 -2.5t8.5 -2.5l2 -1q1 0 4.5 -1t5.5 -2q1 0 2 -1t2 -1h1q10 -5 17 -10
q21 -14 32 -38z" />
    <glyph glyph-name="five" unicode="5" horiz-adv-x="731" 
d="M565 849q60 -106 71 -255q7 -117 -19 -255q-12 -63 -30 -123q-25 -80 -63 -128q-54 -70 -139 -84q-26 -4 -38 -4q-24 0 -48 6q-49 13 -81 45q-49 48 -73 134q-7 23 -14 67q0 1 -3 32l-2 24v16v2q2 24 14 44l2 2q4 6 15 17q1 1 4 3l1 1q6 6 17 10q38 18 76 6
q44 -12 63 -56v-1l1 -2q5 -10 6 -19l1 -9v-3l2 -16q6 -64 20 -95l4 -8q12 8 22 22q5 7 9 16q6 11 10 23q32 83 44 216q10 124 -18 212q-10 27 -19 48q-14 29 -23 42q-6 9 -14 17q-5 -5 -10 -14q-9 -15 -16 -38l-1 -3q-1 -2 -1 -6l-2 -6q-1 -6 -3 -16v-1h-1q-13 -44 -55 -64
q-39 -19 -80 -6h-1l-1 1q-24 8 -41 27q-4 4 -6 7q-1 1 -1 2t-1 2q-1 2 -2.5 4t-2.5 4q-5 10 -8 23t-3 20v2v6v3l2 48l2 60q1 42 1 118q0 241 -25 473q-5 43 24 73q26 27 66 29q21 0 35 -5l275 -15q39 -2 62.5 -30.5t21.5 -63.5q-1 -35 -25 -58.5t-59 -23.5h-5l-193 10
q8 -93 13 -206q3 -80 3 -164q35 9 69 3q38 -6 77 -34q53 -41 93 -108h1z" />
    <glyph glyph-name="six" unicode="6" horiz-adv-x="778" 
d="M642 702q20 -46 32 -99q20 -87 17 -196q-4 -120 -37 -201q-43 -113 -141 -167q-49 -28 -107 -36q-20 -3 -38 -3q-39 0 -80 13q-26 9 -55 27h-1v1q-13 9 -23 18l-20 20l-2 1q-35 39 -55 101q-23 72 -23 198q-1 89 1 243v4v1q-1 1 -1 2v4v5v3v6q0 28 3 44q7 232 33 425
q11 72 14 92q11 62 20 96q17 58 38 96q28 52 70 86l1 1q27 21 50 31q25 11 60 16q66 7 118 -17q37 -17 57 -51q4 -6 5 -9q0 -1 1 -3l1 -2l3 -8q4 -7 5 -20v-3q0 -2 0.5 -5.5t0.5 -5.5v-3q0 -17 -5 -30q-11 -26 -35 -43q-11 -7 -21 -11l-6 -2q-6 -2 -16 -4q-54 -6 -86 42
q-2 0 -5 -0.5t-5 -0.5q-1 0 -2 -1q-2 -2 -3 -2q-18 -11 -38 -49q-16 -30 -26 -75q-8 -34 -16 -86q-13 -81 -23 -251q37 9 83 6q61 -5 112 -34q50 -28 87 -71q35 -39 58 -93zM371 184h2q27 1 56 21q28 20 43 48q16 29 22 69q6 36 6 81q0 21 -6 87q-4 46 -13 81q-11 44 -26 70
q-17 30 -41 47q-13 9 -25 14q-14 4 -23 4h-5h-4q-1 0 -2 -0.5t-2 -0.5t-2 -0.5t-2 -0.5h-4q-2 -2 -4 -2q-7 -3 -17 -11q-16 -14 -19 -38l-1 -20q0 -12 -6 -30q0 -1 -1 -3t-1 -3q-5 -10 -9 -15q0 -8 -0.5 -25t-0.5 -25q0 -73 -2 -110q-4 -106 12 -167q11 -39 28 -55
q21 -18 47 -16z" />
    <glyph glyph-name="seven" unicode="7" horiz-adv-x="706" 
d="M532 1525q34 7 64.5 -11.5t40.5 -50.5q5 -18 3 -33q0 -10 -1 -12l-1 -2v-3l-22 -83q-29 -111 -51 -206q-49 -215 -56 -251q1 -1 2.5 -3.5t2.5 -3.5q29 -44 6 -91q-12 -25 -39 -39q-1 -4 -2.5 -13t-2.5 -14q0 -4 -2 -11.5t-2 -11.5q-8 -58 -16 -86t-17 -74q-1 -4 -2.5 -13
t-2.5 -14q-20 -105 -39 -209q-35 -198 -37 -209v-1q-6 -34 -22 -52q-25 -28 -63 -28h-7q-30 2 -56 24q-27 23 -32 56q-2 10 0 20v1q0 7 1 11l15 91q44 257 78 422q3 17 10 49t10 48q-30 12 -46 39.5t-11 58.5q4 30 26 50t54 23q4 1 14 1q45 206 101 427q-49 -6 -69 -7
q-58 -4 -109 -1t-110 14q-48 10 -68 49q-20 35 -9 77q11 38 41 59q31 24 74 17q2 0 4.5 -0.5t3.5 -0.5l21 -4l25 -5q24 -5 48 -6q99 -9 200 4q10 1 28 4t22 4z" />
    <glyph glyph-name="eight" unicode="8" horiz-adv-x="864" 
d="M753 629q13 -76 14 -121q2 -23 0 -44q0 -2 -0.5 -8t-0.5 -8q0 -15 -1 -22q0 -2 -0.5 -5t-0.5 -4q0 -2 -0.5 -5t-0.5 -4t-1 -10t-2 -14q-19 -133 -82 -231q-7 -12 -29 -41q-2 -2 -4.5 -5t-3.5 -5l-2 -2q-5 -6 -15 -16l-7 -7l-10 -11q-1 0 -1 -1l-2 -1q-2 -1 -4 -3.5
t-4 -3.5l-4 -3q-56 -45 -133 -53q-8 -1 -23 -1q-58 0 -114 25q-62 26 -109 81q-21 24 -38 52l-1 1q-17 29 -29 58q-22 51 -35 119q-24 126 -6 244q11 67 33 122q26 65 68 112q22 24 46 42q-43 39 -67 92q-26 57 -35 124q-4 28 -4 64q0 32 3 63q7 70 33 125q28 63 78 109
q30 26 57 40q32 17 66 24l1 1q38 8 72 5q36 -3 71 -18q62 -26 109 -90q17 -22 33 -59q16 -38 22 -59q19 -64 23 -123q5 -68 -4 -126q-10 -67 -42 -125q-11 -19 -32 -44h1q29 -26 46 -51q3 -4 14 -20q0 -1 1.5 -3.5t2.5 -3.5q0 -1 1 -2t1 -2l3 -6q1 -3 5 -11l6 -12
q22 -49 37 -118v-1zM374 194q32 -23 72 -18q31 3 61 38q26 30 46 84q15 37 27 100q10 55 10 103q0 50 -10 103q-11 55 -32 90q-25 41 -57 55l-1 1q-2 1 -6.5 2.5t-6.5 2.5q-1 0 -4 -1q-6 -2 -20 -5h-2q-1 0 -2 -0.5t-2 -0.5q-46 -5 -81 -29q-35 -26 -56 -67q-21 -39 -30 -92
q-17 -101 6 -205q12 -55 33 -95q24 -46 55 -66zM325 1194q-8 -56 -2 -98q7 -49 30 -85q25 -38 62 -53q6 -3 36 -12q29 4 49 24q26 26 35 74q8 38 3 98q-4 46 -21 99q-17 48 -44 71q-12 11 -27 14q-3 1 -10 1q-10 0 -21 -3q-34 -10 -59 -46q-24 -36 -31 -84z" />
    <glyph glyph-name="nine" unicode="9" horiz-adv-x="856" 
d="M747 717q1 -82 -2 -197v-23q-2 -106 -14 -180q-23 -129 -91 -204q-80 -91 -200 -110q-22 -3 -45 -3q-41 0 -74 10q-63 17 -107 61q-40 39 -65 99q-12 29 -6 56q8 34 39 53q26 15 55.5 12t51.5 -22q3 -3 6 -6.5t4 -4.5q5 -6 10 -16l3 -6l1 -1l2 -6l2 -4q0 -1 0.5 -1
t0.5 -1l5 -9q9 -14 19 -21q12 -9 28 -14q15 -5 31 -5q34 0 66 20q31 20 50 51q20 31 32 75q8 33 13 87q8 89 9 192q0 85 -1 130q-28 -18 -59 -27q-125 -41 -235 10q-57 26 -98 73q-39 43 -61 100q-40 100 -25 222q5 47 24 106q16 53 39 99q27 54 58 94q39 49 86 78
q58 37 118 42q63 6 125 -27q55 -30 92 -80q30 -40 53 -100q28 -74 40 -207q1 -12 2.5 -35t2.5 -35l3 -34q6 -18 4 -40q0 -6 -1 -9q0 -7 1 -22t2 -22q5 -96 6 -198zM277 1006q6 -42 23 -71q14 -21 21 -28q1 -1 1 -2q1 -1 5.5 -5t6.5 -6l5 -4l6 -3q29 -14 64 -13q13 0 35 5
q20 6 28 11q12 8 23 21q12 13 24 33q16 25 34 63q-1 6 -1 18t-1 18q-5 79 -14 132q-9 49 -22 83q-17 40 -39 62q-13 13 -23 17q-12 5 -21 4t-24 -8q-15 -8 -28 -20q-56 -53 -86 -141q-29 -88 -17 -166z" />
    <glyph glyph-name="colon" unicode=":" horiz-adv-x="319" 
d="M202 163q41 -30 54 -72q9 -32 -1.5 -58.5t-36.5 -39.5q-26 -12 -47 -12q-7 0 -19 2q-22 3 -37 13l-3 3q-50 31 -53 84q-1 14 7 29q5 43 36 61q46 27 100 -10zM112 594q-49 30 -52 85q-2 15 6 29q5 42 36 61q46 27 100 -10q41 -30 54 -72q9 -32 -1.5 -58.5t-36.5 -39.5
q-26 -12 -47 -12q-7 0 -19 2q-22 3 -37 13q-1 0 -1 1z" />
    <glyph glyph-name="semicolon" unicode=";" horiz-adv-x="311" 
d="M105 537q-49 30 -52 85q-1 14 7 29q5 42 36 61q45 27 100 -11q42 -30 54 -71q9 -32 -1.5 -59t-36.5 -40q-24 -11 -47 -11q-7 0 -19 2q-22 3 -37 13q-1 1 -2 1t-2 1zM238 86l1 -9q5 -32 7 -50.5t4 -53t-1.5 -59t-11 -52.5t-24.5 -49t-41 -35q-17 -10 -38 -10q-22 0 -36 9
q-40 22 -40 71q0 38 35 60q4 8 4 50v4q0 42 -7 89q-6 47 30 75q37 29 78 13q34 -14 40 -53z" />
    <glyph glyph-name="question" unicode="?" horiz-adv-x="821" 
d="M459 203q47 -33 59 -78q10 -36 -2 -67t-42 -46q-24 -12 -53 -12q-6 0 -20 2q-26 4 -42 14q-1 1 -4 3q-54 33 -57 94q-1 16 7 33q6 47 41 68q52 31 113 -11zM739 1151l1 -12v-43l-1 -20l-3 -42q0 -3 -1 -9.5t-1 -9.5v-2q-1 -9 -10 -62q-22 -118 -82 -238q-27 -55 -61 -106
q-5 -9 -16.5 -26t-17.5 -25q-23 -35 -27 -41q-14 -22 -19 -35q-7 -17 -12 -40q-5 -24 -7 -45q-1 -9 -1 -24v-23v-4q0 -29 -20 -51q-19 -21 -50 -21h-1q-24 0 -42.5 14t-25.5 37q-6 19 -9 35q-1 4 -2.5 16t-2.5 18q-3 42 -2 69q1 30 12 71q7 31 26 70q16 31 46 83l11 19
q27 48 49 93q44 96 64 191q2 9 4.5 25t3.5 24q0 3 1 10t1 10l3 30l1 50v9v14q0 2 -0.5 5t-0.5 4q0 10 -1 14q-6 49 -21 80q-17 34 -40 50q-25 18 -59 21t-68 -10l-2 -1q-1 0 -2.5 -0.5t-2.5 -1.5q-1 0 -1 -0.5t-1 -0.5l-4 -2l-3 -2q-3 -2 -9 -5.5t-9 -5.5l-1 -1
q-25 -17 -35 -25q-26 -22 -41 -56q-14 -32 -12 -76q2 -43 14 -93l1 -2q8 -32 -9.5 -60.5t-50.5 -36.5q-31 -8 -58.5 7.5t-37.5 45.5q-23 68 -29 129q-8 83 16 148q24 70 86 129q24 23 55 44q8 6 26 16l2 1q4 3 16 9l1 1q7 3 19 9q72 31 154 25q83 -6 152 -53
q66 -44 103 -122q29 -59 40 -137q1 -4 1 -11.5t1 -11.5q0 -2 0.5 -5t0.5 -5v-1q1 -7 1 -22z" />
    <glyph glyph-name="A" unicode="A" horiz-adv-x="905" 
d="M27 72v3v10v3q0 7 1 11v1q1 6 3 12l21 74l52 183l51 183q6 22 22.5 86t25.5 97l9 38q55 222 86 332q58 206 119 366q13 31 36 45q23 15 54 15q7 0 21 -4h5q37 -2 58 -32q13 -17 16 -44l42 -253q6 -35 18 -107q25 -149 45 -259q74 -403 150 -729v-1q6 -26 -6 -51
q-12 -26 -36 -37t-48 -8q-30 3 -49 27q-15 19 -18 39l-15 68q-5 22 -19 84.5t-22 97.5l-13 59q-5 20 -13 60t-13 60q-90 3 -199 12l-78 6q-1 -4 -3.5 -12.5t-3.5 -12.5q-3 -11 -9.5 -33.5t-9.5 -33.5l-52 -183l-51 -183q-9 -34 -36 -51q-21 -15 -49 -15q-2 0 -5.5 0.5
t-5.5 0.5q-29 3 -51 22q-25 22 -30 54zM378 689q17 0 24 -1q44 -3 124 -7q8 -1 23.5 -1t23.5 -1q-1 1 -1 4v5q-49 241 -82 424q-29 -100 -37 -133q-30 -111 -48 -183q-10 -39 -27 -107z" />
    <glyph glyph-name="A" unicode="&#xe5;" horiz-adv-x="905" 
d="M27 72v3v10v3q0 7 1 11v1q1 6 3 12l21 74l52 183l51 183q6 22 22.5 86t25.5 97l9 38q55 222 86 332q58 206 119 366q13 31 36 45q23 15 54 15q7 0 21 -4h5q37 -2 58 -32q13 -17 16 -44l42 -253q6 -35 18 -107q25 -149 45 -259q74 -403 150 -729v-1q6 -26 -6 -51
q-12 -26 -36 -37t-48 -8q-30 3 -49 27q-15 19 -18 39l-15 68q-5 22 -19 84.5t-22 97.5l-13 59q-5 20 -13 60t-13 60q-90 3 -199 12l-78 6q-1 -4 -3.5 -12.5t-3.5 -12.5q-3 -11 -9.5 -33.5t-9.5 -33.5l-52 -183l-51 -183q-9 -34 -36 -51q-21 -15 -49 -15q-2 0 -5.5 0.5
t-5.5 0.5q-29 3 -51 22q-25 22 -30 54zM378 689q17 0 24 -1q44 -3 124 -7q8 -1 23.5 -1t23.5 -1q-1 1 -1 4v5q-49 241 -82 424q-29 -100 -37 -133q-30 -111 -48 -183q-10 -39 -27 -107z" />
    <glyph glyph-name="A" unicode="&#xe4;" horiz-adv-x="905" 
d="M27 72v3v10v3q0 7 1 11v1q1 6 3 12l21 74l52 183l51 183q6 22 22.5 86t25.5 97l9 38q55 222 86 332q58 206 119 366q13 31 36 45q23 15 54 15q7 0 21 -4h5q37 -2 58 -32q13 -17 16 -44l42 -253q6 -35 18 -107q25 -149 45 -259q74 -403 150 -729v-1q6 -26 -6 -51
q-12 -26 -36 -37t-48 -8q-30 3 -49 27q-15 19 -18 39l-15 68q-5 22 -19 84.5t-22 97.5l-13 59q-5 20 -13 60t-13 60q-90 3 -199 12l-78 6q-1 -4 -3.5 -12.5t-3.5 -12.5q-3 -11 -9.5 -33.5t-9.5 -33.5l-52 -183l-51 -183q-9 -34 -36 -51q-21 -15 -49 -15q-2 0 -5.5 0.5
t-5.5 0.5q-29 3 -51 22q-25 22 -30 54zM378 689q17 0 24 -1q44 -3 124 -7q8 -1 23.5 -1t23.5 -1q-1 1 -1 4v5q-49 241 -82 424q-29 -100 -37 -133q-30 -111 -48 -183q-10 -39 -27 -107z" />
    <glyph glyph-name="A" unicode="&#xe3;" horiz-adv-x="905" 
d="M27 72v3v10v3q0 7 1 11v1q1 6 3 12l21 74l52 183l51 183q6 22 22.5 86t25.5 97l9 38q55 222 86 332q58 206 119 366q13 31 36 45q23 15 54 15q7 0 21 -4h5q37 -2 58 -32q13 -17 16 -44l42 -253q6 -35 18 -107q25 -149 45 -259q74 -403 150 -729v-1q6 -26 -6 -51
q-12 -26 -36 -37t-48 -8q-30 3 -49 27q-15 19 -18 39l-15 68q-5 22 -19 84.5t-22 97.5l-13 59q-5 20 -13 60t-13 60q-90 3 -199 12l-78 6q-1 -4 -3.5 -12.5t-3.5 -12.5q-3 -11 -9.5 -33.5t-9.5 -33.5l-52 -183l-51 -183q-9 -34 -36 -51q-21 -15 -49 -15q-2 0 -5.5 0.5
t-5.5 0.5q-29 3 -51 22q-25 22 -30 54zM378 689q17 0 24 -1q44 -3 124 -7q8 -1 23.5 -1t23.5 -1q-1 1 -1 4v5q-49 241 -82 424q-29 -100 -37 -133q-30 -111 -48 -183q-10 -39 -27 -107z" />
    <glyph glyph-name="A" unicode="&#xe2;" horiz-adv-x="905" 
d="M27 72v3v10v3q0 7 1 11v1q1 6 3 12l21 74l52 183l51 183q6 22 22.5 86t25.5 97l9 38q55 222 86 332q58 206 119 366q13 31 36 45q23 15 54 15q7 0 21 -4h5q37 -2 58 -32q13 -17 16 -44l42 -253q6 -35 18 -107q25 -149 45 -259q74 -403 150 -729v-1q6 -26 -6 -51
q-12 -26 -36 -37t-48 -8q-30 3 -49 27q-15 19 -18 39l-15 68q-5 22 -19 84.5t-22 97.5l-13 59q-5 20 -13 60t-13 60q-90 3 -199 12l-78 6q-1 -4 -3.5 -12.5t-3.5 -12.5q-3 -11 -9.5 -33.5t-9.5 -33.5l-52 -183l-51 -183q-9 -34 -36 -51q-21 -15 -49 -15q-2 0 -5.5 0.5
t-5.5 0.5q-29 3 -51 22q-25 22 -30 54zM378 689q17 0 24 -1q44 -3 124 -7q8 -1 23.5 -1t23.5 -1q-1 1 -1 4v5q-49 241 -82 424q-29 -100 -37 -133q-30 -111 -48 -183q-10 -39 -27 -107z" />
    <glyph glyph-name="A" unicode="&#xe1;" horiz-adv-x="905" 
d="M27 72v3v10v3q0 7 1 11v1q1 6 3 12l21 74l52 183l51 183q6 22 22.5 86t25.5 97l9 38q55 222 86 332q58 206 119 366q13 31 36 45q23 15 54 15q7 0 21 -4h5q37 -2 58 -32q13 -17 16 -44l42 -253q6 -35 18 -107q25 -149 45 -259q74 -403 150 -729v-1q6 -26 -6 -51
q-12 -26 -36 -37t-48 -8q-30 3 -49 27q-15 19 -18 39l-15 68q-5 22 -19 84.5t-22 97.5l-13 59q-5 20 -13 60t-13 60q-90 3 -199 12l-78 6q-1 -4 -3.5 -12.5t-3.5 -12.5q-3 -11 -9.5 -33.5t-9.5 -33.5l-52 -183l-51 -183q-9 -34 -36 -51q-21 -15 -49 -15q-2 0 -5.5 0.5
t-5.5 0.5q-29 3 -51 22q-25 22 -30 54zM378 689q17 0 24 -1q44 -3 124 -7q8 -1 23.5 -1t23.5 -1q-1 1 -1 4v5q-49 241 -82 424q-29 -100 -37 -133q-30 -111 -48 -183q-10 -39 -27 -107z" />
    <glyph glyph-name="A" unicode="&#xe0;" horiz-adv-x="905" 
d="M27 72v3v10v3q0 7 1 11v1q1 6 3 12l21 74l52 183l51 183q6 22 22.5 86t25.5 97l9 38q55 222 86 332q58 206 119 366q13 31 36 45q23 15 54 15q7 0 21 -4h5q37 -2 58 -32q13 -17 16 -44l42 -253q6 -35 18 -107q25 -149 45 -259q74 -403 150 -729v-1q6 -26 -6 -51
q-12 -26 -36 -37t-48 -8q-30 3 -49 27q-15 19 -18 39l-15 68q-5 22 -19 84.5t-22 97.5l-13 59q-5 20 -13 60t-13 60q-90 3 -199 12l-78 6q-1 -4 -3.5 -12.5t-3.5 -12.5q-3 -11 -9.5 -33.5t-9.5 -33.5l-52 -183l-51 -183q-9 -34 -36 -51q-21 -15 -49 -15q-2 0 -5.5 0.5
t-5.5 0.5q-29 3 -51 22q-25 22 -30 54zM378 689q17 0 24 -1q44 -3 124 -7q8 -1 23.5 -1t23.5 -1q-1 1 -1 4v5q-49 241 -82 424q-29 -100 -37 -133q-30 -111 -48 -183q-10 -39 -27 -107z" />
    <glyph glyph-name="A" unicode="&#xc5;" horiz-adv-x="905" 
d="M27 72v3v10v3q0 7 1 11v1q1 6 3 12l21 74l52 183l51 183q6 22 22.5 86t25.5 97l9 38q55 222 86 332q58 206 119 366q13 31 36 45q23 15 54 15q7 0 21 -4h5q37 -2 58 -32q13 -17 16 -44l42 -253q6 -35 18 -107q25 -149 45 -259q74 -403 150 -729v-1q6 -26 -6 -51
q-12 -26 -36 -37t-48 -8q-30 3 -49 27q-15 19 -18 39l-15 68q-5 22 -19 84.5t-22 97.5l-13 59q-5 20 -13 60t-13 60q-90 3 -199 12l-78 6q-1 -4 -3.5 -12.5t-3.5 -12.5q-3 -11 -9.5 -33.5t-9.5 -33.5l-52 -183l-51 -183q-9 -34 -36 -51q-21 -15 -49 -15q-2 0 -5.5 0.5
t-5.5 0.5q-29 3 -51 22q-25 22 -30 54zM378 689q17 0 24 -1q44 -3 124 -7q8 -1 23.5 -1t23.5 -1q-1 1 -1 4v5q-49 241 -82 424q-29 -100 -37 -133q-30 -111 -48 -183q-10 -39 -27 -107z" />
    <glyph glyph-name="A" unicode="&#xc4;" horiz-adv-x="905" 
d="M27 72v3v10v3q0 7 1 11v1q1 6 3 12l21 74l52 183l51 183q6 22 22.5 86t25.5 97l9 38q55 222 86 332q58 206 119 366q13 31 36 45q23 15 54 15q7 0 21 -4h5q37 -2 58 -32q13 -17 16 -44l42 -253q6 -35 18 -107q25 -149 45 -259q74 -403 150 -729v-1q6 -26 -6 -51
q-12 -26 -36 -37t-48 -8q-30 3 -49 27q-15 19 -18 39l-15 68q-5 22 -19 84.5t-22 97.5l-13 59q-5 20 -13 60t-13 60q-90 3 -199 12l-78 6q-1 -4 -3.5 -12.5t-3.5 -12.5q-3 -11 -9.5 -33.5t-9.5 -33.5l-52 -183l-51 -183q-9 -34 -36 -51q-21 -15 -49 -15q-2 0 -5.5 0.5
t-5.5 0.5q-29 3 -51 22q-25 22 -30 54zM378 689q17 0 24 -1q44 -3 124 -7q8 -1 23.5 -1t23.5 -1q-1 1 -1 4v5q-49 241 -82 424q-29 -100 -37 -133q-30 -111 -48 -183q-10 -39 -27 -107z" />
    <glyph glyph-name="A" unicode="&#xc3;" horiz-adv-x="905" 
d="M27 72v3v10v3q0 7 1 11v1q1 6 3 12l21 74l52 183l51 183q6 22 22.5 86t25.5 97l9 38q55 222 86 332q58 206 119 366q13 31 36 45q23 15 54 15q7 0 21 -4h5q37 -2 58 -32q13 -17 16 -44l42 -253q6 -35 18 -107q25 -149 45 -259q74 -403 150 -729v-1q6 -26 -6 -51
q-12 -26 -36 -37t-48 -8q-30 3 -49 27q-15 19 -18 39l-15 68q-5 22 -19 84.5t-22 97.5l-13 59q-5 20 -13 60t-13 60q-90 3 -199 12l-78 6q-1 -4 -3.5 -12.5t-3.5 -12.5q-3 -11 -9.5 -33.5t-9.5 -33.5l-52 -183l-51 -183q-9 -34 -36 -51q-21 -15 -49 -15q-2 0 -5.5 0.5
t-5.5 0.5q-29 3 -51 22q-25 22 -30 54zM378 689q17 0 24 -1q44 -3 124 -7q8 -1 23.5 -1t23.5 -1q-1 1 -1 4v5q-49 241 -82 424q-29 -100 -37 -133q-30 -111 -48 -183q-10 -39 -27 -107z" />
    <glyph glyph-name="A" unicode="&#xc2;" horiz-adv-x="905" 
d="M27 72v3v10v3q0 7 1 11v1q1 6 3 12l21 74l52 183l51 183q6 22 22.5 86t25.5 97l9 38q55 222 86 332q58 206 119 366q13 31 36 45q23 15 54 15q7 0 21 -4h5q37 -2 58 -32q13 -17 16 -44l42 -253q6 -35 18 -107q25 -149 45 -259q74 -403 150 -729v-1q6 -26 -6 -51
q-12 -26 -36 -37t-48 -8q-30 3 -49 27q-15 19 -18 39l-15 68q-5 22 -19 84.5t-22 97.5l-13 59q-5 20 -13 60t-13 60q-90 3 -199 12l-78 6q-1 -4 -3.5 -12.5t-3.5 -12.5q-3 -11 -9.5 -33.5t-9.5 -33.5l-52 -183l-51 -183q-9 -34 -36 -51q-21 -15 -49 -15q-2 0 -5.5 0.5
t-5.5 0.5q-29 3 -51 22q-25 22 -30 54zM378 689q17 0 24 -1q44 -3 124 -7q8 -1 23.5 -1t23.5 -1q-1 1 -1 4v5q-49 241 -82 424q-29 -100 -37 -133q-30 -111 -48 -183q-10 -39 -27 -107z" />
    <glyph glyph-name="A" unicode="&#xc1;" horiz-adv-x="905" 
d="M27 72v3v10v3q0 7 1 11v1q1 6 3 12l21 74l52 183l51 183q6 22 22.5 86t25.5 97l9 38q55 222 86 332q58 206 119 366q13 31 36 45q23 15 54 15q7 0 21 -4h5q37 -2 58 -32q13 -17 16 -44l42 -253q6 -35 18 -107q25 -149 45 -259q74 -403 150 -729v-1q6 -26 -6 -51
q-12 -26 -36 -37t-48 -8q-30 3 -49 27q-15 19 -18 39l-15 68q-5 22 -19 84.5t-22 97.5l-13 59q-5 20 -13 60t-13 60q-90 3 -199 12l-78 6q-1 -4 -3.5 -12.5t-3.5 -12.5q-3 -11 -9.5 -33.5t-9.5 -33.5l-52 -183l-51 -183q-9 -34 -36 -51q-21 -15 -49 -15q-2 0 -5.5 0.5
t-5.5 0.5q-29 3 -51 22q-25 22 -30 54zM378 689q17 0 24 -1q44 -3 124 -7q8 -1 23.5 -1t23.5 -1q-1 1 -1 4v5q-49 241 -82 424q-29 -100 -37 -133q-30 -111 -48 -183q-10 -39 -27 -107z" />
    <glyph glyph-name="A" unicode="&#xc0;" horiz-adv-x="905" 
d="M27 72v3v10v3q0 7 1 11v1q1 6 3 12l21 74l52 183l51 183q6 22 22.5 86t25.5 97l9 38q55 222 86 332q58 206 119 366q13 31 36 45q23 15 54 15q7 0 21 -4h5q37 -2 58 -32q13 -17 16 -44l42 -253q6 -35 18 -107q25 -149 45 -259q74 -403 150 -729v-1q6 -26 -6 -51
q-12 -26 -36 -37t-48 -8q-30 3 -49 27q-15 19 -18 39l-15 68q-5 22 -19 84.5t-22 97.5l-13 59q-5 20 -13 60t-13 60q-90 3 -199 12l-78 6q-1 -4 -3.5 -12.5t-3.5 -12.5q-3 -11 -9.5 -33.5t-9.5 -33.5l-52 -183l-51 -183q-9 -34 -36 -51q-21 -15 -49 -15q-2 0 -5.5 0.5
t-5.5 0.5q-29 3 -51 22q-25 22 -30 54zM378 689q17 0 24 -1q44 -3 124 -7q8 -1 23.5 -1t23.5 -1q-1 1 -1 4v5q-49 241 -82 424q-29 -100 -37 -133q-30 -111 -48 -183q-10 -39 -27 -107z" />
    <glyph glyph-name="A" unicode="a" horiz-adv-x="905" 
d="M27 72v3v10v3q0 7 1 11v1q1 6 3 12l21 74l52 183l51 183q6 22 22.5 86t25.5 97l9 38q55 222 86 332q58 206 119 366q13 31 36 45q23 15 54 15q7 0 21 -4h5q37 -2 58 -32q13 -17 16 -44l42 -253q6 -35 18 -107q25 -149 45 -259q74 -403 150 -729v-1q6 -26 -6 -51
q-12 -26 -36 -37t-48 -8q-30 3 -49 27q-15 19 -18 39l-15 68q-5 22 -19 84.5t-22 97.5l-13 59q-5 20 -13 60t-13 60q-90 3 -199 12l-78 6q-1 -4 -3.5 -12.5t-3.5 -12.5q-3 -11 -9.5 -33.5t-9.5 -33.5l-52 -183l-51 -183q-9 -34 -36 -51q-21 -15 -49 -15q-2 0 -5.5 0.5
t-5.5 0.5q-29 3 -51 22q-25 22 -30 54zM378 689q17 0 24 -1q44 -3 124 -7q8 -1 23.5 -1t23.5 -1q-1 1 -1 4v5q-49 241 -82 424q-29 -100 -37 -133q-30 -111 -48 -183q-10 -39 -27 -107z" />
    <glyph glyph-name="B" unicode="B" horiz-adv-x="784" 
d="M699 514q9 -54 10 -93q2 -54 -7 -97q-18 -101 -86 -178q-65 -73 -161 -109q-83 -30 -173 -30h-16q-49 2 -95 12q-21 5 -48 14q-24 9 -37.5 31.5t-11.5 48.5q1 21 15 41q17 24 42 30q6 2 17 2l1 500q0 116 1 176q0 10 0.5 31t0.5 31q2 74 2 112q1 149 -12 272
q-28 20 -37 56v3q-4 22 2 43q2 6 8 19l1 1q1 0 1 1t1 2q6 9 13 16q0 1 2 2t3 1q2 1 6.5 4t6.5 5l1 1l8 4q5 3 17 9q77 39 149 45q85 7 162 -32q71 -36 115 -117q34 -64 50 -142q16 -79 7 -151q-9 -78 -44 -145q-29 -56 -77 -97q62 -55 106 -142q38 -76 57 -179v-1zM540 363
q3 36 -1 77q-8 76 -41 153q-36 80 -86 116q-38 28 -93 25l4 -269l2 -297q50 6 96 28q71 34 101 99q13 26 18 68zM495 1102q3 60 -15 118q-20 65 -52 96q-31 31 -84 26q-18 -1 -44 -10q7 -56 12 -166q3 -54 5 -247v-2h8q3 0 9.5 -0.5t9.5 -0.5q0 1 1 1q2 1 5 1l28 6h4l2 1
l1 1h2l15 6l2 1l2 1q1 1 3.5 2.5t3.5 1.5q7 3 16 10l4 3q21 18 32 39l1 2q25 42 29 110z" />
    <glyph glyph-name="B" unicode="b" horiz-adv-x="784" 
d="M699 514q9 -54 10 -93q2 -54 -7 -97q-18 -101 -86 -178q-65 -73 -161 -109q-83 -30 -173 -30h-16q-49 2 -95 12q-21 5 -48 14q-24 9 -37.5 31.5t-11.5 48.5q1 21 15 41q17 24 42 30q6 2 17 2l1 500q0 116 1 176q0 10 0.5 31t0.5 31q2 74 2 112q1 149 -12 272
q-28 20 -37 56v3q-4 22 2 43q2 6 8 19l1 1q1 0 1 1t1 2q6 9 13 16q0 1 2 2t3 1q2 1 6.5 4t6.5 5l1 1l8 4q5 3 17 9q77 39 149 45q85 7 162 -32q71 -36 115 -117q34 -64 50 -142q16 -79 7 -151q-9 -78 -44 -145q-29 -56 -77 -97q62 -55 106 -142q38 -76 57 -179v-1zM540 363
q3 36 -1 77q-8 76 -41 153q-36 80 -86 116q-38 28 -93 25l4 -269l2 -297q50 6 96 28q71 34 101 99q13 26 18 68zM495 1102q3 60 -15 118q-20 65 -52 96q-31 31 -84 26q-18 -1 -44 -10q7 -56 12 -166q3 -54 5 -247v-2h8q3 0 9.5 -0.5t9.5 -0.5q0 1 1 1q2 1 5 1l28 6h4l2 1
l1 1h2l15 6l2 1l2 1q1 1 3.5 2.5t3.5 1.5q7 3 16 10l4 3q21 18 32 39l1 2q25 42 29 110z" />
    <glyph glyph-name="C" unicode="C" horiz-adv-x="737" 
d="M704 211v-1l1 -2q5 -48 -15 -92q-19 -42 -58 -72q-34 -25 -80 -36q-35 -7 -62 -7q-47 0 -96 13q-78 21 -138 63q-69 48 -100 125q-15 34 -21 75q-4 23 -8 67l-1 3q-8 79 -11 138q-5 87 -11 270v3q-3 140 -1 273v54q0 149 13 225q13 89 64 146q26 31 66 53q36 20 79 27
q75 12 158 -17q56 -19 131 -64q19 -11 31 -30.5t12 -41.5q2 -40 -30 -70q-39 -35 -87 -17h-1l-1 1q-2 1 -6.5 3t-6.5 3l-1 1l-21 13q-66 37 -108 45q-24 4 -46 0q-23 -5 -33 -15q-14 -12 -20 -34q-7 -20 -10 -55q-6 -70 -10 -266v-42.5v-50v-42.5l2 -155q2 -168 8 -249
q7 -83 15 -129q1 -2 1.5 -6t0.5 -6l3 -18l1 -1q1 -10 7 -23q11 -22 25 -37q17 -17 41 -29q7 -4 26 -11q1 0 10.5 -3.5t15.5 -4.5q25 -6 57 -8q31 -2 44 4v1v2q0 1 -1 2v2v3v1l-1 6q-2 23 6 41q0 1 0.5 1t0.5 1q18 39 59 50h3q22 4 37 1q4 -1 9.5 -3t6.5 -2h2q3 -1 9 -5l1 -1
q11 -7 15 -12l4 -4q0 -1 1 -2l2 -2q3 -3 5 -7q5 -7 8 -19v-2q1 -5 4 -18v-4z" />
    <glyph glyph-name="C" unicode="&#xe7;" horiz-adv-x="737" 
d="M704 211v-1l1 -2q5 -48 -15 -92q-19 -42 -58 -72q-34 -25 -80 -36q-35 -7 -62 -7q-47 0 -96 13q-78 21 -138 63q-69 48 -100 125q-15 34 -21 75q-4 23 -8 67l-1 3q-8 79 -11 138q-5 87 -11 270v3q-3 140 -1 273v54q0 149 13 225q13 89 64 146q26 31 66 53q36 20 79 27
q75 12 158 -17q56 -19 131 -64q19 -11 31 -30.5t12 -41.5q2 -40 -30 -70q-39 -35 -87 -17h-1l-1 1q-2 1 -6.5 3t-6.5 3l-1 1l-21 13q-66 37 -108 45q-24 4 -46 0q-23 -5 -33 -15q-14 -12 -20 -34q-7 -20 -10 -55q-6 -70 -10 -266v-42.5v-50v-42.5l2 -155q2 -168 8 -249
q7 -83 15 -129q1 -2 1.5 -6t0.5 -6l3 -18l1 -1q1 -10 7 -23q11 -22 25 -37q17 -17 41 -29q7 -4 26 -11q1 0 10.5 -3.5t15.5 -4.5q25 -6 57 -8q31 -2 44 4v1v2q0 1 -1 2v2v3v1l-1 6q-2 23 6 41q0 1 0.5 1t0.5 1q18 39 59 50h3q22 4 37 1q4 -1 9.5 -3t6.5 -2h2q3 -1 9 -5l1 -1
q11 -7 15 -12l4 -4q0 -1 1 -2l2 -2q3 -3 5 -7q5 -7 8 -19v-2q1 -5 4 -18v-4z" />
    <glyph glyph-name="C" unicode="&#xc7;" horiz-adv-x="737" 
d="M704 211v-1l1 -2q5 -48 -15 -92q-19 -42 -58 -72q-34 -25 -80 -36q-35 -7 -62 -7q-47 0 -96 13q-78 21 -138 63q-69 48 -100 125q-15 34 -21 75q-4 23 -8 67l-1 3q-8 79 -11 138q-5 87 -11 270v3q-3 140 -1 273v54q0 149 13 225q13 89 64 146q26 31 66 53q36 20 79 27
q75 12 158 -17q56 -19 131 -64q19 -11 31 -30.5t12 -41.5q2 -40 -30 -70q-39 -35 -87 -17h-1l-1 1q-2 1 -6.5 3t-6.5 3l-1 1l-21 13q-66 37 -108 45q-24 4 -46 0q-23 -5 -33 -15q-14 -12 -20 -34q-7 -20 -10 -55q-6 -70 -10 -266v-42.5v-50v-42.5l2 -155q2 -168 8 -249
q7 -83 15 -129q1 -2 1.5 -6t0.5 -6l3 -18l1 -1q1 -10 7 -23q11 -22 25 -37q17 -17 41 -29q7 -4 26 -11q1 0 10.5 -3.5t15.5 -4.5q25 -6 57 -8q31 -2 44 4v1v2q0 1 -1 2v2v3v1l-1 6q-2 23 6 41q0 1 0.5 1t0.5 1q18 39 59 50h3q22 4 37 1q4 -1 9.5 -3t6.5 -2h2q3 -1 9 -5l1 -1
q11 -7 15 -12l4 -4q0 -1 1 -2l2 -2q3 -3 5 -7q5 -7 8 -19v-2q1 -5 4 -18v-4z" />
    <glyph glyph-name="C" unicode="c" horiz-adv-x="737" 
d="M704 211v-1l1 -2q5 -48 -15 -92q-19 -42 -58 -72q-34 -25 -80 -36q-35 -7 -62 -7q-47 0 -96 13q-78 21 -138 63q-69 48 -100 125q-15 34 -21 75q-4 23 -8 67l-1 3q-8 79 -11 138q-5 87 -11 270v3q-3 140 -1 273v54q0 149 13 225q13 89 64 146q26 31 66 53q36 20 79 27
q75 12 158 -17q56 -19 131 -64q19 -11 31 -30.5t12 -41.5q2 -40 -30 -70q-39 -35 -87 -17h-1l-1 1q-2 1 -6.5 3t-6.5 3l-1 1l-21 13q-66 37 -108 45q-24 4 -46 0q-23 -5 -33 -15q-14 -12 -20 -34q-7 -20 -10 -55q-6 -70 -10 -266v-42.5v-50v-42.5l2 -155q2 -168 8 -249
q7 -83 15 -129q1 -2 1.5 -6t0.5 -6l3 -18l1 -1q1 -10 7 -23q11 -22 25 -37q17 -17 41 -29q7 -4 26 -11q1 0 10.5 -3.5t15.5 -4.5q25 -6 57 -8q31 -2 44 4v1v2q0 1 -1 2v2v3v1l-1 6q-2 23 6 41q0 1 0.5 1t0.5 1q18 39 59 50h3q22 4 37 1q4 -1 9.5 -3t6.5 -2h2q3 -1 9 -5l1 -1
q11 -7 15 -12l4 -4q0 -1 1 -2l2 -2q3 -3 5 -7q5 -7 8 -19v-2q1 -5 4 -18v-4z" />
    <glyph glyph-name="D" unicode="D" horiz-adv-x="868" 
d="M784 928q4 -40 6 -130q0 -61 -3 -130q-3 -62 -9 -128q-8 -80 -18 -131q-16 -75 -45 -131q-33 -62 -87 -112q-86 -78 -237 -128q-11 -4 -32.5 -10.5t-25.5 -7.5l-35 -11q-18 -5 -27 -5h-1h-2q-7 0 -19 3l-3 1q-26 -3 -48 7q-40 20 -43 66q-45 681 -41 1357l-2 2
q-24 34 -13 75q11 44 51 62q14 7 35 7h2h16q75 0 141 -20q133 -40 237 -145q91 -92 144 -231q46 -119 59 -260zM502 273q43 34 68 81q21 41 32 105q5 29 12 121q5 67 6 125q2 64 -1 123q-3 65 -13 119q-23 129 -72 226q-25 51 -61 97q-38 47 -79 75q-47 33 -97 46
q-18 4 -28 6q-2 -626 35 -1217q65 21 99 36q60 26 99 57z" />
    <glyph glyph-name="D" unicode="d" horiz-adv-x="868" 
d="M784 928q4 -40 6 -130q0 -61 -3 -130q-3 -62 -9 -128q-8 -80 -18 -131q-16 -75 -45 -131q-33 -62 -87 -112q-86 -78 -237 -128q-11 -4 -32.5 -10.5t-25.5 -7.5l-35 -11q-18 -5 -27 -5h-1h-2q-7 0 -19 3l-3 1q-26 -3 -48 7q-40 20 -43 66q-45 681 -41 1357l-2 2
q-24 34 -13 75q11 44 51 62q14 7 35 7h2h16q75 0 141 -20q133 -40 237 -145q91 -92 144 -231q46 -119 59 -260zM502 273q43 34 68 81q21 41 32 105q5 29 12 121q5 67 6 125q2 64 -1 123q-3 65 -13 119q-23 129 -72 226q-25 51 -61 97q-38 47 -79 75q-47 33 -97 46
q-18 4 -28 6q-2 -626 35 -1217q65 21 99 36q60 26 99 57z" />
    <glyph glyph-name="E" unicode="E" horiz-adv-x="731" 
d="M104 1354q0 4 -1 13t-1 14q0 45 9 75q7 27 27 47.5t46 28.5q18 6 40 7q10 1 34 1q32 0 48 -1l14 -1l120 -3h59q30 0 51 -19t25 -47q5 -28 -9.5 -52.5t-39.5 -33.5q-13 -5 -33 -5h-4l-220 -3l2 -13q0 -7 0.5 -20.5t1.5 -20.5q0 -3 0.5 -10t0.5 -11q0 -10 1 -30.5t1 -30.5
l4 -59q8 -168 11 -241q1 -21 2.5 -59t1.5 -54h26l115 1h5h2l5 -1q1 0 21 -4q4 0 5 -1q26 -11 38 -33q23 -39 4 -81q-9 -21 -30 -34.5t-45 -13.5q-73 -1 -139 3q9 -189 9 -203l3 -63q3 -98 10 -175q0 -2 0.5 -8t0.5 -9q2 -26 4 -30l2 -3q2 -2 9 -3q11 -2 39 -2h14q18 0 56 2
q66 5 116 13l37 5q8 2 11 2q18 1 37 -5q37 -14 53 -45q19 -36 5 -73v-2l-2 -5q-2 -6 -4 -8l-3 -4q-6 -9 -15 -16l-1 -1l-1 -1q-4 -3 -10 -6l-5 -3l-2 -1l-4 -2q-3 -1 -7.5 -2t-5.5 -1l-2 -1h-3q-10 -2 -28 -4h-4q-21 -3 -61 -7q-63 -6 -125 -6h-10q-35 0 -53 1h-17
q-1 0 -18.5 1t-27.5 2q-51 6 -82 27q-23 16 -37 39q0 1 -0.5 1t-0.5 1q-11 21 -16 44q-14 73 -22 217l-1 29l-15 240l-7 121l-5 121q-9 240 -9 483v32z" />
    <glyph glyph-name="E" unicode="&#xeb;" horiz-adv-x="731" 
d="M104 1354q0 4 -1 13t-1 14q0 45 9 75q7 27 27 47.5t46 28.5q18 6 40 7q10 1 34 1q32 0 48 -1l14 -1l120 -3h59q30 0 51 -19t25 -47q5 -28 -9.5 -52.5t-39.5 -33.5q-13 -5 -33 -5h-4l-220 -3l2 -13q0 -7 0.5 -20.5t1.5 -20.5q0 -3 0.5 -10t0.5 -11q0 -10 1 -30.5t1 -30.5
l4 -59q8 -168 11 -241q1 -21 2.5 -59t1.5 -54h26l115 1h5h2l5 -1q1 0 21 -4q4 0 5 -1q26 -11 38 -33q23 -39 4 -81q-9 -21 -30 -34.5t-45 -13.5q-73 -1 -139 3q9 -189 9 -203l3 -63q3 -98 10 -175q0 -2 0.5 -8t0.5 -9q2 -26 4 -30l2 -3q2 -2 9 -3q11 -2 39 -2h14q18 0 56 2
q66 5 116 13l37 5q8 2 11 2q18 1 37 -5q37 -14 53 -45q19 -36 5 -73v-2l-2 -5q-2 -6 -4 -8l-3 -4q-6 -9 -15 -16l-1 -1l-1 -1q-4 -3 -10 -6l-5 -3l-2 -1l-4 -2q-3 -1 -7.5 -2t-5.5 -1l-2 -1h-3q-10 -2 -28 -4h-4q-21 -3 -61 -7q-63 -6 -125 -6h-10q-35 0 -53 1h-17
q-1 0 -18.5 1t-27.5 2q-51 6 -82 27q-23 16 -37 39q0 1 -0.5 1t-0.5 1q-11 21 -16 44q-14 73 -22 217l-1 29l-15 240l-7 121l-5 121q-9 240 -9 483v32z" />
    <glyph glyph-name="E" unicode="&#xea;" horiz-adv-x="731" 
d="M104 1354q0 4 -1 13t-1 14q0 45 9 75q7 27 27 47.5t46 28.5q18 6 40 7q10 1 34 1q32 0 48 -1l14 -1l120 -3h59q30 0 51 -19t25 -47q5 -28 -9.5 -52.5t-39.5 -33.5q-13 -5 -33 -5h-4l-220 -3l2 -13q0 -7 0.5 -20.5t1.5 -20.5q0 -3 0.5 -10t0.5 -11q0 -10 1 -30.5t1 -30.5
l4 -59q8 -168 11 -241q1 -21 2.5 -59t1.5 -54h26l115 1h5h2l5 -1q1 0 21 -4q4 0 5 -1q26 -11 38 -33q23 -39 4 -81q-9 -21 -30 -34.5t-45 -13.5q-73 -1 -139 3q9 -189 9 -203l3 -63q3 -98 10 -175q0 -2 0.5 -8t0.5 -9q2 -26 4 -30l2 -3q2 -2 9 -3q11 -2 39 -2h14q18 0 56 2
q66 5 116 13l37 5q8 2 11 2q18 1 37 -5q37 -14 53 -45q19 -36 5 -73v-2l-2 -5q-2 -6 -4 -8l-3 -4q-6 -9 -15 -16l-1 -1l-1 -1q-4 -3 -10 -6l-5 -3l-2 -1l-4 -2q-3 -1 -7.5 -2t-5.5 -1l-2 -1h-3q-10 -2 -28 -4h-4q-21 -3 -61 -7q-63 -6 -125 -6h-10q-35 0 -53 1h-17
q-1 0 -18.5 1t-27.5 2q-51 6 -82 27q-23 16 -37 39q0 1 -0.5 1t-0.5 1q-11 21 -16 44q-14 73 -22 217l-1 29l-15 240l-7 121l-5 121q-9 240 -9 483v32z" />
    <glyph glyph-name="E" unicode="&#xe9;" horiz-adv-x="731" 
d="M104 1354q0 4 -1 13t-1 14q0 45 9 75q7 27 27 47.5t46 28.5q18 6 40 7q10 1 34 1q32 0 48 -1l14 -1l120 -3h59q30 0 51 -19t25 -47q5 -28 -9.5 -52.5t-39.5 -33.5q-13 -5 -33 -5h-4l-220 -3l2 -13q0 -7 0.5 -20.5t1.5 -20.5q0 -3 0.5 -10t0.5 -11q0 -10 1 -30.5t1 -30.5
l4 -59q8 -168 11 -241q1 -21 2.5 -59t1.5 -54h26l115 1h5h2l5 -1q1 0 21 -4q4 0 5 -1q26 -11 38 -33q23 -39 4 -81q-9 -21 -30 -34.5t-45 -13.5q-73 -1 -139 3q9 -189 9 -203l3 -63q3 -98 10 -175q0 -2 0.5 -8t0.5 -9q2 -26 4 -30l2 -3q2 -2 9 -3q11 -2 39 -2h14q18 0 56 2
q66 5 116 13l37 5q8 2 11 2q18 1 37 -5q37 -14 53 -45q19 -36 5 -73v-2l-2 -5q-2 -6 -4 -8l-3 -4q-6 -9 -15 -16l-1 -1l-1 -1q-4 -3 -10 -6l-5 -3l-2 -1l-4 -2q-3 -1 -7.5 -2t-5.5 -1l-2 -1h-3q-10 -2 -28 -4h-4q-21 -3 -61 -7q-63 -6 -125 -6h-10q-35 0 -53 1h-17
q-1 0 -18.5 1t-27.5 2q-51 6 -82 27q-23 16 -37 39q0 1 -0.5 1t-0.5 1q-11 21 -16 44q-14 73 -22 217l-1 29l-15 240l-7 121l-5 121q-9 240 -9 483v32z" />
    <glyph glyph-name="E" unicode="&#xe8;" horiz-adv-x="731" 
d="M104 1354q0 4 -1 13t-1 14q0 45 9 75q7 27 27 47.5t46 28.5q18 6 40 7q10 1 34 1q32 0 48 -1l14 -1l120 -3h59q30 0 51 -19t25 -47q5 -28 -9.5 -52.5t-39.5 -33.5q-13 -5 -33 -5h-4l-220 -3l2 -13q0 -7 0.5 -20.5t1.5 -20.5q0 -3 0.5 -10t0.5 -11q0 -10 1 -30.5t1 -30.5
l4 -59q8 -168 11 -241q1 -21 2.5 -59t1.5 -54h26l115 1h5h2l5 -1q1 0 21 -4q4 0 5 -1q26 -11 38 -33q23 -39 4 -81q-9 -21 -30 -34.5t-45 -13.5q-73 -1 -139 3q9 -189 9 -203l3 -63q3 -98 10 -175q0 -2 0.5 -8t0.5 -9q2 -26 4 -30l2 -3q2 -2 9 -3q11 -2 39 -2h14q18 0 56 2
q66 5 116 13l37 5q8 2 11 2q18 1 37 -5q37 -14 53 -45q19 -36 5 -73v-2l-2 -5q-2 -6 -4 -8l-3 -4q-6 -9 -15 -16l-1 -1l-1 -1q-4 -3 -10 -6l-5 -3l-2 -1l-4 -2q-3 -1 -7.5 -2t-5.5 -1l-2 -1h-3q-10 -2 -28 -4h-4q-21 -3 -61 -7q-63 -6 -125 -6h-10q-35 0 -53 1h-17
q-1 0 -18.5 1t-27.5 2q-51 6 -82 27q-23 16 -37 39q0 1 -0.5 1t-0.5 1q-11 21 -16 44q-14 73 -22 217l-1 29l-15 240l-7 121l-5 121q-9 240 -9 483v32z" />
    <glyph glyph-name="E" unicode="&#xcb;" horiz-adv-x="731" 
d="M104 1354q0 4 -1 13t-1 14q0 45 9 75q7 27 27 47.5t46 28.5q18 6 40 7q10 1 34 1q32 0 48 -1l14 -1l120 -3h59q30 0 51 -19t25 -47q5 -28 -9.5 -52.5t-39.5 -33.5q-13 -5 -33 -5h-4l-220 -3l2 -13q0 -7 0.5 -20.5t1.5 -20.5q0 -3 0.5 -10t0.5 -11q0 -10 1 -30.5t1 -30.5
l4 -59q8 -168 11 -241q1 -21 2.5 -59t1.5 -54h26l115 1h5h2l5 -1q1 0 21 -4q4 0 5 -1q26 -11 38 -33q23 -39 4 -81q-9 -21 -30 -34.5t-45 -13.5q-73 -1 -139 3q9 -189 9 -203l3 -63q3 -98 10 -175q0 -2 0.5 -8t0.5 -9q2 -26 4 -30l2 -3q2 -2 9 -3q11 -2 39 -2h14q18 0 56 2
q66 5 116 13l37 5q8 2 11 2q18 1 37 -5q37 -14 53 -45q19 -36 5 -73v-2l-2 -5q-2 -6 -4 -8l-3 -4q-6 -9 -15 -16l-1 -1l-1 -1q-4 -3 -10 -6l-5 -3l-2 -1l-4 -2q-3 -1 -7.5 -2t-5.5 -1l-2 -1h-3q-10 -2 -28 -4h-4q-21 -3 -61 -7q-63 -6 -125 -6h-10q-35 0 -53 1h-17
q-1 0 -18.5 1t-27.5 2q-51 6 -82 27q-23 16 -37 39q0 1 -0.5 1t-0.5 1q-11 21 -16 44q-14 73 -22 217l-1 29l-15 240l-7 121l-5 121q-9 240 -9 483v32z" />
    <glyph glyph-name="E" unicode="&#xca;" horiz-adv-x="731" 
d="M104 1354q0 4 -1 13t-1 14q0 45 9 75q7 27 27 47.5t46 28.5q18 6 40 7q10 1 34 1q32 0 48 -1l14 -1l120 -3h59q30 0 51 -19t25 -47q5 -28 -9.5 -52.5t-39.5 -33.5q-13 -5 -33 -5h-4l-220 -3l2 -13q0 -7 0.5 -20.5t1.5 -20.5q0 -3 0.5 -10t0.5 -11q0 -10 1 -30.5t1 -30.5
l4 -59q8 -168 11 -241q1 -21 2.5 -59t1.5 -54h26l115 1h5h2l5 -1q1 0 21 -4q4 0 5 -1q26 -11 38 -33q23 -39 4 -81q-9 -21 -30 -34.5t-45 -13.5q-73 -1 -139 3q9 -189 9 -203l3 -63q3 -98 10 -175q0 -2 0.5 -8t0.5 -9q2 -26 4 -30l2 -3q2 -2 9 -3q11 -2 39 -2h14q18 0 56 2
q66 5 116 13l37 5q8 2 11 2q18 1 37 -5q37 -14 53 -45q19 -36 5 -73v-2l-2 -5q-2 -6 -4 -8l-3 -4q-6 -9 -15 -16l-1 -1l-1 -1q-4 -3 -10 -6l-5 -3l-2 -1l-4 -2q-3 -1 -7.5 -2t-5.5 -1l-2 -1h-3q-10 -2 -28 -4h-4q-21 -3 -61 -7q-63 -6 -125 -6h-10q-35 0 -53 1h-17
q-1 0 -18.5 1t-27.5 2q-51 6 -82 27q-23 16 -37 39q0 1 -0.5 1t-0.5 1q-11 21 -16 44q-14 73 -22 217l-1 29l-15 240l-7 121l-5 121q-9 240 -9 483v32z" />
    <glyph glyph-name="E" unicode="&#xc9;" horiz-adv-x="731" 
d="M104 1354q0 4 -1 13t-1 14q0 45 9 75q7 27 27 47.5t46 28.5q18 6 40 7q10 1 34 1q32 0 48 -1l14 -1l120 -3h59q30 0 51 -19t25 -47q5 -28 -9.5 -52.5t-39.5 -33.5q-13 -5 -33 -5h-4l-220 -3l2 -13q0 -7 0.5 -20.5t1.5 -20.5q0 -3 0.5 -10t0.5 -11q0 -10 1 -30.5t1 -30.5
l4 -59q8 -168 11 -241q1 -21 2.5 -59t1.5 -54h26l115 1h5h2l5 -1q1 0 21 -4q4 0 5 -1q26 -11 38 -33q23 -39 4 -81q-9 -21 -30 -34.5t-45 -13.5q-73 -1 -139 3q9 -189 9 -203l3 -63q3 -98 10 -175q0 -2 0.5 -8t0.5 -9q2 -26 4 -30l2 -3q2 -2 9 -3q11 -2 39 -2h14q18 0 56 2
q66 5 116 13l37 5q8 2 11 2q18 1 37 -5q37 -14 53 -45q19 -36 5 -73v-2l-2 -5q-2 -6 -4 -8l-3 -4q-6 -9 -15 -16l-1 -1l-1 -1q-4 -3 -10 -6l-5 -3l-2 -1l-4 -2q-3 -1 -7.5 -2t-5.5 -1l-2 -1h-3q-10 -2 -28 -4h-4q-21 -3 -61 -7q-63 -6 -125 -6h-10q-35 0 -53 1h-17
q-1 0 -18.5 1t-27.5 2q-51 6 -82 27q-23 16 -37 39q0 1 -0.5 1t-0.5 1q-11 21 -16 44q-14 73 -22 217l-1 29l-15 240l-7 121l-5 121q-9 240 -9 483v32z" />
    <glyph glyph-name="E" unicode="&#xc8;" horiz-adv-x="731" 
d="M104 1354q0 4 -1 13t-1 14q0 45 9 75q7 27 27 47.5t46 28.5q18 6 40 7q10 1 34 1q32 0 48 -1l14 -1l120 -3h59q30 0 51 -19t25 -47q5 -28 -9.5 -52.5t-39.5 -33.5q-13 -5 -33 -5h-4l-220 -3l2 -13q0 -7 0.5 -20.5t1.5 -20.5q0 -3 0.5 -10t0.5 -11q0 -10 1 -30.5t1 -30.5
l4 -59q8 -168 11 -241q1 -21 2.5 -59t1.5 -54h26l115 1h5h2l5 -1q1 0 21 -4q4 0 5 -1q26 -11 38 -33q23 -39 4 -81q-9 -21 -30 -34.5t-45 -13.5q-73 -1 -139 3q9 -189 9 -203l3 -63q3 -98 10 -175q0 -2 0.5 -8t0.5 -9q2 -26 4 -30l2 -3q2 -2 9 -3q11 -2 39 -2h14q18 0 56 2
q66 5 116 13l37 5q8 2 11 2q18 1 37 -5q37 -14 53 -45q19 -36 5 -73v-2l-2 -5q-2 -6 -4 -8l-3 -4q-6 -9 -15 -16l-1 -1l-1 -1q-4 -3 -10 -6l-5 -3l-2 -1l-4 -2q-3 -1 -7.5 -2t-5.5 -1l-2 -1h-3q-10 -2 -28 -4h-4q-21 -3 -61 -7q-63 -6 -125 -6h-10q-35 0 -53 1h-17
q-1 0 -18.5 1t-27.5 2q-51 6 -82 27q-23 16 -37 39q0 1 -0.5 1t-0.5 1q-11 21 -16 44q-14 73 -22 217l-1 29l-15 240l-7 121l-5 121q-9 240 -9 483v32z" />
    <glyph glyph-name="E" unicode="e" horiz-adv-x="731" 
d="M104 1354q0 4 -1 13t-1 14q0 45 9 75q7 27 27 47.5t46 28.5q18 6 40 7q10 1 34 1q32 0 48 -1l14 -1l120 -3h59q30 0 51 -19t25 -47q5 -28 -9.5 -52.5t-39.5 -33.5q-13 -5 -33 -5h-4l-220 -3l2 -13q0 -7 0.5 -20.5t1.5 -20.5q0 -3 0.5 -10t0.5 -11q0 -10 1 -30.5t1 -30.5
l4 -59q8 -168 11 -241q1 -21 2.5 -59t1.5 -54h26l115 1h5h2l5 -1q1 0 21 -4q4 0 5 -1q26 -11 38 -33q23 -39 4 -81q-9 -21 -30 -34.5t-45 -13.5q-73 -1 -139 3q9 -189 9 -203l3 -63q3 -98 10 -175q0 -2 0.5 -8t0.5 -9q2 -26 4 -30l2 -3q2 -2 9 -3q11 -2 39 -2h14q18 0 56 2
q66 5 116 13l37 5q8 2 11 2q18 1 37 -5q37 -14 53 -45q19 -36 5 -73v-2l-2 -5q-2 -6 -4 -8l-3 -4q-6 -9 -15 -16l-1 -1l-1 -1q-4 -3 -10 -6l-5 -3l-2 -1l-4 -2q-3 -1 -7.5 -2t-5.5 -1l-2 -1h-3q-10 -2 -28 -4h-4q-21 -3 -61 -7q-63 -6 -125 -6h-10q-35 0 -53 1h-17
q-1 0 -18.5 1t-27.5 2q-51 6 -82 27q-23 16 -37 39q0 1 -0.5 1t-0.5 1q-11 21 -16 44q-14 73 -22 217l-1 29l-15 240l-7 121l-5 121q-9 240 -9 483v32z" />
    <glyph glyph-name="F" unicode="F" horiz-adv-x="630" 
d="M568 1484q24 -21 29 -53q5 -33 -12 -60q-20 -34 -61 -37h-2h-9h-4l-214 16h-3q-1 -28 -1.5 -83t-0.5 -83q-1 -102 -1 -302l48 -3h1q52 -4 84 2q10 2 18 4l9 3q2 1 10 3h2q6 3 13 3q36 3 60 -22q20 -20 24 -48q4 -27 -8 -52q-13 -27 -42 -40q-19 -8 -56 -15
q-51 -8 -108 -4q-8 0 -24 2t-23 2h-8q0 -93 4 -265q3 -165 11 -366q0 -34 -16 -54q-16 -22 -49 -29q-5 -1 -16 -1q-17 0 -32 6q-27 9 -41 33q-4 6 -6 15q-3 10 -4 15l-1 6v1q0 1 -0.5 3.5t-0.5 3.5l-9 254q-4 126 -8 368q-4 452 1 695q-6 9 -9 18q-12 34 6 67q6 10 19 23
l9 9q29 27 71 19q19 -3 35 -16q25 -1 155 -9l106 -7q32 -3 54 -22z" />
    <glyph glyph-name="F" unicode="f" horiz-adv-x="630" 
d="M568 1484q24 -21 29 -53q5 -33 -12 -60q-20 -34 -61 -37h-2h-9h-4l-214 16h-3q-1 -28 -1.5 -83t-0.5 -83q-1 -102 -1 -302l48 -3h1q52 -4 84 2q10 2 18 4l9 3q2 1 10 3h2q6 3 13 3q36 3 60 -22q20 -20 24 -48q4 -27 -8 -52q-13 -27 -42 -40q-19 -8 -56 -15
q-51 -8 -108 -4q-8 0 -24 2t-23 2h-8q0 -93 4 -265q3 -165 11 -366q0 -34 -16 -54q-16 -22 -49 -29q-5 -1 -16 -1q-17 0 -32 6q-27 9 -41 33q-4 6 -6 15q-3 10 -4 15l-1 6v1q0 1 -0.5 3.5t-0.5 3.5l-9 254q-4 126 -8 368q-4 452 1 695q-6 9 -9 18q-12 34 6 67q6 10 19 23
l9 9q29 27 71 19q19 -3 35 -16q25 -1 155 -9l106 -7q32 -3 54 -22z" />
    <glyph glyph-name="G" unicode="G" horiz-adv-x="827" 
d="M755 361q0 -126 1 -189l1 -55q1 -33 -19 -55q-19 -24 -54 -26q-29 -2 -51 13q-24 -17 -61 -30q-44 -16 -96 -16q-30 0 -54 4q-77 14 -137 61q-55 42 -96 105q-62 98 -86 258q-12 85 -16 258v3q-3 144 6 260q12 146 48 262q18 65 55 128q40 68 91 113q31 27 65 43
q43 19 80 22q77 6 152 -45q35 -23 37 -64q2 -38 -23 -64q-32 -34 -74 -24q-6 1 -27 12h-1l-13 8q-19 10 -36 10t-36 -12q-34 -22 -66 -81q-29 -54 -46 -110q-31 -97 -41 -240q-7 -108 -3 -251v-6q4 -161 19 -239q11 -59 35 -109q26 -54 61 -87q41 -37 86 -44h3q8 -2 16 -2h5
q1 0 3 0.5t3 0.5h6h3h1l5 1q1 0 1 0.5t1 0.5q18 3 37 16l9 6l10 11l1 1l10 14l8 15q1 1 2.5 4.5t3.5 6.5q4 8 12 16l-8 253q-3 84 -3 87q-1 5 -3 38q-45 1 -101 5q-39 3 -61 30q-22 25 -22 60q0 39 26 63q26 26 66 23q13 -1 43 -1q33 0 69 -3q38 -4 68 -16q19 -8 36 -22
q16 -15 28 -37v-2q15 -34 18 -70q1 -10 1 -58l-41 -1l41 1q2 -170 2 -254z" />
    <glyph glyph-name="G" unicode="g" horiz-adv-x="827" 
d="M755 361q0 -126 1 -189l1 -55q1 -33 -19 -55q-19 -24 -54 -26q-29 -2 -51 13q-24 -17 -61 -30q-44 -16 -96 -16q-30 0 -54 4q-77 14 -137 61q-55 42 -96 105q-62 98 -86 258q-12 85 -16 258v3q-3 144 6 260q12 146 48 262q18 65 55 128q40 68 91 113q31 27 65 43
q43 19 80 22q77 6 152 -45q35 -23 37 -64q2 -38 -23 -64q-32 -34 -74 -24q-6 1 -27 12h-1l-13 8q-19 10 -36 10t-36 -12q-34 -22 -66 -81q-29 -54 -46 -110q-31 -97 -41 -240q-7 -108 -3 -251v-6q4 -161 19 -239q11 -59 35 -109q26 -54 61 -87q41 -37 86 -44h3q8 -2 16 -2h5
q1 0 3 0.5t3 0.5h6h3h1l5 1q1 0 1 0.5t1 0.5q18 3 37 16l9 6l10 11l1 1l10 14l8 15q1 1 2.5 4.5t3.5 6.5q4 8 12 16l-8 253q-3 84 -3 87q-1 5 -3 38q-45 1 -101 5q-39 3 -61 30q-22 25 -22 60q0 39 26 63q26 26 66 23q13 -1 43 -1q33 0 69 -3q38 -4 68 -16q19 -8 36 -22
q16 -15 28 -37v-2q15 -34 18 -70q1 -10 1 -58l-41 -1l41 1q2 -170 2 -254z" />
    <glyph glyph-name="H" unicode="H" horiz-adv-x="821" 
d="M696 813q0 -423 12 -728v-1q0 -30 -16 -50q-18 -23 -47 -29q-6 -1 -17 -1q-47 0 -70 37q-2 3 -7 16q-4 11 -4 13q-1 5 -1 17l-3 68l-6 182q-3 100 -5 305l-1 27q-16 0 -54 -4l-12 -2q-52 -6 -130 -4q-26 0 -40 1q5 -86 12 -193q16 -236 26 -352q1 -35 -15 -60
q-19 -28 -54 -36q-28 -7 -54.5 2.5t-44.5 31.5q-17 20 -20 52v1l-5 66q-7 86 -12 178q-10 175 -14 357q-3 168 0 356q2 179 9 356v1q1 23 17 44v1q16 19 40 25q23 7 47.5 -0.5t38.5 -27.5q14 -18 14 -45v-2l-1 -66v-177q2 -186 8 -341q18 -1 49.5 -2t35.5 -1q76 -2 119 2
l39 3q-3 325 5 601v2q2 30 18 49q16 20 45 28q27 6 50 -1q29 -9 45 -36q7 -11 9 -25q0 -1 0.5 -3t0.5 -3q1 -8 1 -19l-2 -67l-3 -182l-2 -182z" />
    <glyph glyph-name="H" unicode="h" horiz-adv-x="821" 
d="M696 813q0 -423 12 -728v-1q0 -30 -16 -50q-18 -23 -47 -29q-6 -1 -17 -1q-47 0 -70 37q-2 3 -7 16q-4 11 -4 13q-1 5 -1 17l-3 68l-6 182q-3 100 -5 305l-1 27q-16 0 -54 -4l-12 -2q-52 -6 -130 -4q-26 0 -40 1q5 -86 12 -193q16 -236 26 -352q1 -35 -15 -60
q-19 -28 -54 -36q-28 -7 -54.5 2.5t-44.5 31.5q-17 20 -20 52v1l-5 66q-7 86 -12 178q-10 175 -14 357q-3 168 0 356q2 179 9 356v1q1 23 17 44v1q16 19 40 25q23 7 47.5 -0.5t38.5 -27.5q14 -18 14 -45v-2l-1 -66v-177q2 -186 8 -341q18 -1 49.5 -2t35.5 -1q76 -2 119 2
l39 3q-3 325 5 601v2q2 30 18 49q16 20 45 28q27 6 50 -1q29 -9 45 -36q7 -11 9 -25q0 -1 0.5 -3t0.5 -3q1 -8 1 -19l-2 -67l-3 -182l-2 -182z" />
    <glyph glyph-name="I" unicode="I" horiz-adv-x="524" 
d="M449 1465q20 -17 26 -43q7 -25 -2 -49.5t-29 -38.5q-20 -13 -47 -13h-2l-47 3l-2 -163q-2 -122 -5 -182l-9 -180q-3 -79 -13 -217q-19 -294 -16 -414q4 0 13 1t14 1q23 3 43.5 -8t31.5 -31q19 -37 2 -76q-20 -44 -67 -49q-12 -2 -38 -4q-50 -4 -77 -4h-7q-32 0 -72 5
q-22 2 -41.5 16.5t-28.5 35.5q-19 42 3 80q12 23 35 32q5 3 19 6h1h4q1 0 2.5 0.5t2.5 0.5q-1 71 0 160q1 49 11 248q1 18 3 56.5t3 56.5l6 171q1 30 7.5 202.5t10.5 264.5q-6 1 -16 2t-16 1h-2q-25 3 -44 19q-17 14 -27 39q-8 26 -4 48q6 32 32 50q21 16 55 14l66 -7
q71 -8 172 -15q28 -3 48 -18z" />
    <glyph glyph-name="I" unicode="&#xef;" horiz-adv-x="524" 
d="M449 1465q20 -17 26 -43q7 -25 -2 -49.5t-29 -38.5q-20 -13 -47 -13h-2l-47 3l-2 -163q-2 -122 -5 -182l-9 -180q-3 -79 -13 -217q-19 -294 -16 -414q4 0 13 1t14 1q23 3 43.5 -8t31.5 -31q19 -37 2 -76q-20 -44 -67 -49q-12 -2 -38 -4q-50 -4 -77 -4h-7q-32 0 -72 5
q-22 2 -41.5 16.5t-28.5 35.5q-19 42 3 80q12 23 35 32q5 3 19 6h1h4q1 0 2.5 0.5t2.5 0.5q-1 71 0 160q1 49 11 248q1 18 3 56.5t3 56.5l6 171q1 30 7.5 202.5t10.5 264.5q-6 1 -16 2t-16 1h-2q-25 3 -44 19q-17 14 -27 39q-8 26 -4 48q6 32 32 50q21 16 55 14l66 -7
q71 -8 172 -15q28 -3 48 -18z" />
    <glyph glyph-name="I" unicode="&#xee;" horiz-adv-x="524" 
d="M449 1465q20 -17 26 -43q7 -25 -2 -49.5t-29 -38.5q-20 -13 -47 -13h-2l-47 3l-2 -163q-2 -122 -5 -182l-9 -180q-3 -79 -13 -217q-19 -294 -16 -414q4 0 13 1t14 1q23 3 43.5 -8t31.5 -31q19 -37 2 -76q-20 -44 -67 -49q-12 -2 -38 -4q-50 -4 -77 -4h-7q-32 0 -72 5
q-22 2 -41.5 16.5t-28.5 35.5q-19 42 3 80q12 23 35 32q5 3 19 6h1h4q1 0 2.5 0.5t2.5 0.5q-1 71 0 160q1 49 11 248q1 18 3 56.5t3 56.5l6 171q1 30 7.5 202.5t10.5 264.5q-6 1 -16 2t-16 1h-2q-25 3 -44 19q-17 14 -27 39q-8 26 -4 48q6 32 32 50q21 16 55 14l66 -7
q71 -8 172 -15q28 -3 48 -18z" />
    <glyph glyph-name="I" unicode="&#xed;" horiz-adv-x="524" 
d="M449 1465q20 -17 26 -43q7 -25 -2 -49.5t-29 -38.5q-20 -13 -47 -13h-2l-47 3l-2 -163q-2 -122 -5 -182l-9 -180q-3 -79 -13 -217q-19 -294 -16 -414q4 0 13 1t14 1q23 3 43.5 -8t31.5 -31q19 -37 2 -76q-20 -44 -67 -49q-12 -2 -38 -4q-50 -4 -77 -4h-7q-32 0 -72 5
q-22 2 -41.5 16.5t-28.5 35.5q-19 42 3 80q12 23 35 32q5 3 19 6h1h4q1 0 2.5 0.5t2.5 0.5q-1 71 0 160q1 49 11 248q1 18 3 56.5t3 56.5l6 171q1 30 7.5 202.5t10.5 264.5q-6 1 -16 2t-16 1h-2q-25 3 -44 19q-17 14 -27 39q-8 26 -4 48q6 32 32 50q21 16 55 14l66 -7
q71 -8 172 -15q28 -3 48 -18z" />
    <glyph glyph-name="I" unicode="&#xec;" horiz-adv-x="524" 
d="M449 1465q20 -17 26 -43q7 -25 -2 -49.5t-29 -38.5q-20 -13 -47 -13h-2l-47 3l-2 -163q-2 -122 -5 -182l-9 -180q-3 -79 -13 -217q-19 -294 -16 -414q4 0 13 1t14 1q23 3 43.5 -8t31.5 -31q19 -37 2 -76q-20 -44 -67 -49q-12 -2 -38 -4q-50 -4 -77 -4h-7q-32 0 -72 5
q-22 2 -41.5 16.5t-28.5 35.5q-19 42 3 80q12 23 35 32q5 3 19 6h1h4q1 0 2.5 0.5t2.5 0.5q-1 71 0 160q1 49 11 248q1 18 3 56.5t3 56.5l6 171q1 30 7.5 202.5t10.5 264.5q-6 1 -16 2t-16 1h-2q-25 3 -44 19q-17 14 -27 39q-8 26 -4 48q6 32 32 50q21 16 55 14l66 -7
q71 -8 172 -15q28 -3 48 -18z" />
    <glyph glyph-name="I" unicode="&#xcf;" horiz-adv-x="524" 
d="M449 1465q20 -17 26 -43q7 -25 -2 -49.5t-29 -38.5q-20 -13 -47 -13h-2l-47 3l-2 -163q-2 -122 -5 -182l-9 -180q-3 -79 -13 -217q-19 -294 -16 -414q4 0 13 1t14 1q23 3 43.5 -8t31.5 -31q19 -37 2 -76q-20 -44 -67 -49q-12 -2 -38 -4q-50 -4 -77 -4h-7q-32 0 -72 5
q-22 2 -41.5 16.5t-28.5 35.5q-19 42 3 80q12 23 35 32q5 3 19 6h1h4q1 0 2.5 0.5t2.5 0.5q-1 71 0 160q1 49 11 248q1 18 3 56.5t3 56.5l6 171q1 30 7.5 202.5t10.5 264.5q-6 1 -16 2t-16 1h-2q-25 3 -44 19q-17 14 -27 39q-8 26 -4 48q6 32 32 50q21 16 55 14l66 -7
q71 -8 172 -15q28 -3 48 -18z" />
    <glyph glyph-name="I" unicode="&#xce;" horiz-adv-x="524" 
d="M449 1465q20 -17 26 -43q7 -25 -2 -49.5t-29 -38.5q-20 -13 -47 -13h-2l-47 3l-2 -163q-2 -122 -5 -182l-9 -180q-3 -79 -13 -217q-19 -294 -16 -414q4 0 13 1t14 1q23 3 43.5 -8t31.5 -31q19 -37 2 -76q-20 -44 -67 -49q-12 -2 -38 -4q-50 -4 -77 -4h-7q-32 0 -72 5
q-22 2 -41.5 16.5t-28.5 35.5q-19 42 3 80q12 23 35 32q5 3 19 6h1h4q1 0 2.5 0.5t2.5 0.5q-1 71 0 160q1 49 11 248q1 18 3 56.5t3 56.5l6 171q1 30 7.5 202.5t10.5 264.5q-6 1 -16 2t-16 1h-2q-25 3 -44 19q-17 14 -27 39q-8 26 -4 48q6 32 32 50q21 16 55 14l66 -7
q71 -8 172 -15q28 -3 48 -18z" />
    <glyph glyph-name="I" unicode="&#xcd;" horiz-adv-x="524" 
d="M449 1465q20 -17 26 -43q7 -25 -2 -49.5t-29 -38.5q-20 -13 -47 -13h-2l-47 3l-2 -163q-2 -122 -5 -182l-9 -180q-3 -79 -13 -217q-19 -294 -16 -414q4 0 13 1t14 1q23 3 43.5 -8t31.5 -31q19 -37 2 -76q-20 -44 -67 -49q-12 -2 -38 -4q-50 -4 -77 -4h-7q-32 0 -72 5
q-22 2 -41.5 16.5t-28.5 35.5q-19 42 3 80q12 23 35 32q5 3 19 6h1h4q1 0 2.5 0.5t2.5 0.5q-1 71 0 160q1 49 11 248q1 18 3 56.5t3 56.5l6 171q1 30 7.5 202.5t10.5 264.5q-6 1 -16 2t-16 1h-2q-25 3 -44 19q-17 14 -27 39q-8 26 -4 48q6 32 32 50q21 16 55 14l66 -7
q71 -8 172 -15q28 -3 48 -18z" />
    <glyph glyph-name="I" unicode="&#xcc;" horiz-adv-x="524" 
d="M449 1465q20 -17 26 -43q7 -25 -2 -49.5t-29 -38.5q-20 -13 -47 -13h-2l-47 3l-2 -163q-2 -122 -5 -182l-9 -180q-3 -79 -13 -217q-19 -294 -16 -414q4 0 13 1t14 1q23 3 43.5 -8t31.5 -31q19 -37 2 -76q-20 -44 -67 -49q-12 -2 -38 -4q-50 -4 -77 -4h-7q-32 0 -72 5
q-22 2 -41.5 16.5t-28.5 35.5q-19 42 3 80q12 23 35 32q5 3 19 6h1h4q1 0 2.5 0.5t2.5 0.5q-1 71 0 160q1 49 11 248q1 18 3 56.5t3 56.5l6 171q1 30 7.5 202.5t10.5 264.5q-6 1 -16 2t-16 1h-2q-25 3 -44 19q-17 14 -27 39q-8 26 -4 48q6 32 32 50q21 16 55 14l66 -7
q71 -8 172 -15q28 -3 48 -18z" />
    <glyph glyph-name="I" unicode="i" horiz-adv-x="524" 
d="M449 1465q20 -17 26 -43q7 -25 -2 -49.5t-29 -38.5q-20 -13 -47 -13h-2l-47 3l-2 -163q-2 -122 -5 -182l-9 -180q-3 -79 -13 -217q-19 -294 -16 -414q4 0 13 1t14 1q23 3 43.5 -8t31.5 -31q19 -37 2 -76q-20 -44 -67 -49q-12 -2 -38 -4q-50 -4 -77 -4h-7q-32 0 -72 5
q-22 2 -41.5 16.5t-28.5 35.5q-19 42 3 80q12 23 35 32q5 3 19 6h1h4q1 0 2.5 0.5t2.5 0.5q-1 71 0 160q1 49 11 248q1 18 3 56.5t3 56.5l6 171q1 30 7.5 202.5t10.5 264.5q-6 1 -16 2t-16 1h-2q-25 3 -44 19q-17 14 -27 39q-8 26 -4 48q6 32 32 50q21 16 55 14l66 -7
q71 -8 172 -15q28 -3 48 -18z" />
    <glyph glyph-name="J" unicode="J" horiz-adv-x="632" 
d="M518 1489q27 -5 45 -28q15 -19 17 -45q2 -21 -8 -42q-8 -20 -30 -34q-9 -6 -16 -8h-2q-4 -2 -6 -2q-1 0 -7.5 -1.5t-9.5 -1.5h-7q-2 -21 -6 -67q-15 -187 -18 -244q-4 -82 -8 -244q-1 -107 4 -243l1 -46q6 -195 6 -201v-62q0 -32 -7 -71q-9 -43 -30 -73q-26 -39 -64 -56
q-33 -16 -75 -16q-39 0 -80 15q-17 6 -34 16q-11 5 -21 14q-1 1 -4 2.5t-4 2.5l-1 1l-6 4l-2 2t-2 1l-17 16q-8 6 -18 19q-1 1 -3 3.5t-3 3.5l-2 2q-44 56 -57 132q-12 65 -2 136q11 72 34 130l1 1q1 1 1 2q16 34 52 42q31 8 61 -9q14 -7 26 -24q2 -2 3 -4q11 -20 9 -38
q0 -13 -8 -34q0 -1 -1 -3t-1 -3q-1 0 -1 -1q-21 -58 -24 -109q-3 -59 17 -95q13 -24 29 -40q17 -17 36 -25q1 -1 15 -3q7 0 11 2q1 0 1 0.5t1 0.5q5 0 9 17q4 20 0 79q-2 22 -2 33l-5 123q-6 114 -6 248q0 142 4 247q8 217 28 423q-33 3 -63 9l-1 1h-2q-25 6 -40 23
q-17 19 -20 44q-5 50 34 79q21 15 46 16h6l2 -1q9 0 14 -1l9 -2q12 -2 38 -6q32 -4 76 -6h38h17h12h3h2q9 0 16 -1z" />
    <glyph glyph-name="J" unicode="j" horiz-adv-x="632" 
d="M518 1489q27 -5 45 -28q15 -19 17 -45q2 -21 -8 -42q-8 -20 -30 -34q-9 -6 -16 -8h-2q-4 -2 -6 -2q-1 0 -7.5 -1.5t-9.5 -1.5h-7q-2 -21 -6 -67q-15 -187 -18 -244q-4 -82 -8 -244q-1 -107 4 -243l1 -46q6 -195 6 -201v-62q0 -32 -7 -71q-9 -43 -30 -73q-26 -39 -64 -56
q-33 -16 -75 -16q-39 0 -80 15q-17 6 -34 16q-11 5 -21 14q-1 1 -4 2.5t-4 2.5l-1 1l-6 4l-2 2t-2 1l-17 16q-8 6 -18 19q-1 1 -3 3.5t-3 3.5l-2 2q-44 56 -57 132q-12 65 -2 136q11 72 34 130l1 1q1 1 1 2q16 34 52 42q31 8 61 -9q14 -7 26 -24q2 -2 3 -4q11 -20 9 -38
q0 -13 -8 -34q0 -1 -1 -3t-1 -3q-1 0 -1 -1q-21 -58 -24 -109q-3 -59 17 -95q13 -24 29 -40q17 -17 36 -25q1 -1 15 -3q7 0 11 2q1 0 1 0.5t1 0.5q5 0 9 17q4 20 0 79q-2 22 -2 33l-5 123q-6 114 -6 248q0 142 4 247q8 217 28 423q-33 3 -63 9l-1 1h-2q-25 6 -40 23
q-17 19 -20 44q-5 50 34 79q21 15 46 16h6l2 -1q9 0 14 -1l9 -2q12 -2 38 -6q32 -4 76 -6h38h17h12h3h2q9 0 16 -1z" />
    <glyph glyph-name="K" unicode="K" horiz-adv-x="694" 
d="M607 1450q29 -14 39 -41q12 -31 -5 -63l-1 -2l-13 -21q-7 -11 -21.5 -33.5t-21.5 -34.5q-63 -104 -106 -182q-42 -76 -98 -187q-12 -23 -32 -66t-25 -52l-1 -2q2 -2 4.5 -6.5t3.5 -6.5q2 -3 5 -8t4 -8q3 -5 8.5 -15.5t8.5 -15.5q55 -99 101 -191q83 -168 176 -395
q11 -31 3 -56q-9 -25 -33 -43q-23 -15 -45 -15q-8 0 -12 1q-36 5 -52 41q-3 7 -8.5 21t-8.5 20q-8 19 -26 57q-51 115 -92 191q-44 84 -76 140l1 -18q1 -39 2 -164.5t3 -192.5v-1q0 -28 -16 -50q-17 -23 -46 -29q-57 -13 -89 32q-14 18 -14 47l-2 68l-3 179l-2 225
q0 9 -0.5 28t-0.5 28l-1 161q-2 337 7 630v2q1 24 16 43l1 1q17 20 40 26q24 7 48 -1.5t37 -28.5q12 -17 12 -45v-1l-2 -67q-1 -40 -2 -104t-1 -74l-2 -138q2 4 7 12.5t7 12.5q42 74 108 184q31 52 114 181q19 28 48 34t54 -7z" />
    <glyph glyph-name="K" unicode="k" horiz-adv-x="694" 
d="M607 1450q29 -14 39 -41q12 -31 -5 -63l-1 -2l-13 -21q-7 -11 -21.5 -33.5t-21.5 -34.5q-63 -104 -106 -182q-42 -76 -98 -187q-12 -23 -32 -66t-25 -52l-1 -2q2 -2 4.5 -6.5t3.5 -6.5q2 -3 5 -8t4 -8q3 -5 8.5 -15.5t8.5 -15.5q55 -99 101 -191q83 -168 176 -395
q11 -31 3 -56q-9 -25 -33 -43q-23 -15 -45 -15q-8 0 -12 1q-36 5 -52 41q-3 7 -8.5 21t-8.5 20q-8 19 -26 57q-51 115 -92 191q-44 84 -76 140l1 -18q1 -39 2 -164.5t3 -192.5v-1q0 -28 -16 -50q-17 -23 -46 -29q-57 -13 -89 32q-14 18 -14 47l-2 68l-3 179l-2 225
q0 9 -0.5 28t-0.5 28l-1 161q-2 337 7 630v2q1 24 16 43l1 1q17 20 40 26q24 7 48 -1.5t37 -28.5q12 -17 12 -45v-1l-2 -67q-1 -40 -2 -104t-1 -74l-2 -138q2 4 7 12.5t7 12.5q42 74 108 184q31 52 114 181q19 28 48 34t54 -7z" />
    <glyph glyph-name="L" unicode="L" horiz-adv-x="659" 
d="M628 143q28 -24 26 -62q-2 -34 -26 -57q-27 -26 -66 -21q-2 0 -6.5 0.5t-6.5 1.5q-1 0 -3 1h-2q-1 0 -3 0.5t-3 0.5l-6 1q-38 5 -105 -1q-19 -1 -47 -5l-11 -2q-36 -4 -58 -7q-30 -4 -51 -4q-14 0 -21 1q-30 4 -46 11q-12 6 -19 10q-26 11 -40 32q-7 10 -11 23q-1 2 -1 8
q-2 12 -2 19v608v168q0 415 -3 553v2q2 29 15 46q15 21 43 28q25 7 50 -2t38 -30q7 -9 9 -21v-1q2 -6 2 -8v-2q1 -4 1 -15l10 -608q5 -287 6 -636q2 0 7 0.5t7 0.5l31 1l30 1q144 4 219 -17l2 -1q1 0 3.5 -1t3.5 -1q3 -1 14 -5q1 -1 3.5 -1t3.5 -1q5 -2 13 -8z" />
    <glyph glyph-name="L" unicode="l" horiz-adv-x="659" 
d="M628 143q28 -24 26 -62q-2 -34 -26 -57q-27 -26 -66 -21q-2 0 -6.5 0.5t-6.5 1.5q-1 0 -3 1h-2q-1 0 -3 0.5t-3 0.5l-6 1q-38 5 -105 -1q-19 -1 -47 -5l-11 -2q-36 -4 -58 -7q-30 -4 -51 -4q-14 0 -21 1q-30 4 -46 11q-12 6 -19 10q-26 11 -40 32q-7 10 -11 23q-1 2 -1 8
q-2 12 -2 19v608v168q0 415 -3 553v2q2 29 15 46q15 21 43 28q25 7 50 -2t38 -30q7 -9 9 -21v-1q2 -6 2 -8v-2q1 -4 1 -15l10 -608q5 -287 6 -636q2 0 7 0.5t7 0.5l31 1l30 1q144 4 219 -17l2 -1q1 0 3.5 -1t3.5 -1q3 -1 14 -5q1 -1 3.5 -1t3.5 -1q5 -2 13 -8z" />
    <glyph glyph-name="M" unicode="M" horiz-adv-x="958" 
d="M816 1478q37 -18 43 -57q1 -5 1 -25v-2l-13 -173q-16 -238 -20 -426q-6 -230 -2 -426q1 -91 6 -213l3 -71v-3v-4v-1q0 -10 -2 -17q-10 -39 -46 -55q-19 -8 -38 -8q-15 0 -22 2q-33 8 -53 37q-7 10 -9 17q-2 4 -4 17v1q-2 8 -2 11l-1 34q-9 210 -8 431q2 256 18 517
l-113 -196q-2 -4 -3 -5l-10 -15l-1 -1q-14 -17 -33 -24q-47 -17 -80 13q-11 10 -19 29l-40 88l-78 171q-11 -174 -15 -325q-12 -401 29 -692v-2q3 -33 -13 -57q-18 -28 -51 -34q-54 -11 -91 32q-17 18 -21 46v2l-7 66q-4 41 -5 58l-3 30q-2 40 -3 59q0 5 -1 15t-1 15
q-7 144 0 356q4 153 19 352l24 350v2q3 23 17 42l1 1q10 12 27 21q12 12 27 18h2q21 9 46 2q14 -4 22 -10l7 -7l1 -1q8 -8 12 -15l8 -16q1 -1 1 -2.5t1 -2.5v-1l163 -358l30 53q6 10 44.5 79t60.5 108l76 135l6 9q21 29 55 35q31 5 58 -9z" />
    <glyph glyph-name="M" unicode="m" horiz-adv-x="958" 
d="M816 1478q37 -18 43 -57q1 -5 1 -25v-2l-13 -173q-16 -238 -20 -426q-6 -230 -2 -426q1 -91 6 -213l3 -71v-3v-4v-1q0 -10 -2 -17q-10 -39 -46 -55q-19 -8 -38 -8q-15 0 -22 2q-33 8 -53 37q-7 10 -9 17q-2 4 -4 17v1q-2 8 -2 11l-1 34q-9 210 -8 431q2 256 18 517
l-113 -196q-2 -4 -3 -5l-10 -15l-1 -1q-14 -17 -33 -24q-47 -17 -80 13q-11 10 -19 29l-40 88l-78 171q-11 -174 -15 -325q-12 -401 29 -692v-2q3 -33 -13 -57q-18 -28 -51 -34q-54 -11 -91 32q-17 18 -21 46v2l-7 66q-4 41 -5 58l-3 30q-2 40 -3 59q0 5 -1 15t-1 15
q-7 144 0 356q4 153 19 352l24 350v2q3 23 17 42l1 1q10 12 27 21q12 12 27 18h2q21 9 46 2q14 -4 22 -10l7 -7l1 -1q8 -8 12 -15l8 -16q1 -1 1 -2.5t1 -2.5v-1l163 -358l30 53q6 10 44.5 79t60.5 108l76 135l6 9q21 29 55 35q31 5 58 -9z" />
    <glyph glyph-name="N" unicode="N" horiz-adv-x="884" 
d="M743 1152l15 -355l26 -711q0 -33 -16 -55q-18 -24 -49 -32q-7 -2 -21 -2q-45 0 -72 36q-16 20 -17 48v2l-9 244l-4 122q0 1 -0.5 1t-0.5 1l-1 1q-7 10 -10 17q-1 3 -5 13l-5 16q-16 47 -54 119q-37 70 -102 174q-26 40 -38 61q-26 43 -95 168l13 -218q23 -394 48 -699
q2 -35 -14 -56q-18 -25 -51 -33q-55 -13 -91 31q-17 20 -20 47v2l-5 66l-13 175q-14 193 -23 351q-16 273 -21 350l-11 175l-9 176v2q0 30 15 51q18 24 46 32q21 7 43 2q16 0 31 -6q1 0 1 -0.5t1 -0.5q21 -9 34 -28q7 -9 10 -16l1 -1v-2l9 -16l66 -124l66 -122
q46 -82 68 -120l19 -32q34 -58 52 -87q5 -8 15.5 -25t15.5 -25q1 -1 1 -2q0 -2 1 -2l-3 85l-5 138q-11 283 -12 306v2q0 28 16 50q17 23 45 31q25 7 51 -1.5t42 -29.5q17 -22 17 -49l2 -68z" />
    <glyph glyph-name="N" unicode="&#xf1;" horiz-adv-x="884" 
d="M743 1152l15 -355l26 -711q0 -33 -16 -55q-18 -24 -49 -32q-7 -2 -21 -2q-45 0 -72 36q-16 20 -17 48v2l-9 244l-4 122q0 1 -0.5 1t-0.5 1l-1 1q-7 10 -10 17q-1 3 -5 13l-5 16q-16 47 -54 119q-37 70 -102 174q-26 40 -38 61q-26 43 -95 168l13 -218q23 -394 48 -699
q2 -35 -14 -56q-18 -25 -51 -33q-55 -13 -91 31q-17 20 -20 47v2l-5 66l-13 175q-14 193 -23 351q-16 273 -21 350l-11 175l-9 176v2q0 30 15 51q18 24 46 32q21 7 43 2q16 0 31 -6q1 0 1 -0.5t1 -0.5q21 -9 34 -28q7 -9 10 -16l1 -1v-2l9 -16l66 -124l66 -122
q46 -82 68 -120l19 -32q34 -58 52 -87q5 -8 15.5 -25t15.5 -25q1 -1 1 -2q0 -2 1 -2l-3 85l-5 138q-11 283 -12 306v2q0 28 16 50q17 23 45 31q25 7 51 -1.5t42 -29.5q17 -22 17 -49l2 -68z" />
    <glyph glyph-name="N" unicode="&#xd1;" horiz-adv-x="884" 
d="M743 1152l15 -355l26 -711q0 -33 -16 -55q-18 -24 -49 -32q-7 -2 -21 -2q-45 0 -72 36q-16 20 -17 48v2l-9 244l-4 122q0 1 -0.5 1t-0.5 1l-1 1q-7 10 -10 17q-1 3 -5 13l-5 16q-16 47 -54 119q-37 70 -102 174q-26 40 -38 61q-26 43 -95 168l13 -218q23 -394 48 -699
q2 -35 -14 -56q-18 -25 -51 -33q-55 -13 -91 31q-17 20 -20 47v2l-5 66l-13 175q-14 193 -23 351q-16 273 -21 350l-11 175l-9 176v2q0 30 15 51q18 24 46 32q21 7 43 2q16 0 31 -6q1 0 1 -0.5t1 -0.5q21 -9 34 -28q7 -9 10 -16l1 -1v-2l9 -16l66 -124l66 -122
q46 -82 68 -120l19 -32q34 -58 52 -87q5 -8 15.5 -25t15.5 -25q1 -1 1 -2q0 -2 1 -2l-3 85l-5 138q-11 283 -12 306v2q0 28 16 50q17 23 45 31q25 7 51 -1.5t42 -29.5q17 -22 17 -49l2 -68z" />
    <glyph glyph-name="N" unicode="n" horiz-adv-x="884" 
d="M743 1152l15 -355l26 -711q0 -33 -16 -55q-18 -24 -49 -32q-7 -2 -21 -2q-45 0 -72 36q-16 20 -17 48v2l-9 244l-4 122q0 1 -0.5 1t-0.5 1l-1 1q-7 10 -10 17q-1 3 -5 13l-5 16q-16 47 -54 119q-37 70 -102 174q-26 40 -38 61q-26 43 -95 168l13 -218q23 -394 48 -699
q2 -35 -14 -56q-18 -25 -51 -33q-55 -13 -91 31q-17 20 -20 47v2l-5 66l-13 175q-14 193 -23 351q-16 273 -21 350l-11 175l-9 176v2q0 30 15 51q18 24 46 32q21 7 43 2q16 0 31 -6q1 0 1 -0.5t1 -0.5q21 -9 34 -28q7 -9 10 -16l1 -1v-2l9 -16l66 -124l66 -122
q46 -82 68 -120l19 -32q34 -58 52 -87q5 -8 15.5 -25t15.5 -25q1 -1 1 -2q0 -2 1 -2l-3 85l-5 138q-11 283 -12 306v2q0 28 16 50q17 23 45 31q25 7 51 -1.5t42 -29.5q17 -22 17 -49l2 -68z" />
    <glyph glyph-name="O" unicode="O" horiz-adv-x="790" 
d="M677 1144q13 -100 18 -201q9 -181 -11 -402q-11 -113 -25 -200l-2 -10q-11 -66 -17 -90q-14 -59 -37 -103q-16 -30 -31 -49q-19 -23 -44 -41q-50 -36 -114 -41q-2 0 -6 -0.5t-6 -0.5h-13q-1 0 -3 0.5t-3 0.5h-6q-1 0 -2.5 0.5t-2.5 0.5q-10 2 -24 6q-18 6 -24 9l-4 2
q-1 1 -2.5 2t-2.5 1l-4 2q-16 11 -20 14q-14 10 -18 14l-4 4q-1 0 -2 2l-1 2q0 1 -2 2.5t-3 2.5q-2 3 -7 8t-7 8q-10 12 -30 46q-42 79 -70 200q-17 79 -31 200q-24 204 -25 401q-2 117 4 203q6 69 12 104q10 59 31 107q25 59 67 101q46 46 110 63q65 17 129 0q29 -7 62 -25
q20 0 36 -9q22 -10 36 -33q32 -47 52 -96q32 -81 47 -204v-1zM528 829q0 109 -7 194q-6 68 -10 96q-7 54 -16 93q-8 39 -23 77q-10 1 -24 8q-8 4 -15 8l-21 16l-7 4q-10 5 -19 5h-1q-12 0 -22 -5q-16 -8 -24 -16q-10 -10 -20 -26l-1 -1q-9 -14 -14 -31q-20 -63 -23 -178
l-1 -99q-1 -33 -1 -97q2 -115 7 -195q9 -125 18 -193q9 -65 14 -96q8 -51 18 -90q11 -41 31 -76q21 -36 40 -43q3 -2 5 -1q3 0 16 13q22 24 37 64q6 14 11 40q6 26 8 35l2 12q9 47 16 95q26 179 26 387z" />
    <glyph glyph-name="O" unicode="&#xf8;" horiz-adv-x="790" 
d="M677 1144q13 -100 18 -201q9 -181 -11 -402q-11 -113 -25 -200l-2 -10q-11 -66 -17 -90q-14 -59 -37 -103q-16 -30 -31 -49q-19 -23 -44 -41q-50 -36 -114 -41q-2 0 -6 -0.5t-6 -0.5h-13q-1 0 -3 0.5t-3 0.5h-6q-1 0 -2.5 0.5t-2.5 0.5q-10 2 -24 6q-18 6 -24 9l-4 2
q-1 1 -2.5 2t-2.5 1l-4 2q-16 11 -20 14q-14 10 -18 14l-4 4q-1 0 -2 2l-1 2q0 1 -2 2.5t-3 2.5q-2 3 -7 8t-7 8q-10 12 -30 46q-42 79 -70 200q-17 79 -31 200q-24 204 -25 401q-2 117 4 203q6 69 12 104q10 59 31 107q25 59 67 101q46 46 110 63q65 17 129 0q29 -7 62 -25
q20 0 36 -9q22 -10 36 -33q32 -47 52 -96q32 -81 47 -204v-1zM528 829q0 109 -7 194q-6 68 -10 96q-7 54 -16 93q-8 39 -23 77q-10 1 -24 8q-8 4 -15 8l-21 16l-7 4q-10 5 -19 5h-1q-12 0 -22 -5q-16 -8 -24 -16q-10 -10 -20 -26l-1 -1q-9 -14 -14 -31q-20 -63 -23 -178
l-1 -99q-1 -33 -1 -97q2 -115 7 -195q9 -125 18 -193q9 -65 14 -96q8 -51 18 -90q11 -41 31 -76q21 -36 40 -43q3 -2 5 -1q3 0 16 13q22 24 37 64q6 14 11 40q6 26 8 35l2 12q9 47 16 95q26 179 26 387z" />
    <glyph glyph-name="O" unicode="&#xf6;" horiz-adv-x="790" 
d="M677 1144q13 -100 18 -201q9 -181 -11 -402q-11 -113 -25 -200l-2 -10q-11 -66 -17 -90q-14 -59 -37 -103q-16 -30 -31 -49q-19 -23 -44 -41q-50 -36 -114 -41q-2 0 -6 -0.5t-6 -0.5h-13q-1 0 -3 0.5t-3 0.5h-6q-1 0 -2.5 0.5t-2.5 0.5q-10 2 -24 6q-18 6 -24 9l-4 2
q-1 1 -2.5 2t-2.5 1l-4 2q-16 11 -20 14q-14 10 -18 14l-4 4q-1 0 -2 2l-1 2q0 1 -2 2.5t-3 2.5q-2 3 -7 8t-7 8q-10 12 -30 46q-42 79 -70 200q-17 79 -31 200q-24 204 -25 401q-2 117 4 203q6 69 12 104q10 59 31 107q25 59 67 101q46 46 110 63q65 17 129 0q29 -7 62 -25
q20 0 36 -9q22 -10 36 -33q32 -47 52 -96q32 -81 47 -204v-1zM528 829q0 109 -7 194q-6 68 -10 96q-7 54 -16 93q-8 39 -23 77q-10 1 -24 8q-8 4 -15 8l-21 16l-7 4q-10 5 -19 5h-1q-12 0 -22 -5q-16 -8 -24 -16q-10 -10 -20 -26l-1 -1q-9 -14 -14 -31q-20 -63 -23 -178
l-1 -99q-1 -33 -1 -97q2 -115 7 -195q9 -125 18 -193q9 -65 14 -96q8 -51 18 -90q11 -41 31 -76q21 -36 40 -43q3 -2 5 -1q3 0 16 13q22 24 37 64q6 14 11 40q6 26 8 35l2 12q9 47 16 95q26 179 26 387z" />
    <glyph glyph-name="O" unicode="&#xf5;" horiz-adv-x="790" 
d="M677 1144q13 -100 18 -201q9 -181 -11 -402q-11 -113 -25 -200l-2 -10q-11 -66 -17 -90q-14 -59 -37 -103q-16 -30 -31 -49q-19 -23 -44 -41q-50 -36 -114 -41q-2 0 -6 -0.5t-6 -0.5h-13q-1 0 -3 0.5t-3 0.5h-6q-1 0 -2.5 0.5t-2.5 0.5q-10 2 -24 6q-18 6 -24 9l-4 2
q-1 1 -2.5 2t-2.5 1l-4 2q-16 11 -20 14q-14 10 -18 14l-4 4q-1 0 -2 2l-1 2q0 1 -2 2.5t-3 2.5q-2 3 -7 8t-7 8q-10 12 -30 46q-42 79 -70 200q-17 79 -31 200q-24 204 -25 401q-2 117 4 203q6 69 12 104q10 59 31 107q25 59 67 101q46 46 110 63q65 17 129 0q29 -7 62 -25
q20 0 36 -9q22 -10 36 -33q32 -47 52 -96q32 -81 47 -204v-1zM528 829q0 109 -7 194q-6 68 -10 96q-7 54 -16 93q-8 39 -23 77q-10 1 -24 8q-8 4 -15 8l-21 16l-7 4q-10 5 -19 5h-1q-12 0 -22 -5q-16 -8 -24 -16q-10 -10 -20 -26l-1 -1q-9 -14 -14 -31q-20 -63 -23 -178
l-1 -99q-1 -33 -1 -97q2 -115 7 -195q9 -125 18 -193q9 -65 14 -96q8 -51 18 -90q11 -41 31 -76q21 -36 40 -43q3 -2 5 -1q3 0 16 13q22 24 37 64q6 14 11 40q6 26 8 35l2 12q9 47 16 95q26 179 26 387z" />
    <glyph glyph-name="O" unicode="&#xf4;" horiz-adv-x="790" 
d="M677 1144q13 -100 18 -201q9 -181 -11 -402q-11 -113 -25 -200l-2 -10q-11 -66 -17 -90q-14 -59 -37 -103q-16 -30 -31 -49q-19 -23 -44 -41q-50 -36 -114 -41q-2 0 -6 -0.5t-6 -0.5h-13q-1 0 -3 0.5t-3 0.5h-6q-1 0 -2.5 0.5t-2.5 0.5q-10 2 -24 6q-18 6 -24 9l-4 2
q-1 1 -2.5 2t-2.5 1l-4 2q-16 11 -20 14q-14 10 -18 14l-4 4q-1 0 -2 2l-1 2q0 1 -2 2.5t-3 2.5q-2 3 -7 8t-7 8q-10 12 -30 46q-42 79 -70 200q-17 79 -31 200q-24 204 -25 401q-2 117 4 203q6 69 12 104q10 59 31 107q25 59 67 101q46 46 110 63q65 17 129 0q29 -7 62 -25
q20 0 36 -9q22 -10 36 -33q32 -47 52 -96q32 -81 47 -204v-1zM528 829q0 109 -7 194q-6 68 -10 96q-7 54 -16 93q-8 39 -23 77q-10 1 -24 8q-8 4 -15 8l-21 16l-7 4q-10 5 -19 5h-1q-12 0 -22 -5q-16 -8 -24 -16q-10 -10 -20 -26l-1 -1q-9 -14 -14 -31q-20 -63 -23 -178
l-1 -99q-1 -33 -1 -97q2 -115 7 -195q9 -125 18 -193q9 -65 14 -96q8 -51 18 -90q11 -41 31 -76q21 -36 40 -43q3 -2 5 -1q3 0 16 13q22 24 37 64q6 14 11 40q6 26 8 35l2 12q9 47 16 95q26 179 26 387z" />
    <glyph glyph-name="O" unicode="&#xf3;" horiz-adv-x="790" 
d="M677 1144q13 -100 18 -201q9 -181 -11 -402q-11 -113 -25 -200l-2 -10q-11 -66 -17 -90q-14 -59 -37 -103q-16 -30 -31 -49q-19 -23 -44 -41q-50 -36 -114 -41q-2 0 -6 -0.5t-6 -0.5h-13q-1 0 -3 0.5t-3 0.5h-6q-1 0 -2.5 0.5t-2.5 0.5q-10 2 -24 6q-18 6 -24 9l-4 2
q-1 1 -2.5 2t-2.5 1l-4 2q-16 11 -20 14q-14 10 -18 14l-4 4q-1 0 -2 2l-1 2q0 1 -2 2.5t-3 2.5q-2 3 -7 8t-7 8q-10 12 -30 46q-42 79 -70 200q-17 79 -31 200q-24 204 -25 401q-2 117 4 203q6 69 12 104q10 59 31 107q25 59 67 101q46 46 110 63q65 17 129 0q29 -7 62 -25
q20 0 36 -9q22 -10 36 -33q32 -47 52 -96q32 -81 47 -204v-1zM528 829q0 109 -7 194q-6 68 -10 96q-7 54 -16 93q-8 39 -23 77q-10 1 -24 8q-8 4 -15 8l-21 16l-7 4q-10 5 -19 5h-1q-12 0 -22 -5q-16 -8 -24 -16q-10 -10 -20 -26l-1 -1q-9 -14 -14 -31q-20 -63 -23 -178
l-1 -99q-1 -33 -1 -97q2 -115 7 -195q9 -125 18 -193q9 -65 14 -96q8 -51 18 -90q11 -41 31 -76q21 -36 40 -43q3 -2 5 -1q3 0 16 13q22 24 37 64q6 14 11 40q6 26 8 35l2 12q9 47 16 95q26 179 26 387z" />
    <glyph glyph-name="O" unicode="&#xf2;" horiz-adv-x="790" 
d="M677 1144q13 -100 18 -201q9 -181 -11 -402q-11 -113 -25 -200l-2 -10q-11 -66 -17 -90q-14 -59 -37 -103q-16 -30 -31 -49q-19 -23 -44 -41q-50 -36 -114 -41q-2 0 -6 -0.5t-6 -0.5h-13q-1 0 -3 0.5t-3 0.5h-6q-1 0 -2.5 0.5t-2.5 0.5q-10 2 -24 6q-18 6 -24 9l-4 2
q-1 1 -2.5 2t-2.5 1l-4 2q-16 11 -20 14q-14 10 -18 14l-4 4q-1 0 -2 2l-1 2q0 1 -2 2.5t-3 2.5q-2 3 -7 8t-7 8q-10 12 -30 46q-42 79 -70 200q-17 79 -31 200q-24 204 -25 401q-2 117 4 203q6 69 12 104q10 59 31 107q25 59 67 101q46 46 110 63q65 17 129 0q29 -7 62 -25
q20 0 36 -9q22 -10 36 -33q32 -47 52 -96q32 -81 47 -204v-1zM528 829q0 109 -7 194q-6 68 -10 96q-7 54 -16 93q-8 39 -23 77q-10 1 -24 8q-8 4 -15 8l-21 16l-7 4q-10 5 -19 5h-1q-12 0 -22 -5q-16 -8 -24 -16q-10 -10 -20 -26l-1 -1q-9 -14 -14 -31q-20 -63 -23 -178
l-1 -99q-1 -33 -1 -97q2 -115 7 -195q9 -125 18 -193q9 -65 14 -96q8 -51 18 -90q11 -41 31 -76q21 -36 40 -43q3 -2 5 -1q3 0 16 13q22 24 37 64q6 14 11 40q6 26 8 35l2 12q9 47 16 95q26 179 26 387z" />
    <glyph glyph-name="O" unicode="&#xd8;" horiz-adv-x="790" 
d="M677 1144q13 -100 18 -201q9 -181 -11 -402q-11 -113 -25 -200l-2 -10q-11 -66 -17 -90q-14 -59 -37 -103q-16 -30 -31 -49q-19 -23 -44 -41q-50 -36 -114 -41q-2 0 -6 -0.5t-6 -0.5h-13q-1 0 -3 0.5t-3 0.5h-6q-1 0 -2.5 0.5t-2.5 0.5q-10 2 -24 6q-18 6 -24 9l-4 2
q-1 1 -2.5 2t-2.5 1l-4 2q-16 11 -20 14q-14 10 -18 14l-4 4q-1 0 -2 2l-1 2q0 1 -2 2.5t-3 2.5q-2 3 -7 8t-7 8q-10 12 -30 46q-42 79 -70 200q-17 79 -31 200q-24 204 -25 401q-2 117 4 203q6 69 12 104q10 59 31 107q25 59 67 101q46 46 110 63q65 17 129 0q29 -7 62 -25
q20 0 36 -9q22 -10 36 -33q32 -47 52 -96q32 -81 47 -204v-1zM528 829q0 109 -7 194q-6 68 -10 96q-7 54 -16 93q-8 39 -23 77q-10 1 -24 8q-8 4 -15 8l-21 16l-7 4q-10 5 -19 5h-1q-12 0 -22 -5q-16 -8 -24 -16q-10 -10 -20 -26l-1 -1q-9 -14 -14 -31q-20 -63 -23 -178
l-1 -99q-1 -33 -1 -97q2 -115 7 -195q9 -125 18 -193q9 -65 14 -96q8 -51 18 -90q11 -41 31 -76q21 -36 40 -43q3 -2 5 -1q3 0 16 13q22 24 37 64q6 14 11 40q6 26 8 35l2 12q9 47 16 95q26 179 26 387z" />
    <glyph glyph-name="O" unicode="&#xd6;" horiz-adv-x="790" 
d="M677 1144q13 -100 18 -201q9 -181 -11 -402q-11 -113 -25 -200l-2 -10q-11 -66 -17 -90q-14 -59 -37 -103q-16 -30 -31 -49q-19 -23 -44 -41q-50 -36 -114 -41q-2 0 -6 -0.5t-6 -0.5h-13q-1 0 -3 0.5t-3 0.5h-6q-1 0 -2.5 0.5t-2.5 0.5q-10 2 -24 6q-18 6 -24 9l-4 2
q-1 1 -2.5 2t-2.5 1l-4 2q-16 11 -20 14q-14 10 -18 14l-4 4q-1 0 -2 2l-1 2q0 1 -2 2.5t-3 2.5q-2 3 -7 8t-7 8q-10 12 -30 46q-42 79 -70 200q-17 79 -31 200q-24 204 -25 401q-2 117 4 203q6 69 12 104q10 59 31 107q25 59 67 101q46 46 110 63q65 17 129 0q29 -7 62 -25
q20 0 36 -9q22 -10 36 -33q32 -47 52 -96q32 -81 47 -204v-1zM528 829q0 109 -7 194q-6 68 -10 96q-7 54 -16 93q-8 39 -23 77q-10 1 -24 8q-8 4 -15 8l-21 16l-7 4q-10 5 -19 5h-1q-12 0 -22 -5q-16 -8 -24 -16q-10 -10 -20 -26l-1 -1q-9 -14 -14 -31q-20 -63 -23 -178
l-1 -99q-1 -33 -1 -97q2 -115 7 -195q9 -125 18 -193q9 -65 14 -96q8 -51 18 -90q11 -41 31 -76q21 -36 40 -43q3 -2 5 -1q3 0 16 13q22 24 37 64q6 14 11 40q6 26 8 35l2 12q9 47 16 95q26 179 26 387z" />
    <glyph glyph-name="O" unicode="&#xd5;" horiz-adv-x="790" 
d="M677 1144q13 -100 18 -201q9 -181 -11 -402q-11 -113 -25 -200l-2 -10q-11 -66 -17 -90q-14 -59 -37 -103q-16 -30 -31 -49q-19 -23 -44 -41q-50 -36 -114 -41q-2 0 -6 -0.5t-6 -0.5h-13q-1 0 -3 0.5t-3 0.5h-6q-1 0 -2.5 0.5t-2.5 0.5q-10 2 -24 6q-18 6 -24 9l-4 2
q-1 1 -2.5 2t-2.5 1l-4 2q-16 11 -20 14q-14 10 -18 14l-4 4q-1 0 -2 2l-1 2q0 1 -2 2.5t-3 2.5q-2 3 -7 8t-7 8q-10 12 -30 46q-42 79 -70 200q-17 79 -31 200q-24 204 -25 401q-2 117 4 203q6 69 12 104q10 59 31 107q25 59 67 101q46 46 110 63q65 17 129 0q29 -7 62 -25
q20 0 36 -9q22 -10 36 -33q32 -47 52 -96q32 -81 47 -204v-1zM528 829q0 109 -7 194q-6 68 -10 96q-7 54 -16 93q-8 39 -23 77q-10 1 -24 8q-8 4 -15 8l-21 16l-7 4q-10 5 -19 5h-1q-12 0 -22 -5q-16 -8 -24 -16q-10 -10 -20 -26l-1 -1q-9 -14 -14 -31q-20 -63 -23 -178
l-1 -99q-1 -33 -1 -97q2 -115 7 -195q9 -125 18 -193q9 -65 14 -96q8 -51 18 -90q11 -41 31 -76q21 -36 40 -43q3 -2 5 -1q3 0 16 13q22 24 37 64q6 14 11 40q6 26 8 35l2 12q9 47 16 95q26 179 26 387z" />
    <glyph glyph-name="O" unicode="&#xd4;" horiz-adv-x="790" 
d="M677 1144q13 -100 18 -201q9 -181 -11 -402q-11 -113 -25 -200l-2 -10q-11 -66 -17 -90q-14 -59 -37 -103q-16 -30 -31 -49q-19 -23 -44 -41q-50 -36 -114 -41q-2 0 -6 -0.5t-6 -0.5h-13q-1 0 -3 0.5t-3 0.5h-6q-1 0 -2.5 0.5t-2.5 0.5q-10 2 -24 6q-18 6 -24 9l-4 2
q-1 1 -2.5 2t-2.5 1l-4 2q-16 11 -20 14q-14 10 -18 14l-4 4q-1 0 -2 2l-1 2q0 1 -2 2.5t-3 2.5q-2 3 -7 8t-7 8q-10 12 -30 46q-42 79 -70 200q-17 79 -31 200q-24 204 -25 401q-2 117 4 203q6 69 12 104q10 59 31 107q25 59 67 101q46 46 110 63q65 17 129 0q29 -7 62 -25
q20 0 36 -9q22 -10 36 -33q32 -47 52 -96q32 -81 47 -204v-1zM528 829q0 109 -7 194q-6 68 -10 96q-7 54 -16 93q-8 39 -23 77q-10 1 -24 8q-8 4 -15 8l-21 16l-7 4q-10 5 -19 5h-1q-12 0 -22 -5q-16 -8 -24 -16q-10 -10 -20 -26l-1 -1q-9 -14 -14 -31q-20 -63 -23 -178
l-1 -99q-1 -33 -1 -97q2 -115 7 -195q9 -125 18 -193q9 -65 14 -96q8 -51 18 -90q11 -41 31 -76q21 -36 40 -43q3 -2 5 -1q3 0 16 13q22 24 37 64q6 14 11 40q6 26 8 35l2 12q9 47 16 95q26 179 26 387z" />
    <glyph glyph-name="O" unicode="&#xd3;" horiz-adv-x="790" 
d="M677 1144q13 -100 18 -201q9 -181 -11 -402q-11 -113 -25 -200l-2 -10q-11 -66 -17 -90q-14 -59 -37 -103q-16 -30 -31 -49q-19 -23 -44 -41q-50 -36 -114 -41q-2 0 -6 -0.5t-6 -0.5h-13q-1 0 -3 0.5t-3 0.5h-6q-1 0 -2.5 0.5t-2.5 0.5q-10 2 -24 6q-18 6 -24 9l-4 2
q-1 1 -2.5 2t-2.5 1l-4 2q-16 11 -20 14q-14 10 -18 14l-4 4q-1 0 -2 2l-1 2q0 1 -2 2.5t-3 2.5q-2 3 -7 8t-7 8q-10 12 -30 46q-42 79 -70 200q-17 79 -31 200q-24 204 -25 401q-2 117 4 203q6 69 12 104q10 59 31 107q25 59 67 101q46 46 110 63q65 17 129 0q29 -7 62 -25
q20 0 36 -9q22 -10 36 -33q32 -47 52 -96q32 -81 47 -204v-1zM528 829q0 109 -7 194q-6 68 -10 96q-7 54 -16 93q-8 39 -23 77q-10 1 -24 8q-8 4 -15 8l-21 16l-7 4q-10 5 -19 5h-1q-12 0 -22 -5q-16 -8 -24 -16q-10 -10 -20 -26l-1 -1q-9 -14 -14 -31q-20 -63 -23 -178
l-1 -99q-1 -33 -1 -97q2 -115 7 -195q9 -125 18 -193q9 -65 14 -96q8 -51 18 -90q11 -41 31 -76q21 -36 40 -43q3 -2 5 -1q3 0 16 13q22 24 37 64q6 14 11 40q6 26 8 35l2 12q9 47 16 95q26 179 26 387z" />
    <glyph glyph-name="O" unicode="&#xd2;" horiz-adv-x="790" 
d="M677 1144q13 -100 18 -201q9 -181 -11 -402q-11 -113 -25 -200l-2 -10q-11 -66 -17 -90q-14 -59 -37 -103q-16 -30 -31 -49q-19 -23 -44 -41q-50 -36 -114 -41q-2 0 -6 -0.5t-6 -0.5h-13q-1 0 -3 0.5t-3 0.5h-6q-1 0 -2.5 0.5t-2.5 0.5q-10 2 -24 6q-18 6 -24 9l-4 2
q-1 1 -2.5 2t-2.5 1l-4 2q-16 11 -20 14q-14 10 -18 14l-4 4q-1 0 -2 2l-1 2q0 1 -2 2.5t-3 2.5q-2 3 -7 8t-7 8q-10 12 -30 46q-42 79 -70 200q-17 79 -31 200q-24 204 -25 401q-2 117 4 203q6 69 12 104q10 59 31 107q25 59 67 101q46 46 110 63q65 17 129 0q29 -7 62 -25
q20 0 36 -9q22 -10 36 -33q32 -47 52 -96q32 -81 47 -204v-1zM528 829q0 109 -7 194q-6 68 -10 96q-7 54 -16 93q-8 39 -23 77q-10 1 -24 8q-8 4 -15 8l-21 16l-7 4q-10 5 -19 5h-1q-12 0 -22 -5q-16 -8 -24 -16q-10 -10 -20 -26l-1 -1q-9 -14 -14 -31q-20 -63 -23 -178
l-1 -99q-1 -33 -1 -97q2 -115 7 -195q9 -125 18 -193q9 -65 14 -96q8 -51 18 -90q11 -41 31 -76q21 -36 40 -43q3 -2 5 -1q3 0 16 13q22 24 37 64q6 14 11 40q6 26 8 35l2 12q9 47 16 95q26 179 26 387z" />
    <glyph glyph-name="O" unicode="o" horiz-adv-x="790" 
d="M677 1144q13 -100 18 -201q9 -181 -11 -402q-11 -113 -25 -200l-2 -10q-11 -66 -17 -90q-14 -59 -37 -103q-16 -30 -31 -49q-19 -23 -44 -41q-50 -36 -114 -41q-2 0 -6 -0.5t-6 -0.5h-13q-1 0 -3 0.5t-3 0.5h-6q-1 0 -2.5 0.5t-2.5 0.5q-10 2 -24 6q-18 6 -24 9l-4 2
q-1 1 -2.5 2t-2.5 1l-4 2q-16 11 -20 14q-14 10 -18 14l-4 4q-1 0 -2 2l-1 2q0 1 -2 2.5t-3 2.5q-2 3 -7 8t-7 8q-10 12 -30 46q-42 79 -70 200q-17 79 -31 200q-24 204 -25 401q-2 117 4 203q6 69 12 104q10 59 31 107q25 59 67 101q46 46 110 63q65 17 129 0q29 -7 62 -25
q20 0 36 -9q22 -10 36 -33q32 -47 52 -96q32 -81 47 -204v-1zM528 829q0 109 -7 194q-6 68 -10 96q-7 54 -16 93q-8 39 -23 77q-10 1 -24 8q-8 4 -15 8l-21 16l-7 4q-10 5 -19 5h-1q-12 0 -22 -5q-16 -8 -24 -16q-10 -10 -20 -26l-1 -1q-9 -14 -14 -31q-20 -63 -23 -178
l-1 -99q-1 -33 -1 -97q2 -115 7 -195q9 -125 18 -193q9 -65 14 -96q8 -51 18 -90q11 -41 31 -76q21 -36 40 -43q3 -2 5 -1q3 0 16 13q22 24 37 64q6 14 11 40q6 26 8 35l2 12q9 47 16 95q26 179 26 387z" />
    <glyph glyph-name="P" unicode="P" horiz-adv-x="706" 
d="M585 1382q58 -64 75 -176q13 -93 0 -180q-15 -91 -54 -172q-44 -90 -105 -150q-79 -77 -175 -90q-18 -3 -36 -3q4 -307 11 -526v-1q0 -29 -16 -53q-19 -25 -49 -33q-12 -3 -23 -3q-44 0 -72 34l-1 1q-17 23 -18 50v2l-1 65q-2 100 -3 176q-1 107 -1 320v29q-1 1 -2 2.5
t-2 2.5q-15 26 -9 58q5 20 14 33q0 22 1 93t2 109l1 55q0 22 1 65.5t1 65.5q2 142 4 208q-3 14 0 28q3 13 14 28q0 1 2 3q16 20 41 28l18 3q4 1 13 4.5t14 4.5q87 22 183 6q109 -19 171 -87h1zM495 1110q4 90 -19 139q-12 26 -36 40q-27 16 -62 23q-39 7 -71 4q-6 0 -18 -2
v-6q-2 -112 -2 -174q0 -240 1 -343q51 -2 100 51q44 47 75 124q14 35 22 70q7 30 10 74z" />
    <glyph glyph-name="P" unicode="p" horiz-adv-x="706" 
d="M585 1382q58 -64 75 -176q13 -93 0 -180q-15 -91 -54 -172q-44 -90 -105 -150q-79 -77 -175 -90q-18 -3 -36 -3q4 -307 11 -526v-1q0 -29 -16 -53q-19 -25 -49 -33q-12 -3 -23 -3q-44 0 -72 34l-1 1q-17 23 -18 50v2l-1 65q-2 100 -3 176q-1 107 -1 320v29q-1 1 -2 2.5
t-2 2.5q-15 26 -9 58q5 20 14 33q0 22 1 93t2 109l1 55q0 22 1 65.5t1 65.5q2 142 4 208q-3 14 0 28q3 13 14 28q0 1 2 3q16 20 41 28l18 3q4 1 13 4.5t14 4.5q87 22 183 6q109 -19 171 -87h1zM495 1110q4 90 -19 139q-12 26 -36 40q-27 16 -62 23q-39 7 -71 4q-6 0 -18 -2
v-6q-2 -112 -2 -174q0 -240 1 -343q51 -2 100 51q44 47 75 124q14 35 22 70q7 30 10 74z" />
    <glyph glyph-name="Q" unicode="Q" horiz-adv-x="858" 
d="M737 165q21 -19 25 -44q5 -26 -4 -48q-10 -24 -31 -38l-1 -1q-2 0 -2 -1q-31 -16 -63 -17q-34 -3 -69 13q-17 8 -31 19q-5 -3 -26 -15l-2 -1q-29 -13 -54 -19q-26 -7 -49 -7q-2 0 -6.5 0.5t-7.5 0.5q-32 3 -63 17q-26 12 -51 33q-41 35 -74 84q-55 84 -90 191
q-62 192 -64 406q-2 209 65 407q43 122 90 192q36 52 77 84q46 36 108 53q61 16 120 5q67 -14 113 -55q8 -7 20 -19l2 -3l1 -1q14 -17 19 -41q11 -21 18 -41q13 -39 24 -94l2 -8q9 -50 15 -103q8 -79 8 -204q0 -72 -7 -201l-12 -199q-8 -123 -26 -204q-19 -79 -42 -128
q1 0 3.5 1t4.5 2h3q34 5 57 -16zM494 361q28 13 55 9q1 0 3 -0.5t3 -0.5q8 46 11 84v4q1 10 3 29t3.5 34.5t2.5 29.5q5 66 11 198v13q6 120 6 184q0 116 -11 192q-3 23 -16 87l-2 7q-6 28 -14 45l-1 2h-1q-1 0 -1 1l-5 5l-1 1l-7 7q-11 10 -21 13l-1 1h-1q-14 4 -23 4
q-17 0 -38 -8q-15 -5 -32 -17q-10 -7 -29 -26q-25 -28 -47 -71q-18 -36 -35 -84q-16 -51 -26 -92q-15 -61 -20 -93q-15 -90 -15 -189q0 -190 64 -373q34 -97 85 -156q13 -15 24 -21q10 -5 16 -4q15 2 25 8q1 1 3.5 2.5t4.5 2.5q-13 33 -21 68q0 1 -0.5 1t-0.5 1q-7 30 6 60
q12 27 43 42z" />
    <glyph glyph-name="Q" unicode="q" horiz-adv-x="858" 
d="M737 165q21 -19 25 -44q5 -26 -4 -48q-10 -24 -31 -38l-1 -1q-2 0 -2 -1q-31 -16 -63 -17q-34 -3 -69 13q-17 8 -31 19q-5 -3 -26 -15l-2 -1q-29 -13 -54 -19q-26 -7 -49 -7q-2 0 -6.5 0.5t-7.5 0.5q-32 3 -63 17q-26 12 -51 33q-41 35 -74 84q-55 84 -90 191
q-62 192 -64 406q-2 209 65 407q43 122 90 192q36 52 77 84q46 36 108 53q61 16 120 5q67 -14 113 -55q8 -7 20 -19l2 -3l1 -1q14 -17 19 -41q11 -21 18 -41q13 -39 24 -94l2 -8q9 -50 15 -103q8 -79 8 -204q0 -72 -7 -201l-12 -199q-8 -123 -26 -204q-19 -79 -42 -128
q1 0 3.5 1t4.5 2h3q34 5 57 -16zM494 361q28 13 55 9q1 0 3 -0.5t3 -0.5q8 46 11 84v4q1 10 3 29t3.5 34.5t2.5 29.5q5 66 11 198v13q6 120 6 184q0 116 -11 192q-3 23 -16 87l-2 7q-6 28 -14 45l-1 2h-1q-1 0 -1 1l-5 5l-1 1l-7 7q-11 10 -21 13l-1 1h-1q-14 4 -23 4
q-17 0 -38 -8q-15 -5 -32 -17q-10 -7 -29 -26q-25 -28 -47 -71q-18 -36 -35 -84q-16 -51 -26 -92q-15 -61 -20 -93q-15 -90 -15 -189q0 -190 64 -373q34 -97 85 -156q13 -15 24 -21q10 -5 16 -4q15 2 25 8q1 1 3.5 2.5t4.5 2.5q-13 33 -21 68q0 1 -0.5 1t-0.5 1q-7 30 6 60
q12 27 43 42z" />
    <glyph glyph-name="R" unicode="R" horiz-adv-x="718" 
d="M550 1463q69 -43 99 -114.5t18 -163.5q-29 -216 -135 -322q-75 -75 -176 -89q109 -349 188 -671q11 -43 -21 -73q-25 -23 -57 -23q-10 0 -21 3q-40 11 -51 54q-55 218 -100 376q-6 -216 -10 -323l-1 -1q-2 -29 -18 -50q-18 -22 -46 -30q-26 -8 -52.5 1.5t-42.5 31.5
q-15 21 -15 51v2l8 242q4 100 8 312l1 40q3 226 1 352q-2 110 -8 352l-1 1v1q0 27 16 49t44 30q25 7 46 1q64 10 110.5 12t107 -9.5t108.5 -41.5zM378 940q48 27 83 95t48 143t-4.5 110.5t-55.5 52.5q-59 27 -159 14l4 -176q5 -240 5 -251q43 -9 79 12z" />
    <glyph glyph-name="R" unicode="r" horiz-adv-x="718" 
d="M550 1463q69 -43 99 -114.5t18 -163.5q-29 -216 -135 -322q-75 -75 -176 -89q109 -349 188 -671q11 -43 -21 -73q-25 -23 -57 -23q-10 0 -21 3q-40 11 -51 54q-55 218 -100 376q-6 -216 -10 -323l-1 -1q-2 -29 -18 -50q-18 -22 -46 -30q-26 -8 -52.5 1.5t-42.5 31.5
q-15 21 -15 51v2l8 242q4 100 8 312l1 40q3 226 1 352q-2 110 -8 352l-1 1v1q0 27 16 49t44 30q25 7 46 1q64 10 110.5 12t107 -9.5t108.5 -41.5zM378 940q48 27 83 95t48 143t-4.5 110.5t-55.5 52.5q-59 27 -159 14l4 -176q5 -240 5 -251q43 -9 79 12z" />
    <glyph glyph-name="S" unicode="S" horiz-adv-x="772" 
d="M675 757q15 -38 23 -79q16 -69 14 -158q-2 -84 -18 -157q-21 -90 -56 -152q-27 -46 -46 -69q-27 -33 -59 -60q-40 -33 -70 -48q-41 -21 -81 -30q-17 -4 -35 -6l-7 -1h-4h-6q-3 0 -9.5 -0.5t-10.5 -0.5q-12 0 -18 1q-52 5 -93 32q-67 43 -108 137q-30 70 -38 158
q-2 32 -2 40q0 3 0.5 7.5t0.5 6.5v2q1 11 5 18l1 2q0 1 1 2.5t1 2.5q14 25 31 34t40 11q21 2 39 -6q21 -9 35 -29l2 -2q8 -16 9 -19q3 -8 3 -20l1 -1v-2q0 -71 22 -127q13 -32 28 -50q18 -20 37 -24q12 -3 22 -2q17 2 25 5q28 9 54 27q50 34 82 94q28 50 40 125q11 67 8 137
q-1 24 -7 69q-5 39 -14 64q-12 33 -26 49q-13 15 -46 31q-6 3 -18 7.5t-17 6.5q-17 6 -32 13q-10 4 -28 13q-1 1 -3.5 2t-4.5 2q-9 5 -23 15q-1 1 -5.5 3t-5.5 3l-2 2q-66 47 -111 119q-43 70 -55 155q-12 78 12 164q24 79 79 145q60 72 140 100q46 15 92 11q46 -5 89 -26h1
l1 -1q19 -11 31 -30q13 -22 12 -47q-3 -44 -42 -70q-40 -27 -85 -4l-12 4h-2l-2 1q-1 0 -3 1t-3 1q-17 2 -37 -9q-19 -10 -42 -34q-43 -49 -55 -104q-14 -60 3 -116q18 -57 61 -97q31 -28 109 -62l10 -5q43 -19 66 -34q36 -23 67 -62q27 -34 44 -79h1z" />
    <glyph glyph-name="S" unicode="s" horiz-adv-x="772" 
d="M675 757q15 -38 23 -79q16 -69 14 -158q-2 -84 -18 -157q-21 -90 -56 -152q-27 -46 -46 -69q-27 -33 -59 -60q-40 -33 -70 -48q-41 -21 -81 -30q-17 -4 -35 -6l-7 -1h-4h-6q-3 0 -9.5 -0.5t-10.5 -0.5q-12 0 -18 1q-52 5 -93 32q-67 43 -108 137q-30 70 -38 158
q-2 32 -2 40q0 3 0.5 7.5t0.5 6.5v2q1 11 5 18l1 2q0 1 1 2.5t1 2.5q14 25 31 34t40 11q21 2 39 -6q21 -9 35 -29l2 -2q8 -16 9 -19q3 -8 3 -20l1 -1v-2q0 -71 22 -127q13 -32 28 -50q18 -20 37 -24q12 -3 22 -2q17 2 25 5q28 9 54 27q50 34 82 94q28 50 40 125q11 67 8 137
q-1 24 -7 69q-5 39 -14 64q-12 33 -26 49q-13 15 -46 31q-6 3 -18 7.5t-17 6.5q-17 6 -32 13q-10 4 -28 13q-1 1 -3.5 2t-4.5 2q-9 5 -23 15q-1 1 -5.5 3t-5.5 3l-2 2q-66 47 -111 119q-43 70 -55 155q-12 78 12 164q24 79 79 145q60 72 140 100q46 15 92 11q46 -5 89 -26h1
l1 -1q19 -11 31 -30q13 -22 12 -47q-3 -44 -42 -70q-40 -27 -85 -4l-12 4h-2l-2 1q-1 0 -3 1t-3 1q-17 2 -37 -9q-19 -10 -42 -34q-43 -49 -55 -104q-14 -60 3 -116q18 -57 61 -97q31 -28 109 -62l10 -5q43 -19 66 -34q36 -23 67 -62q27 -34 44 -79h1z" />
    <glyph glyph-name="T" unicode="T" horiz-adv-x="657" 
d="M564 1511q50 -5 71 -48q20 -40 2 -80q-9 -23 -33 -37h-1l-1 -1q-11 -6 -22 -8q-8 -2 -20 -2h-3q-4 1 -11.5 2t-11.5 1q-4 1 -14 1q-87 9 -109 10q0 -20 -0.5 -61.5t-0.5 -62.5v-52l2 -363q1 -284 -2 -727q-2 -33 -18 -54q-18 -23 -50 -31q-7 -2 -21 -2t-31 5
q-29 11 -45 36q-3 5 -10 25q-1 2 -1 7q-1 8 -1 19l2 250l7 458q0 44 1.5 133.5t2.5 134.5l1 286h-4q-50 -3 -138 -16h-3q-23 -2 -40 6q-23 9 -35 32q-21 37 -3 77q16 40 62 50q20 4 29 5l9 2q62 9 146 15q145 8 294 -10z" />
    <glyph glyph-name="T" unicode="t" horiz-adv-x="657" 
d="M564 1511q50 -5 71 -48q20 -40 2 -80q-9 -23 -33 -37h-1l-1 -1q-11 -6 -22 -8q-8 -2 -20 -2h-3q-4 1 -11.5 2t-11.5 1q-4 1 -14 1q-87 9 -109 10q0 -20 -0.5 -61.5t-0.5 -62.5v-52l2 -363q1 -284 -2 -727q-2 -33 -18 -54q-18 -23 -50 -31q-7 -2 -21 -2t-31 5
q-29 11 -45 36q-3 5 -10 25q-1 2 -1 7q-1 8 -1 19l2 250l7 458q0 44 1.5 133.5t2.5 134.5l1 286h-4q-50 -3 -138 -16h-3q-23 -2 -40 6q-23 9 -35 32q-21 37 -3 77q16 40 62 50q20 4 29 5l9 2q62 9 146 15q145 8 294 -10z" />
    <glyph glyph-name="U" unicode="U" horiz-adv-x="839" 
d="M717 1067q18 -236 20 -274q10 -226 -11 -393q-2 -20 -9 -58t-7 -40q-10 -58 -23 -100q-19 -60 -49 -102q-21 -28 -43 -45l-2 -2q-18 -15 -24 -18l-4 -2q-10 -7 -22 -12q-50 -24 -108 -24h-8q-58 2 -113 26q-54 24 -94 64q-41 39 -64 95q-36 81 -40 205q-1 24 -1 72v26
l-1 288l1 71q0 243 1 366q0 55 -1 83q0 9 -1 28t-1 29l-2 96v5q0 17 2 30q6 33 35 52q25 17 54.5 16t52.5 -20q27 -22 30 -58q1 -6 1 -14v-63v-97q-2 -194 -7 -385q-4 -124 -4 -279v-105v-50q0 -92 5 -136q6 -48 19 -83q15 -37 43 -62q27 -26 65 -32q15 -3 36 -1q15 2 30 9
q24 13 42 52q16 38 25 83q36 173 33 372q-1 120 -24 384q-21 237 -23 384q0 33 19 55q20 24 50 28q29 5 53 -7q29 -15 40 -44v-1l1 -1l1 -1q0 -2 1 -6t2 -5v-3l1 -8v-1q0 -2 0.5 -6t0.5 -5v-28q0 -6 0.5 -16t0.5 -15l1 -16q4 -99 11 -190z" />
    <glyph glyph-name="U" unicode="&#xfc;" horiz-adv-x="839" 
d="M717 1067q18 -236 20 -274q10 -226 -11 -393q-2 -20 -9 -58t-7 -40q-10 -58 -23 -100q-19 -60 -49 -102q-21 -28 -43 -45l-2 -2q-18 -15 -24 -18l-4 -2q-10 -7 -22 -12q-50 -24 -108 -24h-8q-58 2 -113 26q-54 24 -94 64q-41 39 -64 95q-36 81 -40 205q-1 24 -1 72v26
l-1 288l1 71q0 243 1 366q0 55 -1 83q0 9 -1 28t-1 29l-2 96v5q0 17 2 30q6 33 35 52q25 17 54.5 16t52.5 -20q27 -22 30 -58q1 -6 1 -14v-63v-97q-2 -194 -7 -385q-4 -124 -4 -279v-105v-50q0 -92 5 -136q6 -48 19 -83q15 -37 43 -62q27 -26 65 -32q15 -3 36 -1q15 2 30 9
q24 13 42 52q16 38 25 83q36 173 33 372q-1 120 -24 384q-21 237 -23 384q0 33 19 55q20 24 50 28q29 5 53 -7q29 -15 40 -44v-1l1 -1l1 -1q0 -2 1 -6t2 -5v-3l1 -8v-1q0 -2 0.5 -6t0.5 -5v-28q0 -6 0.5 -16t0.5 -15l1 -16q4 -99 11 -190z" />
    <glyph glyph-name="U" unicode="&#xfb;" horiz-adv-x="839" 
d="M717 1067q18 -236 20 -274q10 -226 -11 -393q-2 -20 -9 -58t-7 -40q-10 -58 -23 -100q-19 -60 -49 -102q-21 -28 -43 -45l-2 -2q-18 -15 -24 -18l-4 -2q-10 -7 -22 -12q-50 -24 -108 -24h-8q-58 2 -113 26q-54 24 -94 64q-41 39 -64 95q-36 81 -40 205q-1 24 -1 72v26
l-1 288l1 71q0 243 1 366q0 55 -1 83q0 9 -1 28t-1 29l-2 96v5q0 17 2 30q6 33 35 52q25 17 54.5 16t52.5 -20q27 -22 30 -58q1 -6 1 -14v-63v-97q-2 -194 -7 -385q-4 -124 -4 -279v-105v-50q0 -92 5 -136q6 -48 19 -83q15 -37 43 -62q27 -26 65 -32q15 -3 36 -1q15 2 30 9
q24 13 42 52q16 38 25 83q36 173 33 372q-1 120 -24 384q-21 237 -23 384q0 33 19 55q20 24 50 28q29 5 53 -7q29 -15 40 -44v-1l1 -1l1 -1q0 -2 1 -6t2 -5v-3l1 -8v-1q0 -2 0.5 -6t0.5 -5v-28q0 -6 0.5 -16t0.5 -15l1 -16q4 -99 11 -190z" />
    <glyph glyph-name="U" unicode="&#xfa;" horiz-adv-x="839" 
d="M717 1067q18 -236 20 -274q10 -226 -11 -393q-2 -20 -9 -58t-7 -40q-10 -58 -23 -100q-19 -60 -49 -102q-21 -28 -43 -45l-2 -2q-18 -15 -24 -18l-4 -2q-10 -7 -22 -12q-50 -24 -108 -24h-8q-58 2 -113 26q-54 24 -94 64q-41 39 -64 95q-36 81 -40 205q-1 24 -1 72v26
l-1 288l1 71q0 243 1 366q0 55 -1 83q0 9 -1 28t-1 29l-2 96v5q0 17 2 30q6 33 35 52q25 17 54.5 16t52.5 -20q27 -22 30 -58q1 -6 1 -14v-63v-97q-2 -194 -7 -385q-4 -124 -4 -279v-105v-50q0 -92 5 -136q6 -48 19 -83q15 -37 43 -62q27 -26 65 -32q15 -3 36 -1q15 2 30 9
q24 13 42 52q16 38 25 83q36 173 33 372q-1 120 -24 384q-21 237 -23 384q0 33 19 55q20 24 50 28q29 5 53 -7q29 -15 40 -44v-1l1 -1l1 -1q0 -2 1 -6t2 -5v-3l1 -8v-1q0 -2 0.5 -6t0.5 -5v-28q0 -6 0.5 -16t0.5 -15l1 -16q4 -99 11 -190z" />
    <glyph glyph-name="U" unicode="&#xf9;" horiz-adv-x="839" 
d="M717 1067q18 -236 20 -274q10 -226 -11 -393q-2 -20 -9 -58t-7 -40q-10 -58 -23 -100q-19 -60 -49 -102q-21 -28 -43 -45l-2 -2q-18 -15 -24 -18l-4 -2q-10 -7 -22 -12q-50 -24 -108 -24h-8q-58 2 -113 26q-54 24 -94 64q-41 39 -64 95q-36 81 -40 205q-1 24 -1 72v26
l-1 288l1 71q0 243 1 366q0 55 -1 83q0 9 -1 28t-1 29l-2 96v5q0 17 2 30q6 33 35 52q25 17 54.5 16t52.5 -20q27 -22 30 -58q1 -6 1 -14v-63v-97q-2 -194 -7 -385q-4 -124 -4 -279v-105v-50q0 -92 5 -136q6 -48 19 -83q15 -37 43 -62q27 -26 65 -32q15 -3 36 -1q15 2 30 9
q24 13 42 52q16 38 25 83q36 173 33 372q-1 120 -24 384q-21 237 -23 384q0 33 19 55q20 24 50 28q29 5 53 -7q29 -15 40 -44v-1l1 -1l1 -1q0 -2 1 -6t2 -5v-3l1 -8v-1q0 -2 0.5 -6t0.5 -5v-28q0 -6 0.5 -16t0.5 -15l1 -16q4 -99 11 -190z" />
    <glyph glyph-name="U" unicode="&#xdc;" horiz-adv-x="839" 
d="M717 1067q18 -236 20 -274q10 -226 -11 -393q-2 -20 -9 -58t-7 -40q-10 -58 -23 -100q-19 -60 -49 -102q-21 -28 -43 -45l-2 -2q-18 -15 -24 -18l-4 -2q-10 -7 -22 -12q-50 -24 -108 -24h-8q-58 2 -113 26q-54 24 -94 64q-41 39 -64 95q-36 81 -40 205q-1 24 -1 72v26
l-1 288l1 71q0 243 1 366q0 55 -1 83q0 9 -1 28t-1 29l-2 96v5q0 17 2 30q6 33 35 52q25 17 54.5 16t52.5 -20q27 -22 30 -58q1 -6 1 -14v-63v-97q-2 -194 -7 -385q-4 -124 -4 -279v-105v-50q0 -92 5 -136q6 -48 19 -83q15 -37 43 -62q27 -26 65 -32q15 -3 36 -1q15 2 30 9
q24 13 42 52q16 38 25 83q36 173 33 372q-1 120 -24 384q-21 237 -23 384q0 33 19 55q20 24 50 28q29 5 53 -7q29 -15 40 -44v-1l1 -1l1 -1q0 -2 1 -6t2 -5v-3l1 -8v-1q0 -2 0.5 -6t0.5 -5v-28q0 -6 0.5 -16t0.5 -15l1 -16q4 -99 11 -190z" />
    <glyph glyph-name="U" unicode="&#xdb;" horiz-adv-x="839" 
d="M717 1067q18 -236 20 -274q10 -226 -11 -393q-2 -20 -9 -58t-7 -40q-10 -58 -23 -100q-19 -60 -49 -102q-21 -28 -43 -45l-2 -2q-18 -15 -24 -18l-4 -2q-10 -7 -22 -12q-50 -24 -108 -24h-8q-58 2 -113 26q-54 24 -94 64q-41 39 -64 95q-36 81 -40 205q-1 24 -1 72v26
l-1 288l1 71q0 243 1 366q0 55 -1 83q0 9 -1 28t-1 29l-2 96v5q0 17 2 30q6 33 35 52q25 17 54.5 16t52.5 -20q27 -22 30 -58q1 -6 1 -14v-63v-97q-2 -194 -7 -385q-4 -124 -4 -279v-105v-50q0 -92 5 -136q6 -48 19 -83q15 -37 43 -62q27 -26 65 -32q15 -3 36 -1q15 2 30 9
q24 13 42 52q16 38 25 83q36 173 33 372q-1 120 -24 384q-21 237 -23 384q0 33 19 55q20 24 50 28q29 5 53 -7q29 -15 40 -44v-1l1 -1l1 -1q0 -2 1 -6t2 -5v-3l1 -8v-1q0 -2 0.5 -6t0.5 -5v-28q0 -6 0.5 -16t0.5 -15l1 -16q4 -99 11 -190z" />
    <glyph glyph-name="U" unicode="&#xda;" horiz-adv-x="839" 
d="M717 1067q18 -236 20 -274q10 -226 -11 -393q-2 -20 -9 -58t-7 -40q-10 -58 -23 -100q-19 -60 -49 -102q-21 -28 -43 -45l-2 -2q-18 -15 -24 -18l-4 -2q-10 -7 -22 -12q-50 -24 -108 -24h-8q-58 2 -113 26q-54 24 -94 64q-41 39 -64 95q-36 81 -40 205q-1 24 -1 72v26
l-1 288l1 71q0 243 1 366q0 55 -1 83q0 9 -1 28t-1 29l-2 96v5q0 17 2 30q6 33 35 52q25 17 54.5 16t52.5 -20q27 -22 30 -58q1 -6 1 -14v-63v-97q-2 -194 -7 -385q-4 -124 -4 -279v-105v-50q0 -92 5 -136q6 -48 19 -83q15 -37 43 -62q27 -26 65 -32q15 -3 36 -1q15 2 30 9
q24 13 42 52q16 38 25 83q36 173 33 372q-1 120 -24 384q-21 237 -23 384q0 33 19 55q20 24 50 28q29 5 53 -7q29 -15 40 -44v-1l1 -1l1 -1q0 -2 1 -6t2 -5v-3l1 -8v-1q0 -2 0.5 -6t0.5 -5v-28q0 -6 0.5 -16t0.5 -15l1 -16q4 -99 11 -190z" />
    <glyph glyph-name="U" unicode="&#xd9;" horiz-adv-x="839" 
d="M717 1067q18 -236 20 -274q10 -226 -11 -393q-2 -20 -9 -58t-7 -40q-10 -58 -23 -100q-19 -60 -49 -102q-21 -28 -43 -45l-2 -2q-18 -15 -24 -18l-4 -2q-10 -7 -22 -12q-50 -24 -108 -24h-8q-58 2 -113 26q-54 24 -94 64q-41 39 -64 95q-36 81 -40 205q-1 24 -1 72v26
l-1 288l1 71q0 243 1 366q0 55 -1 83q0 9 -1 28t-1 29l-2 96v5q0 17 2 30q6 33 35 52q25 17 54.5 16t52.5 -20q27 -22 30 -58q1 -6 1 -14v-63v-97q-2 -194 -7 -385q-4 -124 -4 -279v-105v-50q0 -92 5 -136q6 -48 19 -83q15 -37 43 -62q27 -26 65 -32q15 -3 36 -1q15 2 30 9
q24 13 42 52q16 38 25 83q36 173 33 372q-1 120 -24 384q-21 237 -23 384q0 33 19 55q20 24 50 28q29 5 53 -7q29 -15 40 -44v-1l1 -1l1 -1q0 -2 1 -6t2 -5v-3l1 -8v-1q0 -2 0.5 -6t0.5 -5v-28q0 -6 0.5 -16t0.5 -15l1 -16q4 -99 11 -190z" />
    <glyph glyph-name="U" unicode="u" horiz-adv-x="839" 
d="M717 1067q18 -236 20 -274q10 -226 -11 -393q-2 -20 -9 -58t-7 -40q-10 -58 -23 -100q-19 -60 -49 -102q-21 -28 -43 -45l-2 -2q-18 -15 -24 -18l-4 -2q-10 -7 -22 -12q-50 -24 -108 -24h-8q-58 2 -113 26q-54 24 -94 64q-41 39 -64 95q-36 81 -40 205q-1 24 -1 72v26
l-1 288l1 71q0 243 1 366q0 55 -1 83q0 9 -1 28t-1 29l-2 96v5q0 17 2 30q6 33 35 52q25 17 54.5 16t52.5 -20q27 -22 30 -58q1 -6 1 -14v-63v-97q-2 -194 -7 -385q-4 -124 -4 -279v-105v-50q0 -92 5 -136q6 -48 19 -83q15 -37 43 -62q27 -26 65 -32q15 -3 36 -1q15 2 30 9
q24 13 42 52q16 38 25 83q36 173 33 372q-1 120 -24 384q-21 237 -23 384q0 33 19 55q20 24 50 28q29 5 53 -7q29 -15 40 -44v-1l1 -1l1 -1q0 -2 1 -6t2 -5v-3l1 -8v-1q0 -2 0.5 -6t0.5 -5v-28q0 -6 0.5 -16t0.5 -15l1 -16q4 -99 11 -190z" />
    <glyph glyph-name="V" unicode="V" horiz-adv-x="829" 
d="M723 1466q37 -21 45 -61q2 -11 1 -21v-4v-4l-3 -21l-18 -130q-3 -27 -10.5 -81.5t-11.5 -81.5q-45 -329 -49 -360l-88 -625q-1 -2 -1.5 -6.5t-0.5 -6.5q-5 -26 -19 -41l-1 -1q-17 -17 -39 -23h-2q-7 -2 -21 -2q-11 0 -16 1q-42 8 -62 40q-6 10 -8 16l-1 2q-1 1 -1 4
l-92 307l-299 1012q-7 30 3 55q11 27 39 41q24 11 49 8q30 -3 50 -25q15 -16 21 -40l284 -959l21 163l69 522l35 262q3 21 12 36q15 23 39 31q38 14 75 -7z" />
    <glyph glyph-name="V" unicode="v" horiz-adv-x="829" 
d="M723 1466q37 -21 45 -61q2 -11 1 -21v-4v-4l-3 -21l-18 -130q-3 -27 -10.5 -81.5t-11.5 -81.5q-45 -329 -49 -360l-88 -625q-1 -2 -1.5 -6.5t-0.5 -6.5q-5 -26 -19 -41l-1 -1q-17 -17 -39 -23h-2q-7 -2 -21 -2q-11 0 -16 1q-42 8 -62 40q-6 10 -8 16l-1 2q-1 1 -1 4
l-92 307l-299 1012q-7 30 3 55q11 27 39 41q24 11 49 8q30 -3 50 -25q15 -16 21 -40l284 -959l21 163l69 522l35 262q3 21 12 36q15 23 39 31q38 14 75 -7z" />
    <glyph glyph-name="W" unicode="W" horiz-adv-x="1015" 
d="M928 1510q27 -22 30 -60v-1q1 -1 1 -2q0 -2 -0.5 -5.5t-0.5 -5.5v-4v-3l-2 -14q-6 -48 -22 -129q-1 -6 -3.5 -17.5t-3.5 -17.5q-14 -72 -25 -161l-22 -164q-56 -412 -84 -653q-1 -11 -8 -70.5t-11 -92.5l-3 -24q-3 -22 -5 -27q-7 -22 -25.5 -36.5t-41.5 -16.5
q-24 -3 -45 9q-19 10 -32 33l-1 1v1q-8 18 -11 27q-1 2 -3 6.5t-3 6.5l-102 248q-1 -6 -4.5 -22t-5.5 -25l-44 -210q0 -2 -2 -10q-3 -9 -6 -15q-13 -28 -45 -43q-17 -8 -40 -8q-34 0 -60 19q-26 20 -34 51l-5 20q-82 334 -120 656q-22 182 -31 331l-1 16q-5 72 -8 107
t-11.5 90.5t-22.5 99.5q-9 31 2 58q11 30 39 44q25 13 51 11q30 -2 52 -22q10 -8 16 -19l1 -1l3 -6q7 -18 8 -19l1 -5q1 -3 2.5 -8.5t2.5 -8.5q5 -19 12 -47q15 -65 26 -186l13 -181q5 -67 17 -178q22 -209 48 -355q8 36 13 55q14 49 40 78q19 22 50 30t60 -3q40 -16 71 -64
q15 -24 33 -69q2 -7 7 -20t8 -20q2 -4 5 -13t4 -13l1 -4l50 480l18 164l42 368q0 1 2 11v3q1 2 2 5t1 5v1l1 2l1 1q4 11 12 22q15 23 42 34q22 10 50 8h1q32 -3 55 -23z" />
    <glyph glyph-name="W" unicode="w" horiz-adv-x="1015" 
d="M928 1510q27 -22 30 -60v-1q1 -1 1 -2q0 -2 -0.5 -5.5t-0.5 -5.5v-4v-3l-2 -14q-6 -48 -22 -129q-1 -6 -3.5 -17.5t-3.5 -17.5q-14 -72 -25 -161l-22 -164q-56 -412 -84 -653q-1 -11 -8 -70.5t-11 -92.5l-3 -24q-3 -22 -5 -27q-7 -22 -25.5 -36.5t-41.5 -16.5
q-24 -3 -45 9q-19 10 -32 33l-1 1v1q-8 18 -11 27q-1 2 -3 6.5t-3 6.5l-102 248q-1 -6 -4.5 -22t-5.5 -25l-44 -210q0 -2 -2 -10q-3 -9 -6 -15q-13 -28 -45 -43q-17 -8 -40 -8q-34 0 -60 19q-26 20 -34 51l-5 20q-82 334 -120 656q-22 182 -31 331l-1 16q-5 72 -8 107
t-11.5 90.5t-22.5 99.5q-9 31 2 58q11 30 39 44q25 13 51 11q30 -2 52 -22q10 -8 16 -19l1 -1l3 -6q7 -18 8 -19l1 -5q1 -3 2.5 -8.5t2.5 -8.5q5 -19 12 -47q15 -65 26 -186l13 -181q5 -67 17 -178q22 -209 48 -355q8 36 13 55q14 49 40 78q19 22 50 30t60 -3q40 -16 71 -64
q15 -24 33 -69q2 -7 7 -20t8 -20q2 -4 5 -13t4 -13l1 -4l50 480l18 164l42 368q0 1 2 11v3q1 2 2 5t1 5v1l1 2l1 1q4 11 12 22q15 23 42 34q22 10 50 8h1q32 -3 55 -23z" />
    <glyph glyph-name="X" unicode="X" horiz-adv-x="831" 
d="M777 148q1 -2 3.5 -6t4.5 -8.5t4 -9.5q11 -31 -4 -60q-12 -25 -37 -37q-26 -14 -54 -9q-30 5 -49 32q-2 2 -3.5 4.5t-2.5 4.5t-2 3l-44 75l-48 85q-2 4 -8 14t-9 16q-10 18 -30 56q-31 57 -105 209q-10 -25 -29 -71.5t-23 -56.5q-20 -48 -30 -71q-69 -166 -90 -253
q-6 -26 -26 -42t-47 -16q-13 0 -19 2q-30 8 -47 31q-20 27 -12 63q23 98 95 267q20 46 29 69q36 89 110 271q-3 6 -8.5 18.5t-8.5 18.5q-18 43 -37 90q-22 54 -32 80l-4 11q-19 50 -34 91q-62 175 -119 371q-10 34 4 61q13 28 43 41q27 11 54 5q33 -7 51 -31q5 -7 13 -25
q1 -4 3 -10l21 -73l28 -92l30 -91q45 -132 87 -241q136 334 204 498q17 43 64 49q48 7 75 -29q24 -32 8 -71q-130 -315 -267 -652v-1q21 -48 39 -87q30 -65 84 -173q38 -76 89 -169q6 -11 18.5 -33t18.5 -33l10 -18l36 -62l1 -1q1 -1 1 -2q0 -2 1 -2z" />
    <glyph glyph-name="X" unicode="x" horiz-adv-x="831" 
d="M777 148q1 -2 3.5 -6t4.5 -8.5t4 -9.5q11 -31 -4 -60q-12 -25 -37 -37q-26 -14 -54 -9q-30 5 -49 32q-2 2 -3.5 4.5t-2.5 4.5t-2 3l-44 75l-48 85q-2 4 -8 14t-9 16q-10 18 -30 56q-31 57 -105 209q-10 -25 -29 -71.5t-23 -56.5q-20 -48 -30 -71q-69 -166 -90 -253
q-6 -26 -26 -42t-47 -16q-13 0 -19 2q-30 8 -47 31q-20 27 -12 63q23 98 95 267q20 46 29 69q36 89 110 271q-3 6 -8.5 18.5t-8.5 18.5q-18 43 -37 90q-22 54 -32 80l-4 11q-19 50 -34 91q-62 175 -119 371q-10 34 4 61q13 28 43 41q27 11 54 5q33 -7 51 -31q5 -7 13 -25
q1 -4 3 -10l21 -73l28 -92l30 -91q45 -132 87 -241q136 334 204 498q17 43 64 49q48 7 75 -29q24 -32 8 -71q-130 -315 -267 -652v-1q21 -48 39 -87q30 -65 84 -173q38 -76 89 -169q6 -11 18.5 -33t18.5 -33l10 -18l36 -62l1 -1q1 -1 1 -2q0 -2 1 -2z" />
    <glyph glyph-name="Y" unicode="Y" horiz-adv-x="673" 
d="M611 1483q24 -17 31 -48q4 -19 -4 -45l-18 -66q-25 -89 -49 -178q-44 -169 -90 -359q-49 -202 -84 -360q-53 -242 -77 -362q-8 -33 -30 -49q-21 -16 -48 -16q-2 0 -5 0.5t-4 0.5q-27 3 -47.5 20.5t-27.5 43.5q-5 19 0 45l14 67q16 83 38 183q38 172 78 334
q-54 194 -119 378q-19 55 -47 128l-2 5q-4 9 -11 27.5t-10 27.5q-7 18 -17 54q-17 61 -35 88q-24 35 -7 73q20 42 66 45q45 3 71 -34q27 -40 51 -121q8 -28 13 -42q9 -27 36 -96q4 -11 16 -41t18 -47q28 -82 51 -151l27 104q93 341 95 349l1 1q9 28 29 42q22 16 51 14
t46 -15z" />
    <glyph glyph-name="Y" unicode="&#x178;" horiz-adv-x="673" 
d="M611 1483q24 -17 31 -48q4 -19 -4 -45l-18 -66q-25 -89 -49 -178q-44 -169 -90 -359q-49 -202 -84 -360q-53 -242 -77 -362q-8 -33 -30 -49q-21 -16 -48 -16q-2 0 -5 0.5t-4 0.5q-27 3 -47.5 20.5t-27.5 43.5q-5 19 0 45l14 67q16 83 38 183q38 172 78 334
q-54 194 -119 378q-19 55 -47 128l-2 5q-4 9 -11 27.5t-10 27.5q-7 18 -17 54q-17 61 -35 88q-24 35 -7 73q20 42 66 45q45 3 71 -34q27 -40 51 -121q8 -28 13 -42q9 -27 36 -96q4 -11 16 -41t18 -47q28 -82 51 -151l27 104q93 341 95 349l1 1q9 28 29 42q22 16 51 14
t46 -15z" />
    <glyph glyph-name="Y" unicode="&#xff;" horiz-adv-x="673" 
d="M611 1483q24 -17 31 -48q4 -19 -4 -45l-18 -66q-25 -89 -49 -178q-44 -169 -90 -359q-49 -202 -84 -360q-53 -242 -77 -362q-8 -33 -30 -49q-21 -16 -48 -16q-2 0 -5 0.5t-4 0.5q-27 3 -47.5 20.5t-27.5 43.5q-5 19 0 45l14 67q16 83 38 183q38 172 78 334
q-54 194 -119 378q-19 55 -47 128l-2 5q-4 9 -11 27.5t-10 27.5q-7 18 -17 54q-17 61 -35 88q-24 35 -7 73q20 42 66 45q45 3 71 -34q27 -40 51 -121q8 -28 13 -42q9 -27 36 -96q4 -11 16 -41t18 -47q28 -82 51 -151l27 104q93 341 95 349l1 1q9 28 29 42q22 16 51 14
t46 -15z" />
    <glyph glyph-name="Y" unicode="&#xfd;" horiz-adv-x="673" 
d="M611 1483q24 -17 31 -48q4 -19 -4 -45l-18 -66q-25 -89 -49 -178q-44 -169 -90 -359q-49 -202 -84 -360q-53 -242 -77 -362q-8 -33 -30 -49q-21 -16 -48 -16q-2 0 -5 0.5t-4 0.5q-27 3 -47.5 20.5t-27.5 43.5q-5 19 0 45l14 67q16 83 38 183q38 172 78 334
q-54 194 -119 378q-19 55 -47 128l-2 5q-4 9 -11 27.5t-10 27.5q-7 18 -17 54q-17 61 -35 88q-24 35 -7 73q20 42 66 45q45 3 71 -34q27 -40 51 -121q8 -28 13 -42q9 -27 36 -96q4 -11 16 -41t18 -47q28 -82 51 -151l27 104q93 341 95 349l1 1q9 28 29 42q22 16 51 14
t46 -15z" />
    <glyph glyph-name="Y" unicode="&#xdd;" horiz-adv-x="673" 
d="M611 1483q24 -17 31 -48q4 -19 -4 -45l-18 -66q-25 -89 -49 -178q-44 -169 -90 -359q-49 -202 -84 -360q-53 -242 -77 -362q-8 -33 -30 -49q-21 -16 -48 -16q-2 0 -5 0.5t-4 0.5q-27 3 -47.5 20.5t-27.5 43.5q-5 19 0 45l14 67q16 83 38 183q38 172 78 334
q-54 194 -119 378q-19 55 -47 128l-2 5q-4 9 -11 27.5t-10 27.5q-7 18 -17 54q-17 61 -35 88q-24 35 -7 73q20 42 66 45q45 3 71 -34q27 -40 51 -121q8 -28 13 -42q9 -27 36 -96q4 -11 16 -41t18 -47q28 -82 51 -151l27 104q93 341 95 349l1 1q9 28 29 42q22 16 51 14
t46 -15z" />
    <glyph glyph-name="Y" unicode="y" horiz-adv-x="673" 
d="M611 1483q24 -17 31 -48q4 -19 -4 -45l-18 -66q-25 -89 -49 -178q-44 -169 -90 -359q-49 -202 -84 -360q-53 -242 -77 -362q-8 -33 -30 -49q-21 -16 -48 -16q-2 0 -5 0.5t-4 0.5q-27 3 -47.5 20.5t-27.5 43.5q-5 19 0 45l14 67q16 83 38 183q38 172 78 334
q-54 194 -119 378q-19 55 -47 128l-2 5q-4 9 -11 27.5t-10 27.5q-7 18 -17 54q-17 61 -35 88q-24 35 -7 73q20 42 66 45q45 3 71 -34q27 -40 51 -121q8 -28 13 -42q9 -27 36 -96q4 -11 16 -41t18 -47q28 -82 51 -151l27 104q93 341 95 349l1 1q9 28 29 42q22 16 51 14
t46 -15z" />
    <glyph glyph-name="Z" unicode="Z" horiz-adv-x="714" 
d="M87 27q-30 22 -39 58q-8 30 -3 60q4 24 25 75l4 9q12 33 16 43q7 22 10 28l53 144q25 66 51 144l96 293q28 84 84 245l17 48q3 9 9.5 26.5t9.5 26.5q3 8 13 36t15 44q-11 -1 -33 -1t-33 -1q-105 -3 -207 -3h-2q-27 2 -47 15q-22 15 -33 40q-10 24 -7 46q2 25 15 44
q2 3 16 17l1 1q2 2 6 4l2 1q11 7 21 10v1q2 1 5 1t5 1q1 0 2 0.5t2 0.5h6q6 1 13 1h1h1h39q9 0 26 -0.5t25 -0.5q36 0 106 -2q32 -1 87 -2.5t68 -1.5l51 -2q8 0 13 -1q23 -3 43 -21q33 -30 25 -75v-2q-5 -24 -21 -40q-3 -3 -13 -9l-7 -15q-2 -4 -4.5 -10t-5 -13t-4.5 -11
q-4 -10 -21 -58l-15 -46q-14 -41 -40 -125l-99 -311q-83 -263 -99 -312q-41 -117 -56 -156q-7 -19 -33 -77l-1 -1q-2 -4 -5.5 -12t-5.5 -12l3 1q10 2 24 3l20 1q26 2 38 2h2q54 1 157 -1l111 -3h3l6 -1q24 -2 44.5 -19.5t27.5 -41.5q14 -47 -20 -85q-18 -19 -43 -25
q-1 0 -2.5 -0.5t-2.5 -0.5q-7 -1 -16 -1h-1l-87 2q-98 2 -153 2h-76q-11 0 -37 -2t-41 -2q-30 0 -49 4q-32 6 -56 25z" />
    <glyph glyph-name="Z" unicode="z" horiz-adv-x="714" 
d="M87 27q-30 22 -39 58q-8 30 -3 60q4 24 25 75l4 9q12 33 16 43q7 22 10 28l53 144q25 66 51 144l96 293q28 84 84 245l17 48q3 9 9.5 26.5t9.5 26.5q3 8 13 36t15 44q-11 -1 -33 -1t-33 -1q-105 -3 -207 -3h-2q-27 2 -47 15q-22 15 -33 40q-10 24 -7 46q2 25 15 44
q2 3 16 17l1 1q2 2 6 4l2 1q11 7 21 10v1q2 1 5 1t5 1q1 0 2 0.5t2 0.5h6q6 1 13 1h1h1h39q9 0 26 -0.5t25 -0.5q36 0 106 -2q32 -1 87 -2.5t68 -1.5l51 -2q8 0 13 -1q23 -3 43 -21q33 -30 25 -75v-2q-5 -24 -21 -40q-3 -3 -13 -9l-7 -15q-2 -4 -4.5 -10t-5 -13t-4.5 -11
q-4 -10 -21 -58l-15 -46q-14 -41 -40 -125l-99 -311q-83 -263 -99 -312q-41 -117 -56 -156q-7 -19 -33 -77l-1 -1q-2 -4 -5.5 -12t-5.5 -12l3 1q10 2 24 3l20 1q26 2 38 2h2q54 1 157 -1l111 -3h3l6 -1q24 -2 44.5 -19.5t27.5 -41.5q14 -47 -20 -85q-18 -19 -43 -25
q-1 0 -2.5 -0.5t-2.5 -0.5q-7 -1 -16 -1h-1l-87 2q-98 2 -153 2h-76q-11 0 -37 -2t-41 -2q-30 0 -49 4q-32 6 -56 25z" />
    <glyph glyph-name="grave" unicode="`" horiz-adv-x="278" 
d="M227 1347q11 -26 -4 -55q-15 -31 -49 -41q-10 -3 -20 -3q-24 0 -43.5 14.5t-29.5 39.5q-28 71 -34 156q-2 30 20 53q23 25 57 25q30 0 52 -21t24 -53q4 -55 27 -115z" />
    <glyph glyph-name="asciitilde" unicode="~" horiz-adv-x="952" 
d="M895 914v-21q0 -3 -0.5 -9.5t-0.5 -9.5q-1 -13 -5 -37q-7 -41 -23 -78q-20 -47 -58 -78q-44 -36 -98 -42q-18 -3 -46 -1h-4q-5 0 -15 2h-3l-16 3q-35 7 -70 19q-44 16 -100 43l-37 18q-59 27 -81 35h-1l-1 1q-3 1 -13 4q-2 1 -5 2t-5 1q-1 0 -3 0.5t-5 1.5t-4 1
q-1 1 -4 1t-4 1l-3 1q-2 0 -7 1t-8 1h-13h-2q-5 0 -6 -1l-1 -1q-2 -3 -5 -11q-6 -15 -7 -31q-1 -7 -1 -21v-10q0 -1 0.5 -3.5t0.5 -3.5v-1q6 -38 -17 -69t-61 -37q-5 -1 -14 -1q-34 0 -61 22.5t-32 56.5q-1 6 -1 17v1q0 3 1 8t1 7v4q0 3 0.5 10t1.5 10l2 11q1 10 5 25
q7 28 10 37q8 26 14 38q22 46 61 76q42 33 95 37q72 6 152 -23q60 -22 118 -57l11 -6q62 -34 83 -42l6 -2q10 -4 14 -5h2l5 -1q3 0 8 -2t7 -2h2l11 -2h4h6h12h3q14 3 21 23q7 17 8 36q1 7 1 22v9q0 2 -0.5 4.5t-0.5 3.5q-6 36 15.5 65.5t57.5 35.5t65.5 -15t35.5 -57
q2 -8 2 -11v-4z" />
    <glyph glyph-name="nonbreakingspace" unicode="&#xa0;" horiz-adv-x="421" 
 />
    <glyph glyph-name="softhyphen" unicode="&#xad;" 
 />
    <glyph glyph-name="Aogonek" unicode="&#x104;" horiz-adv-x="903" 
d="M854 -34q25 -38 3 -79q-21 -39 -64 -41h-4q-46 0 -83 42t-44 104q-8 69 31 121l-5 23q-5 22 -19 84.5t-22 97.5l-13 59q-4 20 -12.5 60t-13.5 60q-90 3 -199 12q-12 1 -38 3.5t-40 3.5q-1 -5 -3.5 -13.5t-3.5 -12.5q-3 -11 -9.5 -33.5t-9.5 -33.5l-52 -183l-51 -183
q-9 -34 -36 -51q-27 -19 -60 -14q-29 3 -51 22q-25 22 -30 55v2v10v3q0 7 1 11v1q1 8 3 13l21 73l52 183l51 183q9 36 25 98t22 86l10 37q55 222 86 332q59 210 119 367q12 29 36 44q22 15 54 15q11 0 21 -3h2q2 -1 3 -1q37 -2 58 -32q13 -17 16 -44l42 -253q6 -35 18 -107
q25 -149 45 -259q74 -403 150 -729v-1q6 -26 -6 -51q-11 -24 -36 -36q-1 -1 -5 -3l3 -12q23 -7 38 -30zM524 677q8 -1 23.5 -1t23.5 -1q-1 1 -1 4v5q-57 276 -83 424q-19 -67 -36 -133q-30 -111 -48 -183q-5 -21 -14 -56.5t-13 -50.5q16 0 24 -1q44 -3 124 -7z" />
    <glyph glyph-name="Aogonek" unicode="&#x105;" horiz-adv-x="903" 
d="M854 -34q25 -38 3 -79q-21 -39 -64 -41h-4q-46 0 -83 42t-44 104q-8 69 31 121l-5 23q-5 22 -19 84.5t-22 97.5l-13 59q-4 20 -12.5 60t-13.5 60q-90 3 -199 12q-12 1 -38 3.5t-40 3.5q-1 -5 -3.5 -13.5t-3.5 -12.5q-3 -11 -9.5 -33.5t-9.5 -33.5l-52 -183l-51 -183
q-9 -34 -36 -51q-27 -19 -60 -14q-29 3 -51 22q-25 22 -30 55v2v10v3q0 7 1 11v1q1 8 3 13l21 73l52 183l51 183q9 36 25 98t22 86l10 37q55 222 86 332q59 210 119 367q12 29 36 44q22 15 54 15q11 0 21 -3h2q2 -1 3 -1q37 -2 58 -32q13 -17 16 -44l42 -253q6 -35 18 -107
q25 -149 45 -259q74 -403 150 -729v-1q6 -26 -6 -51q-11 -24 -36 -36q-1 -1 -5 -3l3 -12q23 -7 38 -30zM524 677q8 -1 23.5 -1t23.5 -1q-1 1 -1 4v5q-57 276 -83 424q-19 -67 -36 -133q-30 -111 -48 -183q-5 -21 -14 -56.5t-13 -50.5q16 0 24 -1q44 -3 124 -7z" />
    <glyph glyph-name="Cacute" unicode="&#x106;" horiz-adv-x="737" 
d="M705 221q5 -48 -15 -92q-18 -40 -58 -71q-36 -27 -80 -37q-35 -7 -62 -7q-47 0 -96 13q-76 20 -138 64q-69 49 -100 124q-15 34 -21 75q-4 22 -8 68l-1 2q-8 79 -11 138q-5 87 -11 270v3q-4 140 -1 274v53q0 149 13 225q14 90 64 147q25 29 66 52q36 20 79 27
q75 12 158 -17q56 -19 131 -64q19 -11 31 -30.5t12 -41.5q2 -39 -30 -69q-39 -35 -87 -17h-2q-2 1 -6.5 3.5t-6.5 3.5h-1l-21 13q-66 37 -108 45q-24 4 -46 0q-23 -5 -33 -15q-14 -12 -20 -34q-7 -20 -10 -54q-6 -69 -10 -267v-42v-49.5v-42.5l2 -156q2 -166 8 -248
q7 -85 15 -130q1 -2 1.5 -6t0.5 -6l3 -18l1 -1q1 -9 7 -22q11 -24 25 -38q17 -17 41 -29q7 -4 26 -11q1 0 10.5 -3.5t15.5 -4.5q25 -6 57 -8q31 -2 44 4v2v1q0 1 -1 3v1v3v2l-1 5q-2 20 6 41l1 1v1q18 39 59 50h3q22 4 37 1q4 -1 9.5 -3t6.5 -2h2q3 -1 9 -5h1q7 -3 15 -13
l4 -4q1 -1 3 -4q3 -3 5 -7q5 -7 8 -19v-2q1 -5 4 -18v-4v-1q1 -1 1 -2zM456 1640q-35 0 -57 22q-30 30 -19 73q25 93 69 178q15 28 43 36.5t57 -6.5t38.5 -45.5t-5.5 -58.5q-36 -67 -55 -143q-11 -42 -51 -53q-10 -3 -20 -3z" />
    <glyph glyph-name="Cacute" unicode="&#x107;" horiz-adv-x="737" 
d="M705 221q5 -48 -15 -92q-18 -40 -58 -71q-36 -27 -80 -37q-35 -7 -62 -7q-47 0 -96 13q-76 20 -138 64q-69 49 -100 124q-15 34 -21 75q-4 22 -8 68l-1 2q-8 79 -11 138q-5 87 -11 270v3q-4 140 -1 274v53q0 149 13 225q14 90 64 147q25 29 66 52q36 20 79 27
q75 12 158 -17q56 -19 131 -64q19 -11 31 -30.5t12 -41.5q2 -39 -30 -69q-39 -35 -87 -17h-2q-2 1 -6.5 3.5t-6.5 3.5h-1l-21 13q-66 37 -108 45q-24 4 -46 0q-23 -5 -33 -15q-14 -12 -20 -34q-7 -20 -10 -54q-6 -69 -10 -267v-42v-49.5v-42.5l2 -156q2 -166 8 -248
q7 -85 15 -130q1 -2 1.5 -6t0.5 -6l3 -18l1 -1q1 -9 7 -22q11 -24 25 -38q17 -17 41 -29q7 -4 26 -11q1 0 10.5 -3.5t15.5 -4.5q25 -6 57 -8q31 -2 44 4v2v1q0 1 -1 3v1v3v2l-1 5q-2 20 6 41l1 1v1q18 39 59 50h3q22 4 37 1q4 -1 9.5 -3t6.5 -2h2q3 -1 9 -5h1q7 -3 15 -13
l4 -4q1 -1 3 -4q3 -3 5 -7q5 -7 8 -19v-2q1 -5 4 -18v-4v-1q1 -1 1 -2zM456 1640q-35 0 -57 22q-30 30 -19 73q25 93 69 178q15 28 43 36.5t57 -6.5t38.5 -45.5t-5.5 -58.5q-36 -67 -55 -143q-11 -42 -51 -53q-10 -3 -20 -3z" />
    <glyph glyph-name="Eogonek" unicode="&#x118;" horiz-adv-x="731" 
d="M716 -89q19 -42 -6 -79q-20 -29 -58 -29h-7q-81 8 -136 79q-40 53 -29 110q-19 -1 -55 -1q-42 0 -63 1q-3 0 -8.5 0.5t-8.5 0.5q-5 0 -21 0.5t-25 1.5q-51 6 -82 27q-23 16 -37 39q0 1 -0.5 1t-0.5 1q-11 21 -16 44q-14 73 -22 217l-1 29l-15 240l-7 121l-5 121
q-8 213 -8 483q0 21 -1 32q0 4 -0.5 13t-0.5 14q0 48 8 75q7 27 27.5 47.5t46.5 28.5q18 5 39 7q10 1 34 1q32 0 48 -1l14 -1l120 -3h59q30 0 51 -19t25 -47q5 -28 -9.5 -52.5t-39.5 -33.5q-13 -5 -33 -5h-4l-220 -2l2 -14q0 -7 0.5 -20.5t1.5 -20.5q0 -3 0.5 -10t0.5 -11
q0 -10 1 -30.5t2 -30.5l3 -59q8 -168 11 -241q1 -21 2.5 -58.5t1.5 -53.5q5 0 13 -0.5t13 -0.5l115 1h5h2h5q1 0 21 -4q3 0 5 -2q26 -11 38 -32q24 -39 4 -82q-9 -21 -29.5 -34.5t-44.5 -13.5q-74 -1 -140 3q9 -189 9 -203l3 -63q3 -98 10 -175q1 -5 1 -17q2 -26 4 -30l2 -3
q2 -2 9 -3q11 -2 39 -2h14q18 0 56 2q66 5 116 13l37 5q8 2 11 2q18 1 37 -5q36 -12 53 -45q19 -36 5 -73v-2l-2 -5q-2 -6 -4 -8l-3 -4q-6 -9 -15 -16l-1 -1l-1 -1q-4 -3 -10 -6l-5 -3h-2q-1 -1 -2 -1q-2 0 -2 -1l-7.5 -2.5t-5.5 -1.5h-2l-1 -1h-2h-1q-8 -15 -5 -34
q5 -13 18 -19q43 -5 61 -44z" />
    <glyph glyph-name="Eogonek" unicode="&#x119;" horiz-adv-x="731" 
d="M716 -89q19 -42 -6 -79q-20 -29 -58 -29h-7q-81 8 -136 79q-40 53 -29 110q-19 -1 -55 -1q-42 0 -63 1q-3 0 -8.5 0.5t-8.5 0.5q-5 0 -21 0.5t-25 1.5q-51 6 -82 27q-23 16 -37 39q0 1 -0.5 1t-0.5 1q-11 21 -16 44q-14 73 -22 217l-1 29l-15 240l-7 121l-5 121
q-8 213 -8 483q0 21 -1 32q0 4 -0.5 13t-0.5 14q0 48 8 75q7 27 27.5 47.5t46.5 28.5q18 5 39 7q10 1 34 1q32 0 48 -1l14 -1l120 -3h59q30 0 51 -19t25 -47q5 -28 -9.5 -52.5t-39.5 -33.5q-13 -5 -33 -5h-4l-220 -2l2 -14q0 -7 0.5 -20.5t1.5 -20.5q0 -3 0.5 -10t0.5 -11
q0 -10 1 -30.5t2 -30.5l3 -59q8 -168 11 -241q1 -21 2.5 -58.5t1.5 -53.5q5 0 13 -0.5t13 -0.5l115 1h5h2h5q1 0 21 -4q3 0 5 -2q26 -11 38 -32q24 -39 4 -82q-9 -21 -29.5 -34.5t-44.5 -13.5q-74 -1 -140 3q9 -189 9 -203l3 -63q3 -98 10 -175q1 -5 1 -17q2 -26 4 -30l2 -3
q2 -2 9 -3q11 -2 39 -2h14q18 0 56 2q66 5 116 13l37 5q8 2 11 2q18 1 37 -5q36 -12 53 -45q19 -36 5 -73v-2l-2 -5q-2 -6 -4 -8l-3 -4q-6 -9 -15 -16l-1 -1l-1 -1q-4 -3 -10 -6l-5 -3h-2q-1 -1 -2 -1q-2 0 -2 -1l-7.5 -2.5t-5.5 -1.5h-2l-1 -1h-2h-1q-8 -15 -5 -34
q5 -13 18 -19q43 -5 61 -44z" />
    <glyph glyph-name="Lslash" unicode="&#x141;" horiz-adv-x="727" 
d="M692 139q27 -23 25 -62q-2 -34 -26 -57q-27 -26 -65 -21q-2 0 -6.5 0.5t-6.5 1.5q-1 0 -2 0.5t-2 0.5h-1q-1 0 -3.5 0.5t-3.5 0.5l-6 1q-38 5 -105 -1q-17 -1 -46 -5l-11 -2q-36 -4 -58 -7q-30 -4 -51 -4q-14 0 -21 1q-24 2 -46 11l-6 3t-7.5 3.5t-6.5 3.5q-25 10 -39 32
q-7 10 -11 23q-2 4 -2 8q-1 6 -1 19v579l-26 -16q-33 -21 -66 -2q-21 11 -34.5 35t-14.5 52q-2 50 36 73q37 22 64 36q28 14 41 22v14q0 351 -4 536v2q2 27 16 46q15 21 43 28q25 7 49.5 -2t37.5 -30q8 -11 10 -21v-1q2 -6 2 -8v-2q0 -2 0.5 -6.5t0.5 -7.5l8 -465l1 1
q2 0 2 1q42 24 61 35q36 21 78 11t60 -39q13 -17 7.5 -41.5t-29.5 -39.5l-177 -109q3 -189 5 -598h13l32 2h29q144 4 219 -17l3 -1h3.5t3.5 -1q3 -1 8 -3t6 -3t3.5 -1t3.5 -1q5 -2 13 -8z" />
    <glyph glyph-name="Lslash" unicode="&#x142;" horiz-adv-x="727" 
d="M692 139q27 -23 25 -62q-2 -34 -26 -57q-27 -26 -65 -21q-2 0 -6.5 0.5t-6.5 1.5q-1 0 -2 0.5t-2 0.5h-1q-1 0 -3.5 0.5t-3.5 0.5l-6 1q-38 5 -105 -1q-17 -1 -46 -5l-11 -2q-36 -4 -58 -7q-30 -4 -51 -4q-14 0 -21 1q-24 2 -46 11l-6 3t-7.5 3.5t-6.5 3.5q-25 10 -39 32
q-7 10 -11 23q-2 4 -2 8q-1 6 -1 19v579l-26 -16q-33 -21 -66 -2q-21 11 -34.5 35t-14.5 52q-2 50 36 73q37 22 64 36q28 14 41 22v14q0 351 -4 536v2q2 27 16 46q15 21 43 28q25 7 49.5 -2t37.5 -30q8 -11 10 -21v-1q2 -6 2 -8v-2q0 -2 0.5 -6.5t0.5 -7.5l8 -465l1 1
q2 0 2 1q42 24 61 35q36 21 78 11t60 -39q13 -17 7.5 -41.5t-29.5 -39.5l-177 -109q3 -189 5 -598h13l32 2h29q144 4 219 -17l3 -1h3.5t3.5 -1q3 -1 8 -3t6 -3t3.5 -1t3.5 -1q5 -2 13 -8z" />
    <glyph glyph-name="Nacute" unicode="&#x143;" horiz-adv-x="886" 
d="M760 762l27 -711q0 -31 -17 -54q-18 -24 -49 -32q-7 -2 -21 -2q-46 0 -72 35q-16 20 -17 49v1l-9 245l-4 122v1h-1l-1 2q-7 10 -10 17q-1 3 -5 13l-5 15q-16 47 -54 119q-37 70 -102 174q-8 12 -21 34t-17 28q-26 43 -95 168l13 -219q22 -391 48 -698q2 -35 -14 -56
q-19 -27 -50 -34q-56 -13 -92 31q-17 20 -20 48v1l-5 66l-13 175q-14 193 -23 351q-16 273 -21 350l-11 176l-9 175v2q0 30 15 51q19 26 46 33q21 7 43 2q16 0 31 -6q1 0 1 -0.5t1 -0.5q21 -9 34 -28q7 -9 10 -16q1 -1 1 -2v-2l9 -16l66 -123l66 -122q46 -82 68 -120l19 -32
q34 -58 52 -87q5 -8 15.5 -25t15.5 -25q1 -1 1 -2t1 -2l-3 84l-5 139q-11 283 -12 306v1q0 28 16 50q17 23 45 31q25 7 51 -1.5t42 -29.5q17 -22 17 -49l2 -67l7 -178zM444 1444q-35 0 -57 22q-30 30 -19 73q25 93 69 178q15 28 43 36.5t57 -6.5t38.5 -45.5t-5.5 -58.5
q-36 -67 -55 -143q-11 -44 -50 -54q-7 -2 -21 -2z" />
    <glyph glyph-name="Nacute" unicode="&#x144;" horiz-adv-x="886" 
d="M760 762l27 -711q0 -31 -17 -54q-18 -24 -49 -32q-7 -2 -21 -2q-46 0 -72 35q-16 20 -17 49v1l-9 245l-4 122v1h-1l-1 2q-7 10 -10 17q-1 3 -5 13l-5 15q-16 47 -54 119q-37 70 -102 174q-8 12 -21 34t-17 28q-26 43 -95 168l13 -219q22 -391 48 -698q2 -35 -14 -56
q-19 -27 -50 -34q-56 -13 -92 31q-17 20 -20 48v1l-5 66l-13 175q-14 193 -23 351q-16 273 -21 350l-11 176l-9 175v2q0 30 15 51q19 26 46 33q21 7 43 2q16 0 31 -6q1 0 1 -0.5t1 -0.5q21 -9 34 -28q7 -9 10 -16q1 -1 1 -2v-2l9 -16l66 -123l66 -122q46 -82 68 -120l19 -32
q34 -58 52 -87q5 -8 15.5 -25t15.5 -25q1 -1 1 -2t1 -2l-3 84l-5 139q-11 283 -12 306v1q0 28 16 50q17 23 45 31q25 7 51 -1.5t42 -29.5q17 -22 17 -49l2 -67l7 -178zM444 1444q-35 0 -57 22q-30 30 -19 73q25 93 69 178q15 28 43 36.5t57 -6.5t38.5 -45.5t-5.5 -58.5
q-36 -67 -55 -143q-11 -44 -50 -54q-7 -2 -21 -2z" />
    <glyph glyph-name="Sacute" unicode="&#x15a;" horiz-adv-x="772" 
d="M698 675q16 -69 14 -158q-2 -84 -18 -157q-21 -90 -56 -152q-27 -46 -46 -69q-27 -33 -59 -60q-37 -30 -70 -47q-41 -21 -81 -30q-17 -4 -34 -6l-8 -1h-4l-6 -1h-20q-12 0 -18 1q-54 5 -93 31q-67 43 -108 138q-30 70 -38 157q-2 32 -2 40q0 3 0.5 7.5t0.5 6.5v2
q2 12 5 19l1 1q0 1 1 3t1 3q13 24 31 33q22 12 40 12q19 1 39 -7q22 -10 35 -28l2 -2q7 -14 9 -20q4 -11 4 -20v-3q0 -71 22 -127q12 -30 28 -49q18 -20 37 -24q12 -3 22 -2q17 2 25 5q28 9 54 27q50 34 82 94q28 50 40 125q11 67 8 137q-1 22 -7 68q-5 38 -14 64
q-12 33 -26 49q-13 15 -46 31q-6 3 -18 7.5t-17 6.5q-17 6 -32 13l-28 14l-8 4q-15 8 -23 14q-2 1 -5.5 3.5t-4.5 3.5h-1q-2 0 -2 1q-65 46 -111 120q-43 70 -55 154q-12 78 12 164q24 79 79 145q60 72 140 100q49 16 92 12q44 -4 89 -27l1 -1h1q20 -11 31 -29
q13 -22 12 -47q-3 -46 -41 -71q-41 -28 -86 -4l-12 5h-2l-2 1q-1 0 -3 0.5t-3 0.5q-19 2 -37 -8q-19 -10 -42 -34q-43 -49 -55 -104q-14 -60 3 -116q19 -59 61 -98q31 -28 109 -62l10 -4q39 -17 66 -35q38 -24 67 -61q27 -34 44 -79l1 -1q15 -38 23 -79zM436 1584
q-32 8 -48 34.5t-8 58.5q14 56 40 108q14 28 45 37q34 10 61 -7q26 -15 34.5 -44t-5.5 -58q-18 -34 -28 -75q-7 -25 -26 -40.5t-45 -15.5q-13 0 -20 2z" />
    <glyph glyph-name="Sacute" unicode="&#x15b;" horiz-adv-x="772" 
d="M698 675q16 -69 14 -158q-2 -84 -18 -157q-21 -90 -56 -152q-27 -46 -46 -69q-27 -33 -59 -60q-37 -30 -70 -47q-41 -21 -81 -30q-17 -4 -34 -6l-8 -1h-4l-6 -1h-20q-12 0 -18 1q-54 5 -93 31q-67 43 -108 138q-30 70 -38 157q-2 32 -2 40q0 3 0.5 7.5t0.5 6.5v2
q2 12 5 19l1 1q0 1 1 3t1 3q13 24 31 33q22 12 40 12q19 1 39 -7q22 -10 35 -28l2 -2q7 -14 9 -20q4 -11 4 -20v-3q0 -71 22 -127q12 -30 28 -49q18 -20 37 -24q12 -3 22 -2q17 2 25 5q28 9 54 27q50 34 82 94q28 50 40 125q11 67 8 137q-1 22 -7 68q-5 38 -14 64
q-12 33 -26 49q-13 15 -46 31q-6 3 -18 7.5t-17 6.5q-17 6 -32 13l-28 14l-8 4q-15 8 -23 14q-2 1 -5.5 3.5t-4.5 3.5h-1q-2 0 -2 1q-65 46 -111 120q-43 70 -55 154q-12 78 12 164q24 79 79 145q60 72 140 100q49 16 92 12q44 -4 89 -27l1 -1h1q20 -11 31 -29
q13 -22 12 -47q-3 -46 -41 -71q-41 -28 -86 -4l-12 5h-2l-2 1q-1 0 -3 0.5t-3 0.5q-19 2 -37 -8q-19 -10 -42 -34q-43 -49 -55 -104q-14 -60 3 -116q19 -59 61 -98q31 -28 109 -62l10 -4q39 -17 66 -35q38 -24 67 -61q27 -34 44 -79l1 -1q15 -38 23 -79zM436 1584
q-32 8 -48 34.5t-8 58.5q14 56 40 108q14 28 45 37q34 10 61 -7q26 -15 34.5 -44t-5.5 -58q-18 -34 -28 -75q-7 -25 -26 -40.5t-45 -15.5q-13 0 -20 2z" />
    <glyph glyph-name="Zacute" unicode="&#x179;" horiz-adv-x="714" 
d="M671 118q14 -47 -20 -85q-18 -19 -43 -25q-1 0 -2.5 -0.5t-2.5 -0.5q-7 -1 -16 -1h-1l-87 2q-147 3 -153 3q-14 0 -39 -0.5t-37 -0.5q-11 0 -37 -2t-41 -2q-30 0 -49 4q-32 6 -56 25q-30 22 -39 58q-9 31 -3 61q4 22 25 74l4 9q12 33 16 43q7 22 10 28l53 144
q25 66 51 144l96 293q28 84 84 245l17 48q3 9 9.5 26.5t9.5 26.5q3 8 13 36t15 44q-11 -1 -33 -1t-33 -1q-105 -3 -207 -3h-2q-27 2 -47 15q-22 15 -33 40q-10 24 -7 46q2 23 16 44q3 5 15 17l1 1q4 4 6 5l2 1q8 5 21 9v1q2 1 5 1t5 1q1 0 2 0.5t2 0.5h6q6 1 13 1h1h2h38
q9 0 26 -0.5t26 -0.5q35 0 105 -2q32 -1 87 -2.5t68 -1.5l51 -2q8 0 13 -1q23 -3 43 -21q33 -30 25 -75v-2q-5 -23 -21 -39q-1 -1 -13 -10l-7 -14q-2 -4 -4.5 -10t-5 -13t-4.5 -11q-2 -5 -21 -59l-15 -46q-14 -41 -40 -125l-99 -311q-83 -263 -99 -312q-41 -117 -56 -156
q-18 -45 -33 -77l-1 -1q-2 -4 -5.5 -12t-5.5 -12l3 1q10 2 24 3l20 1q24 2 38 2h2q54 1 157 -1l111 -3h3l6 -1q24 -2 44.5 -19.5t27.5 -41.5zM400 1549q-47 2 -68 41q-20 36 2 74q46 77 83 155q17 38 58 41q45 3 71 -34q25 -36 6 -78q-45 -96 -86 -162q-23 -37 -64 -37h-2z
" />
    <glyph glyph-name="Zacute" unicode="&#x17a;" horiz-adv-x="714" 
d="M671 118q14 -47 -20 -85q-18 -19 -43 -25q-1 0 -2.5 -0.5t-2.5 -0.5q-7 -1 -16 -1h-1l-87 2q-147 3 -153 3q-14 0 -39 -0.5t-37 -0.5q-11 0 -37 -2t-41 -2q-30 0 -49 4q-32 6 -56 25q-30 22 -39 58q-9 31 -3 61q4 22 25 74l4 9q12 33 16 43q7 22 10 28l53 144
q25 66 51 144l96 293q28 84 84 245l17 48q3 9 9.5 26.5t9.5 26.5q3 8 13 36t15 44q-11 -1 -33 -1t-33 -1q-105 -3 -207 -3h-2q-27 2 -47 15q-22 15 -33 40q-10 24 -7 46q2 23 16 44q3 5 15 17l1 1q4 4 6 5l2 1q8 5 21 9v1q2 1 5 1t5 1q1 0 2 0.5t2 0.5h6q6 1 13 1h1h2h38
q9 0 26 -0.5t26 -0.5q35 0 105 -2q32 -1 87 -2.5t68 -1.5l51 -2q8 0 13 -1q23 -3 43 -21q33 -30 25 -75v-2q-5 -23 -21 -39q-1 -1 -13 -10l-7 -14q-2 -4 -4.5 -10t-5 -13t-4.5 -11q-2 -5 -21 -59l-15 -46q-14 -41 -40 -125l-99 -311q-83 -263 -99 -312q-41 -117 -56 -156
q-18 -45 -33 -77l-1 -1q-2 -4 -5.5 -12t-5.5 -12l3 1q10 2 24 3l20 1q24 2 38 2h2q54 1 157 -1l111 -3h3l6 -1q24 -2 44.5 -19.5t27.5 -41.5zM400 1549q-47 2 -68 41q-20 36 2 74q46 77 83 155q17 38 58 41q45 3 71 -34q25 -36 6 -78q-45 -96 -86 -162q-23 -37 -64 -37h-2z
" />
    <glyph glyph-name="Zdot" unicode="&#x17b;" horiz-adv-x="714" 
d="M671 104q14 -47 -20 -85q-18 -19 -43 -25q-1 0 -2.5 -0.5t-2.5 -0.5q-7 -1 -16 -1h-1l-87 2q-147 3 -153 3q-14 0 -39 -0.5t-37 -0.5q-11 0 -37 -2q-13 -1 -41 -1q-30 0 -49 4q-34 6 -56 24q-30 22 -39 58q-9 31 -3 61q4 22 25 74l4 9q12 33 16 43q7 22 10 28l53 144
q25 66 51 144l96 293q28 84 84 245l17 48q3 9 9.5 26.5t9.5 26.5q27 78 28 81l-66 -3q-70 -2 -207 -2h-2q-29 2 -47 14q-22 15 -33 40q-10 24 -7 46q2 25 15 44q2 3 16 17l1 1q4 4 6 5l2 1q11 7 21 10q2 1 5 1t5 1q1 0 2 0.5t2 0.5l6 1h5.5h4.5h3h1h2h38q9 0 26 -0.5
t25 -0.5q36 0 106 -2q32 -1 88 -2.5t68 -1.5l50 -2q8 0 13 -1q23 -3 43 -21q33 -30 25 -75v-1q-5 -24 -21 -40q-6 -6 -13 -10l-7 -14q-2 -4 -4.5 -10t-5 -13t-4.5 -11q-2 -5 -21 -59l-15 -46q-5 -16 -19 -58.5t-21 -65.5l-99 -312q-83 -263 -99 -312q-41 -117 -56 -156
q-18 -45 -33 -77l-1 -1q-2 -4 -5.5 -12t-5.5 -12l3 1q10 2 24 3l20 1q24 2 38 2h2q54 1 157 -1l111 -3h3h6q25 -2 45 -19.5t27 -42.5zM391 1524q-43 0 -75 30t-27 75q5 47 42 70q48 31 96 12q36 -14 47 -52q6 -21 3 -45q3 -33 -18 -59q-22 -28 -61 -30q-1 0 -3.5 -0.5
t-3.5 -0.5z" />
    <glyph glyph-name="Zdot" unicode="&#x17c;" horiz-adv-x="714" 
d="M671 104q14 -47 -20 -85q-18 -19 -43 -25q-1 0 -2.5 -0.5t-2.5 -0.5q-7 -1 -16 -1h-1l-87 2q-147 3 -153 3q-14 0 -39 -0.5t-37 -0.5q-11 0 -37 -2q-13 -1 -41 -1q-30 0 -49 4q-34 6 -56 24q-30 22 -39 58q-9 31 -3 61q4 22 25 74l4 9q12 33 16 43q7 22 10 28l53 144
q25 66 51 144l96 293q28 84 84 245l17 48q3 9 9.5 26.5t9.5 26.5q27 78 28 81l-66 -3q-70 -2 -207 -2h-2q-29 2 -47 14q-22 15 -33 40q-10 24 -7 46q2 25 15 44q2 3 16 17l1 1q4 4 6 5l2 1q11 7 21 10q2 1 5 1t5 1q1 0 2 0.5t2 0.5l6 1h5.5h4.5h3h1h2h38q9 0 26 -0.5
t25 -0.5q36 0 106 -2q32 -1 88 -2.5t68 -1.5l50 -2q8 0 13 -1q23 -3 43 -21q33 -30 25 -75v-1q-5 -24 -21 -40q-6 -6 -13 -10l-7 -14q-2 -4 -4.5 -10t-5 -13t-4.5 -11q-2 -5 -21 -59l-15 -46q-5 -16 -19 -58.5t-21 -65.5l-99 -312q-83 -263 -99 -312q-41 -117 -56 -156
q-18 -45 -33 -77l-1 -1q-2 -4 -5.5 -12t-5.5 -12l3 1q10 2 24 3l20 1q24 2 38 2h2q54 1 157 -1l111 -3h3h6q25 -2 45 -19.5t27 -42.5zM391 1524q-43 0 -75 30t-27 75q5 47 42 70q48 31 96 12q36 -14 47 -52q6 -21 3 -45q3 -33 -18 -59q-22 -28 -61 -30q-1 0 -3.5 -0.5
t-3.5 -0.5z" />
    <glyph glyph-name="quotedblbase" unicode="&#x201e;" horiz-adv-x="460" 
d="M241 129q11 -31 -6 -62q-42 -74 -68 -159q-10 -33 -39 -46t-58 -4q-28 9 -44 34t-6 58q32 101 83 193q18 31 48 37q5 1 14 1q22 0 39 -10q28 -16 37 -42zM406 115q25 -30 11 -69q-19 -54 -22 -115q-2 -44 -40 -65q-42 -21 -81 3q-34 21 -32 63q3 83 29 158q14 42 58 50
q10 2 16 2q37 0 61 -27z" />
    </font>
</defs>
</svg>
